<?xml version="1.0" encoding="UTF-8"?>
<svg id="Layer_1" data-name="Layer 1" xmlns="http://www.w3.org/2000/svg" version="1.1" xmlns:xlink="http://www.w3.org/1999/xlink" viewBox="0 0 414 1888">
  <defs>
    <style>
      .cls-1 {
        font-size: 11.2px;
      }

      .cls-1, .cls-2, .cls-3, .cls-4, .cls-5, .cls-6, .cls-7, .cls-8, .cls-9, .cls-10, .cls-11, .cls-12, .cls-13, .cls-14, .cls-15, .cls-16, .cls-17, .cls-18, .cls-19, .cls-20 {
        fill: #000;
      }

      .cls-1, .cls-3, .cls-21, .cls-4, .cls-5, .cls-6, .cls-7, .cls-8, .cls-9, .cls-10, .cls-11, .cls-12, .cls-13, .cls-14, .cls-15, .cls-16, .cls-17, .cls-18, .cls-19, .cls-20 {
        isolation: isolate;
      }

      .cls-1, .cls-3, .cls-4, .cls-5, .cls-6, .cls-7, .cls-8, .cls-9, .cls-10, .cls-11, .cls-12, .cls-13, .cls-14, .cls-15, .cls-16, .cls-17, .cls-18, .cls-19, .cls-20 {
        font-family: ArialMT, Arial;
      }

      .cls-2 {
        stroke-width: 0px;
      }

      .cls-3 {
        font-size: 11.9px;
      }

      .cls-4 {
        font-size: 29.2px;
      }

      .cls-5 {
        font-size: 13.4px;
      }

      .cls-6 {
        font-size: 8.8px;
      }

      .cls-7 {
        font-size: 8.7px;
      }

      .cls-8 {
        font-size: 6.5px;
      }

      .cls-9 {
        font-size: 11.7px;
      }

      .cls-10 {
        font-size: 7px;
      }

      .cls-11 {
        font-size: 10.9px;
      }

      .cls-12 {
        font-size: 10.5px;
      }

      .cls-13 {
        font-size: 12.2px;
      }

      .cls-14 {
        font-size: 11.1px;
      }

      .cls-15 {
        font-size: 9.8px;
      }

      .cls-16 {
        font-size: 10.9px;
      }

      .cls-17 {
        font-size: 8.8px;
      }

      .cls-18 {
        font-size: 25px;
      }

      .cls-19 {
        font-size: 8.4px;
      }

      .cls-20 {
        font-size: 10.6px;
      }
    </style>
  </defs>
  <g class="cls-21">
    <text class="cls-4" transform="translate(25.6 62.4) scale(.6 1)"><tspan x="0" y="0">Šarlote Kristīne Huke</tspan></text>
  </g>
  <g class="cls-21">
    <text class="cls-18" transform="translate(24.7 101.7) scale(.6 1)"><tspan x="0" y="0">The esoteric artist</tspan></text>
  </g>
  <g>
    <path class="cls-2" d="M22.5,132.1c.4.3,1,.5,1.6.5.9,0,1.4-.5,1.4-1.3s-.4-1.1-1.3-1.5c-1.1-.4-1.8-1.1-1.8-2.2s.9-2.1,2.2-2.1,1.2.2,1.5.4l-.2.8c-.2-.1-.7-.4-1.3-.4-.9,0-1.3.6-1.3,1.1s.4,1.1,1.4,1.5c1.2.5,1.7,1.1,1.7,2.3s-.8,2.2-2.4,2.2-1.4-.2-1.7-.5l.2-.8h0ZM24.1,125.2l-1.1-1.3h.7l.6.8h0l.6-.8h.7l-1,1.3h-.7,0Z"/>
    <path class="cls-2" d="M30.3,133.3v-.7h-.1c-.3.4-.8.8-1.5.8-1,0-1.5-.8-1.5-1.6,0-1.3,1.1-2.1,3-2h0c0-.6-.1-1.4-1.1-1.4s-.9.2-1.3.4l-.2-.7c.4-.3,1-.5,1.6-.5,1.5,0,1.9,1.1,1.9,2.3v2.1c0,.5,0,.9,0,1.3h-.8,0ZM30.2,130.5c-1,0-2.1.2-2.1,1.2s.4,1,.8,1,1-.5,1.2-.9c0-.1,0-.2,0-.3v-1Z"/>
    <path class="cls-2" d="M32.5,129.5c0-.7,0-1.2,0-1.7h.8v1.1h0c.2-.7.8-1.2,1.4-1.2s.2,0,.3,0v.9c0,0-.2,0-.3,0-.6,0-1.1.5-1.2,1.3,0,.1,0,.3,0,.5v2.9h-.9v-3.8h0Z"/>
    <path class="cls-2" d="M35.9,125.2h.9v8.1h-.9v-8.1Z"/>
    <path class="cls-2" d="M42.7,130.5c0,2-1.3,2.9-2.4,2.9s-2.4-1.1-2.4-2.8,1.1-2.9,2.4-2.9,2.4,1.1,2.4,2.8ZM38.8,130.6c0,1.2.6,2.1,1.5,2.1s1.5-.9,1.5-2.1-.4-2.1-1.5-2.1-1.5,1.1-1.5,2.1h0Z"/>
    <path class="cls-2" d="M44.9,126.2v1.6h1.3v.8h-1.3v3c0,.7.2,1.1.7,1.1s.4,0,.5,0v.8c-.1,0-.4.1-.8.1s-.7-.1-1-.4c-.3-.3-.3-.8-.3-1.4v-3h-.8v-.8h.8v-1.3l.9-.3h0Z"/>
    <path class="cls-2" d="M47.6,130.7c0,1.4.8,1.9,1.7,1.9s1-.1,1.4-.3v.7c-.2.2-.7.3-1.5.3-1.5,0-2.4-1.1-2.4-2.8s.9-3,2.3-3,2,1.6,2,2.6,0,.4,0,.5h-3.5,0ZM50.3,130c0-.6-.2-1.6-1.2-1.6s-1.3.9-1.4,1.6h2.6,0Z"/>
    <path class="cls-2" d="M54.7,127.8l.6,2.8c.1.6.3,1.2.4,1.8h0c.1-.6.3-1.1.4-1.7l.8-2.8h.7l.8,2.8c.2.7.3,1.2.4,1.8h0c0-.6.2-1.1.4-1.8l.7-2.8h.9l-1.6,5.5h-.8l-.7-2.6c-.2-.6-.3-1.2-.4-1.8h0c-.1.7-.3,1.2-.4,1.8l-.8,2.6h-.8l-1.5-5.5h.9Z"/>
    <path class="cls-2" d="M64.5,133.3v-.7h-.1c-.3.4-.8.8-1.5.8-1,0-1.5-.8-1.5-1.6,0-1.3,1.1-2.1,3-2h0c0-.6-.1-1.4-1.1-1.4s-.9.2-1.3.4l-.2-.7c.4-.3,1-.5,1.6-.5,1.5,0,1.9,1.1,1.9,2.3v2.1c0,.5,0,.9,0,1.3h-.8,0ZM64.4,130.5c-1,0-2.1.2-2.1,1.2s.4,1,.8,1,1-.5,1.2-.9c0-.1,0-.2,0-.3v-1h0Z"/>
    <path class="cls-2" d="M66.6,132.3c.3.2.7.4,1.2.4.6,0,1-.4,1-.8s-.3-.7-.9-1c-.9-.4-1.3-.9-1.3-1.6s.6-1.6,1.7-1.6.9.2,1.2.3l-.2.7c-.2-.1-.5-.3-1-.3s-.8.3-.8.8.3.7.9.9c.9.4,1.3.8,1.3,1.7s-.7,1.6-1.8,1.6-1-.1-1.4-.4l.2-.8h0Z"/>
    <path class="cls-2" d="M72.8,133.3c0-.4,0-.9,0-1.4v-6.7h.9v3.5h0c.3-.6.9-1,1.7-1,1.2,0,2.1,1.1,2.1,2.8,0,2-1.1,2.9-2.2,2.9s-1.3-.3-1.6-1h0v.9h-.8,0ZM73.8,131.1c0,.1,0,.2,0,.4.2.7.7,1.2,1.3,1.2.9,0,1.5-.9,1.5-2.1s-.5-2-1.5-2-1.2.5-1.4,1.2c0,.1,0,.2,0,.4v1h0Z"/>
    <path class="cls-2" d="M83.1,130.5c0,2-1.3,2.9-2.4,2.9s-2.4-1.1-2.4-2.8,1.1-2.9,2.4-2.9,2.4,1.1,2.4,2.8ZM79.2,130.6c0,1.2.6,2.1,1.5,2.1s1.5-.9,1.5-2.1-.4-2.1-1.5-2.1-1.5,1.1-1.5,2.1h0Z"/>
    <path class="cls-2" d="M84.2,129.5c0-.7,0-1.2,0-1.7h.8v1.1h0c.2-.7.8-1.2,1.4-1.2s.2,0,.3,0v.9c0,0-.2,0-.3,0-.6,0-1.1.5-1.2,1.3,0,.1,0,.3,0,.5v2.9h-.9v-3.8h0Z"/>
    <path class="cls-2" d="M87.6,129.3c0-.6,0-1,0-1.5h.8v.9h0c.2-.5.8-1,1.6-1s1.7.5,1.7,2.3v3.3h-.9v-3.2c0-.9-.3-1.6-1.1-1.6s-1,.5-1.2,1c0,.1,0,.3,0,.5v3.3h-.9v-4h0Z"/>
    <path class="cls-2" d="M95.4,125.2h.9v8.1h-.9v-8.1Z"/>
    <path class="cls-2" d="M100.5,133.3v-.7h-.1c-.3.4-.8.8-1.5.8-1,0-1.5-.8-1.5-1.6,0-1.3,1.1-2.1,3-2h0c0-.6-.1-1.4-1.1-1.4s-.9.2-1.3.4l-.2-.7c.4-.3,1-.5,1.6-.5,1.5,0,1.9,1.1,1.9,2.3v2.1c0,.5,0,.9,0,1.3h-.8,0ZM100.4,130.5c-1,0-2.1.2-2.1,1.2s.4,1,.8,1,1-.5,1.2-.9c0-.1,0-.2,0-.3v-1h0Z"/>
    <path class="cls-2" d="M103.7,126.2v1.6h1.3v.8h-1.3v3c0,.7.2,1.1.7,1.1s.4,0,.5,0v.8c-.1,0-.4.1-.8.1s-.7-.1-1-.4c-.3-.3-.3-.8-.3-1.4v-3h-.8v-.8h.8v-1.3l.9-.3h0Z"/>
    <path class="cls-2" d="M106.4,130.7c0,1.4.8,1.9,1.7,1.9s1-.1,1.4-.3v.7c-.2.2-.7.3-1.5.3-1.5,0-2.4-1.1-2.4-2.8s.9-3,2.3-3,2,1.6,2,2.6,0,.4,0,.5h-3.5ZM109,130c0-.6-.2-1.6-1.2-1.6s-1.3.9-1.4,1.6h2.6,0Z"/>
    <path class="cls-2" d="M113.4,132.6c.2,0,.4,0,.7,0,.5,0,1-.3,1.4-.7.4-.4.7-1.1.9-2h0c-.4.5-.9.8-1.6.8-1.2,0-1.9-1-1.9-2.3s.9-2.6,2.3-2.6,2.2,1.2,2.2,3.1-.5,2.8-1.1,3.5c-.5.6-1.2.9-1.9,1-.3,0-.6,0-.8,0v-.8h0ZM113.7,128.3c0,.9.5,1.6,1.3,1.6s1.1-.3,1.3-.8c0,0,0-.2,0-.4,0-1.3-.4-2.2-1.3-2.2s-1.3.8-1.3,1.8h0Z"/>
    <path class="cls-2" d="M122.5,129.5c0,2.5-.8,3.9-2.3,3.9s-2.2-1.4-2.2-3.8c0-2.5,1-3.8,2.3-3.8s2.2,1.4,2.2,3.7h0ZM118.9,129.6c0,1.9.5,3,1.3,3s1.3-1.2,1.3-3.1-.4-3-1.3-3-1.3,1.1-1.3,3.1h0Z"/>
    <path class="cls-2" d="M123.5,132.3c.3.2.7.4,1.2.4.6,0,1-.4,1-.8s-.3-.7-.9-1c-.9-.4-1.3-.9-1.3-1.6s.6-1.6,1.7-1.6.9.2,1.2.3l-.2.7c-.2-.1-.5-.3-1-.3s-.8.3-.8.8.3.7.9.9c.9.4,1.3.8,1.3,1.7s-.7,1.6-1.8,1.6-1-.1-1.4-.4l.2-.8h0Z"/>
    <path class="cls-2" d="M130.8,126.2c0,.3-.2.6-.6.6s-.5-.3-.5-.6.2-.6.6-.6.5.3.5.6h0ZM129.8,133.3v-5.5h.9v5.5h-.9Z"/>
    <path class="cls-2" d="M132.1,129.3c0-.6,0-1,0-1.5h.8v.9h0c.2-.5.8-1,1.6-1s1.7.5,1.7,2.3v3.3h-.9v-3.2c0-.9-.3-1.6-1.1-1.6s-1,.5-1.2,1c0,.1,0,.3,0,.5v3.3h-.9v-4h0Z"/>
    <path class="cls-2" d="M145.2,133c-.4.2-1.2.4-2.1.4s-1.9-.3-2.6-1c-.6-.6-1-1.7-1-2.9,0-2.3,1.4-4,3.7-4s1.4.2,1.7.4l-.2.8c-.4-.2-.8-.3-1.5-.3-1.7,0-2.8,1.2-2.8,3.1s1,3.1,2.6,3.1,1,0,1.2-.2v-2.3h-1.4v-.8h2.3v3.7h0Z"/>
    <path class="cls-2" d="M147,130.7c0,1.4.8,1.9,1.7,1.9s1-.1,1.4-.3v.7c-.2.2-.7.3-1.5.3-1.5,0-2.4-1.1-2.4-2.8s.9-3,2.3-3,2,1.6,2,2.6,0,.4,0,.5h-3.5,0ZM149.7,130c0-.6-.2-1.6-1.2-1.6s-1.3.9-1.4,1.6h2.6,0Z"/>
    <path class="cls-2" d="M151.6,129.5c0-.7,0-1.2,0-1.7h.8v1.1h0c.2-.7.8-1.2,1.4-1.2s.2,0,.3,0v.9c0,0-.2,0-.3,0-.6,0-1.1.5-1.2,1.3,0,.1,0,.3,0,.5v2.9h-.9v-3.8h0Z"/>
    <path class="cls-2" d="M155,129.3c0-.6,0-1,0-1.5h.8v.9h0c.3-.5.7-1,1.5-1s1.2.5,1.4,1.1h0c.1-.3.3-.5.5-.7.3-.2.6-.4,1.1-.4s1.6.5,1.6,2.4v3.2h-.9v-3.1c0-1.1-.3-1.7-1.1-1.7s-.9.4-1.1.9c0,.1,0,.3,0,.5v3.4h-.9v-3.3c0-.9-.3-1.5-1-1.5s-1,.5-1.1,1c0,.1,0,.3,0,.5v3.3h-.9v-4h0Z"/>
    <path class="cls-2" d="M166.2,133.3v-.7h-.1c-.3.4-.8.8-1.5.8-1,0-1.5-.8-1.5-1.6,0-1.3,1.1-2.1,3-2h0c0-.6-.1-1.4-1.1-1.4s-.9.2-1.3.4l-.2-.7c.4-.3,1-.5,1.6-.5,1.5,0,1.9,1.1,1.9,2.3v2.1c0,.5,0,.9,0,1.3h-.8,0ZM166,130.5c-1,0-2.1.2-2.1,1.2s.4,1,.8,1,1-.5,1.2-.9c0-.1,0-.2,0-.3v-1Z"/>
    <path class="cls-2" d="M168.3,129.3c0-.6,0-1,0-1.5h.8v.9h0c.2-.5.8-1,1.6-1s1.7.5,1.7,2.3v3.3h-.9v-3.2c0-.9-.3-1.6-1.1-1.6s-1,.5-1.2,1c0,.1,0,.3,0,.5v3.3h-.9v-4h0Z"/>
    <path class="cls-2" d="M174.2,127.8l1.1,3.3c.1.4.2.8.3,1.1h0c0-.3.2-.8.3-1.1l1-3.2h.9l-1.3,3.9c-.6,1.9-1.1,2.9-1.7,3.4-.4.4-.9.6-1.1.7l-.2-.8c.2,0,.5-.2.8-.5.2-.2.5-.6.7-1.1,0-.1,0-.2,0-.2s0-.1,0-.3l-1.8-5.1h1Z"/>
    <path class="cls-2" d="M183.5,133.3v-.7h-.1c-.3.4-.8.8-1.5.8-1,0-1.5-.8-1.5-1.6,0-1.3,1.1-2.1,3-2h0c0-.6-.1-1.4-1.1-1.4s-.9.2-1.3.4l-.2-.7c.4-.3,1-.5,1.6-.5,1.5,0,1.9,1.1,1.9,2.3v2.1c0,.5,0,.9,0,1.3h-.8,0ZM183.4,130.5c-1,0-2.1.2-2.1,1.2s.4,1,.8,1,1-.5,1.2-.9c0-.1,0-.2,0-.3v-1Z"/>
    <path class="cls-2" d="M185.7,129.3c0-.6,0-1,0-1.5h.8v.9h0c.2-.5.8-1,1.6-1s1.7.5,1.7,2.3v3.3h-.9v-3.2c0-.9-.3-1.6-1.1-1.6s-1,.5-1.2,1c0,.1,0,.3,0,.5v3.3h-.9v-4h0Z"/>
    <path class="cls-2" d="M195.6,125.2v6.7c0,.5,0,1,0,1.4h-.8v-1h0c-.3.6-.9,1.1-1.7,1.1-1.2,0-2.1-1.1-2.1-2.8,0-1.8,1-3,2.2-3s1.3.4,1.5.8h0v-3.3h.9ZM194.7,130c0-.1,0-.3,0-.4-.1-.6-.6-1.2-1.3-1.2s-1.5.9-1.5,2.1.5,2,1.5,2,1.1-.4,1.3-1.2c0-.1,0-.3,0-.4v-1h0Z"/>
    <path class="cls-2" d="M22.6,142.9c0-.6,0-1,0-1.5h.8v.9h0c.3-.5.7-1,1.5-1s1.2.5,1.4,1.1h0c.1-.3.3-.5.5-.7.3-.2.6-.4,1.1-.4s1.6.5,1.6,2.4v3.2h-.9v-3.1c0-1.1-.3-1.7-1.1-1.7s-.9.4-1.1.9c0,.1,0,.3,0,.5v3.4h-.9v-3.3c0-.9-.3-1.5-1-1.5s-1,.5-1.1,1c0,.1,0,.3,0,.5v3.3h-.9v-4h0Z"/>
    <path class="cls-2" d="M35.5,144.2c0,2-1.3,2.9-2.4,2.9s-2.4-1.1-2.4-2.8,1.1-2.9,2.4-2.9,2.4,1.1,2.4,2.8ZM31.6,144.2c0,1.2.6,2.1,1.5,2.1s1.5-.9,1.5-2.1-.4-2.1-1.5-2.1-1.5,1.1-1.5,2.1h0Z"/>
    <path class="cls-2" d="M36.9,141.4l1,3.1c.2.5.3,1,.4,1.4h0c.1-.5.3-.9.4-1.4l1-3.1h.9l-1.9,5.5h-.9l-1.9-5.5h1Z"/>
    <path class="cls-2" d="M41.8,144.4c0,1.4.8,1.9,1.7,1.9s1-.1,1.4-.3v.7c-.2.2-.7.3-1.5.3-1.5,0-2.4-1.1-2.4-2.8s.9-3,2.3-3,2,1.6,2,2.6,0,.4,0,.5h-3.5,0ZM44.5,143.7c0-.6-.2-1.6-1.2-1.6s-1.3.9-1.4,1.6h2.6,0Z"/>
    <path class="cls-2" d="M50.7,138.9v6.7c0,.5,0,1,0,1.4h-.8v-1h0c-.3.6-.9,1.1-1.7,1.1-1.2,0-2.1-1.1-2.1-2.8,0-1.8,1-3,2.2-3s1.3.4,1.5.8h0v-3.3h.9,0ZM49.8,143.7c0-.1,0-.3,0-.4-.1-.6-.6-1.2-1.3-1.2s-1.5.9-1.5,2.1.5,2,1.5,2,1.1-.4,1.3-1.2c0-.1,0-.3,0-.4v-1h0Z"/>
    <path class="cls-2" d="M55.4,139.9v1.6h1.3v.8h-1.3v3c0,.7.2,1.1.7,1.1s.4,0,.5,0v.8c-.1,0-.4.1-.8.1s-.7-.1-1-.4c-.3-.3-.3-.8-.3-1.4v-3h-.8v-.8h.8v-1.3l.9-.3h0Z"/>
    <path class="cls-2" d="M62.1,144.2c0,2-1.3,2.9-2.4,2.9s-2.4-1.1-2.4-2.8,1.1-2.9,2.4-2.9,2.4,1.1,2.4,2.8ZM58.1,144.2c0,1.2.6,2.1,1.5,2.1s1.5-.9,1.5-2.1-.4-2.1-1.5-2.1-1.5,1.1-1.5,2.1h0Z"/>
    <path class="cls-2" d="M65.4,139.3h.9v6.8h2.9v.8h-3.8v-7.7h0Z"/>
    <path class="cls-2" d="M72.8,147v-.7h-.1c-.3.4-.8.8-1.5.8-1,0-1.5-.8-1.5-1.6,0-1.3,1.1-2.1,3-2h0c0-.6-.1-1.4-1.1-1.4s-.9.2-1.3.4l-.2-.7c.4-.3,1-.5,1.6-.5,1.5,0,1.9,1.1,1.9,2.3v2.1c0,.5,0,.9,0,1.3h-.8,0ZM72.7,144.1c-1,0-2.1.2-2.1,1.2s.4,1,.8,1,1-.5,1.2-.9c0-.1,0-.2,0-.3v-1h0Z"/>
    <path class="cls-2" d="M76.1,139.9v1.6h1.3v.8h-1.3v3c0,.7.2,1.1.7,1.1s.4,0,.5,0v.8c-.1,0-.4.1-.8.1s-.7-.1-1-.4c-.3-.3-.3-.8-.3-1.4v-3h-.8v-.8h.8v-1.3l.9-.3h0Z"/>
    <path class="cls-2" d="M78.8,141.4l1,3.1c.2.5.3,1,.4,1.4h0c.1-.5.3-.9.4-1.4l1-3.1h.9l-1.9,5.5h-.9l-1.9-5.5h1Z"/>
    <path class="cls-2" d="M84.3,139.9c0,.3-.2.6-.6.6s-.5-.3-.5-.6.2-.6.6-.6.5.3.5.6h0ZM83.3,147v-5.5h.9v5.5h-.9Z"/>
    <path class="cls-2" d="M88.4,147v-.7h-.1c-.3.4-.8.8-1.5.8-1,0-1.5-.8-1.5-1.6,0-1.3,1.1-2.1,3-2h0c0-.6-.1-1.4-1.1-1.4s-.9.2-1.3.4l-.2-.7c.4-.3,1-.5,1.6-.5,1.5,0,1.9,1.1,1.9,2.3v2.1c0,.5,0,.9,0,1.3h-.8,0ZM88.3,144.1c-1,0-2.1.2-2.1,1.2s.4,1,.8,1,1-.5,1.2-.9c0-.1,0-.2,0-.3v-1h0Z"/>
    <path class="cls-2" d="M93.7,139.9c0,.3-.2.6-.6.6s-.5-.3-.5-.6.2-.6.6-.6.5.3.5.6h0ZM92.7,147v-5.5h.9v5.5h-.9Z"/>
    <path class="cls-2" d="M95.1,142.9c0-.6,0-1,0-1.5h.8v.9h0c.2-.5.8-1,1.6-1s1.7.5,1.7,2.3v3.3h-.9v-3.2c0-.9-.3-1.6-1.1-1.6s-1,.5-1.2,1c0,.1,0,.3,0,.5v3.3h-.9v-4h0Z"/>
    <path class="cls-2" d="M102.6,147v-.6l.7-.8c1.7-1.8,2.4-2.8,2.5-3.9,0-.8-.3-1.4-1.3-1.4s-1.1.3-1.4.6l-.3-.7c.5-.4,1.1-.8,1.9-.8,1.4,0,2,1.1,2,2.2s-.9,2.5-2.3,4l-.5.5h0s3,0,3,0v.8h-4.2Z"/>
    <path class="cls-2" d="M112.2,143.2c0,2.5-.8,3.9-2.3,3.9s-2.2-1.4-2.2-3.8c0-2.5,1-3.8,2.3-3.8s2.2,1.4,2.2,3.7ZM108.6,143.3c0,1.9.5,3,1.3,3s1.3-1.2,1.3-3.1-.4-3-1.3-3-1.3,1.1-1.3,3.1Z"/>
    <path class="cls-2" d="M117.4,143.2c0,2.5-.8,3.9-2.3,3.9s-2.2-1.4-2.2-3.8c0-2.5,1-3.8,2.3-3.8s2.2,1.4,2.2,3.7ZM113.8,143.3c0,1.9.5,3,1.3,3s1.3-1.2,1.3-3.1-.4-3-1.3-3-1.3,1.1-1.3,3.1Z"/>
    <path class="cls-2" d="M118.5,145.8c.3.2.8.5,1.5.5,1.1,0,1.5-.8,1.5-1.4,0-1-.8-1.5-1.7-1.5h-.5v-.8h.5c.6,0,1.5-.4,1.5-1.3s-.3-1.1-1.2-1.1-1,.3-1.3.5l-.2-.7c.3-.3,1-.6,1.7-.6,1.3,0,1.9.9,1.9,1.8s-.4,1.4-1.2,1.7h0c.8.2,1.5.9,1.5,1.9s-.8,2.2-2.4,2.2-1.4-.3-1.7-.5l.2-.8h0Z"/>
    <path class="cls-2" d="M123.2,148.4c.2-.7.5-1.9.6-2.7h1c-.2.9-.7,2.1-1,2.6h-.6c0,0,0,0,0,0Z"/>
    <path class="cls-2" d="M128,138.9h.9v3.4h0c.1-.3.4-.5.6-.7.3-.2.6-.3.9-.3.7,0,1.7.5,1.7,2.4v3.3h-.9v-3.2c0-.9-.3-1.6-1.1-1.6s-1,.5-1.2,1c0,.1,0,.3,0,.5v3.3h-.9v-8.1h0Z"/>
    <path class="cls-2" d="M134.1,144.4c0,1.4.8,1.9,1.7,1.9s1-.1,1.4-.3v.7c-.2.2-.7.3-1.5.3-1.5,0-2.4-1.1-2.4-2.8s.9-3,2.3-3,2,1.6,2,2.6,0,.4,0,.5h-3.5,0ZM136.7,143.7c0-.6-.2-1.6-1.2-1.6s-1.3.9-1.4,1.6h2.6,0Z"/>
    <path class="cls-2" d="M138.7,143.2c0-.7,0-1.2,0-1.7h.8v1.1h0c.2-.7.8-1.2,1.4-1.2s.2,0,.3,0v.9c0,0-.2,0-.3,0-.6,0-1.1.5-1.2,1.3,0,.1,0,.3,0,.5v2.9h-.9v-3.8h0Z"/>
    <path class="cls-2" d="M148.4,138.9v6.7c0,.5,0,1,0,1.4h-.8v-1h0c-.3.6-.9,1.1-1.7,1.1-1.2,0-2.1-1.1-2.1-2.8,0-1.8,1-3,2.2-3s1.3.4,1.5.8h0v-3.3h.9,0ZM147.5,143.7c0-.1,0-.3,0-.4-.1-.6-.6-1.2-1.3-1.2s-1.5.9-1.5,2.1.5,2,1.5,2,1.1-.4,1.3-1.2c0-.1,0-.3,0-.4v-1h0Z"/>
    <path class="cls-2" d="M150.9,139.9c0,.3-.2.6-.6.6s-.5-.3-.5-.6.2-.6.6-.6.5.3.5.6h0ZM149.9,147v-5.5h.9v5.5h-.9Z"/>
    <path class="cls-2" d="M152.6,141.4l1,3.1c.2.5.3,1,.4,1.4h0c.1-.5.3-.9.4-1.4l1-3.1h.9l-1.9,5.5h-.9l-1.9-5.5h1Z"/>
    <path class="cls-2" d="M157.6,144.4c0,1.4.8,1.9,1.7,1.9s1-.1,1.4-.3v.7c-.2.2-.7.3-1.5.3-1.5,0-2.4-1.1-2.4-2.8s.9-3,2.3-3,2,1.6,2,2.6,0,.4,0,.5h-3.5,0ZM160.2,143.7c0-.6-.2-1.6-1.2-1.6s-1.3.9-1.4,1.6h2.6,0Z"/>
    <path class="cls-2" d="M162.2,143.2c0-.7,0-1.2,0-1.7h.8v1.1h0c.2-.7.8-1.2,1.4-1.2s.2,0,.3,0v.9c0,0-.2,0-.3,0-.6,0-1.1.5-1.2,1.3,0,.1,0,.3,0,.5v2.9h-.9v-3.8h0Z"/>
    <path class="cls-2" d="M165.4,145.9c.3.2.7.4,1.2.4.6,0,1-.4,1-.8s-.3-.7-.9-1c-.9-.4-1.3-.9-1.3-1.6s.6-1.6,1.7-1.6.9.2,1.2.3l-.2.7c-.2-.1-.5-.3-1-.3s-.8.3-.8.8.3.7.9.9c.9.4,1.3.8,1.3,1.7s-.7,1.6-1.8,1.6-1-.1-1.4-.4l.2-.8h0Z"/>
    <path class="cls-2" d="M170,144.4c0,1.4.8,1.9,1.7,1.9s1-.1,1.4-.3v.7c-.2.2-.7.3-1.5.3-1.5,0-2.4-1.1-2.4-2.8s.9-3,2.3-3,2,1.6,2,2.6,0,.4,0,.5h-3.5,0ZM172.6,143.7c0-.6-.2-1.6-1.2-1.6s-1.3.9-1.4,1.6h2.6,0Z"/>
    <path class="cls-2" d="M176.8,147v-4.7h-.7v-.8h.7v-.3c0-.8.1-1.5.6-1.9.3-.4.8-.5,1.2-.5s.6,0,.8.2v.8c-.3,0-.4-.1-.7-.1-.8,0-1,.8-1,1.6v.3h1.2v.8h-1.2v4.7h-.9Z"/>
    <path class="cls-2" d="M182.4,147v-.7h-.1c-.3.4-.8.8-1.5.8-1,0-1.5-.8-1.5-1.6,0-1.3,1.1-2.1,3-2h0c0-.6-.1-1.4-1.1-1.4s-.9.2-1.3.4l-.2-.7c.4-.3,1-.5,1.6-.5,1.5,0,1.9,1.1,1.9,2.3v2.1c0,.5,0,.9,0,1.3h-.8,0ZM182.3,144.1c-1,0-2.1.2-2.1,1.2s.4,1,.8,1,1-.5,1.2-.9c0-.1,0-.2,0-.3v-1Z"/>
    <path class="cls-2" d="M184.6,142.9c0-.6,0-1,0-1.5h.8v.9h0c.3-.5.7-1,1.5-1s1.2.5,1.4,1.1h0c.1-.3.3-.5.5-.7.3-.2.6-.4,1.1-.4s1.6.5,1.6,2.4v3.2h-.9v-3.1c0-1.1-.3-1.7-1.1-1.7s-.9.4-1.1.9c0,.1,0,.3,0,.5v3.4h-.9v-3.3c0-.9-.3-1.5-1-1.5s-1,.5-1.1,1c0,.1,0,.3,0,.5v3.3h-.9v-4h0Z"/>
    <path class="cls-2" d="M194.1,139.9c0,.3-.2.6-.6.6s-.5-.3-.5-.6.2-.6.6-.6.5.3.5.6h0ZM193.1,147v-5.5h.9v5.5h-.9Z"/>
    <path class="cls-2" d="M195.4,138.9h.9v8.1h-.9v-8.1Z"/>
    <path class="cls-2" d="M198.2,141.4l1.1,3.3c.1.4.2.8.3,1.1h0c0-.3.2-.8.3-1.1l1-3.2h.9l-1.3,3.9c-.6,1.9-1.1,2.9-1.7,3.4-.4.4-.9.6-1.1.7l-.2-.8c.2,0,.5-.2.8-.5.2-.2.5-.6.7-1.1,0-.1,0-.2,0-.2s0-.1,0-.3l-1.8-5.1h1,0Z"/>
    <path class="cls-2" d="M26.7,159.1c0,.6,0,1.1,0,1.5h-.8v-.9h0c-.2.4-.7,1-1.6,1s-1.7-.5-1.7-2.4v-3.2h.9v3.1c0,1,.3,1.8,1.1,1.8s1-.5,1.2-.9c0-.1,0-.3,0-.5v-3.4h.9v4h0Z"/>
    <path class="cls-2" d="M28.2,156.9c0-.7,0-1.3,0-1.8h.8v.9h0c.4-.7.9-1.1,1.7-1.1,1.2,0,2.1,1.1,2.1,2.8s-1.1,3-2.2,3-1.2-.3-1.5-.9h0v3h-.9v-6h0ZM29.1,158.4c0,.1,0,.3,0,.4.2.7.7,1.2,1.3,1.2.9,0,1.5-.9,1.5-2.1s-.5-2-1.5-2-1.2.5-1.3,1.2c0,.1,0,.3,0,.4v.9Z"/>
    <path class="cls-2" d="M33.9,160.6c0-.4,0-.9,0-1.4v-6.7h.9v3.5h0c.3-.6.9-1,1.7-1,1.2,0,2.1,1.1,2.1,2.8,0,2-1.1,2.9-2.2,2.9s-1.3-.3-1.6-1h0v.9h-.8,0ZM34.8,158.4c0,.1,0,.2,0,.4.2.7.7,1.2,1.3,1.2.9,0,1.5-.9,1.5-2.1s-.5-2-1.5-2-1.2.5-1.4,1.2c0,.1,0,.2,0,.4v1h0Z"/>
    <path class="cls-2" d="M39.7,156.8c0-.7,0-1.2,0-1.7h.8v1.1h0c.2-.7.8-1.2,1.4-1.2s.2,0,.3,0v.9c0,0-.2,0-.3,0-.6,0-1.1.5-1.2,1.3,0,.1,0,.3,0,.5v2.9h-.9v-3.8h0Z"/>
    <path class="cls-2" d="M44.1,153.6c0,.3-.2.6-.6.6s-.5-.3-.5-.6.2-.6.6-.6.5.3.5.6h0ZM43.1,160.6v-5.5h.9v5.5h-.9Z"/>
    <path class="cls-2" d="M45.5,156.6c0-.6,0-1,0-1.5h.8v.9h0c.2-.5.8-1,1.6-1s1.7.5,1.7,2.3v3.3h-.9v-3.2c0-.9-.3-1.6-1.1-1.6s-1,.5-1.2,1c0,.1,0,.3,0,.5v3.3h-.9v-4h0Z"/>
    <path class="cls-2" d="M55.3,155.1c0,.4,0,.8,0,1.5v3.2c0,1.3-.2,2-.7,2.5-.5.5-1.2.7-1.8.7s-1.2-.2-1.6-.5l.2-.8c.3.2.8.4,1.4.4.9,0,1.6-.5,1.6-1.9v-.6h0c-.3.5-.8.9-1.6.9-1.2,0-2.1-1.2-2.1-2.7s1.1-2.9,2.2-2.9,1.3.5,1.5,1h0v-.8h.8,0ZM54.4,157.3c0-.2,0-.3,0-.5-.2-.6-.6-1.1-1.2-1.1s-1.5.8-1.5,2.1.5,2,1.5,2,1-.4,1.2-1c0-.2,0-.4,0-.5v-1h0Z"/>
    <path class="cls-2" d="M57.7,153.6c0,.3-.2.6-.6.6s-.5-.3-.5-.6.2-.6.6-.6.5.3.5.6h0ZM56.7,160.6v-5.5h.9v5.5h-.9Z"/>
    <path class="cls-2" d="M59.1,156.6c0-.6,0-1,0-1.5h.8v.9h0c.2-.5.8-1,1.6-1s1.7.5,1.7,2.3v3.3h-.9v-3.2c0-.9-.3-1.6-1.1-1.6s-1,.5-1.2,1c0,.1,0,.3,0,.5v3.3h-.9v-4h0Z"/>
    <path class="cls-2" d="M69,155.1c0,.4,0,.8,0,1.5v3.2c0,1.3-.2,2-.7,2.5-.5.5-1.2.7-1.8.7s-1.2-.2-1.6-.5l.2-.8c.3.2.8.4,1.4.4.9,0,1.6-.5,1.6-1.9v-.6h0c-.3.5-.8.9-1.6.9-1.2,0-2.1-1.2-2.1-2.7s1.1-2.9,2.2-2.9,1.3.5,1.5,1h0v-.8h.8ZM68,157.3c0-.2,0-.3,0-.5-.2-.6-.6-1.1-1.2-1.1s-1.5.8-1.5,2.1.5,2,1.5,2,1-.4,1.2-1c0-.2,0-.4,0-.5v-1h0Z"/>
    <path class="cls-2" d="M75.3,160.6v-.7h-.1c-.3.4-.8.8-1.5.8-1,0-1.5-.8-1.5-1.6,0-1.3,1.1-2.1,3-2h0c0-.6-.1-1.4-1.1-1.4s-.9.2-1.3.4l-.2-.7c.4-.3,1-.5,1.6-.5,1.5,0,1.9,1.1,1.9,2.3v2.1c0,.5,0,.9,0,1.3h-.8,0ZM75.2,157.8c-1,0-2.1.2-2.1,1.2s.4,1,.8,1,1-.5,1.2-.9c0-.1,0-.2,0-.3v-1h0Z"/>
    <path class="cls-2" d="M77.5,156.6c0-.6,0-1,0-1.5h.8v.9h0c.2-.5.8-1,1.6-1s1.7.5,1.7,2.3v3.3h-.9v-3.2c0-.9-.3-1.6-1.1-1.6s-1,.5-1.2,1c0,.1,0,.3,0,.5v3.3h-.9v-4h0Z"/>
    <path class="cls-2" d="M87.3,152.5v6.7c0,.5,0,1,0,1.4h-.8v-1h0c-.3.6-.9,1.1-1.7,1.1-1.2,0-2.1-1.1-2.1-2.8,0-1.8,1-3,2.2-3s1.3.4,1.5.8h0v-3.3h.9,0ZM86.4,157.3c0-.1,0-.3,0-.4-.1-.6-.6-1.2-1.3-1.2s-1.5.9-1.5,2.1.5,2,1.5,2,1.1-.4,1.3-1.2c0-.1,0-.3,0-.4v-1h0Z"/>
    <path class="cls-2" d="M91.5,158c0,1.4.8,1.9,1.7,1.9s1-.1,1.4-.3v.7c-.2.2-.7.3-1.5.3-1.5,0-2.4-1.1-2.4-2.8s.9-3,2.3-3,2,1.6,2,2.6,0,.4,0,.5h-3.5ZM94.1,157.3c0-.6-.2-1.6-1.2-1.6s-1.3.9-1.4,1.6h2.6,0Z"/>
    <path class="cls-2" d="M96.4,155.1l.7,1.2c.2.3.3.6.5.9h0c.2-.3.3-.6.5-.9l.7-1.2h1l-1.7,2.7,1.7,2.8h-1l-.7-1.2c-.2-.3-.4-.6-.5-1h0c-.2.3-.3.6-.5,1l-.7,1.2h-1l1.7-2.8-1.7-2.7h1,0Z"/>
    <path class="cls-2" d="M100.7,156.9c0-.7,0-1.3,0-1.8h.8v.9h0c.4-.7.9-1.1,1.7-1.1,1.2,0,2.1,1.1,2.1,2.8s-1.1,3-2.2,3-1.2-.3-1.5-.9h0v3h-.9v-6h0ZM101.6,158.4c0,.1,0,.3,0,.4.2.7.7,1.2,1.3,1.2.9,0,1.5-.9,1.5-2.1s-.5-2-1.5-2-1.2.5-1.3,1.2c0,.1,0,.3,0,.4v.9Z"/>
    <path class="cls-2" d="M107.5,153.6c0,.3-.2.6-.6.6s-.5-.3-.5-.6.2-.6.6-.6.5.3.5.6h0ZM106.5,160.6v-5.5h.9v5.5h-.9Z"/>
    <path class="cls-2" d="M108.9,156.8c0-.7,0-1.2,0-1.7h.8v1.1h0c.2-.7.8-1.2,1.4-1.2s.2,0,.3,0v.9c0,0-.2,0-.3,0-.6,0-1.1.5-1.2,1.3,0,.1,0,.3,0,.5v2.9h-.9v-3.8h0Z"/>
    <path class="cls-2" d="M113.2,153.6c0,.3-.2.6-.6.6s-.5-.3-.5-.6.2-.6.6-.6.5.3.5.6h0ZM112.2,160.6v-5.5h.9v5.5h-.9Z"/>
    <path class="cls-2" d="M115.1,158c0,1.4.8,1.9,1.7,1.9s1-.1,1.4-.3v.7c-.2.2-.7.3-1.5.3-1.5,0-2.4-1.1-2.4-2.8s.9-3,2.3-3,2,1.6,2,2.6,0,.4,0,.5h-3.5ZM117.7,157.3c0-.6-.2-1.6-1.2-1.6s-1.3.9-1.4,1.6h2.6,0Z"/>
    <path class="cls-2" d="M119.7,156.6c0-.6,0-1,0-1.5h.8v.9h0c.2-.5.8-1,1.6-1s1.7.5,1.7,2.3v3.3h-.9v-3.2c0-.9-.3-1.6-1.1-1.6s-1,.5-1.2,1c0,.1,0,.3,0,.5v3.3h-.9v-4h0Z"/>
    <path class="cls-2" d="M128.8,160.4c-.2.1-.7.3-1.4.3-1.5,0-2.4-1.1-2.4-2.8s1-2.9,2.6-2.9,1,.1,1.2.3l-.2.8c-.2-.1-.5-.3-1-.3-1.1,0-1.7.9-1.7,2.1s.7,2.1,1.7,2.1.8-.1,1.1-.3v.8h.1Z"/>
    <path class="cls-2" d="M130.3,158c0,1.4.8,1.9,1.7,1.9s1-.1,1.4-.3v.7c-.2.2-.7.3-1.5.3-1.5,0-2.4-1.1-2.4-2.8s.9-3,2.3-3,2,1.6,2,2.6,0,.4,0,.5h-3.5,0ZM132.9,157.3c0-.6-.2-1.6-1.2-1.6s-1.3.9-1.4,1.6h2.6,0Z"/>
    <path class="cls-2" d="M134.8,159.6c.3.2.7.4,1.2.4.6,0,1-.4,1-.8s-.3-.7-.9-1c-.9-.4-1.3-.9-1.3-1.6s.6-1.6,1.7-1.6.9.2,1.2.3l-.2.7c-.2-.1-.5-.3-1-.3s-.8.3-.8.8.3.7.9.9c.9.4,1.3.8,1.3,1.7s-.7,1.6-1.8,1.6-1-.1-1.4-.4l.2-.8h0Z"/>
    <path class="cls-2" d="M141.2,160.6v-4.7h-.7v-.8h.7v-.3c0-.8.1-1.5.6-1.9.3-.4.8-.5,1.2-.5s.6,0,.8.2v.8c-.3,0-.4-.1-.7-.1-.8,0-1,.8-1,1.6v.3h1.2v.8h-1.2v4.7h-.9Z"/>
    <path class="cls-2" d="M148.4,157.8c0,2-1.3,2.9-2.4,2.9s-2.4-1.1-2.4-2.8,1.1-2.9,2.4-2.9,2.4,1.1,2.4,2.8h0ZM144.5,157.9c0,1.2.6,2.1,1.5,2.1s1.5-.9,1.5-2.1-.4-2.1-1.5-2.1-1.5,1.1-1.5,2.1h0Z"/>
    <path class="cls-2" d="M149.5,156.8c0-.7,0-1.2,0-1.7h.8v1.1h0c.2-.7.8-1.2,1.4-1.2s.2,0,.3,0v.9c0,0-.2,0-.3,0-.6,0-1.1.5-1.2,1.3,0,.1,0,.3,0,.5v2.9h-.9v-3.8h0Z"/>
    <path class="cls-2" d="M157,155.1c0,.4,0,.8,0,1.5v3.2c0,1.3-.2,2-.7,2.5-.5.5-1.2.7-1.8.7s-1.2-.2-1.6-.5l.2-.8c.3.2.8.4,1.4.4.9,0,1.6-.5,1.6-1.9v-.6h0c-.3.5-.8.9-1.6.9-1.2,0-2.1-1.2-2.1-2.7s1.1-2.9,2.2-2.9,1.3.5,1.5,1h0v-.8h.8ZM156,157.3c0-.2,0-.3,0-.5-.2-.6-.6-1.1-1.2-1.1s-1.5.8-1.5,2.1.5,2,1.5,2,1-.4,1.2-1c0-.2,0-.4,0-.5v-1h0Z"/>
    <path class="cls-2" d="M158.9,158c0,1.4.8,1.9,1.7,1.9s1-.1,1.4-.3v.7c-.2.2-.7.3-1.5.3-1.5,0-2.4-1.1-2.4-2.8s.9-3,2.3-3,2,1.6,2,2.6,0,.4,0,.5h-3.5,0ZM161.5,157.3c0-.6-.2-1.6-1.2-1.6s-1.3.9-1.4,1.6h2.6,0Z"/>
    <path class="cls-2" d="M167.7,152.5v6.7c0,.5,0,1,0,1.4h-.8v-1h0c-.3.6-.9,1.1-1.7,1.1-1.2,0-2.1-1.1-2.1-2.8,0-1.8,1-3,2.2-3s1.3.4,1.5.8h0v-3.3h.9,0ZM166.8,157.3c0-.1,0-.3,0-.4-.1-.6-.6-1.2-1.3-1.2s-1.5.9-1.5,2.1.5,2,1.5,2,1.1-.4,1.3-1.2c0-.1,0-.3,0-.4v-1h0Z"/>
    <path class="cls-2" d="M174.1,160.6v-.7h-.1c-.3.4-.8.8-1.5.8-1,0-1.5-.8-1.5-1.6,0-1.3,1.1-2.1,3-2h0c0-.6-.1-1.4-1.1-1.4s-.9.2-1.3.4l-.2-.7c.4-.3,1-.5,1.6-.5,1.5,0,1.9,1.1,1.9,2.3v2.1c0,.5,0,.9,0,1.3h-.8,0ZM174,157.8c-1,0-2.1.2-2.1,1.2s.4,1,.8,1,1-.5,1.2-.9c0-.1,0-.2,0-.3v-1Z"/>
    <path class="cls-2" d="M178.4,156.9c0-.7,0-1.3,0-1.8h.8v.9h0c.4-.7.9-1.1,1.7-1.1,1.2,0,2.1,1.1,2.1,2.8s-1.1,3-2.2,3-1.2-.3-1.5-.9h0v3h-.9v-6h0ZM179.3,158.4c0,.1,0,.3,0,.4.2.7.7,1.2,1.3,1.2.9,0,1.5-.9,1.5-2.1s-.5-2-1.5-2-1.2.5-1.3,1.2c0,.1,0,.3,0,.4v.9h0Z"/>
    <path class="cls-2" d="M186.9,160.6v-.7h-.1c-.3.4-.8.8-1.5.8-1,0-1.5-.8-1.5-1.6,0-1.3,1.1-2.1,3-2h0c0-.6-.1-1.4-1.1-1.4s-.9.2-1.3.4l-.2-.7c.4-.3,1-.5,1.6-.5,1.5,0,1.9,1.1,1.9,2.3v2.1c0,.5,0,.9,0,1.3h-.8,0ZM186.8,157.8c-1,0-2.1.2-2.1,1.2s.4,1,.8,1,1-.5,1.2-.9c0-.1,0-.2,0-.3v-1Z"/>
    <path class="cls-2" d="M190.1,153.5v1.6h1.3v.8h-1.3v3c0,.7.2,1.1.7,1.1s.4,0,.5,0v.8c-.1,0-.4.1-.8.1s-.7-.1-1-.4c-.3-.3-.3-.8-.3-1.4v-3h-.8v-.8h.8v-1.3l.9-.3h0Z"/>
    <path class="cls-2" d="M192.4,152.5h.9v3.4h0c.1-.3.4-.5.6-.7.3-.2.6-.3.9-.3.7,0,1.7.5,1.7,2.4v3.3h-.9v-3.2c0-.9-.3-1.6-1.1-1.6s-1,.5-1.2,1c0,.1,0,.3,0,.5v3.3h-.9v-8.1h0Z"/>
    <path class="cls-2" d="M23.7,167.2v1.6h1.3v.8h-1.3v3c0,.7.2,1.1.7,1.1s.4,0,.5,0v.8c-.1,0-.4.1-.8.1s-.7-.1-1-.4c-.3-.3-.3-.8-.3-1.4v-3h-.8v-.8h.8v-1.3l.9-.3h0Z"/>
    <path class="cls-2" d="M30.3,171.5c0,2-1.3,2.9-2.4,2.9s-2.4-1.1-2.4-2.8,1.1-2.9,2.4-2.9,2.4,1.1,2.4,2.8ZM26.4,171.5c0,1.2.6,2.1,1.5,2.1s1.5-.9,1.5-2.1-.4-2.1-1.5-2.1-1.5,1.1-1.5,2.1h0Z"/>
    <path class="cls-2" d="M34.1,171.7c0,1.4.8,1.9,1.7,1.9s1-.1,1.4-.3v.7c-.2.2-.7.3-1.5.3-1.5,0-2.4-1.1-2.4-2.8s.9-3,2.3-3,2,1.6,2,2.6,0,.4,0,.5h-3.5,0ZM36.7,171c0-.6-.2-1.6-1.2-1.6s-1.3.9-1.4,1.6h2.6,0Z"/>
    <path class="cls-2" d="M39.1,168.8l.7,1.2c.2.3.3.6.5.9h0c.2-.3.3-.6.5-.9l.7-1.2h1l-1.7,2.7,1.7,2.8h-1l-.7-1.2c-.2-.3-.4-.6-.5-1h0c-.2.3-.3.6-.5,1l-.7,1.2h-1l1.7-2.8-1.7-2.7h1,0Z"/>
    <path class="cls-2" d="M43.4,170.6c0-.7,0-1.3,0-1.8h.8v.9h0c.4-.7.9-1.1,1.7-1.1,1.2,0,2.1,1.1,2.1,2.8s-1.1,3-2.2,3-1.2-.3-1.5-.9h0v3h-.9v-6h0ZM44.3,172c0,.1,0,.3,0,.4.2.7.7,1.2,1.3,1.2.9,0,1.5-.9,1.5-2.1s-.5-2-1.5-2-1.2.5-1.3,1.2c0,.1,0,.3,0,.4v.9Z"/>
    <path class="cls-2" d="M49.1,166.2h.9v8.1h-.9v-8.1Z"/>
    <path class="cls-2" d="M56,171.5c0,2-1.3,2.9-2.4,2.9s-2.4-1.1-2.4-2.8,1.1-2.9,2.4-2.9,2.4,1.1,2.4,2.8ZM52.1,171.5c0,1.2.6,2.1,1.5,2.1s1.5-.9,1.5-2.1-.4-2.1-1.5-2.1-1.5,1.1-1.5,2.1h0Z"/>
    <path class="cls-2" d="M57.1,170.5c0-.7,0-1.2,0-1.7h.8v1.1h0c.2-.7.8-1.2,1.4-1.2s.2,0,.3,0v.9c0,0-.2,0-.3,0-.6,0-1.1.5-1.2,1.3,0,.1,0,.3,0,.5v2.9h-.9v-3.8h0Z"/>
    <path class="cls-2" d="M60.8,171.7c0,1.4.8,1.9,1.7,1.9s1-.1,1.4-.3v.7c-.2.2-.7.3-1.5.3-1.5,0-2.4-1.1-2.4-2.8s.9-3,2.3-3,2,1.6,2,2.6,0,.4,0,.5h-3.5ZM63.5,171c0-.6-.2-1.6-1.2-1.6s-1.3.9-1.4,1.6h2.6,0Z"/>
    <path class="cls-2" d="M68.7,167.2v1.6h1.3v.8h-1.3v3c0,.7.2,1.1.7,1.1s.4,0,.5,0v.8c-.1,0-.4.1-.8.1s-.7-.1-1-.4c-.3-.3-.3-.8-.3-1.4v-3h-.8v-.8h.8v-1.3l.9-.3h0Z"/>
    <path class="cls-2" d="M70.9,166.2h.9v3.4h0c.1-.3.4-.5.6-.7.3-.2.6-.3.9-.3.7,0,1.7.5,1.7,2.4v3.3h-.9v-3.2c0-.9-.3-1.6-1.1-1.6s-1,.5-1.2,1c0,.1,0,.3,0,.5v3.3h-.9v-8.1h0Z"/>
    <path class="cls-2" d="M77.1,171.7c0,1.4.8,1.9,1.7,1.9s1-.1,1.4-.3v.7c-.2.2-.7.3-1.5.3-1.5,0-2.4-1.1-2.4-2.8s.9-3,2.3-3,2,1.6,2,2.6,0,.4,0,.5h-3.5ZM79.7,171c0-.6-.2-1.6-1.2-1.6s-1.3.9-1.4,1.6h2.6,0Z"/>
    <path class="cls-2" d="M88.1,166.2v6.7c0,.5,0,1,0,1.4h-.8v-1h0c-.3.6-.9,1.1-1.7,1.1-1.2,0-2.1-1.1-2.1-2.8,0-1.8,1-3,2.2-3s1.3.4,1.5.8h0v-3.3h.9,0ZM87.2,171c0-.1,0-.3,0-.4-.1-.6-.6-1.2-1.3-1.2s-1.5.9-1.5,2.1.5,2,1.5,2,1.1-.4,1.3-1.2c0-.1,0-.3,0-.4v-1h0Z"/>
    <path class="cls-2" d="M90,171.7c0,1.4.8,1.9,1.7,1.9s1-.1,1.4-.3v.7c-.2.2-.7.3-1.5.3-1.5,0-2.4-1.1-2.4-2.8s.9-3,2.3-3,2,1.6,2,2.6,0,.4,0,.5h-3.5ZM92.7,171c0-.6-.2-1.6-1.2-1.6s-1.3.9-1.4,1.6h2.6,0Z"/>
    <path class="cls-2" d="M94.6,170.6c0-.7,0-1.3,0-1.8h.8v.9h0c.4-.7.9-1.1,1.7-1.1,1.2,0,2.1,1.1,2.1,2.8s-1.1,3-2.2,3-1.2-.3-1.5-.9h0v3h-.9v-6h0ZM95.5,172c0,.1,0,.3,0,.4.2.7.7,1.2,1.3,1.2.9,0,1.5-.9,1.5-2.1s-.5-2-1.5-2-1.2.5-1.3,1.2c0,.1,0,.3,0,.4v.9Z"/>
    <path class="cls-2" d="M101.5,167.2v1.6h1.3v.8h-1.3v3c0,.7.2,1.1.7,1.1s.4,0,.5,0v.8c-.1,0-.4.1-.8.1s-.7-.1-1-.4c-.3-.3-.3-.8-.3-1.4v-3h-.8v-.8h.8v-1.3l.9-.3h0Z"/>
    <path class="cls-2" d="M103.8,166.2h.9v3.4h0c.1-.3.4-.5.6-.7.3-.2.6-.3.9-.3.7,0,1.7.5,1.7,2.4v3.3h-.9v-3.2c0-.9-.3-1.6-1.1-1.6s-1,.5-1.2,1c0,.1,0,.3,0,.5v3.3h-.9v-8.1h0Z"/>
    <path class="cls-2" d="M116,171.5c0,2-1.3,2.9-2.4,2.9s-2.4-1.1-2.4-2.8,1.1-2.9,2.4-2.9,2.4,1.1,2.4,2.8ZM112.1,171.5c0,1.2.6,2.1,1.5,2.1s1.5-.9,1.5-2.1-.4-2.1-1.5-2.1-1.5,1.1-1.5,2.1h0Z"/>
    <path class="cls-2" d="M117.2,174.3v-4.7h-.7v-.8h.7v-.3c0-.8.1-1.5.6-1.9.3-.4.8-.5,1.2-.5s.6,0,.8.2v.8c-.3,0-.4-.1-.7-.1-.8,0-1,.8-1,1.6v.3h1.2v.8h-1.2v4.7h-.9Z"/>
    <path class="cls-2" d="M122.2,166.2h.9v3.4h0c.1-.3.4-.5.6-.7.3-.2.6-.3.9-.3.7,0,1.7.5,1.7,2.4v3.3h-.9v-3.2c0-.9-.3-1.6-1.1-1.6s-1,.5-1.2,1c0,.1,0,.3,0,.5v3.3h-.9v-8.1h0Z"/>
    <path class="cls-2" d="M128.4,171.7c0,1.4.8,1.9,1.7,1.9s1-.1,1.4-.3v.7c-.2.2-.7.3-1.5.3-1.5,0-2.4-1.1-2.4-2.8s.9-3,2.3-3,2,1.6,2,2.6,0,.4,0,.5h-3.5,0ZM131,171c0-.6-.2-1.6-1.2-1.6s-1.3.9-1.4,1.6h2.6,0Z"/>
    <path class="cls-2" d="M133,170.5c0-.7,0-1.2,0-1.7h.8v1.1h0c.2-.7.8-1.2,1.4-1.2s.2,0,.3,0v.9c0,0-.2,0-.3,0-.6,0-1.1.5-1.2,1.3,0,.1,0,.3,0,.5v2.9h-.9v-3.8h0Z"/>
    <path class="cls-2" d="M142.9,171.5c0,2-1.3,2.9-2.4,2.9s-2.4-1.1-2.4-2.8,1.1-2.9,2.4-2.9,2.4,1.1,2.4,2.8h0ZM139,171.5c0,1.2.6,2.1,1.5,2.1s1.5-.9,1.5-2.1-.4-2.1-1.5-2.1-1.5,1.1-1.5,2.1h0Z"/>
    <path class="cls-2" d="M144.3,168.8l.6,2.8c.1.6.3,1.2.4,1.8h0c.1-.6.3-1.1.4-1.7l.8-2.8h.7l.8,2.8c.2.7.3,1.2.4,1.8h0c0-.6.2-1.1.4-1.8l.7-2.8h.9l-1.6,5.5h-.8l-.7-2.6c-.2-.6-.3-1.2-.4-1.8h0c-.1.7-.3,1.2-.4,1.8l-.8,2.6h-.8l-1.5-5.5h.9Z"/>
    <path class="cls-2" d="M151.4,170.2c0-.6,0-1,0-1.5h.8v.9h0c.2-.5.8-1,1.6-1s1.7.5,1.7,2.3v3.3h-.9v-3.2c0-.9-.3-1.6-1.1-1.6s-1,.5-1.2,1c0,.1,0,.3,0,.5v3.3h-.9v-4h0Z"/>
    <path class="cls-2" d="M159.2,170.6c0-.7,0-1.3,0-1.8h.8v.9h0c.4-.7.9-1.1,1.7-1.1,1.2,0,2.1,1.1,2.1,2.8s-1.1,3-2.2,3-1.2-.3-1.5-.9h0v3h-.9v-6h0ZM160.1,172c0,.1,0,.3,0,.4.2.7.7,1.2,1.3,1.2.9,0,1.5-.9,1.5-2.1s-.5-2-1.5-2-1.2.5-1.3,1.2c0,.1,0,.3,0,.4v.9h0Z"/>
    <path class="cls-2" d="M164.9,173.2c.3.2.7.4,1.2.4.6,0,1-.4,1-.8s-.3-.7-.9-1c-.9-.4-1.3-.9-1.3-1.6s.6-1.6,1.7-1.6.9.2,1.2.3l-.2.7c-.2-.1-.5-.3-1-.3s-.8.3-.8.8.3.7.9.9c.9.4,1.3.8,1.3,1.7s-.7,1.6-1.8,1.6-1-.1-1.4-.4l.2-.8h0Z"/>
    <path class="cls-2" d="M169.3,168.8l1.1,3.3c.1.4.2.8.3,1.1h0c0-.3.2-.8.3-1.1l1-3.2h.9l-1.3,3.9c-.6,1.9-1.1,2.9-1.7,3.4-.4.4-.9.6-1.1.7l-.2-.8c.2,0,.5-.2.8-.5.2-.2.5-.6.7-1.1,0-.1,0-.2,0-.2s0-.1,0-.3l-1.8-5.1h1Z"/>
    <path class="cls-2" d="M177.2,174.1c-.2.1-.7.3-1.4.3-1.5,0-2.4-1.1-2.4-2.8s1-2.9,2.6-2.9,1,.1,1.2.3l-.2.8c-.2-.1-.5-.3-1-.3-1.1,0-1.7.9-1.7,2.1s.7,2.1,1.7,2.1.8-.1,1.1-.3v.8h.1Z"/>
    <path class="cls-2" d="M178.2,166.2h.9v3.4h0c.1-.3.4-.5.6-.7.3-.2.6-.3.9-.3.7,0,1.7.5,1.7,2.4v3.3h-.9v-3.2c0-.9-.3-1.6-1.1-1.6s-1,.5-1.2,1c0,.1,0,.3,0,.5v3.3h-.9v-8.1h0Z"/>
    <path class="cls-2" d="M184.4,171.7c0,1.4.8,1.9,1.7,1.9s1-.1,1.4-.3v.7c-.2.2-.7.3-1.5.3-1.5,0-2.4-1.1-2.4-2.8s.9-3,2.3-3,2,1.6,2,2.6,0,.4,0,.5h-3.5,0ZM187,171c0-.6-.2-1.6-1.2-1.6s-1.3.9-1.4,1.6h2.6,0Z"/>
    <path class="cls-2" d="M22.9,182.4l.6,2.8c.1.6.3,1.2.4,1.8h0c.1-.6.3-1.1.4-1.7l.8-2.8h.7l.8,2.8c.2.7.3,1.2.4,1.8h0c0-.6.2-1.1.4-1.8l.7-2.8h.9l-1.6,5.5h-.8l-.7-2.6c-.2-.6-.3-1.2-.4-1.8h0c-.1.7-.3,1.2-.4,1.8l-.8,2.6h-.8l-1.5-5.5h.9Z"/>
    <path class="cls-2" d="M30.1,179.8h.9v3.4h0c.1-.3.4-.5.6-.7.3-.2.6-.3.9-.3.7,0,1.7.5,1.7,2.4v3.3h-.9v-3.2c0-.9-.3-1.6-1.1-1.6s-1,.5-1.2,1c0,.1,0,.3,0,.5v3.3h-.9v-8.1h0Z"/>
    <path class="cls-2" d="M36.7,180.9c0,.3-.2.6-.6.6s-.5-.3-.5-.6.2-.6.6-.6.5.3.5.6h0ZM35.7,187.9v-5.5h.9v5.5h-.9Z"/>
    <path class="cls-2" d="M41.6,187.7c-.2.1-.7.3-1.4.3-1.5,0-2.4-1.1-2.4-2.8s1-2.9,2.6-2.9,1,.1,1.2.3l-.2.8c-.2-.1-.5-.3-1-.3-1.1,0-1.7.9-1.7,2.1s.7,2.1,1.7,2.1.8-.1,1.1-.3v.8q.1,0,.1,0Z"/>
    <path class="cls-2" d="M42.6,179.8h.9v3.4h0c.1-.3.4-.5.6-.7.3-.2.6-.3.9-.3.7,0,1.7.5,1.7,2.4v3.3h-.9v-3.2c0-.9-.3-1.6-1.1-1.6s-1,.5-1.2,1c0,.1,0,.3,0,.5v3.3h-.9v-8.1h0Z"/>
    <path class="cls-2" d="M51.4,180.9c0,.3-.2.6-.6.6s-.5-.3-.5-.6.2-.6.6-.6.5.3.5.6h0ZM50.4,187.9v-5.5h.9v5.5h-.9Z"/>
    <path class="cls-2" d="M52.7,186.9c.3.2.7.4,1.2.4.6,0,1-.4,1-.8s-.3-.7-.9-1c-.9-.4-1.3-.9-1.3-1.6s.6-1.6,1.7-1.6.9.2,1.2.3l-.2.7c-.2-.1-.5-.3-1-.3s-.8.3-.8.8.3.7.9.9c.9.4,1.3.8,1.3,1.7s-.7,1.6-1.8,1.6-1-.1-1.4-.4l.2-.8h0Z"/>
    <path class="cls-2" d="M61.7,187.9v-.7h-.1c-.3.4-.8.8-1.5.8-1,0-1.5-.8-1.5-1.6,0-1.3,1.1-2.1,3-2h0c0-.6-.1-1.4-1.1-1.4s-.9.2-1.3.4l-.2-.7c.4-.3,1-.5,1.6-.5,1.5,0,1.9,1.1,1.9,2.3v2.1c0,.5,0,.9,0,1.3h-.8,0ZM61.5,185.1c-1,0-2.1.2-2.1,1.2s.4,1,.8,1,1-.5,1.2-.9c0-.1,0-.2,0-.3v-1h0Z"/>
    <path class="cls-2" d="M63.9,179.8h.9v8.1h-.9v-8.1h0Z"/>
    <path class="cls-2" d="M66.6,182.4l.6,2.8c.1.6.3,1.2.4,1.8h0c.1-.6.3-1.1.4-1.7l.8-2.8h.7l.8,2.8c.2.7.3,1.2.4,1.8h0c0-.6.2-1.1.4-1.8l.7-2.8h.9l-1.6,5.5h-.8l-.7-2.6c-.2-.6-.3-1.2-.4-1.8h0c-.1.7-.3,1.2-.4,1.8l-.8,2.6h-.8l-1.5-5.5h.9Z"/>
    <path class="cls-2" d="M76.4,187.9v-.7h-.1c-.3.4-.8.8-1.5.8-1,0-1.5-.8-1.5-1.6,0-1.3,1.1-2.1,3-2h0c0-.6-.1-1.4-1.1-1.4s-.9.2-1.3.4l-.2-.7c.4-.3,1-.5,1.6-.5,1.5,0,1.9,1.1,1.9,2.3v2.1c0,.5,0,.9,0,1.3h-.8,0ZM76.3,185.1c-1,0-2.1.2-2.1,1.2s.4,1,.8,1,1-.5,1.2-.9c0-.1,0-.2,0-.3v-1h0Z"/>
    <path class="cls-2" d="M78.8,182.4l1.1,3.3c.1.4.2.8.3,1.1h0c0-.3.2-.8.3-1.1l1-3.2h.9l-1.3,3.9c-.6,1.9-1.1,2.9-1.7,3.4-.4.4-.9.6-1.1.7l-.2-.8c.2,0,.5-.2.8-.5.2-.2.5-.6.7-1.1,0-.1,0-.2,0-.2s0-.1,0-.3l-1.8-5.1h1Z"/>
    <path class="cls-2" d="M83.1,186.9c.3.2.7.4,1.2.4.6,0,1-.4,1-.8s-.3-.7-.9-1c-.9-.4-1.3-.9-1.3-1.6s.6-1.6,1.7-1.6.9.2,1.2.3l-.2.7c-.2-.1-.5-.3-1-.3s-.8.3-.8.8.3.7.9.9c.9.4,1.3.8,1.3,1.7s-.7,1.6-1.8,1.6-1-.1-1.4-.4l.2-.8h0Z"/>
    <path class="cls-2" d="M92.1,187.9v-.7h-.1c-.3.4-.8.8-1.5.8-1,0-1.5-.8-1.5-1.6,0-1.3,1.1-2.1,3-2h0c0-.6-.1-1.4-1.1-1.4s-.9.2-1.3.4l-.2-.7c.4-.3,1-.5,1.6-.5,1.5,0,1.9,1.1,1.9,2.3v2.1c0,.5,0,.9,0,1.3h-.8,0ZM92,185.1c-1,0-2.1.2-2.1,1.2s.4,1,.8,1,1-.5,1.2-.9c0-.1,0-.2,0-.3v-1h0Z"/>
    <path class="cls-2" d="M99.9,187.7c-.2.1-.7.3-1.4.3-1.5,0-2.4-1.1-2.4-2.8s1-2.9,2.6-2.9,1,.1,1.2.3l-.2.8c-.2-.1-.5-.3-1-.3-1.1,0-1.7.9-1.7,2.1s.7,2.1,1.7,2.1.8-.1,1.1-.3v.8q.1,0,.1,0Z"/>
    <path class="cls-2" d="M105.4,185.1c0,2-1.3,2.9-2.4,2.9s-2.4-1.1-2.4-2.8,1.1-2.9,2.4-2.9,2.4,1.1,2.4,2.8ZM101.5,185.2c0,1.2.6,2.1,1.5,2.1s1.5-.9,1.5-2.1-.4-2.1-1.5-2.1-1.5,1.1-1.5,2.1h0Z"/>
    <path class="cls-2" d="M106.5,183.9c0-.6,0-1,0-1.5h.8v.9h0c.2-.5.8-1,1.6-1s1.7.5,1.7,2.3v3.3h-.9v-3.2c0-.9-.3-1.6-1.1-1.6s-1,.5-1.2,1c0,.1,0,.3,0,.5v3.3h-.9v-4h0Z"/>
    <path class="cls-2" d="M113.2,180.8v1.6h1.3v.8h-1.3v3c0,.7.2,1.1.7,1.1s.4,0,.5,0v.8c-.1,0-.4.1-.8.1s-.7-.1-1-.4c-.3-.3-.3-.8-.3-1.4v-3h-.8v-.8h.8v-1.3l.9-.3h0Z"/>
    <path class="cls-2" d="M116.4,180.9c0,.3-.2.6-.6.6s-.5-.3-.5-.6.2-.6.6-.6.5.3.5.6h0ZM115.5,187.9v-5.5h.9v5.5h-.9Z"/>
    <path class="cls-2" d="M117.8,183.9c0-.6,0-1,0-1.5h.8v.9h0c.2-.5.8-1,1.6-1s1.7.5,1.7,2.3v3.3h-.9v-3.2c0-.9-.3-1.6-1.1-1.6s-1,.5-1.2,1c0,.1,0,.3,0,.5v3.3h-.9v-4h0Z"/>
    <path class="cls-2" d="M124.5,180.9c0,.3-.2.6-.6.6s-.5-.3-.5-.6.2-.6.6-.6.5.3.5.6h0ZM123.5,187.9v-5.5h.9v5.5h-.9Z"/>
    <path class="cls-2" d="M129.9,186.4c0,.6,0,1.1,0,1.5h-.8v-.9h0c-.2.4-.7,1-1.6,1s-1.7-.5-1.7-2.4v-3.2h.9v3.1c0,1,.3,1.8,1.1,1.8s1-.5,1.2-.9c0-.1,0-.3,0-.5v-3.4h.9v4h0Z"/>
    <path class="cls-2" d="M131.4,183.9c0-.6,0-1,0-1.5h.8v.9h0c.3-.5.7-1,1.5-1s1.2.5,1.4,1.1h0c.1-.3.3-.5.5-.7.3-.2.6-.4,1.1-.4s1.6.5,1.6,2.4v3.2h-.9v-3.1c0-1.1-.3-1.7-1.1-1.7s-.9.4-1.1.9c0,.1,0,.3,0,.5v3.4h-.9v-3.3c0-.9-.3-1.5-1-1.5s-1,.5-1.1,1c0,.1,0,.3,0,.5v3.3h-.9v-4h0Z"/>
    <path class="cls-2" d="M144.8,187.9v-.7h-.1c-.3.4-.8.8-1.5.8-1,0-1.5-.8-1.5-1.6,0-1.3,1.1-2.1,3-2h0c0-.6-.1-1.4-1.1-1.4s-.9.2-1.3.4l-.2-.7c.4-.3,1-.5,1.6-.5,1.5,0,1.9,1.1,1.9,2.3v2.1c0,.5,0,.9,0,1.3h-.8,0ZM144.6,185.1c-1,0-2.1.2-2.1,1.2s.4,1,.8,1,1-.5,1.2-.9c0-.1,0-.2,0-.3v-1Z"/>
    <path class="cls-2" d="M146.8,186.9c.3.2.7.4,1.2.4.6,0,1-.4,1-.8s-.3-.7-.9-1c-.9-.4-1.3-.9-1.3-1.6s.6-1.6,1.7-1.6.9.2,1.2.3l-.2.7c-.2-.1-.5-.3-1-.3s-.8.3-.8.8.3.7.9.9c.9.4,1.3.8,1.3,1.7s-.7,1.6-1.8,1.6-1-.1-1.4-.4l.2-.8h0Z"/>
    <path class="cls-2" d="M153,186.9c.3.2.7.4,1.2.4.6,0,1-.4,1-.8s-.3-.7-.9-1c-.9-.4-1.3-.9-1.3-1.6s.6-1.6,1.7-1.6.9.2,1.2.3l-.2.7c-.2-.1-.5-.3-1-.3s-.8.3-.8.8.3.7.9.9c.9.4,1.3.8,1.3,1.7s-.7,1.6-1.8,1.6-1-.1-1.4-.4l.2-.8h0Z"/>
    <path class="cls-2" d="M157.1,179.8h.9v3.4h0c.1-.3.4-.5.6-.7.3-.2.6-.3.9-.3.7,0,1.7.5,1.7,2.4v3.3h-.9v-3.2c0-.9-.3-1.6-1.1-1.6s-1,.5-1.2,1c0,.1,0,.3,0,.5v3.3h-.9v-8.1h0Z"/>
    <path class="cls-2" d="M163.3,185.3c0,1.4.8,1.9,1.7,1.9s1-.1,1.4-.3v.7c-.2.2-.7.3-1.5.3-1.5,0-2.4-1.1-2.4-2.8s.9-3,2.3-3,2,1.6,2,2.6,0,.4,0,.5h-3.5,0ZM165.9,184.6c0-.6-.2-1.6-1.2-1.6s-1.3.9-1.4,1.6h2.6,0Z"/>
    <path class="cls-2" d="M169.9,186.9c.3.2.7.4,1.2.4.6,0,1-.4,1-.8s-.3-.7-.9-1c-.9-.4-1.3-.9-1.3-1.6s.6-1.6,1.7-1.6.9.2,1.2.3l-.2.7c-.2-.1-.5-.3-1-.3s-.8.3-.8.8.3.7.9.9c.9.4,1.3.8,1.3,1.7s-.7,1.6-1.8,1.6-1-.1-1.4-.4l.2-.8h0Z"/>
    <path class="cls-2" d="M176.8,187.9v-.7h-.1c-.3.4-.8.8-1.5.8-1,0-1.5-.8-1.5-1.6,0-1.3,1.1-2.1,3-2h0c0-.6-.1-1.4-1.1-1.4s-.9.2-1.3.4l-.2-.7c.4-.3,1-.5,1.6-.5,1.5,0,1.9,1.1,1.9,2.3v2.1c0,.5,0,.9,0,1.3h-.8,0ZM176.6,185.1c-1,0-2.1.2-2.1,1.2s.4,1,.8,1,1-.5,1.2-.9c0-.1,0-.2,0-.3v-1Z"/>
    <path class="cls-2" d="M179.9,180.9c0,.3-.2.6-.6.6s-.5-.3-.5-.6.2-.6.6-.6.5.3.5.6h0ZM178.9,187.9v-5.5h.9v5.5h-.9Z"/>
    <path class="cls-2" d="M185.6,179.8v6.7c0,.5,0,1,0,1.4h-.8v-1h0c-.3.6-.9,1.1-1.7,1.1-1.2,0-2.1-1.1-2.1-2.8,0-1.8,1-3,2.2-3s1.3.4,1.5.8h0v-3.3h.9,0ZM184.7,184.7c0-.1,0-.3,0-.4-.1-.6-.6-1.2-1.3-1.2s-1.5.9-1.5,2.1.5,2,1.5,2,1.1-.4,1.3-1.2c0-.1,0-.3,0-.4v-1h0Z"/>
    <path class="cls-2" d="M186.4,189.3c.2-.7.5-1.9.6-2.7h1c-.2.9-.7,2.1-1,2.6h-.6c0,0,0,0,0,0Z"/>
    <path class="cls-2" d="M22.6,193.5h.9v3.4h0c.1-.3.4-.5.6-.7.3-.2.6-.3.9-.3.7,0,1.7.5,1.7,2.4v3.3h-.9v-3.2c0-.9-.3-1.6-1.1-1.6s-1,.5-1.2,1c0,.1,0,.3,0,.5v3.3h-.9v-8.1h0Z"/>
    <path class="cls-2" d="M28.7,199c0,1.4.8,1.9,1.7,1.9s1-.1,1.4-.3v.7c-.2.2-.7.3-1.5.3-1.5,0-2.4-1.1-2.4-2.8s.9-3,2.3-3,2,1.6,2,2.6,0,.4,0,.5h-3.5,0ZM31.3,198.3c0-.6-.2-1.6-1.2-1.6s-1.3.9-1.4,1.6h2.6,0Z"/>
    <path class="cls-2" d="M33.3,197.8c0-.7,0-1.2,0-1.7h.8v1.1h0c.2-.7.8-1.2,1.4-1.2s.2,0,.3,0v.9c0,0-.2,0-.3,0-.6,0-1.1.5-1.2,1.3,0,.1,0,.3,0,.5v2.9h-.9v-3.8h0Z"/>
    <path class="cls-2" d="M41.5,201.6v-.7h-.1c-.3.4-.8.8-1.5.8-1,0-1.5-.8-1.5-1.6,0-1.3,1.1-2.1,3-2h0c0-.6-.1-1.4-1.1-1.4s-.9.2-1.3.4l-.2-.7c.4-.3,1-.5,1.6-.5,1.5,0,1.9,1.1,1.9,2.3v2.1c0,.5,0,.9,0,1.3h-.8,0ZM41.4,198.8c-1,0-2.1.2-2.1,1.2s.4,1,.8,1,1-.5,1.2-.9c0-.1,0-.2,0-.3v-1Z"/>
    <path class="cls-2" d="M43.7,197.8c0-.7,0-1.2,0-1.7h.8v1.1h0c.2-.7.8-1.2,1.4-1.2s.2,0,.3,0v.9c0,0-.2,0-.3,0-.6,0-1.1.5-1.2,1.3,0,.1,0,.3,0,.5v2.9h-.9v-3.8h0Z"/>
    <path class="cls-2" d="M48.3,194.5v1.6h1.3v.8h-1.3v3c0,.7.2,1.1.7,1.1s.4,0,.5,0v.8c-.1,0-.4.1-.8.1s-.7-.1-1-.4c-.3-.3-.3-.8-.3-1.4v-3h-.8v-.8h.8v-1.3l.9-.3h0Z"/>
    <path class="cls-2" d="M51,196.1l.6,2.8c.1.6.3,1.2.4,1.8h0c.1-.6.3-1.1.4-1.7l.8-2.8h.7l.8,2.8c.2.7.3,1.2.4,1.8h0c0-.6.2-1.1.4-1.8l.7-2.8h.9l-1.6,5.5h-.8l-.7-2.6c-.2-.6-.3-1.2-.4-1.8h0c-.1.7-.3,1.2-.4,1.8l-.8,2.6h-.8l-1.5-5.5h.9Z"/>
    <path class="cls-2" d="M62.5,198.8c0,2-1.3,2.9-2.4,2.9s-2.4-1.1-2.4-2.8,1.1-2.9,2.4-2.9,2.4,1.1,2.4,2.8ZM58.6,198.8c0,1.2.6,2.1,1.5,2.1s1.5-.9,1.5-2.1-.4-2.1-1.5-2.1-1.5,1.1-1.5,2.1h0Z"/>
    <path class="cls-2" d="M63.6,197.8c0-.7,0-1.2,0-1.7h.8v1.1h0c.2-.7.8-1.2,1.4-1.2s.2,0,.3,0v.9c0,0-.2,0-.3,0-.6,0-1.1.5-1.2,1.3,0,.1,0,.3,0,.5v2.9h-.9v-3.8h0Z"/>
    <path class="cls-2" d="M67.9,198.6h0c.1-.2.3-.4.4-.6l1.4-1.9h1.1l-1.9,2.3,2.2,3.2h-1.1l-1.7-2.6-.5.6v2.1h-.9v-8.1h.9v5.1h0Z"/>
    <path class="cls-2" d="M74.9,194.5c0,.3-.2.6-.6.6s-.5-.3-.5-.6.2-.6.6-.6.5.3.5.6h0ZM73.9,201.6v-5.5h.9v5.5h-.9Z"/>
    <path class="cls-2" d="M76.2,200.5c.3.2.7.4,1.2.4.6,0,1-.4,1-.8s-.3-.7-.9-1c-.9-.4-1.3-.9-1.3-1.6s.6-1.6,1.7-1.6.9.2,1.2.3l-.2.7c-.2-.1-.5-.3-1-.3s-.8.3-.8.8.3.7.9.9c.9.4,1.3.8,1.3,1.7s-.7,1.6-1.8,1.6-1-.1-1.4-.4l.2-.8h0Z"/>
    <path class="cls-2" d="M85.2,201.6v-.7h-.1c-.3.4-.8.8-1.5.8-1,0-1.5-.8-1.5-1.6,0-1.3,1.1-2.1,3-2h0c0-.6-.1-1.4-1.1-1.4s-.9.2-1.3.4l-.2-.7c.4-.3,1-.5,1.6-.5,1.5,0,1.9,1.1,1.9,2.3v2.1c0,.5,0,.9,0,1.3h-.8,0ZM85,198.8c-1,0-2.1.2-2.1,1.2s.4,1,.8,1,1-.5,1.2-.9c0-.1,0-.2,0-.3v-1h0Z"/>
    <path class="cls-2" d="M89.5,197.8c0-.7,0-1.2,0-1.7h.8v1.1h0c.2-.7.8-1.2,1.4-1.2s.2,0,.3,0v.9c0,0-.2,0-.3,0-.6,0-1.1.5-1.2,1.3,0,.1,0,.3,0,.5v2.9h-.9v-3.8h0Z"/>
    <path class="cls-2" d="M93.2,199c0,1.4.8,1.9,1.7,1.9s1-.1,1.4-.3v.7c-.2.2-.7.3-1.5.3-1.5,0-2.4-1.1-2.4-2.8s.9-3,2.3-3,2,1.6,2,2.6,0,.4,0,.5h-3.5ZM95.8,198.3c0-.6-.2-1.6-1.2-1.6s-1.3.9-1.4,1.6h2.6,0Z"/>
    <path class="cls-2" d="M97.8,197.9c0-.7,0-1.3,0-1.8h.8v.9h0c.4-.7.9-1.1,1.7-1.1,1.2,0,2.1,1.1,2.1,2.8s-1.1,3-2.2,3-1.2-.3-1.5-.9h0v3h-.9v-6h0ZM98.7,199.3c0,.1,0,.3,0,.4.2.7.7,1.2,1.3,1.2.9,0,1.5-.9,1.5-2.1s-.5-2-1.5-2-1.2.5-1.3,1.2c0,.1,0,.3,0,.4v.9h0Z"/>
    <path class="cls-2" d="M103.6,197.8c0-.7,0-1.2,0-1.7h.8v1.1h0c.2-.7.8-1.2,1.4-1.2s.2,0,.3,0v.9c0,0-.2,0-.3,0-.6,0-1.1.5-1.2,1.3,0,.1,0,.3,0,.5v2.9h-.9v-3.8h0Z"/>
    <path class="cls-2" d="M107.3,199c0,1.4.8,1.9,1.7,1.9s1-.1,1.4-.3v.7c-.2.2-.7.3-1.5.3-1.5,0-2.4-1.1-2.4-2.8s.9-3,2.3-3,2,1.6,2,2.6,0,.4,0,.5h-3.5ZM109.9,198.3c0-.6-.2-1.6-1.2-1.6s-1.3.9-1.4,1.6h2.6,0Z"/>
    <path class="cls-2" d="M111.8,200.5c.3.2.7.4,1.2.4.6,0,1-.4,1-.8s-.3-.7-.9-1c-.9-.4-1.3-.9-1.3-1.6s.6-1.6,1.7-1.6.9.2,1.2.3l-.2.7c-.2-.1-.5-.3-1-.3s-.8.3-.8.8.3.7.9.9c.9.4,1.3.8,1.3,1.7s-.7,1.6-1.8,1.6-1-.1-1.4-.4l.2-.8h0Z"/>
    <path class="cls-2" d="M116.4,199c0,1.4.8,1.9,1.7,1.9s1-.1,1.4-.3v.7c-.2.2-.7.3-1.5.3-1.5,0-2.4-1.1-2.4-2.8s.9-3,2.3-3,2,1.6,2,2.6,0,.4,0,.5h-3.5ZM119,198.3c0-.6-.2-1.6-1.2-1.6s-1.3.9-1.4,1.6h2.6,0Z"/>
    <path class="cls-2" d="M121,197.6c0-.6,0-1,0-1.5h.8v.9h0c.2-.5.8-1,1.6-1s1.7.5,1.7,2.3v3.3h-.9v-3.2c0-.9-.3-1.6-1.1-1.6s-1,.5-1.2,1c0,.1,0,.3,0,.5v3.3h-.9v-4h0Z"/>
    <path class="cls-2" d="M127.7,194.5v1.6h1.3v.8h-1.3v3c0,.7.2,1.1.7,1.1s.4,0,.5,0v.8c-.1,0-.4.1-.8.1s-.7-.1-1-.4c-.3-.3-.3-.8-.3-1.4v-3h-.8v-.8h.8v-1.3l.9-.3h0Z"/>
    <path class="cls-2" d="M132.7,201.6v-.7h-.1c-.3.4-.8.8-1.5.8-1,0-1.5-.8-1.5-1.6,0-1.3,1.1-2.1,3-2h0c0-.6-.1-1.4-1.1-1.4s-.9.2-1.3.4l-.2-.7c.4-.3,1-.5,1.6-.5,1.5,0,1.9,1.1,1.9,2.3v2.1c0,.5,0,.9,0,1.3h-.8,0ZM132.5,198.8c-1,0-2.1.2-2.1,1.2s.4,1,.8,1,1-.5,1.2-.9c0-.1,0-.2,0-.3v-1Z"/>
    <path class="cls-2" d="M135.9,194.5v1.6h1.3v.8h-1.3v3c0,.7.2,1.1.7,1.1s.4,0,.5,0v.8c-.1,0-.4.1-.8.1s-.7-.1-1-.4c-.3-.3-.3-.8-.3-1.4v-3h-.8v-.8h.8v-1.3l.9-.3h0Z"/>
    <path class="cls-2" d="M139.2,194.5c0,.3-.2.6-.6.6s-.5-.3-.5-.6.2-.6.6-.6.5.3.5.6h0ZM138.2,201.6v-5.5h.9v5.5h-.9Z"/>
    <path class="cls-2" d="M145,198.8c0,2-1.3,2.9-2.4,2.9s-2.4-1.1-2.4-2.8,1.1-2.9,2.4-2.9,2.4,1.1,2.4,2.8h0ZM141.1,198.8c0,1.2.6,2.1,1.5,2.1s1.5-.9,1.5-2.1-.4-2.1-1.5-2.1-1.5,1.1-1.5,2.1h0Z"/>
    <path class="cls-2" d="M146.1,197.6c0-.6,0-1,0-1.5h.8v.9h0c.2-.5.8-1,1.6-1s1.7.5,1.7,2.3v3.3h-.9v-3.2c0-.9-.3-1.6-1.1-1.6s-1,.5-1.2,1c0,.1,0,.3,0,.5v3.3h-.9v-4h0Z"/>
    <path class="cls-2" d="M158.4,198.8c0,2-1.3,2.9-2.4,2.9s-2.4-1.1-2.4-2.8,1.1-2.9,2.4-2.9,2.4,1.1,2.4,2.8h0ZM154.5,198.8c0,1.2.6,2.1,1.5,2.1s1.5-.9,1.5-2.1-.4-2.1-1.5-2.1-1.5,1.1-1.5,2.1h0Z"/>
    <path class="cls-2" d="M159.6,201.6v-4.7h-.7v-.8h.7v-.3c0-.8.1-1.5.6-1.9.3-.4.8-.5,1.2-.5s.6,0,.8.2v.8c-.3,0-.4-.1-.7-.1-.8,0-1,.8-1,1.6v.3h1.2v.8h-1.2v4.7h-.9Z"/>
    <path class="cls-2" d="M165,196.1l.6,2.8c.1.6.3,1.2.4,1.8h0c.1-.6.3-1.1.4-1.7l.8-2.8h.7l.8,2.8c.2.7.3,1.2.4,1.8h0c0-.6.2-1.1.4-1.8l.7-2.8h.9l-1.6,5.5h-.8l-.7-2.6c-.2-.6-.3-1.2-.4-1.8h0c-.1.7-.3,1.2-.4,1.8l-.8,2.6h-.8l-1.5-5.5h.9Z"/>
    <path class="cls-2" d="M172.1,193.5h.9v3.4h0c.1-.3.4-.5.6-.7.3-.2.6-.3.9-.3.7,0,1.7.5,1.7,2.4v3.3h-.9v-3.2c0-.9-.3-1.6-1.1-1.6s-1,.5-1.2,1c0,.1,0,.3,0,.5v3.3h-.9v-8.1h0Z"/>
    <path class="cls-2" d="M180.4,201.6v-.7h-.1c-.3.4-.8.8-1.5.8-1,0-1.5-.8-1.5-1.6,0-1.3,1.1-2.1,3-2h0c0-.6-.1-1.4-1.1-1.4s-.9.2-1.3.4l-.2-.7c.4-.3,1-.5,1.6-.5,1.5,0,1.9,1.1,1.9,2.3v2.1c0,.5,0,.9,0,1.3h-.8,0ZM180.3,198.8c-1,0-2.1.2-2.1,1.2s.4,1,.8,1,1-.5,1.2-.9c0-.1,0-.2,0-.3v-1Z"/>
    <path class="cls-2" d="M183.6,194.5v1.6h1.3v.8h-1.3v3c0,.7.2,1.1.7,1.1s.4,0,.5,0v.8c-.1,0-.4.1-.8.1s-.7-.1-1-.4c-.3-.3-.3-.8-.3-1.4v-3h-.8v-.8h.8v-1.3l.9-.3h0Z"/>
    <path class="cls-2" d="M22.9,209.7l.6,2.8c.1.6.3,1.2.4,1.8h0c.1-.6.3-1.1.4-1.7l.8-2.8h.7l.8,2.8c.2.7.3,1.2.4,1.8h0c0-.6.2-1.1.4-1.8l.7-2.8h.9l-1.6,5.5h-.8l-.7-2.6c-.2-.6-.3-1.2-.4-1.8h0c-.1.7-.3,1.2-.4,1.8l-.8,2.6h-.8l-1.5-5.5h.9Z"/>
    <path class="cls-2" d="M32.7,215.2v-.7h-.1c-.3.4-.8.8-1.5.8-1,0-1.5-.8-1.5-1.6,0-1.3,1.1-2.1,3-2h0c0-.6-.1-1.4-1.1-1.4s-.9.2-1.3.4l-.2-.7c.4-.3,1-.5,1.6-.5,1.5,0,1.9,1.1,1.9,2.3v2.1c0,.5,0,.9,0,1.3h-.8,0ZM32.6,212.4c-1,0-2.1.2-2.1,1.2s.4,1,.8,1,1-.5,1.2-.9c0-.1,0-.2,0-.3v-1Z"/>
    <path class="cls-2" d="M34.8,214.2c.3.2.7.4,1.2.4.6,0,1-.4,1-.8s-.3-.7-.9-1c-.9-.4-1.3-.9-1.3-1.6s.6-1.6,1.7-1.6.9.2,1.2.3l-.2.7c-.2-.1-.5-.3-1-.3s-.8.3-.8.8.3.7.9.9c.9.4,1.3.8,1.3,1.7s-.7,1.6-1.8,1.6-1-.1-1.4-.4l.2-.8h0Z"/>
    <path class="cls-2" d="M41.2,215.2v-4.7h-.7v-.8h.7v-.3c0-.8.1-1.5.6-1.9.3-.4.8-.5,1.2-.5s.6,0,.8.2v.8c-.3,0-.4-.1-.7-.1-.8,0-1,.8-1,1.6v.3h1.2v.8h-1.2v4.7h-.9Z"/>
    <path class="cls-2" d="M48.4,212.4c0,2-1.3,2.9-2.4,2.9s-2.4-1.1-2.4-2.8,1.1-2.9,2.4-2.9,2.4,1.1,2.4,2.8ZM44.5,212.5c0,1.2.6,2.1,1.5,2.1s1.5-.9,1.5-2.1-.4-2.1-1.5-2.1-1.5,1.1-1.5,2.1h0Z"/>
    <path class="cls-2" d="M53.6,213.7c0,.6,0,1.1,0,1.5h-.8v-.9h0c-.2.4-.7,1-1.6,1s-1.7-.5-1.7-2.4v-3.2h.9v3.1c0,1,.3,1.8,1.1,1.8s1-.5,1.2-.9c0-.1,0-.3,0-.5v-3.4h.9v4h0Z"/>
    <path class="cls-2" d="M55.1,211.2c0-.6,0-1,0-1.5h.8v.9h0c.2-.5.8-1,1.6-1s1.7.5,1.7,2.3v3.3h-.9v-3.2c0-.9-.3-1.6-1.1-1.6s-1,.5-1.2,1c0,.1,0,.3,0,.5v3.3h-.9v-4h0Z"/>
    <path class="cls-2" d="M65,207.1v6.7c0,.5,0,1,0,1.4h-.8v-1h0c-.3.6-.9,1.1-1.7,1.1-1.2,0-2.1-1.1-2.1-2.8,0-1.8,1-3,2.2-3s1.3.4,1.5.8h0v-3.3h.9,0ZM64.1,212c0-.1,0-.3,0-.4-.1-.6-.6-1.2-1.3-1.2s-1.5.9-1.5,2.1.5,2,1.5,2,1.1-.4,1.3-1.2c0-.1,0-.3,0-.4v-1h0Z"/>
    <path class="cls-2" d="M69.6,208.2c0,.3-.2.6-.6.6s-.5-.3-.5-.6.2-.6.6-.6.5.3.5.6h0ZM68.6,215.2v-5.5h.9v5.5h-.9Z"/>
    <path class="cls-2" d="M71,211.2c0-.6,0-1,0-1.5h.8v.9h0c.2-.5.8-1,1.6-1s1.7.5,1.7,2.3v3.3h-.9v-3.2c0-.9-.3-1.6-1.1-1.6s-1,.5-1.2,1c0,.1,0,.3,0,.5v3.3h-.9v-4h0Z"/>
    <path class="cls-2" d="M79.1,209.7l1.1,3.3c.1.4.2.8.3,1.1h0c0-.3.2-.8.3-1.1l1-3.2h.9l-1.3,3.9c-.6,1.9-1.1,2.9-1.7,3.4-.4.4-.9.6-1.1.7l-.2-.8c.2,0,.5-.2.8-.5.2-.2.5-.6.7-1.1,0-.1,0-.2,0-.2s0-.1,0-.3l-1.8-5.1h1Z"/>
    <path class="cls-2" d="M83.9,212.7c0,1.4.8,1.9,1.7,1.9s1-.1,1.4-.3v.7c-.2.2-.7.3-1.5.3-1.5,0-2.4-1.1-2.4-2.8s.9-3,2.3-3,2,1.6,2,2.6,0,.4,0,.5h-3.5ZM86.6,211.9c0-.6-.2-1.6-1.2-1.6s-1.3.9-1.4,1.6h2.6,0Z"/>
    <path class="cls-2" d="M91.3,215.2v-.7h-.1c-.3.4-.8.8-1.5.8-1,0-1.5-.8-1.5-1.6,0-1.3,1.1-2.1,3-2h0c0-.6-.1-1.4-1.1-1.4s-.9.2-1.3.4l-.2-.7c.4-.3,1-.5,1.6-.5,1.5,0,1.9,1.1,1.9,2.3v2.1c0,.5,0,.9,0,1.3h-.8,0ZM91.1,212.4c-1,0-2.1.2-2.1,1.2s.4,1,.8,1,1-.5,1.2-.9c0-.1,0-.2,0-.3v-1h0Z"/>
    <path class="cls-2" d="M93.4,211.4c0-.7,0-1.2,0-1.7h.8v1.1h0c.2-.7.8-1.2,1.4-1.2s.2,0,.3,0v.9c0,0-.2,0-.3,0-.6,0-1.1.5-1.2,1.3,0,.1,0,.3,0,.5v2.9h-.9v-3.8h0Z"/>
    <path class="cls-2" d="M96.6,214.2c.3.2.7.4,1.2.4.6,0,1-.4,1-.8s-.3-.7-.9-1c-.9-.4-1.3-.9-1.3-1.6s.6-1.6,1.7-1.6.9.2,1.2.3l-.2.7c-.2-.1-.5-.3-1-.3s-.8.3-.8.8.3.7.9.9c.9.4,1.3.8,1.3,1.7s-.7,1.6-1.8,1.6-1-.1-1.4-.4l.2-.8h0Z"/>
    <path class="cls-2" d="M104,208.1v1.6h1.3v.8h-1.3v3c0,.7.2,1.1.7,1.1s.4,0,.5,0v.8c-.1,0-.4.1-.8.1s-.7-.1-1-.4c-.3-.3-.3-.8-.3-1.4v-3h-.8v-.8h.8v-1.3l.9-.3h0Z"/>
    <path class="cls-2" d="M106.3,211.4c0-.7,0-1.2,0-1.7h.8v1.1h0c.2-.7.8-1.2,1.4-1.2s.2,0,.3,0v.9c0,0-.2,0-.3,0-.6,0-1.1.5-1.2,1.3,0,.1,0,.3,0,.5v2.9h-.9v-3.8h0Z"/>
    <path class="cls-2" d="M113.9,212.4c0,2-1.3,2.9-2.4,2.9s-2.4-1.1-2.4-2.8,1.1-2.9,2.4-2.9,2.4,1.1,2.4,2.8ZM110,212.5c0,1.2.6,2.1,1.5,2.1s1.5-.9,1.5-2.1-.4-2.1-1.5-2.1-1.5,1.1-1.5,2.1h0Z"/>
    <path class="cls-2" d="M119.2,213.7c0,.6,0,1.1,0,1.5h-.8v-.9h0c-.2.4-.7,1-1.6,1s-1.7-.5-1.7-2.4v-3.2h.9v3.1c0,1,.3,1.8,1.1,1.8s1-.5,1.2-.9c0-.1,0-.3,0-.5v-3.4h.9v4h0Z"/>
    <path class="cls-2" d="M124.9,209.7c0,.4,0,.8,0,1.5v3.2c0,1.3-.2,2-.7,2.5-.5.5-1.2.7-1.8.7s-1.2-.2-1.6-.5l.2-.8c.3.2.8.4,1.4.4.9,0,1.6-.5,1.6-1.9v-.6h0c-.3.5-.8.9-1.6.9-1.2,0-2.1-1.2-2.1-2.7s1.1-2.9,2.2-2.9,1.3.5,1.5,1h0v-.8h.8ZM124,211.9c0-.2,0-.3,0-.5-.2-.6-.6-1.1-1.2-1.1s-1.5.8-1.5,2.1.5,2,1.5,2,1-.4,1.2-1c0-.2,0-.4,0-.5v-1h0Z"/>
    <path class="cls-2" d="M126.3,207.1h.9v3.4h0c.1-.3.4-.5.6-.7.3-.2.6-.3.9-.3.7,0,1.7.5,1.7,2.4v3.3h-.9v-3.2c0-.9-.3-1.6-1.1-1.6s-1,.5-1.2,1c0,.1,0,.3,0,.5v3.3h-.9v-8.1h0Z"/>
    <path class="cls-2" d="M138.4,207.1v6.7c0,.5,0,1,0,1.4h-.8v-1h0c-.3.6-.9,1.1-1.7,1.1-1.2,0-2.1-1.1-2.1-2.8,0-1.8,1-3,2.2-3s1.3.4,1.5.8h0v-3.3h.9,0ZM137.5,212c0-.1,0-.3,0-.4-.1-.6-.6-1.2-1.3-1.2s-1.5.9-1.5,2.1.5,2,1.5,2,1.1-.4,1.3-1.2c0-.1,0-.3,0-.4v-1h0Z"/>
    <path class="cls-2" d="M140.4,212.7c0,1.4.8,1.9,1.7,1.9s1-.1,1.4-.3v.7c-.2.2-.7.3-1.5.3-1.5,0-2.4-1.1-2.4-2.8s.9-3,2.3-3,2,1.6,2,2.6,0,.4,0,.5h-3.5,0ZM143,211.9c0-.6-.2-1.6-1.2-1.6s-1.3.9-1.4,1.6h2.6,0Z"/>
    <path class="cls-2" d="M149.2,207.1v6.7c0,.5,0,1,0,1.4h-.8v-1h0c-.3.6-.9,1.1-1.7,1.1-1.2,0-2.1-1.1-2.1-2.8,0-1.8,1-3,2.2-3s1.3.4,1.5.8h0v-3.3h.9,0ZM148.3,212c0-.1,0-.3,0-.4-.1-.6-.6-1.2-1.3-1.2s-1.5.9-1.5,2.1.5,2,1.5,2,1.1-.4,1.3-1.2c0-.1,0-.3,0-.4v-1h0Z"/>
    <path class="cls-2" d="M151.7,208.2c0,.3-.2.6-.6.6s-.5-.3-.5-.6.2-.6.6-.6.5.3.5.6h0ZM150.7,215.2v-5.5h.9v5.5h-.9Z"/>
    <path class="cls-2" d="M156.6,215c-.2.1-.7.3-1.4.3-1.5,0-2.4-1.1-2.4-2.8s1-2.9,2.6-2.9,1,.1,1.2.3l-.2.8c-.2-.1-.5-.3-1-.3-1.1,0-1.7.9-1.7,2.1s.7,2.1,1.7,2.1.8-.1,1.1-.3v.8q.1,0,.1,0Z"/>
    <path class="cls-2" d="M160.3,215.2v-.7h-.1c-.3.4-.8.8-1.5.8-1,0-1.5-.8-1.5-1.6,0-1.3,1.1-2.1,3-2h0c0-.6-.1-1.4-1.1-1.4s-.9.2-1.3.4l-.2-.7c.4-.3,1-.5,1.6-.5,1.5,0,1.9,1.1,1.9,2.3v2.1c0,.5,0,.9,0,1.3h-.8,0ZM160.2,212.4c-1,0-2.1.2-2.1,1.2s.4,1,.8,1,1-.5,1.2-.9c0-.1,0-.2,0-.3v-1Z"/>
    <path class="cls-2" d="M163.5,208.1v1.6h1.3v.8h-1.3v3c0,.7.2,1.1.7,1.1s.4,0,.5,0v.8c-.1,0-.4.1-.8.1s-.7-.1-1-.4c-.3-.3-.3-.8-.3-1.4v-3h-.8v-.8h.8v-1.3l.9-.3h0Z"/>
    <path class="cls-2" d="M166.8,208.2c0,.3-.2.6-.6.6s-.5-.3-.5-.6.2-.6.6-.6.5.3.5.6h0ZM165.8,215.2v-5.5h.9v5.5h-.9Z"/>
    <path class="cls-2" d="M172.6,212.4c0,2-1.3,2.9-2.4,2.9s-2.4-1.1-2.4-2.8,1.1-2.9,2.4-2.9,2.4,1.1,2.4,2.8h0ZM168.7,212.5c0,1.2.6,2.1,1.5,2.1s1.5-.9,1.5-2.1-.4-2.1-1.5-2.1-1.5,1.1-1.5,2.1h0Z"/>
    <path class="cls-2" d="M173.8,211.2c0-.6,0-1,0-1.5h.8v.9h0c.2-.5.8-1,1.6-1s1.7.5,1.7,2.3v3.3h-.9v-3.2c0-.9-.3-1.6-1.1-1.6s-1,.5-1.2,1c0,.1,0,.3,0,.5v3.3h-.9v-4h0Z"/>
    <path class="cls-2" d="M186,212.4c0,2-1.3,2.9-2.4,2.9s-2.4-1.1-2.4-2.8,1.1-2.9,2.4-2.9,2.4,1.1,2.4,2.8h0ZM182.1,212.5c0,1.2.6,2.1,1.5,2.1s1.5-.9,1.5-2.1-.4-2.1-1.5-2.1-1.5,1.1-1.5,2.1h0Z"/>
    <path class="cls-2" d="M187.2,215.2v-4.7h-.7v-.8h.7v-.3c0-.8.1-1.5.6-1.9.3-.4.8-.5,1.2-.5s.6,0,.8.2v.8c-.3,0-.4-.1-.7-.1-.8,0-1,.8-1,1.6v.3h1.2v.8h-1.2v4.7h-.9Z"/>
    <path class="cls-2" d="M22.6,225.2c0-.7,0-1.3,0-1.8h.8v.9h0c.4-.7.9-1.1,1.7-1.1,1.2,0,2.1,1.1,2.1,2.8s-1.1,3-2.2,3-1.2-.3-1.5-.9h0v3h-.9v-6h0ZM23.5,226.6c0,.1,0,.3,0,.4.2.7.7,1.2,1.3,1.2.9,0,1.5-.9,1.5-2.1s-.5-2-1.5-2-1.2.5-1.3,1.2c0,.1,0,.3,0,.4v.9h0Z"/>
    <path class="cls-2" d="M28.4,225.1c0-.7,0-1.2,0-1.7h.8v1.1h0c.2-.7.8-1.2,1.4-1.2s.2,0,.3,0v.9c0,0-.2,0-.3,0-.6,0-1.1.5-1.2,1.3,0,.1,0,.3,0,.5v2.9h-.9v-3.8h0Z"/>
    <path class="cls-2" d="M34.4,228.9v-.7h-.1c-.3.4-.8.8-1.5.8-1,0-1.5-.8-1.5-1.6,0-1.3,1.1-2.1,3-2h0c0-.6-.1-1.4-1.1-1.4s-.9.2-1.3.4l-.2-.7c.4-.3,1-.5,1.6-.5,1.5,0,1.9,1.1,1.9,2.3v2.1c0,.5,0,.9,0,1.3h-.8,0ZM34.2,226.1c-1,0-2.1.2-2.1,1.2s.4,1,.8,1,1-.5,1.2-.9c0-.1,0-.2,0-.3v-1Z"/>
    <path class="cls-2" d="M40,228.7c-.2.1-.7.3-1.4.3-1.5,0-2.4-1.1-2.4-2.8s1-2.9,2.6-2.9,1,.1,1.2.3l-.2.8c-.2-.1-.5-.3-1-.3-1.1,0-1.7.9-1.7,2.1s.7,2.1,1.7,2.1.8-.1,1.1-.3v.8q.1,0,.1,0Z"/>
    <path class="cls-2" d="M42.3,221.8v1.6h1.3v.8h-1.3v3c0,.7.2,1.1.7,1.1s.4,0,.5,0v.8c-.1,0-.4.1-.8.1s-.7-.1-1-.4c-.3-.3-.3-.8-.3-1.4v-3h-.8v-.8h.8v-1.3l.9-.3h0Z"/>
    <path class="cls-2" d="M45.6,221.8c0,.3-.2.6-.6.6s-.5-.3-.5-.6.2-.6.6-.6.5.3.5.6h0ZM44.6,228.9v-5.5h.9v5.5h-.9Z"/>
    <path class="cls-2" d="M50.4,228.7c-.2.1-.7.3-1.4.3-1.5,0-2.4-1.1-2.4-2.8s1-2.9,2.6-2.9,1,.1,1.2.3l-.2.8c-.2-.1-.5-.3-1-.3-1.1,0-1.7.9-1.7,2.1s.7,2.1,1.7,2.1.8-.1,1.1-.3v.8q.1,0,.1,0Z"/>
    <path class="cls-2" d="M51.9,226.3c0,1.4.8,1.9,1.7,1.9s1-.1,1.4-.3v.7c-.2.2-.7.3-1.5.3-1.5,0-2.4-1.1-2.4-2.8s.9-3,2.3-3,2,1.6,2,2.6,0,.4,0,.5h-3.5,0ZM54.5,225.6c0-.6-.2-1.6-1.2-1.6s-1.3.9-1.4,1.6h2.6,0Z"/>
    <path class="cls-2" d="M59.7,221.8c0,.3-.2.6-.6.6s-.5-.3-.5-.6.2-.6.6-.6.5.3.5.6h0ZM58.7,228.9v-5.5h.9v5.5h-.9Z"/>
    <path class="cls-2" d="M61,224.9c0-.6,0-1,0-1.5h.8v.9h0c.2-.5.8-1,1.6-1s1.7.5,1.7,2.3v3.3h-.9v-3.2c0-.9-.3-1.6-1.1-1.6s-1,.5-1.2,1c0,.1,0,.3,0,.5v3.3h-.9v-4h0Z"/>
    <path class="cls-2" d="M68.7,227.8c.3.2.7.4,1.2.4.6,0,1-.4,1-.8s-.3-.7-.9-1c-.9-.4-1.3-.9-1.3-1.6s.6-1.6,1.7-1.6.9.2,1.2.3l-.2.7c-.2-.1-.5-.3-1-.3s-.8.3-.8.8.3.7.9.9c.9.4,1.3.8,1.3,1.7s-.7,1.6-1.8,1.6-1-.1-1.4-.4l.2-.8h0Z"/>
    <path class="cls-2" d="M77.3,226.1c0,2-1.3,2.9-2.4,2.9s-2.4-1.1-2.4-2.8,1.1-2.9,2.4-2.9,2.4,1.1,2.4,2.8ZM73.4,226.1c0,1.2.6,2.1,1.5,2.1s1.5-.9,1.5-2.1-.4-2.1-1.5-2.1-1.5,1.1-1.5,2.1h0Z"/>
    <path class="cls-2" d="M78.4,220.8h.9v8.1h-.9v-8.1Z"/>
    <path class="cls-2" d="M81.8,221.8c0,.3-.2.6-.6.6s-.5-.3-.5-.6.2-.6.6-.6.5.3.5.6h0ZM80.8,228.9v-5.5h.9v5.5h-.9Z"/>
    <path class="cls-2" d="M84.3,221.8v1.6h1.3v.8h-1.3v3c0,.7.2,1.1.7,1.1s.4,0,.5,0v.8c-.1,0-.4.1-.8.1s-.7-.1-1-.4c-.3-.3-.3-.8-.3-1.4v-3h-.8v-.8h.8v-1.3l.9-.3h0Z"/>
    <path class="cls-2" d="M90.7,227.4c0,.6,0,1.1,0,1.5h-.8v-.9h0c-.2.4-.7,1-1.6,1s-1.7-.5-1.7-2.4v-3.2h.9v3.1c0,1,.3,1.8,1.1,1.8s1-.5,1.2-.9c0-.1,0-.3,0-.5v-3.4h.9v4h0Z"/>
    <path class="cls-2" d="M96.4,220.8v6.7c0,.5,0,1,0,1.4h-.8v-1h0c-.3.6-.9,1.1-1.7,1.1-1.2,0-2.1-1.1-2.1-2.8,0-1.8,1-3,2.2-3s1.3.4,1.5.8h0v-3.3h.9,0ZM95.5,225.6c0-.1,0-.3,0-.4-.1-.6-.6-1.2-1.3-1.2s-1.5.9-1.5,2.1.5,2,1.5,2,1.1-.4,1.3-1.2c0-.1,0-.3,0-.4v-1h0Z"/>
    <path class="cls-2" d="M98.4,226.3c0,1.4.8,1.9,1.7,1.9s1-.1,1.4-.3v.7c-.2.2-.7.3-1.5.3-1.5,0-2.4-1.1-2.4-2.8s.9-3,2.3-3,2,1.6,2,2.6,0,.4,0,.5h-3.5ZM101,225.6c0-.6-.2-1.6-1.2-1.6s-1.3.9-1.4,1.6h2.6,0Z"/>
    <path class="cls-2" d="M106.2,221.8v1.6h1.3v.8h-1.3v3c0,.7.2,1.1.7,1.1s.4,0,.5,0v.8c-.1,0-.4.1-.8.1s-.7-.1-1-.4c-.3-.3-.3-.8-.3-1.4v-3h-.8v-.8h.8v-1.3l.9-.3h0Z"/>
    <path class="cls-2" d="M108.5,225.1c0-.7,0-1.2,0-1.7h.8v1.1h0c.2-.7.8-1.2,1.4-1.2s.2,0,.3,0v.9c0,0-.2,0-.3,0-.6,0-1.1.5-1.2,1.3,0,.1,0,.3,0,.5v2.9h-.9v-3.8h0Z"/>
    <path class="cls-2" d="M116.1,226.1c0,2-1.3,2.9-2.4,2.9s-2.4-1.1-2.4-2.8,1.1-2.9,2.4-2.9,2.4,1.1,2.4,2.8ZM112.3,226.1c0,1.2.6,2.1,1.5,2.1s1.5-.9,1.5-2.1-.4-2.1-1.5-2.1-1.5,1.1-1.5,2.1h0Z"/>
    <path class="cls-2" d="M121.4,227.4c0,.6,0,1.1,0,1.5h-.8v-.9h0c-.2.4-.7,1-1.6,1s-1.7-.5-1.7-2.4v-3.2h.9v3.1c0,1,.3,1.8,1.1,1.8s1-.5,1.2-.9c0-.1,0-.3,0-.5v-3.4h.9v4h0Z"/>
    <path class="cls-2" d="M127.1,223.4c0,.4,0,.8,0,1.5v3.2c0,1.3-.2,2-.7,2.5-.5.5-1.2.7-1.8.7s-1.2-.2-1.6-.5l.2-.8c.3.2.8.4,1.4.4.9,0,1.6-.5,1.6-1.9v-.6h0c-.3.5-.8.9-1.6.9-1.2,0-2.1-1.2-2.1-2.7s1.1-2.9,2.2-2.9,1.3.5,1.5,1h0v-.8h.8ZM126.2,225.5c0-.2,0-.3,0-.5-.2-.6-.6-1.1-1.2-1.1s-1.5.8-1.5,2.1.5,2,1.5,2,1-.4,1.2-1c0-.2,0-.4,0-.5v-1h0Z"/>
    <path class="cls-2" d="M128.5,220.8h.9v3.4h0c.1-.3.4-.5.6-.7.3-.2.6-.3.9-.3.7,0,1.7.5,1.7,2.4v3.3h-.9v-3.2c0-.9-.3-1.6-1.1-1.6s-1,.5-1.2,1c0,.1,0,.3,0,.5v3.3h-.9v-8.1h0Z"/>
    <path class="cls-2" d="M139.7,228h0c-.3.5-.8,1-1.6,1-1.1,0-2.1-1.1-2.1-2.8s1.2-3,2.2-3,1.3.4,1.5,1h0v-.8h.9c0,.5,0,.9,0,1.5v6.2h-.9v-3.1h0ZM139.7,225.6c0-.1,0-.3,0-.4-.1-.6-.6-1.1-1.3-1.1s-1.5.9-1.5,2.1.5,2,1.5,2,1.1-.4,1.3-1.1c0-.1,0-.3,0-.5v-1Z"/>
    <path class="cls-2" d="M146.2,227.4c0,.6,0,1.1,0,1.5h-.8v-.9h0c-.2.4-.7,1-1.6,1s-1.7-.5-1.7-2.4v-3.2h.9v3.1c0,1,.3,1.8,1.1,1.8s1-.5,1.2-.9c0-.1,0-.3,0-.5v-3.4h.9v4h0Z"/>
    <path class="cls-2" d="M148.6,221.8c0,.3-.2.6-.6.6s-.5-.3-.5-.6.2-.6.6-.6.5.3.5.6h0ZM147.6,228.9v-5.5h.9v5.5h-.9Z"/>
    <path class="cls-2" d="M151.1,221.8v1.6h1.3v.8h-1.3v3c0,.7.2,1.1.7,1.1s.4,0,.5,0v.8c-.1,0-.4.1-.8.1s-.7-.1-1-.4c-.3-.3-.3-.8-.3-1.4v-3h-.8v-.8h.8v-1.3l.9-.3h0Z"/>
    <path class="cls-2" d="M153.8,226.3c0,1.4.8,1.9,1.7,1.9s1-.1,1.4-.3v.7c-.2.2-.7.3-1.5.3-1.5,0-2.4-1.1-2.4-2.8s.9-3,2.3-3,2,1.6,2,2.6,0,.4,0,.5h-3.5,0ZM156.4,225.6c0-.6-.2-1.6-1.2-1.6s-1.3.9-1.4,1.6h2.6,0Z"/>
    <path class="cls-2" d="M164.1,228.7c-.2.1-.7.3-1.4.3-1.5,0-2.4-1.1-2.4-2.8s1-2.9,2.6-2.9,1,.1,1.2.3l-.2.8c-.2-.1-.5-.3-1-.3-1.1,0-1.7.9-1.7,2.1s.7,2.1,1.7,2.1.8-.1,1.1-.3v.8q.1,0,.1,0Z"/>
    <path class="cls-2" d="M169.5,226.1c0,2-1.3,2.9-2.4,2.9s-2.4-1.1-2.4-2.8,1.1-2.9,2.4-2.9,2.4,1.1,2.4,2.8h0ZM165.6,226.1c0,1.2.6,2.1,1.5,2.1s1.5-.9,1.5-2.1-.4-2.1-1.5-2.1-1.5,1.1-1.5,2.1h0Z"/>
    <path class="cls-2" d="M170.6,224.9c0-.6,0-1,0-1.5h.8v.9h0c.2-.5.8-1,1.6-1s1.7.5,1.7,2.3v3.3h-.9v-3.2c0-.9-.3-1.6-1.1-1.6s-1,.5-1.2,1c0,.1,0,.3,0,.5v3.3h-.9v-4h0Z"/>
    <path class="cls-2" d="M177.3,221.8v1.6h1.3v.8h-1.3v3c0,.7.2,1.1.7,1.1s.4,0,.5,0v.8c-.1,0-.4.1-.8.1s-.7-.1-1-.4c-.3-.3-.3-.8-.3-1.4v-3h-.8v-.8h.8v-1.3l.9-.3h0Z"/>
    <path class="cls-2" d="M180,226.3c0,1.4.8,1.9,1.7,1.9s1-.1,1.4-.3v.7c-.2.2-.7.3-1.5.3-1.5,0-2.4-1.1-2.4-2.8s.9-3,2.3-3,2,1.6,2,2.6,0,.4,0,.5h-3.5,0ZM182.6,225.6c0-.6-.2-1.6-1.2-1.6s-1.3.9-1.4,1.6h2.6,0Z"/>
    <path class="cls-2" d="M184.6,224.9c0-.6,0-1,0-1.5h.8v.9h0c.3-.5.7-1,1.5-1s1.2.5,1.4,1.1h0c.1-.3.3-.5.5-.7.3-.2.6-.4,1.1-.4s1.6.5,1.6,2.4v3.2h-.9v-3.1c0-1.1-.3-1.7-1.1-1.7s-.9.4-1.1.9c0,.1,0,.3,0,.5v3.4h-.9v-3.3c0-.9-.3-1.5-1-1.5s-1,.5-1.1,1c0,.1,0,.3,0,.5v3.3h-.9v-4h0Z"/>
    <path class="cls-2" d="M195.1,225.4v.7h-2.5v-.7h2.5Z"/>
    <path class="cls-2" d="M22.6,238.8c0-.7,0-1.3,0-1.8h.8v.9h0c.4-.7.9-1.1,1.7-1.1,1.2,0,2.1,1.1,2.1,2.8s-1.1,3-2.2,3-1.2-.3-1.5-.9h0v3h-.9v-6h0ZM23.5,240.3c0,.1,0,.3,0,.4.2.7.7,1.2,1.3,1.2.9,0,1.5-.9,1.5-2.1s-.5-2-1.5-2-1.2.5-1.3,1.2c0,.1,0,.3,0,.4v.9h0Z"/>
    <path class="cls-2" d="M28.4,234.4h.9v8.1h-.9v-8.1Z"/>
    <path class="cls-2" d="M33.5,242.5v-.7h-.1c-.3.4-.8.8-1.5.8-1,0-1.5-.8-1.5-1.6,0-1.3,1.1-2.1,3-2h0c0-.6-.1-1.4-1.1-1.4s-.9.2-1.3.4l-.2-.7c.4-.3,1-.5,1.6-.5,1.5,0,1.9,1.1,1.9,2.3v2.1c0,.5,0,.9,0,1.3h-.8,0ZM33.3,239.7c-1,0-2.1.2-2.1,1.2s.4,1,.8,1,1-.5,1.2-.9c0-.1,0-.2,0-.3v-1Z"/>
    <path class="cls-2" d="M36.7,235.4v1.6h1.3v.8h-1.3v3c0,.7.2,1.1.7,1.1s.4,0,.5,0v.8c-.1,0-.4.1-.8.1s-.7-.1-1-.4c-.3-.3-.3-.8-.3-1.4v-3h-.8v-.8h.8v-1.3l.9-.3h0Z"/>
    <path class="cls-2" d="M40,235.5c0,.3-.2.6-.6.6s-.5-.3-.5-.6.2-.6.6-.6.5.3.5.6h0ZM39,242.5v-5.5h.9v5.5h-.9Z"/>
    <path class="cls-2" d="M45.8,239.7c0,2-1.3,2.9-2.4,2.9s-2.4-1.1-2.4-2.8,1.1-2.9,2.4-2.9,2.4,1.1,2.4,2.8ZM41.9,239.8c0,1.2.6,2.1,1.5,2.1s1.5-.9,1.5-2.1-.4-2.1-1.5-2.1-1.5,1.1-1.5,2.1h0Z"/>
    <path class="cls-2" d="M46.9,238.5c0-.6,0-1,0-1.5h.8v.9h0c.2-.5.8-1,1.6-1s1.7.5,1.7,2.3v3.3h-.9v-3.2c0-.9-.3-1.6-1.1-1.6s-1,.5-1.2,1c0,.1,0,.3,0,.5v3.3h-.9v-4h0Z"/>
    <path class="cls-2" d="M52,243.9c.2-.7.5-1.9.6-2.7h1c-.2.9-.7,2.1-1,2.6h-.6c0,0,0,0,0,0Z"/>
    <path class="cls-2" d="M57.2,237l1,3.1c.2.5.3,1,.4,1.4h0c.1-.5.3-.9.4-1.4l1-3.1h.9l-1.9,5.5h-.9l-1.9-5.5h1Z"/>
    <path class="cls-2" d="M62.7,235.5c0,.3-.2.6-.6.6s-.5-.3-.5-.6.2-.6.6-.6.5.3.5.6h0ZM61.7,242.5v-5.5h.9v5.5h-.9Z"/>
    <path class="cls-2" d="M63.9,241.5c.3.2.7.4,1.2.4.6,0,1-.4,1-.8s-.3-.7-.9-1c-.9-.4-1.3-.9-1.3-1.6s.6-1.6,1.7-1.6.9.2,1.2.3l-.2.7c-.2-.1-.5-.3-1-.3s-.8.3-.8.8.3.7.9.9c.9.4,1.3.8,1.3,1.7s-.7,1.6-1.8,1.6-1-.1-1.4-.4l.2-.8h0Z"/>
    <path class="cls-2" d="M69.1,235.5c0,.3-.2.6-.6.6s-.5-.3-.5-.6.2-.6.6-.6.5.3.5.6h0ZM68.1,242.5v-5.5h.9v5.5h-.9Z"/>
    <path class="cls-2" d="M74.9,239.7c0,2-1.3,2.9-2.4,2.9s-2.4-1.1-2.4-2.8,1.1-2.9,2.4-2.9,2.4,1.1,2.4,2.8ZM71,239.8c0,1.2.6,2.1,1.5,2.1s1.5-.9,1.5-2.1-.4-2.1-1.5-2.1-1.5,1.1-1.5,2.1h0Z"/>
    <path class="cls-2" d="M76,238.5c0-.6,0-1,0-1.5h.8v.9h0c.2-.5.8-1,1.6-1s1.7.5,1.7,2.3v3.3h-.9v-3.2c0-.9-.3-1.6-1.1-1.6s-1,.5-1.2,1c0,.1,0,.3,0,.5v3.3h-.9v-4h0Z"/>
    <path class="cls-2" d="M81.6,241.5c.3.2.7.4,1.2.4.6,0,1-.4,1-.8s-.3-.7-.9-1c-.9-.4-1.3-.9-1.3-1.6s.6-1.6,1.7-1.6.9.2,1.2.3l-.2.7c-.2-.1-.5-.3-1-.3s-.8.3-.8.8.3.7.9.9c.9.4,1.3.8,1.3,1.7s-.7,1.6-1.8,1.6-1-.1-1.4-.4l.2-.8h0Z"/>
    <path class="cls-2" d="M90.6,242.5v-.7h-.1c-.3.4-.8.8-1.5.8-1,0-1.5-.8-1.5-1.6,0-1.3,1.1-2.1,3-2h0c0-.6-.1-1.4-1.1-1.4s-.9.2-1.3.4l-.2-.7c.4-.3,1-.5,1.6-.5,1.5,0,1.9,1.1,1.9,2.3v2.1c0,.5,0,.9,0,1.3h-.8,0ZM90.4,239.7c-1,0-2.1.2-2.1,1.2s.4,1,.8,1,1-.5,1.2-.9c0-.1,0-.2,0-.3v-1h0Z"/>
    <path class="cls-2" d="M92.7,238.5c0-.6,0-1,0-1.5h.8v.9h0c.2-.5.8-1,1.6-1s1.7.5,1.7,2.3v3.3h-.9v-3.2c0-.9-.3-1.6-1.1-1.6s-1,.5-1.2,1c0,.1,0,.3,0,.5v3.3h-.9v-4h0Z"/>
    <path class="cls-2" d="M102.6,234.4v6.7c0,.5,0,1,0,1.4h-.8v-1h0c-.3.6-.9,1.1-1.7,1.1-1.2,0-2.1-1.1-2.1-2.8,0-1.8,1-3,2.2-3s1.3.4,1.5.8h0v-3.3h.9,0ZM101.7,239.3c0-.1,0-.3,0-.4-.1-.6-.6-1.2-1.3-1.2s-1.5.9-1.5,2.1.5,2,1.5,2,1.1-.4,1.3-1.2c0-.1,0-.3,0-.4v-1h0Z"/>
    <path class="cls-2" d="M107.3,235.5c0,.3-.2.6-.6.6s-.5-.3-.5-.6.2-.6.6-.6.5.3.5.6h0ZM106.3,242.5v-5.5h.9v5.5h-.9Z"/>
    <path class="cls-2" d="M108.6,238.5c0-.6,0-1,0-1.5h.8v.9h0c.2-.5.8-1,1.6-1s1.7.5,1.7,2.3v3.3h-.9v-3.2c0-.9-.3-1.6-1.1-1.6s-1,.5-1.2,1c0,.1,0,.3,0,.5v3.3h-.9v-4h0Z"/>
    <path class="cls-2" d="M114.4,242.5v-4.7h-.7v-.8h.7v-.3c0-.8.1-1.5.6-1.9.3-.4.8-.5,1.2-.5s.6,0,.8.2v.8c-.3,0-.4-.1-.7-.1-.8,0-1,.8-1,1.6v.3h1.2v.8h-1.2v4.7h-.9Z"/>
    <path class="cls-2" d="M121.5,239.7c0,2-1.3,2.9-2.4,2.9s-2.4-1.1-2.4-2.8,1.1-2.9,2.4-2.9,2.4,1.1,2.4,2.8ZM117.7,239.8c0,1.2.6,2.1,1.5,2.1s1.5-.9,1.5-2.1-.4-2.1-1.5-2.1-1.5,1.1-1.5,2.1h0Z"/>
    <path class="cls-2" d="M122.7,238.7c0-.7,0-1.2,0-1.7h.8v1.1h0c.2-.7.8-1.2,1.4-1.2s.2,0,.3,0v.9c0,0-.2,0-.3,0-.6,0-1.1.5-1.2,1.3,0,.1,0,.3,0,.5v2.9h-.9v-3.8h0Z"/>
    <path class="cls-2" d="M126,238.5c0-.6,0-1,0-1.5h.8v.9h0c.3-.5.7-1,1.5-1s1.2.5,1.4,1.1h0c.1-.3.3-.5.5-.7.3-.2.6-.4,1.1-.4s1.6.5,1.6,2.4v3.2h-.9v-3.1c0-1.1-.3-1.7-1.1-1.7s-.9.4-1.1.9c0,.1,0,.3,0,.5v3.4h-.9v-3.3c0-.9-.3-1.5-1-1.5s-1,.5-1.1,1c0,.1,0,.3,0,.5v3.3h-.9v-4h0Z"/>
    <path class="cls-2" d="M137.2,242.5v-.7h-.1c-.3.4-.8.8-1.5.8-1,0-1.5-.8-1.5-1.6,0-1.3,1.1-2.1,3-2h0c0-.6-.1-1.4-1.1-1.4s-.9.2-1.3.4l-.2-.7c.4-.3,1-.5,1.6-.5,1.5,0,1.9,1.1,1.9,2.3v2.1c0,.5,0,.9,0,1.3h-.8,0ZM137.1,239.7c-1,0-2.1.2-2.1,1.2s.4,1,.8,1,1-.5,1.2-.9c0-.1,0-.2,0-.3v-1Z"/>
    <path class="cls-2" d="M140.4,235.4v1.6h1.3v.8h-1.3v3c0,.7.2,1.1.7,1.1s.4,0,.5,0v.8c-.1,0-.4.1-.8.1s-.7-.1-1-.4c-.3-.3-.3-.8-.3-1.4v-3h-.8v-.8h.8v-1.3l.9-.3h0Z"/>
    <path class="cls-2" d="M143.7,235.5c0,.3-.2.6-.6.6s-.5-.3-.5-.6.2-.6.6-.6.5.3.5.6h0ZM142.7,242.5v-5.5h.9v5.5h-.9Z"/>
    <path class="cls-2" d="M149.5,239.7c0,2-1.3,2.9-2.4,2.9s-2.4-1.1-2.4-2.8,1.1-2.9,2.4-2.9,2.4,1.1,2.4,2.8h0ZM145.6,239.8c0,1.2.6,2.1,1.5,2.1s1.5-.9,1.5-2.1-.4-2.1-1.5-2.1-1.5,1.1-1.5,2.1h0Z"/>
    <path class="cls-2" d="M150.7,238.5c0-.6,0-1,0-1.5h.8v.9h0c.2-.5.8-1,1.6-1s1.7.5,1.7,2.3v3.3h-.9v-3.2c0-.9-.3-1.6-1.1-1.6s-1,.5-1.2,1c0,.1,0,.3,0,.5v3.3h-.9v-4h0Z"/>
    <path class="cls-2" d="M158.8,237l.6,2.8c.1.6.3,1.2.4,1.8h0c.1-.6.3-1.1.4-1.7l.8-2.8h.7l.8,2.8c.2.7.3,1.2.4,1.8h0c0-.6.2-1.1.4-1.8l.7-2.8h.9l-1.6,5.5h-.8l-.7-2.6c-.2-.6-.3-1.2-.4-1.8h0c-.1.7-.3,1.2-.4,1.8l-.8,2.6h-.8l-1.5-5.5h.9Z"/>
    <path class="cls-2" d="M165.9,234.4h.9v3.4h0c.1-.3.4-.5.6-.7.3-.2.6-.3.9-.3.7,0,1.7.5,1.7,2.4v3.3h-.9v-3.2c0-.9-.3-1.6-1.1-1.6s-1,.5-1.2,1c0,.1,0,.3,0,.5v3.3h-.9v-8.1h0Z"/>
    <path class="cls-2" d="M172.6,235.5c0,.3-.2.6-.6.6s-.5-.3-.5-.6.2-.6.6-.6.5.3.5.6h0ZM171.6,242.5v-5.5h.9v5.5h-.9Z"/>
    <path class="cls-2" d="M177.4,242.3c-.2.1-.7.3-1.4.3-1.5,0-2.4-1.1-2.4-2.8s1-2.9,2.6-2.9,1,.1,1.2.3l-.2.8c-.2-.1-.5-.3-1-.3-1.1,0-1.7.9-1.7,2.1s.7,2.1,1.7,2.1.8-.1,1.1-.3v.8q.1,0,.1,0Z"/>
    <path class="cls-2" d="M178.5,234.4h.9v3.4h0c.1-.3.4-.5.6-.7.3-.2.6-.3.9-.3.7,0,1.7.5,1.7,2.4v3.3h-.9v-3.2c0-.9-.3-1.6-1.1-1.6s-1,.5-1.2,1c0,.1,0,.3,0,.5v3.3h-.9v-8.1h0Z"/>
    <path class="cls-2" d="M22.7,256.2v-4.7h-.7v-.8h.7v-.3c0-.8.1-1.5.6-1.9.3-.4.8-.5,1.2-.5s.6,0,.8.2v.8c-.3,0-.4-.1-.7-.1-.8,0-1,.8-1,1.6v.3h1.2v.8h-1.2v4.7h-.9,0Z"/>
    <path class="cls-2" d="M29.9,253.4c0,2-1.3,2.9-2.4,2.9s-2.4-1.1-2.4-2.8,1.1-2.9,2.4-2.9,2.4,1.1,2.4,2.8ZM26,253.4c0,1.2.6,2.1,1.5,2.1s1.5-.9,1.5-2.1-.4-2.1-1.5-2.1-1.5,1.1-1.5,2.1h0Z"/>
    <path class="cls-2" d="M35.1,254.7c0,.6,0,1.1,0,1.5h-.8v-.9h0c-.2.4-.7,1-1.6,1s-1.7-.5-1.7-2.4v-3.2h.9v3.1c0,1,.3,1.8,1.1,1.8s1-.5,1.2-.9c0-.1,0-.3,0-.5v-3.4h.9v4h0Z"/>
    <path class="cls-2" d="M36.6,252.2c0-.6,0-1,0-1.5h.8v.9h0c.2-.5.8-1,1.6-1s1.7.5,1.7,2.3v3.3h-.9v-3.2c0-.9-.3-1.6-1.1-1.6s-1,.5-1.2,1c0,.1,0,.3,0,.5v3.3h-.9v-4h0Z"/>
    <path class="cls-2" d="M46.5,248.1v6.7c0,.5,0,1,0,1.4h-.8v-1h0c-.3.6-.9,1.1-1.7,1.1-1.2,0-2.1-1.1-2.1-2.8,0-1.8,1-3,2.2-3s1.3.4,1.5.8h0v-3.3h.9,0ZM45.6,252.9c0-.1,0-.3,0-.4-.1-.6-.6-1.2-1.3-1.2s-1.5.9-1.5,2.1.5,2,1.5,2,1.1-.4,1.3-1.2c0-.1,0-.3,0-.4v-1h0Z"/>
    <path class="cls-2" d="M51.2,249.1v1.6h1.3v.8h-1.3v3c0,.7.2,1.1.7,1.1s.4,0,.5,0v.8c-.1,0-.4.1-.8.1s-.7-.1-1-.4c-.3-.3-.3-.8-.3-1.4v-3h-.8v-.8h.8v-1.3l.9-.3h0Z"/>
    <path class="cls-2" d="M53.5,248.1h.9v3.4h0c.1-.3.4-.5.6-.7.3-.2.6-.3.9-.3.7,0,1.7.5,1.7,2.4v3.3h-.9v-3.2c0-.9-.3-1.6-1.1-1.6s-1,.5-1.2,1c0,.1,0,.3,0,.5v3.3h-.9v-8.1h0Z"/>
    <path class="cls-2" d="M59.6,253.6c0,1.4.8,1.9,1.7,1.9s1-.1,1.4-.3v.7c-.2.2-.7.3-1.5.3-1.5,0-2.4-1.1-2.4-2.8s.9-3,2.3-3,2,1.6,2,2.6,0,.4,0,.5h-3.5ZM62.2,252.9c0-.6-.2-1.6-1.2-1.6s-1.3.9-1.4,1.6h2.6,0Z"/>
    <path class="cls-2" d="M64.2,252.4c0-.7,0-1.2,0-1.7h.8v1.1h0c.2-.7.8-1.2,1.4-1.2s.2,0,.3,0v.9c0,0-.2,0-.3,0-.6,0-1.1.5-1.2,1.3,0,.1,0,.3,0,.5v2.9h-.9v-3.8h0Z"/>
    <path class="cls-2" d="M67.9,253.6c0,1.4.8,1.9,1.7,1.9s1-.1,1.4-.3v.7c-.2.2-.7.3-1.5.3-1.5,0-2.4-1.1-2.4-2.8s.9-3,2.3-3,2,1.6,2,2.6,0,.4,0,.5h-3.5ZM70.5,252.9c0-.6-.2-1.6-1.2-1.6s-1.3.9-1.4,1.6h2.6,0Z"/>
    <path class="cls-2" d="M75.1,253.6c0,1.4.8,1.9,1.7,1.9s1-.1,1.4-.3v.7c-.2.2-.7.3-1.5.3-1.5,0-2.4-1.1-2.4-2.8s.9-3,2.3-3,2,1.6,2,2.6,0,.4,0,.5h-3.5ZM77.8,252.9c0-.6-.2-1.6-1.2-1.6s-1.3.9-1.4,1.6h2.6,0Z"/>
    <path class="cls-2" d="M80.1,250.7l.7,1.2c.2.3.3.6.5.9h0c.2-.3.3-.6.5-.9l.7-1.2h1l-1.7,2.7,1.7,2.8h-1l-.7-1.2c-.2-.3-.4-.6-.5-1h0c-.2.3-.3.6-.5,1l-.7,1.2h-1l1.7-2.8-1.7-2.7h1,0Z"/>
    <path class="cls-2" d="M84.4,252.5c0-.7,0-1.3,0-1.8h.8v.9h0c.4-.7.9-1.1,1.7-1.1,1.2,0,2.1,1.1,2.1,2.8s-1.1,3-2.2,3-1.2-.3-1.5-.9h0v3h-.9v-6h0ZM85.3,253.9c0,.1,0,.3,0,.4.2.7.7,1.2,1.3,1.2.9,0,1.5-.9,1.5-2.1s-.5-2-1.5-2-1.2.5-1.3,1.2c0,.1,0,.3,0,.4v.9h0Z"/>
    <path class="cls-2" d="M90.2,252.4c0-.7,0-1.2,0-1.7h.8v1.1h0c.2-.7.8-1.2,1.4-1.2s.2,0,.3,0v.9c0,0-.2,0-.3,0-.6,0-1.1.5-1.2,1.3,0,.1,0,.3,0,.5v2.9h-.9v-3.8h0Z"/>
    <path class="cls-2" d="M93.9,253.6c0,1.4.8,1.9,1.7,1.9s1-.1,1.4-.3v.7c-.2.2-.7.3-1.5.3-1.5,0-2.4-1.1-2.4-2.8s.9-3,2.3-3,2,1.6,2,2.6,0,.4,0,.5h-3.5ZM96.5,252.9c0-.6-.2-1.6-1.2-1.6s-1.3.9-1.4,1.6h2.6,0Z"/>
    <path class="cls-2" d="M98.4,255.2c.3.2.7.4,1.2.4.6,0,1-.4,1-.8s-.3-.7-.9-1c-.9-.4-1.3-.9-1.3-1.6s.6-1.6,1.7-1.6.9.2,1.2.3l-.2.7c-.2-.1-.5-.3-1-.3s-.8.3-.8.8.3.7.9.9c.9.4,1.3.8,1.3,1.7s-.7,1.6-1.8,1.6-1-.1-1.4-.4l.2-.8h0Z"/>
    <path class="cls-2" d="M102.4,255.2c.3.2.7.4,1.2.4.6,0,1-.4,1-.8s-.3-.7-.9-1c-.9-.4-1.3-.9-1.3-1.6s.6-1.6,1.7-1.6.9.2,1.2.3l-.2.7c-.2-.1-.5-.3-1-.3s-.8.3-.8.8.3.7.9.9c.9.4,1.3.8,1.3,1.7s-.7,1.6-1.8,1.6-1-.1-1.4-.4l.2-.8h0Z"/>
    <path class="cls-2" d="M107.5,249.1c0,.3-.2.6-.6.6s-.5-.3-.5-.6.2-.6.6-.6.5.3.5.6h0ZM106.5,256.2v-5.5h.9v5.5h-.9Z"/>
    <path class="cls-2" d="M113.3,253.4c0,2-1.3,2.9-2.4,2.9s-2.4-1.1-2.4-2.8,1.1-2.9,2.4-2.9,2.4,1.1,2.4,2.8ZM109.5,253.4c0,1.2.6,2.1,1.5,2.1s1.5-.9,1.5-2.1-.4-2.1-1.5-2.1-1.5,1.1-1.5,2.1h0Z"/>
    <path class="cls-2" d="M114.5,252.2c0-.6,0-1,0-1.5h.8v.9h0c.2-.5.8-1,1.6-1s1.7.5,1.7,2.3v3.3h-.9v-3.2c0-.9-.3-1.6-1.1-1.6s-1,.5-1.2,1c0,.1,0,.3,0,.5v3.3h-.9v-4h0Z"/>
    <path class="cls-2" d="M123.3,249.1v1.6h1.3v.8h-1.3v3c0,.7.2,1.1.7,1.1s.4,0,.5,0v.8c-.1,0-.4.1-.8.1s-.7-.1-1-.4c-.3-.3-.3-.8-.3-1.4v-3h-.8v-.8h.8v-1.3l.9-.3h0Z"/>
    <path class="cls-2" d="M125.6,252.4c0-.7,0-1.2,0-1.7h.8v1.1h0c.2-.7.8-1.2,1.4-1.2s.2,0,.3,0v.9c0,0-.2,0-.3,0-.6,0-1.1.5-1.2,1.3,0,.1,0,.3,0,.5v2.9h-.9v-3.8h0Z"/>
    <path class="cls-2" d="M133.3,253.4c0,2-1.3,2.9-2.4,2.9s-2.4-1.1-2.4-2.8,1.1-2.9,2.4-2.9,2.4,1.1,2.4,2.8h0ZM129.4,253.4c0,1.2.6,2.1,1.5,2.1s1.5-.9,1.5-2.1-.4-2.1-1.5-2.1-1.5,1.1-1.5,2.1h0Z"/>
    <path class="cls-2" d="M138.5,254.7c0,.6,0,1.1,0,1.5h-.8v-.9h0c-.2.4-.7,1-1.6,1s-1.7-.5-1.7-2.4v-3.2h.9v3.1c0,1,.3,1.8,1.1,1.8s1-.5,1.2-.9c0-.1,0-.3,0-.5v-3.4h.9v4h0Z"/>
    <path class="cls-2" d="M144.2,250.7c0,.4,0,.8,0,1.5v3.2c0,1.3-.2,2-.7,2.5-.5.5-1.2.7-1.8.7s-1.2-.2-1.6-.5l.2-.8c.3.2.8.4,1.4.4.9,0,1.6-.5,1.6-1.9v-.6h0c-.3.5-.8.9-1.6.9-1.2,0-2.1-1.2-2.1-2.7s1.1-2.9,2.2-2.9,1.3.5,1.5,1h0v-.8h.8ZM143.3,252.8c0-.2,0-.3,0-.5-.2-.6-.6-1.1-1.2-1.1s-1.5.8-1.5,2.1.5,2,1.5,2,1-.4,1.2-1c0-.2,0-.4,0-.5v-1h0Z"/>
    <path class="cls-2" d="M145.7,248.1h.9v3.4h0c.1-.3.4-.5.6-.7.3-.2.6-.3.9-.3.7,0,1.7.5,1.7,2.4v3.3h-.9v-3.2c0-.9-.3-1.6-1.1-1.6s-1,.5-1.2,1c0,.1,0,.3,0,.5v3.3h-.9v-8.1h0Z"/>
    <path class="cls-2" d="M153.8,250.7l1,3.1c.2.5.3,1,.4,1.4h0c.1-.5.3-.9.4-1.4l1-3.1h.9l-1.9,5.5h-.9l-1.9-5.5h1Z"/>
    <path class="cls-2" d="M159.4,249.1c0,.3-.2.6-.6.6s-.5-.3-.5-.6.2-.6.6-.6.5.3.5.6h0ZM158.4,256.2v-5.5h.9v5.5h-.9Z"/>
    <path class="cls-2" d="M160.6,255.2c.3.2.7.4,1.2.4.6,0,1-.4,1-.8s-.3-.7-.9-1c-.9-.4-1.3-.9-1.3-1.6s.6-1.6,1.7-1.6.9.2,1.2.3l-.2.7c-.2-.1-.5-.3-1-.3s-.8.3-.8.8.3.7.9.9c.9.4,1.3.8,1.3,1.7s-.7,1.6-1.8,1.6-1-.1-1.4-.4l.2-.8h0Z"/>
    <path class="cls-2" d="M168.9,254.7c0,.6,0,1.1,0,1.5h-.8v-.9h0c-.2.4-.7,1-1.6,1s-1.7-.5-1.7-2.4v-3.2h.9v3.1c0,1,.3,1.8,1.1,1.8s1-.5,1.2-.9c0-.1,0-.3,0-.5v-3.4h.9v4h0Z"/>
    <path class="cls-2" d="M173.1,256.2v-.7h-.1c-.3.4-.8.8-1.5.8-1,0-1.5-.8-1.5-1.6,0-1.3,1.1-2.1,3-2h0c0-.6-.1-1.4-1.1-1.4s-.9.2-1.3.4l-.2-.7c.4-.3,1-.5,1.6-.5,1.5,0,1.9,1.1,1.9,2.3v2.1c0,.5,0,.9,0,1.3h-.8,0ZM172.9,253.4c-1,0-2.1.2-2.1,1.2s.4,1,.8,1,1-.5,1.2-.9c0-.1,0-.2,0-.3v-1Z"/>
    <path class="cls-2" d="M175.2,248.1h.9v8.1h-.9v-8.1Z"/>
    <path class="cls-2" d="M182.5,256.2v-.7h-.1c-.3.4-.8.8-1.5.8-1,0-1.5-.8-1.5-1.6,0-1.3,1.1-2.1,3-2h0c0-.6-.1-1.4-1.1-1.4s-.9.2-1.3.4l-.2-.7c.4-.3,1-.5,1.6-.5,1.5,0,1.9,1.1,1.9,2.3v2.1c0,.5,0,.9,0,1.3h-.8,0ZM182.4,253.4c-1,0-2.1.2-2.1,1.2s.4,1,.8,1,1-.5,1.2-.9c0-.1,0-.2,0-.3v-1Z"/>
    <path class="cls-2" d="M184.7,252.4c0-.7,0-1.2,0-1.7h.8v1.1h0c.2-.7.8-1.2,1.4-1.2s.2,0,.3,0v.9c0,0-.2,0-.3,0-.6,0-1.1.5-1.2,1.3,0,.1,0,.3,0,.5v2.9h-.9v-3.8h0Z"/>
    <path class="cls-2" d="M189.3,249.1v1.6h1.3v.8h-1.3v3c0,.7.2,1.1.7,1.1s.4,0,.5,0v.8c-.1,0-.4.1-.8.1s-.7-.1-1-.4c-.3-.3-.3-.8-.3-1.4v-3h-.8v-.8h.8v-1.3l.9-.3h0Z"/>
  </g>
  <image class="cls-21" width="1171" height="1472" transform="translate(208.9 27.1) scale(.2)" xlink:href="WEB_WEBY_phone-1.png"/>
  <g class="cls-21">
    <text class="cls-7" transform="translate(319.8 275.6) scale(.9 1)"><tspan x="0" y="0">Artwork title “5D”</tspan></text>
    <text class="cls-7" transform="translate(319.8 286) scale(.9 1)"><tspan x="0" y="0" xml:space="preserve">2019/2020  </tspan></text>
  </g>
  <g class="cls-21">
    <text class="cls-13" transform="translate(201.4 832.2) scale(.6 1)"><tspan x="0" y="0" xml:space="preserve">Šarlote has beenworking 3 years with people 1 : 1 as an  </tspan></text>
    <text class="cls-13" transform="translate(201.4 846.9) scale(.6 1)"><tspan x="0" y="0">coach/psychic and created her first mural artwork for </tspan></text>
    <text class="cls-13" transform="translate(201.4 861.5) scale(.6 1)"><tspan x="0" y="0">an humanitarian place called “ Samarija ” located in </tspan></text>
    <text class="cls-13" transform="translate(201.4 876.1) scale(.6 1)"><tspan x="0" y="0">Aizpute, Latvia</tspan></text>
    <text class="cls-13" transform="translate(201.4 905.3) scale(.6 1)"><tspan x="0" y="0">Mural artwork title “ home temple ” </tspan></text>
    <text class="cls-13" transform="translate(201.4 919.9) scale(.6 1)"><tspan x="0" y="0">2021/2022</tspan></text>
  </g>
  <image class="cls-21" width="4032" height="3024" transform="translate(20.2 575.6) scale(0 0)" xlink:href="WEB_WEBY_phone-2.png"/>
  <image class="cls-21" width="4032" height="3024" transform="translate(390.3 303.9) rotate(90) scale(0)" xlink:href="WEB_WEBY_phone-3.png"/>
  <image class="cls-21" width="4032" height="3024" transform="translate(189.3 820.8) rotate(90) scale(0)" xlink:href="WEB_WEBY_phone-4.png"/>
  <g class="cls-21">
    <text class="cls-14" transform="translate(214.6 1697.2) scale(.8 1)"><tspan x="0" y="0">Šarlote makes personalised artowork on </tspan></text>
    <text class="cls-14" transform="translate(214.6 1710.6) scale(.8 1)"><tspan x="0" y="0">canvas, as murals and digital artwork, any </tspan></text>
    <text class="cls-14" transform="translate(214.6 1723.9) scale(.8 1)"><tspan x="0" y="0">wish for a being percieved from the astral </tspan></text>
    <text class="cls-14" transform="translate(214.6 1737.2) scale(.8 1)"><tspan x="0" y="0">ocean can be made as a product trough a </tspan></text>
    <text class="cls-14" transform="translate(214.6 1750.5) scale(.8 1)"><tspan x="0" y="0">call session manifest</tspan></text>
    <text class="cls-14" transform="translate(214.6 1763.9) scale(.8 1)"><tspan x="0" y="0"> </tspan></text>
    <text class="cls-14" transform="translate(214.6 1777.2) scale(.8 1)"><tspan x="0" y="0">Contact : creatrix933@gmail.com or</tspan></text>
    <text class="cls-14" transform="translate(214.6 1790.5) scale(.8 1)"><tspan x="0" y="0" xml:space="preserve">IG :  creatrix933</tspan></text>
  </g>
  <g class="cls-21">
    <text class="cls-19" transform="translate(105.5 1028.8) scale(.9 1)"><tspan x="0" y="0">Artwork title “PLUTO”</tspan></text>
    <text class="cls-19" transform="translate(105.5 1038.9) scale(.9 1)"><tspan x="0" y="0">2022/2023</tspan></text>
  </g>
  <g class="cls-21">
    <text class="cls-6" transform="translate(294.7 550.7) scale(.7 1)"><tspan x="0" y="0">Artwork tittled</tspan></text>
  </g>
  <g class="cls-21">
    <text class="cls-20" transform="translate(335.9 550.7) scale(.7 1)"><tspan x="0" y="0" xml:space="preserve"> ” the choice ” </tspan></text>
    <text class="cls-20" transform="translate(294.9 563.4) scale(.7 1)"><tspan x="0" y="0">2018</tspan></text>
  </g>
  <image class="cls-21" width="3088" height="2316" transform="translate(28.8 1678.6) rotate(89.6) scale(0 0)" xlink:href="WEB_WEBY_phone-5.png"/>
  <g class="cls-21">
    <text class="cls-5" transform="translate(214.2 1836.3) scale(1.5 1)"><tspan x="0" y="0">thank you for the visit</tspan></text>
  </g>
  <image class="cls-21" width="921" height="1094" transform="translate(24.8 1184.2) scale(.1)" xlink:href="WEB_WEBY_phone-6.png"/>
  <image class="cls-21" width="918" height="1101" transform="translate(145.4 1183.6) scale(.1)" xlink:href="WEB_WEBY_phone-7.png"/>
  <image class="cls-21" width="922" height="1107" transform="translate(264.1 1183.3) scale(.1)" xlink:href="WEB_WEBY_phone-8.png"/>
  <g class="cls-21">
    <text class="cls-8" transform="translate(157.4 1355.8) scale(1.2 1)"><tspan x="0" y="0">transforming trauma </tspan></text>
    <text class="cls-10" transform="translate(229.2 1355.8) scale(1.2 1)"><tspan x="0" y="0">, latest pieces </tspan></text>
    <text class="cls-8" transform="translate(157.4 1363.6) scale(1.2 1)"><tspan x="0" y="0" xml:space="preserve">2024  </tspan></text>
  </g>
  <image class="cls-21" width="2480" height="3508" transform="translate(213.1 1387.7) rotate(-.2) scale(0) skewX(0)" xlink:href="WEB_WEBY_phone-9.png"/>
  <g class="cls-21">
    <text class="cls-16" transform="translate(294.8 1643.3) scale(.7 1)"><tspan x="0" y="0">Artowk tittled </tspan></text>
    <text class="cls-9" transform="translate(338.1 1643.3) scale(.7 1)"><tspan x="0" y="0">“vortex“</tspan></text>
    <text class="cls-9" transform="translate(294.8 1657.4) scale(.7 1)"><tspan x="0" y="0">2023</tspan></text>
  </g>
  <image class="cls-21" width="2481" height="3015" transform="translate(28.8 1387.4) scale(0)" xlink:href="WEB_WEBY_phone-10.png"/>
  <g class="cls-21">
    <text class="cls-1" transform="translate(114.6 1644.5) scale(.6 1)"><tspan x="0" y="0">Artwork tittled </tspan></text>
    <text class="cls-3" transform="translate(154.3 1644.5) scale(.6 1)"><tspan x="0" y="0">“Web of life “</tspan></text>
    <text class="cls-3" transform="translate(114.6 1658.8) scale(.6 1)"><tspan x="0" y="0">2023</tspan></text>
  </g>
  <image class="cls-21" width="2480" height="2991" transform="translate(23.7 305.4) scale(0)" xlink:href="WEB_WEBY_phone-11.png"/>
  <g class="cls-21">
    <text class="cls-15" transform="translate(96.6 553.5) scale(.7 1)"><tspan x="0" y="0">Artwork tittled </tspan></text>
    <text class="cls-12" transform="translate(141.2 553.5) scale(.7 1)"><tspan x="0" y="0">“Higher self</tspan></text>
    <text class="cls-15" transform="translate(177.8 553.5) scale(.7 1)"><tspan x="0" y="0"> </tspan></text>
    <text class="cls-12" transform="translate(179.3 553.5) scale(.7 1)"><tspan x="0" y="0">“</tspan></text>
    <text class="cls-12" transform="translate(96.6 566.1) scale(.7 1)"><tspan x="0" y="0">2023</tspan></text>
  </g>
  <g class="cls-21">
    <text class="cls-11" transform="translate(200.9 941.4) scale(1 1)"><tspan x="0" y="0">Inner transformation</tspan></text>
  </g>
  <g class="cls-21">
    <text class="cls-17" transform="translate(198.3 967.7) scale(.8 1)"><tspan x="0" y="0">Many in the spiritual communitty talk about the dark night of </tspan></text>
    <text class="cls-17" transform="translate(198.3 978.3) scale(.8 1)"><tspan x="0" y="0">the soul, as I went trough my second dark night of the soul </tspan></text>
    <text class="cls-17" transform="translate(198.3 988.9) scale(.8 1)"><tspan x="0" y="0">very recently I started to pay more attention to understand it </tspan></text>
    <text class="cls-17" transform="translate(198.3 999.5) scale(.8 1)"><tspan x="0" y="0">in a wordly but still subjective manner.</tspan></text>
    <text class="cls-17" transform="translate(198.3 1020.6) scale(.8 1)"><tspan x="0" y="0">I see the dark night as a nervous system breakdown and an </tspan></text>
    <text class="cls-17" transform="translate(198.3 1031.2) scale(.8 1)"><tspan x="0" y="0">identitty crisis of who you used to be as you continue to grow </tspan></text>
    <text class="cls-17" transform="translate(198.3 1041.7) scale(.8 1)"><tspan x="0" y="0">out of your survival personalitties, your nervous system goes </tspan></text>
    <text class="cls-17" transform="translate(198.3 1052.3) scale(.8 1)"><tspan x="0" y="0">into a fight, flight or freeze (where the last one I am most </tspan></text>
    <text class="cls-17" transform="translate(198.3 1062.9) scale(.8 1)"><tspan x="0" y="0">familiar with subdivides to either excessive anger or dissocia-</tspan></text>
    <text class="cls-17" transform="translate(366.3 1062.9) scale(.8 1)"><tspan x="0" y="0">-</tspan></text>
    <text class="cls-17" transform="translate(198.3 1073.4) scale(.8 1)"><tspan x="0" y="0">tion where you leave your body as a dear in distress about to </tspan></text>
    <text class="cls-17" transform="translate(198.3 1084) scale(.8 1)"><tspan x="0" y="0">be eaten, you loose any sense of your personalitty in the </tspan></text>
    <text class="cls-17" transform="translate(198.3 1094.6) scale(.8 1)"><tspan x="0" y="0" xml:space="preserve">process of  discontinual stress response) for reconciliation </tspan></text>
    <text class="cls-17" transform="translate(198.3 1105.2) scale(.8 1)"><tspan x="0" y="0">and transforming the trauma I would suggest cleansing the </tspan></text>
    <text class="cls-17" transform="translate(198.3 1115.7) scale(.8 1)"><tspan x="0" y="0" xml:space="preserve">mind  - brain harmonisation, somatic exersises to bring your </tspan></text>
    <text class="cls-17" transform="translate(198.3 1126.3) scale(.8 1)"><tspan x="0" y="0">heart back into play to guide you back to your truth, the self </tspan></text>
    <text class="cls-17" transform="translate(198.3 1136.9) scale(.8 1)"><tspan x="0" y="0">that arises and guides without the many personalitties com-</tspan></text>
    <text class="cls-17" transform="translate(365.1 1136.9) scale(.8 1)"><tspan x="0" y="0">-</tspan></text>
    <text class="cls-17" transform="translate(198.3 1147.4) scale(.8 1)"><tspan x="0" y="0">menting on others and yourself and in the process removing </tspan></text>
    <text class="cls-17" transform="translate(198.3 1158) scale(.8 1)"><tspan x="0" y="0">dopamine as well, all that is stimulating to find a way to brin you </tspan></text>
    <text class="cls-17" transform="translate(198.3 1168.6) scale(.8 1)"><tspan x="0" y="0">back into your body, into the now and feeling safe.</tspan></text>
  </g>
</svg>