<?xml version="1.0" encoding="UTF-8"?>
<svg id="Layer_1" data-name="Layer 1" xmlns="http://www.w3.org/2000/svg" version="1.1" xmlns:xlink="http://www.w3.org/1999/xlink" viewBox="0 0 800 4111">
  <defs>
    <style>
      .cls-1 {
        font-size: 51.6px;
      }

      .cls-1, .cls-2, .cls-3, .cls-4, .cls-5, .cls-6, .cls-7, .cls-8, .cls-9, .cls-10, .cls-11, .cls-12, .cls-13, .cls-14, .cls-15, .cls-16 {
        fill: #000;
      }

      .cls-1, .cls-2, .cls-4, .cls-5, .cls-6, .cls-17, .cls-7, .cls-8, .cls-9, .cls-10, .cls-11, .cls-12, .cls-13, .cls-14, .cls-15, .cls-16 {
        isolation: isolate;
      }

      .cls-1, .cls-2, .cls-4, .cls-5, .cls-6, .cls-7, .cls-8, .cls-9, .cls-10, .cls-11, .cls-12, .cls-13, .cls-14, .cls-15, .cls-16 {
        font-family: ArialMT, Arial;
      }

      .cls-2 {
        font-size: 22px;
      }

      .cls-3 {
        stroke-width: 0px;
      }

      .cls-4 {
        font-size: 40.9px;
      }

      .cls-5 {
        font-size: 26px;
      }

      .cls-6 {
        font-size: 27.8px;
      }

      .cls-7 {
        font-size: 33.5px;
      }

      .cls-8 {
        font-size: 63.6px;
      }

      .cls-9 {
        font-size: 37.1px;
      }

      .cls-10 {
        font-size: 24px;
      }

      .cls-11 {
        font-size: 39.5px;
      }

      .cls-12 {
        font-size: 35.7px;
      }

      .cls-13 {
        font-size: 22.4px;
      }

      .cls-14 {
        font-size: 18.9px;
      }

      .cls-15 {
        font-size: 26.8px;
      }

      .cls-16 {
        font-size: 23.1px;
      }
    </style>
  </defs>
  <g class="cls-17">
    <text class="cls-1" transform="translate(29.9 107.7) scale(.7 1)"><tspan x="0" y="0">Šarlote Krsitīne Huke</tspan></text>
  </g>
  <g class="cls-17">
    <text class="cls-9" transform="translate(30.5 171.4) scale(.8 1)"><tspan x="0" y="0">The esoteric artist</tspan></text>
  </g>
  <g>
    <path class="cls-3" d="M30.9,224.6c.8.5,1.9,1,3.1,1,1.8,0,2.8-1.1,2.8-2.6s-.7-2.3-2.5-3.1c-2.2-.9-3.5-2.2-3.5-4.4s1.7-4.2,4.3-4.2,2.3.4,2.9.8l-.5,1.6c-.4-.3-1.3-.7-2.5-.7-1.8,0-2.5,1.3-2.5,2.3s.8,2.2,2.6,3c2.2,1,3.4,2.3,3.4,4.6s-1.5,4.5-4.7,4.5-2.7-.4-3.4-1l.4-1.7h0ZM34.1,210.7l-2.1-2.6h1.5l1.3,1.6h0l1.2-1.6h1.4l-2,2.6h-1.3,0Z"/>
    <path class="cls-3" d="M46.2,227v-1.4h-.2c-.5.9-1.6,1.7-2.9,1.7-1.9,0-2.9-1.6-2.9-3.2,0-2.7,2-4.2,5.7-4.1v-.2c0-.9-.2-2.6-2.2-2.6s-1.8.3-2.5.8l-.4-1.3c.8-.6,1.9-1,3.1-1,2.9,0,3.6,2.3,3.6,4.6v4.2c0,1,0,1.9.2,2.7h-1.6,0ZM45.9,221.4c-1.9,0-4,.3-4,2.5s.8,1.9,1.6,1.9,2-.9,2.3-1.9c0-.2,0-.4,0-.6v-1.9Z"/>
    <path class="cls-3" d="M50.4,219.4c0-1.3,0-2.4,0-3.5h1.5v2.2h.1c.4-1.5,1.5-2.4,2.6-2.4s.3,0,.5,0v1.9c-.2,0-.4,0-.6,0-1.2,0-2.1,1.1-2.3,2.6,0,.3,0,.6,0,.9v5.9h-1.7v-7.6h0Z"/>
    <path class="cls-3" d="M56.9,210.7h1.7v16.3h-1.7v-16.3Z"/>
    <path class="cls-3" d="M70.2,221.4c0,4.1-2.4,5.9-4.7,5.9s-4.6-2.2-4.6-5.7,2.1-5.9,4.7-5.9,4.6,2.3,4.6,5.7ZM62.6,221.5c0,2.4,1.2,4.3,2.9,4.3s2.9-1.8,2.9-4.3-.8-4.3-2.9-4.3-2.9,2.2-2.9,4.3h0Z"/>
    <path class="cls-3" d="M74.4,212.7v3.2h2.5v1.5h-2.5v6c0,1.4.3,2.2,1.3,2.2s.8,0,1-.1v1.5c-.3.2-.8.3-1.5.3s-1.5-.3-1.9-.9c-.5-.6-.7-1.6-.7-2.9v-6.1h-1.5v-1.5h1.5v-2.7l1.7-.5h0Z"/>
    <path class="cls-3" d="M79.7,221.9c0,2.7,1.5,3.9,3.3,3.9s2-.3,2.6-.6l.3,1.4c-.6.3-1.7.7-3.2.7-2.9,0-4.7-2.3-4.7-5.6s1.7-6,4.5-6,3.9,3.2,3.9,5.2,0,.7,0,.9h-6.7,0ZM84.8,220.4c0-1.3-.5-3.3-2.4-3.3s-2.5,1.9-2.7,3.3h5.1,0Z"/>
    <path class="cls-3" d="M93.5,215.9l1.3,5.7c.3,1.2.5,2.4.7,3.5h0c.2-1.1.5-2.3.8-3.5l1.6-5.7h1.5l1.5,5.6c.4,1.3.6,2.5.8,3.6h0c.2-1.1.4-2.3.7-3.6l1.4-5.6h1.7l-3.1,11.1h-1.6l-1.5-5.3c-.3-1.2-.6-2.3-.8-3.7h0c-.2,1.3-.5,2.5-.9,3.7l-1.5,5.3h-1.6l-2.9-11.1h1.8Z"/>
    <path class="cls-3" d="M112.5,227v-1.4h-.2c-.5.9-1.6,1.7-2.9,1.7-1.9,0-2.9-1.6-2.9-3.2,0-2.7,2-4.2,5.7-4.1v-.2c0-.9-.2-2.6-2.2-2.6s-1.8.3-2.5.8l-.4-1.3c.8-.6,1.9-1,3.1-1,2.9,0,3.6,2.3,3.6,4.6v4.2c0,1,0,1.9.2,2.7h-1.6,0ZM112.2,221.4c-1.9,0-4,.3-4,2.5s.8,1.9,1.6,1.9,2-.9,2.3-1.9c0-.2,0-.4,0-.6v-1.9h0Z"/>
    <path class="cls-3" d="M116.5,225c.5.4,1.4.8,2.3.8,1.3,0,1.8-.7,1.8-1.7s-.5-1.5-1.8-2c-1.7-.7-2.5-1.8-2.5-3.2s1.2-3.3,3.3-3.3,1.8.3,2.3.7l-.4,1.5c-.4-.3-1.1-.6-2-.6s-1.6.7-1.6,1.5.6,1.3,1.8,1.9c1.7.7,2.5,1.7,2.5,3.4s-1.3,3.3-3.6,3.3-2-.3-2.7-.8l.4-1.5h0Z"/>
    <path class="cls-3" d="M128.6,227c0-.8,0-1.9,0-2.9v-13.4h1.7v7h0c.6-1.2,1.7-2,3.2-2,2.4,0,4,2.3,4,5.7,0,4-2.1,6-4.3,6s-2.5-.6-3.2-2.1h0v1.8h-1.6,0ZM130.4,222.6c0,.3,0,.5,0,.7.3,1.4,1.3,2.4,2.6,2.4,1.8,0,2.9-1.7,2.9-4.3s-1-4.1-2.8-4.1-2.3.9-2.6,2.5c0,.2,0,.5,0,.8v2h0Z"/>
    <path class="cls-3" d="M148.5,221.4c0,4.1-2.4,5.9-4.7,5.9s-4.6-2.2-4.6-5.7,2.1-5.9,4.7-5.9,4.6,2.3,4.6,5.7ZM141,221.5c0,2.4,1.2,4.3,2.9,4.3s2.9-1.8,2.9-4.3-.8-4.3-2.9-4.3-2.9,2.2-2.9,4.3h0Z"/>
    <path class="cls-3" d="M150.7,219.4c0-1.3,0-2.4,0-3.5h1.5v2.2h.1c.4-1.5,1.5-2.4,2.6-2.4s.3,0,.5,0v1.9c-.2,0-.4,0-.6,0-1.2,0-2.1,1.1-2.3,2.6,0,.3,0,.6,0,.9v5.9h-1.7v-7.6h0Z"/>
    <path class="cls-3" d="M157.2,218.9c0-1.1,0-2.1,0-3h1.5v1.8h.1c.5-1.1,1.6-2.1,3.2-2.1s3.4.9,3.4,4.7v6.6h-1.7v-6.4c0-1.8-.6-3.3-2.2-3.3s-2,.9-2.3,2.1c0,.3-.1.6-.1.9v6.7h-1.7v-8.1h0Z"/>
    <path class="cls-3" d="M172.3,210.7h1.7v16.3h-1.7v-16.3Z"/>
    <path class="cls-3" d="M182.3,227v-1.4h-.2c-.5.9-1.6,1.7-2.9,1.7-1.9,0-2.9-1.6-2.9-3.2,0-2.7,2-4.2,5.7-4.1v-.2c0-.9-.2-2.6-2.2-2.6s-1.8.3-2.5.8l-.4-1.3c.8-.6,1.9-1,3.1-1,2.9,0,3.6,2.3,3.6,4.6v4.2c0,1,0,1.9.2,2.7h-1.6,0ZM182,221.4c-1.9,0-4,.3-4,2.5s.8,1.9,1.6,1.9,2-.9,2.3-1.9c0-.2,0-.4,0-.6v-1.9h0Z"/>
    <path class="cls-3" d="M188.5,212.7v3.2h2.5v1.5h-2.5v6c0,1.4.3,2.2,1.3,2.2s.8,0,1-.1v1.5c-.3.2-.8.3-1.5.3s-1.5-.3-1.9-.9c-.5-.6-.7-1.6-.7-2.9v-6.1h-1.5v-1.5h1.5v-2.7l1.7-.5h0Z"/>
    <path class="cls-3" d="M193.8,221.9c0,2.7,1.5,3.9,3.3,3.9s2-.3,2.6-.6l.3,1.4c-.6.3-1.7.7-3.2.7-2.9,0-4.7-2.3-4.7-5.6s1.7-6,4.5-6,3.9,3.2,3.9,5.2,0,.7,0,.9h-6.7ZM198.9,220.4c0-1.3-.5-3.3-2.4-3.3s-2.5,1.9-2.7,3.3h5.1,0Z"/>
    <path class="cls-3" d="M207.3,225.6c.4,0,.8,0,1.4,0,1-.2,2-.6,2.7-1.4.8-.9,1.5-2.2,1.7-4h0c-.7,1-1.7,1.6-3,1.6-2.3,0-3.8-2-3.8-4.6s1.8-5.3,4.4-5.3,4.2,2.5,4.2,6.3-.9,5.6-2.2,7c-1,1.1-2.3,1.8-3.7,2-.6.1-1.2.1-1.6.1v-1.7h0ZM208,217c0,1.9,1,3.2,2.5,3.2s2.1-.7,2.5-1.6c0-.2.2-.4.2-.7,0-2.5-.8-4.5-2.6-4.5s-2.5,1.5-2.5,3.6h0Z"/>
    <path class="cls-3" d="M224.9,219.4c0,5.1-1.6,7.9-4.5,7.9s-4.2-2.7-4.2-7.7c0-5,1.8-7.8,4.5-7.8s4.2,2.8,4.2,7.6h0ZM218,219.6c0,3.9,1,6.1,2.6,6.1s2.6-2.4,2.6-6.2-.8-6.1-2.6-6.1-2.6,2.2-2.6,6.2h0Z"/>
    <path class="cls-3" d="M226.8,225c.5.4,1.4.8,2.3.8,1.3,0,1.8-.7,1.8-1.7s-.5-1.5-1.8-2c-1.7-.7-2.5-1.8-2.5-3.2s1.2-3.3,3.3-3.3,1.8.3,2.3.7l-.4,1.5c-.4-.3-1.1-.6-2-.6s-1.6.7-1.6,1.5.6,1.3,1.8,1.9c1.7.7,2.5,1.7,2.5,3.4s-1.3,3.3-3.6,3.3-2-.3-2.7-.8l.4-1.5h0Z"/>
    <path class="cls-3" d="M241,212.8c0,.7-.4,1.2-1.1,1.2s-1-.5-1-1.2.5-1.3,1.1-1.3,1.1.5,1.1,1.3h0ZM239.1,227v-11.1h1.7v11.1h-1.7Z"/>
    <path class="cls-3" d="M243.7,218.9c0-1.1,0-2.1,0-3h1.5v1.8h.1c.5-1.1,1.6-2.1,3.2-2.1s3.4.9,3.4,4.7v6.6h-1.7v-6.4c0-1.8-.6-3.3-2.2-3.3s-2,.9-2.3,2.1c0,.3-.1.6-.1.9v6.7h-1.7v-8.1h0Z"/>
    <path class="cls-3" d="M268.9,226.4c-.8.3-2.3.9-4.1.9s-3.7-.6-5-2c-1.1-1.3-1.8-3.4-1.8-5.8,0-4.6,2.7-8,7.2-8s2.7.4,3.3.7l-.4,1.6c-.7-.4-1.6-.7-2.9-.7-3.2,0-5.3,2.3-5.3,6.2s2,6.2,5.1,6.2,1.9-.2,2.3-.4v-4.6h-2.7v-1.6h4.4v7.4h0Z"/>
    <path class="cls-3" d="M272.6,221.9c0,2.7,1.5,3.9,3.3,3.9s2-.3,2.6-.6l.3,1.4c-.6.3-1.7.7-3.2.7-2.9,0-4.7-2.3-4.7-5.6s1.7-6,4.5-6,3.9,3.2,3.9,5.2,0,.7,0,.9h-6.7,0ZM277.6,220.4c0-1.3-.5-3.3-2.4-3.3s-2.5,1.9-2.7,3.3h5.1,0Z"/>
    <path class="cls-3" d="M281.5,219.4c0-1.3,0-2.4,0-3.5h1.5v2.2h.1c.4-1.5,1.5-2.4,2.6-2.4s.3,0,.5,0v1.9c-.2,0-.4,0-.6,0-1.2,0-2.1,1.1-2.3,2.6,0,.3,0,.6,0,.9v5.9h-1.7v-7.6h0Z"/>
    <path class="cls-3" d="M288,218.9c0-1.1,0-2.1,0-3h1.5v1.8h.1c.5-1.1,1.4-2,3-2s2.3.9,2.7,2.2h0c.3-.6.7-1.1,1.1-1.4.6-.5,1.2-.8,2.1-.8s3.1,1,3.1,4.8v6.5h-1.7v-6.3c0-2.1-.7-3.4-2.1-3.4s-1.8.9-2,1.8c0,.3-.1.6-.1,1v6.9h-1.7v-6.7c0-1.8-.7-3.1-2-3.1s-1.9,1-2.1,2c0,.3-.1.6-.1,1v6.7h-1.7v-8.1h0Z"/>
    <path class="cls-3" d="M309.7,227v-1.4h-.2c-.5.9-1.6,1.7-2.9,1.7-1.9,0-2.9-1.6-2.9-3.2,0-2.7,2-4.2,5.7-4.1v-.2c0-.9-.2-2.6-2.2-2.6s-1.8.3-2.5.8l-.4-1.3c.8-.6,1.9-1,3.1-1,2.9,0,3.6,2.3,3.6,4.6v4.2c0,1,0,1.9.2,2.7h-1.6,0ZM309.4,221.4c-1.9,0-4,.3-4,2.5s.8,1.9,1.6,1.9,2-.9,2.3-1.9c0-.2,0-.4,0-.6v-1.9Z"/>
    <path class="cls-3" d="M313.9,218.9c0-1.1,0-2.1,0-3h1.5v1.8h.1c.5-1.1,1.6-2.1,3.2-2.1s3.4.9,3.4,4.7v6.6h-1.7v-6.4c0-1.8-.6-3.3-2.2-3.3s-2,.9-2.3,2.1c0,.3-.1.6-.1.9v6.7h-1.7v-8.1h0Z"/>
    <path class="cls-3" d="M325.2,215.9l2.1,6.6c.2.7.5,1.6.6,2.3h0c.2-.7.4-1.5.6-2.3l1.9-6.5h1.8l-2.6,7.9c-1.2,3.8-2.1,5.8-3.3,7-.8.9-1.7,1.2-2.1,1.3l-.4-1.7c.4-.2,1-.5,1.5-1,.5-.4,1.1-1.2,1.5-2.3,0-.2.1-.4.1-.5s0-.3-.1-.5l-3.5-10.2h1.9Z"/>
    <path class="cls-3" d="M343.3,227v-1.4h-.2c-.5.9-1.6,1.7-2.9,1.7-1.9,0-2.9-1.6-2.9-3.2,0-2.7,2-4.2,5.7-4.1v-.2c0-.9-.2-2.6-2.2-2.6s-1.8.3-2.5.8l-.4-1.3c.8-.6,1.9-1,3.1-1,2.9,0,3.6,2.3,3.6,4.6v4.2c0,1,0,1.9.2,2.7h-1.6,0ZM343.1,221.4c-1.9,0-4,.3-4,2.5s.8,1.9,1.6,1.9,2-.9,2.3-1.9c0-.2,0-.4,0-.6v-1.9Z"/>
    <path class="cls-3" d="M347.5,218.9c0-1.1,0-2.1,0-3h1.5v1.8h.1c.5-1.1,1.6-2.1,3.2-2.1s3.4.9,3.4,4.7v6.6h-1.7v-6.4c0-1.8-.6-3.3-2.2-3.3s-2,.9-2.3,2.1c0,.3-.1.6-.1.9v6.7h-1.7v-8.1h0Z"/>
    <path class="cls-3" d="M366.7,210.7v13.4c0,1,0,2.1,0,2.9h-1.6v-1.9h-.1c-.5,1.2-1.7,2.2-3.2,2.2-2.3,0-4.1-2.3-4.1-5.7,0-3.7,2-6,4.3-6s2.4.8,2.9,1.7h0v-6.6h1.7ZM365,220.5c0-.3,0-.6,0-.9-.3-1.3-1.2-2.3-2.5-2.3s-2.9,1.8-2.9,4.3.9,4.1,2.8,4.1,2.2-.9,2.5-2.4c0-.3,0-.5,0-.9v-1.9h0Z"/>
    <path class="cls-3" d="M31.1,246.5c0-1.1,0-2.1,0-3h1.5v1.8h.1c.5-1.1,1.4-2,3-2s2.3.9,2.7,2.2h0c.3-.6.7-1.1,1.1-1.4.6-.5,1.2-.8,2.1-.8s3.1,1,3.1,4.8v6.5h-1.7v-6.3c0-2.1-.7-3.4-2.1-3.4s-1.8.9-2,1.8c0,.3-.1.6-.1,1v6.9h-1.7v-6.7c0-1.8-.7-3.1-2-3.1s-1.9,1-2.1,2c0,.3-.1.6-.1,1v6.7h-1.7v-8.1h0Z"/>
    <path class="cls-3" d="M56.2,249c0,4.1-2.4,5.9-4.7,5.9s-4.6-2.2-4.6-5.7,2.1-5.9,4.7-5.9,4.6,2.3,4.6,5.7ZM48.6,249.1c0,2.4,1.2,4.3,2.9,4.3s2.9-1.8,2.9-4.3-.8-4.3-2.9-4.3-2.9,2.2-2.9,4.3h0Z"/>
    <path class="cls-3" d="M58.9,243.5l1.9,6.2c.3,1,.6,1.9.8,2.8h0c.2-.9.5-1.8.8-2.8l1.8-6.2h1.8l-3.7,11.1h-1.7l-3.6-11.1h1.9Z"/>
    <path class="cls-3" d="M68.4,249.4c0,2.7,1.5,3.9,3.3,3.9s2-.3,2.6-.6l.3,1.4c-.6.3-1.7.7-3.2.7-2.9,0-4.7-2.3-4.7-5.6s1.7-6,4.5-6,3.9,3.2,3.9,5.2,0,.7,0,.9h-6.7,0ZM73.5,248c0-1.3-.5-3.3-2.4-3.3s-2.5,1.9-2.7,3.3h5.1,0Z"/>
    <path class="cls-3" d="M85.6,238.3v13.4c0,1,0,2.1,0,2.9h-1.6v-1.9h-.1c-.5,1.2-1.7,2.2-3.2,2.2-2.3,0-4.1-2.3-4.1-5.7,0-3.7,2-6,4.3-6s2.4.8,2.9,1.7h0v-6.6h1.7,0ZM83.9,248c0-.3,0-.6,0-.9-.3-1.3-1.2-2.3-2.5-2.3s-2.9,1.8-2.9,4.3.9,4.1,2.8,4.1,2.2-.9,2.5-2.4c0-.3,0-.5,0-.9v-1.9h0Z"/>
    <path class="cls-3" d="M94.7,240.3v3.2h2.5v1.5h-2.5v6c0,1.4.3,2.2,1.3,2.2s.8,0,1-.1v1.5c-.3.2-.8.3-1.5.3s-1.5-.3-1.9-.9c-.5-.6-.7-1.6-.7-2.9v-6.1h-1.5v-1.5h1.5v-2.7l1.7-.5h0Z"/>
    <path class="cls-3" d="M107.7,249c0,4.1-2.4,5.9-4.7,5.9s-4.6-2.2-4.6-5.7,2.1-5.9,4.7-5.9,4.6,2.3,4.6,5.7ZM100.1,249.1c0,2.4,1.2,4.3,2.9,4.3s2.9-1.8,2.9-4.3-.8-4.3-2.9-4.3-2.9,2.2-2.9,4.3h0Z"/>
    <path class="cls-3" d="M114.1,239.1h1.7v13.8h5.7v1.7h-7.4v-15.5h0Z"/>
    <path class="cls-3" d="M128.6,254.6v-1.4h-.2c-.5.9-1.6,1.7-2.9,1.7-1.9,0-2.9-1.6-2.9-3.2,0-2.7,2-4.2,5.7-4.1v-.2c0-.9-.2-2.6-2.2-2.6s-1.8.3-2.5.8l-.4-1.3c.8-.6,1.9-1,3.1-1,2.9,0,3.6,2.3,3.6,4.6v4.2c0,1,0,1.9.2,2.7h-1.6,0ZM128.4,248.9c-1.9,0-4,.3-4,2.5s.8,1.9,1.6,1.9,2-.9,2.3-1.9c0-.2,0-.4,0-.6v-1.9h0Z"/>
    <path class="cls-3" d="M134.8,240.3v3.2h2.5v1.5h-2.5v6c0,1.4.3,2.2,1.3,2.2s.8,0,1-.1v1.5c-.3.2-.8.3-1.5.3s-1.5-.3-1.9-.9c-.5-.6-.7-1.6-.7-2.9v-6.1h-1.5v-1.5h1.5v-2.7l1.7-.5h0Z"/>
    <path class="cls-3" d="M140.1,243.5l1.9,6.2c.3,1,.6,1.9.8,2.8h0c.2-.9.5-1.8.8-2.8l1.8-6.2h1.8l-3.7,11.1h-1.7l-3.6-11.1h1.9Z"/>
    <path class="cls-3" d="M150.9,240.4c0,.7-.4,1.2-1.1,1.2s-1-.5-1-1.2.5-1.3,1.1-1.3,1.1.5,1.1,1.3h0ZM148.9,254.6v-11.1h1.7v11.1h-1.7Z"/>
    <path class="cls-3" d="M158.8,254.6v-1.4h-.2c-.5.9-1.6,1.7-2.9,1.7-1.9,0-2.9-1.6-2.9-3.2,0-2.7,2-4.2,5.7-4.1v-.2c0-.9-.2-2.6-2.2-2.6s-1.8.3-2.5.8l-.4-1.3c.8-.6,1.9-1,3.1-1,2.9,0,3.6,2.3,3.6,4.6v4.2c0,1,0,1.9.2,2.7h-1.6,0ZM158.6,248.9c-1.9,0-4,.3-4,2.5s.8,1.9,1.6,1.9,2-.9,2.3-1.9c0-.2,0-.4,0-.6v-1.9h0Z"/>
    <path class="cls-3" d="M169.1,240.4c0,.7-.4,1.2-1.1,1.2s-1-.5-1-1.2.5-1.3,1.1-1.3,1.1.5,1.1,1.3h0ZM167.2,254.6v-11.1h1.7v11.1h-1.7Z"/>
    <path class="cls-3" d="M171.8,246.5c0-1.1,0-2.1,0-3h1.5v1.8h.1c.5-1.1,1.6-2.1,3.2-2.1s3.4.9,3.4,4.7v6.6h-1.7v-6.4c0-1.8-.6-3.3-2.2-3.3s-2,.9-2.3,2.1c0,.3-.1.6-.1.9v6.7h-1.7v-8.1h0Z"/>
    <path class="cls-3" d="M186.4,254.6v-1.2l1.4-1.5c3.3-3.6,4.7-5.6,4.8-7.8,0-1.5-.6-2.9-2.5-2.9s-2.1.7-2.7,1.3l-.6-1.4c.9-.9,2.1-1.5,3.6-1.5,2.8,0,3.9,2.2,3.9,4.3s-1.7,5-4.4,8l-1,1.1h0s5.8,0,5.8,0v1.7h-8.2Z"/>
    <path class="cls-3" d="M205,247c0,5.1-1.6,7.9-4.5,7.9s-4.2-2.7-4.2-7.7c0-5,1.8-7.8,4.5-7.8s4.2,2.8,4.2,7.6ZM198,247.2c0,3.9,1,6.1,2.6,6.1s2.6-2.4,2.6-6.2-.8-6.1-2.6-6.1-2.6,2.2-2.6,6.2Z"/>
    <path class="cls-3" d="M215.1,247c0,5.1-1.6,7.9-4.5,7.9s-4.2-2.7-4.2-7.7c0-5,1.8-7.8,4.5-7.8s4.2,2.8,4.2,7.6ZM208.1,247.2c0,3.9,1,6.1,2.6,6.1s2.6-2.4,2.6-6.2-.8-6.1-2.6-6.1-2.6,2.2-2.6,6.2Z"/>
    <path class="cls-3" d="M217.1,252.3c.5.4,1.6.9,2.8.9,2.2,0,2.9-1.7,2.9-2.9,0-2.1-1.6-3-3.3-3h-1v-1.5h1c1.3,0,2.9-.8,2.9-2.5s-.6-2.3-2.2-2.3-2,.5-2.6,1l-.5-1.5c.7-.6,2-1.1,3.3-1.1,2.5,0,3.7,1.8,3.7,3.6s-.8,2.8-2.4,3.5h0c1.6.4,2.9,1.8,2.9,3.9s-1.6,4.5-4.7,4.5-2.7-.5-3.3-1l.5-1.6h0Z"/>
    <path class="cls-3" d="M226.2,257.4c.4-1.4,1-3.8,1.2-5.5l1.9-.2c-.5,1.9-1.3,4.5-1.9,5.6h-1.2c0,.1,0,.1,0,.1Z"/>
    <path class="cls-3" d="M235.6,238.3h1.7v6.9h0c.3-.6.7-1.1,1.2-1.4.5-.3,1.1-.6,1.8-.6,1.3,0,3.3.9,3.3,4.8v6.6h-1.7v-6.4c0-1.8-.6-3.3-2.2-3.3s-2,.9-2.3,2c0,.3-.1.6-.1,1v6.7h-1.7v-16.3h0Z"/>
    <path class="cls-3" d="M247.5,249.4c0,2.7,1.5,3.9,3.3,3.9s2-.3,2.6-.6l.3,1.4c-.6.3-1.7.7-3.2.7-2.9,0-4.7-2.3-4.7-5.6s1.7-6,4.5-6,3.9,3.2,3.9,5.2,0,.7,0,.9h-6.7,0ZM252.6,248c0-1.3-.5-3.3-2.4-3.3s-2.5,1.9-2.7,3.3h5.1,0Z"/>
    <path class="cls-3" d="M256.4,247c0-1.3,0-2.4,0-3.5h1.5v2.2h.1c.4-1.5,1.5-2.4,2.6-2.4s.3,0,.5,0v1.9c-.2,0-.4,0-.6,0-1.2,0-2.1,1.1-2.3,2.6,0,.3,0,.6,0,.9v5.9h-1.7v-7.6h0Z"/>
    <path class="cls-3" d="M275.3,238.3v13.4c0,1,0,2.1,0,2.9h-1.6v-1.9h-.1c-.5,1.2-1.7,2.2-3.2,2.2-2.3,0-4.1-2.3-4.1-5.7,0-3.7,2-6,4.3-6s2.4.8,2.9,1.7h0v-6.6h1.7,0ZM273.5,248c0-.3,0-.6,0-.9-.3-1.3-1.2-2.3-2.5-2.3s-2.9,1.8-2.9,4.3.9,4.1,2.8,4.1,2.2-.9,2.5-2.4c0-.3,0-.5,0-.9v-1.9h0Z"/>
    <path class="cls-3" d="M280.1,240.4c0,.7-.4,1.2-1.1,1.2s-1-.5-1-1.2.5-1.3,1.1-1.3,1.1.5,1.1,1.3h0ZM278.1,254.6v-11.1h1.7v11.1h-1.7Z"/>
    <path class="cls-3" d="M283.4,243.5l1.9,6.2c.3,1,.6,1.9.8,2.8h0c.2-.9.5-1.8.8-2.8l1.8-6.2h1.8l-3.7,11.1h-1.7l-3.6-11.1h1.9Z"/>
    <path class="cls-3" d="M293,249.4c0,2.7,1.5,3.9,3.3,3.9s2-.3,2.6-.6l.3,1.4c-.6.3-1.7.7-3.2.7-2.9,0-4.7-2.3-4.7-5.6s1.7-6,4.5-6,3.9,3.2,3.9,5.2,0,.7,0,.9h-6.7,0ZM298.1,248c0-1.3-.5-3.3-2.4-3.3s-2.5,1.9-2.7,3.3h5.1,0Z"/>
    <path class="cls-3" d="M301.9,247c0-1.3,0-2.4,0-3.5h1.5v2.2h.1c.4-1.5,1.5-2.4,2.6-2.4s.3,0,.5,0v1.9c-.2,0-.4,0-.6,0-1.2,0-2.1,1.1-2.3,2.6,0,.3,0,.6,0,.9v5.9h-1.7v-7.6h0Z"/>
    <path class="cls-3" d="M308.1,252.5c.5.4,1.4.8,2.3.8,1.3,0,1.8-.7,1.8-1.7s-.5-1.5-1.8-2c-1.7-.7-2.5-1.8-2.5-3.2s1.2-3.3,3.3-3.3,1.8.3,2.3.7l-.4,1.5c-.4-.3-1.1-.6-2-.6s-1.6.7-1.6,1.5.6,1.3,1.8,1.9c1.7.7,2.5,1.7,2.5,3.4s-1.3,3.3-3.6,3.3-2-.3-2.7-.8l.4-1.5h0Z"/>
    <path class="cls-3" d="M317.1,249.4c0,2.7,1.5,3.9,3.3,3.9s2-.3,2.6-.6l.3,1.4c-.6.3-1.7.7-3.2.7-2.9,0-4.7-2.3-4.7-5.6s1.7-6,4.5-6,3.9,3.2,3.9,5.2,0,.7,0,.9h-6.7,0ZM322.2,248c0-1.3-.5-3.3-2.4-3.3s-2.5,1.9-2.7,3.3h5.1,0Z"/>
    <path class="cls-3" d="M330.4,254.6v-9.6h-1.3v-1.5h1.3v-.5c0-1.6.3-3,1.1-3.9.6-.7,1.5-1,2.3-1s1.1.2,1.5.3l-.2,1.6c-.3-.1-.6-.3-1.1-.3-1.5,0-1.8,1.5-1.8,3.2v.6h2.3v1.5h-2.3v9.6h-1.7Z"/>
    <path class="cls-3" d="M341.2,254.6v-1.4h-.2c-.5.9-1.6,1.7-2.9,1.7-1.9,0-2.9-1.6-2.9-3.2,0-2.7,2-4.2,5.7-4.1v-.2c0-.9-.2-2.6-2.2-2.6s-1.8.3-2.5.8l-.4-1.3c.8-.6,1.9-1,3.1-1,2.9,0,3.6,2.3,3.6,4.6v4.2c0,1,0,1.9.2,2.7h-1.6,0ZM341,248.9c-1.9,0-4,.3-4,2.5s.8,1.9,1.6,1.9,2-.9,2.3-1.9c0-.2,0-.4,0-.6v-1.9Z"/>
    <path class="cls-3" d="M345.4,246.5c0-1.1,0-2.1,0-3h1.5v1.8h.1c.5-1.1,1.4-2,3-2s2.3.9,2.7,2.2h0c.3-.6.7-1.1,1.1-1.4.6-.5,1.2-.8,2.1-.8s3.1,1,3.1,4.8v6.5h-1.7v-6.3c0-2.1-.7-3.4-2.1-3.4s-1.8.9-2,1.8c0,.3-.1.6-.1,1v6.9h-1.7v-6.7c0-1.8-.7-3.1-2-3.1s-1.9,1-2.1,2c0,.3-.1.6-.1,1v6.7h-1.7v-8.1h0Z"/>
    <path class="cls-3" d="M363.8,240.4c0,.7-.4,1.2-1.1,1.2s-1-.5-1-1.2.5-1.3,1.1-1.3,1.1.5,1.1,1.3h0ZM361.9,254.6v-11.1h1.7v11.1h-1.7Z"/>
    <path class="cls-3" d="M366.5,238.3h1.7v16.3h-1.7v-16.3Z"/>
    <path class="cls-3" d="M371.8,243.5l2.1,6.6c.2.7.5,1.6.6,2.3h0c.2-.7.4-1.5.6-2.3l1.9-6.5h1.8l-2.6,7.9c-1.2,3.8-2.1,5.8-3.3,7-.8.9-1.7,1.2-2.1,1.3l-.4-1.7c.4-.2,1-.5,1.5-1,.5-.4,1.1-1.2,1.5-2.3,0-.2.1-.4.1-.5s0-.3-.1-.5l-3.5-10.2h1.9,0Z"/>
    <path class="cls-3" d="M39.1,279.2c0,1.1,0,2.2,0,3h-1.5v-1.8h-.1c-.5.9-1.5,2.1-3.2,2.1s-3.3-1-3.3-4.9v-6.5h1.7v6.2c0,2.1.6,3.5,2.1,3.5s2-.9,2.3-1.8c0-.3.2-.7.2-1v-6.8h1.7v8.1h0Z"/>
    <path class="cls-3" d="M41.9,274.7c0-1.4,0-2.6,0-3.6h1.6v1.9h.1c.7-1.4,1.8-2.2,3.4-2.2,2.3,0,4,2.3,4,5.7s-2.1,6-4.3,6-2.4-.6-2.9-1.8h0v6h-1.7v-12h0ZM43.7,277.7c0,.3,0,.6,0,.8.3,1.4,1.4,2.4,2.6,2.4,1.8,0,2.9-1.8,2.9-4.3s-1-4.1-2.8-4.1-2.3,1-2.6,2.5c0,.3-.1.5-.1.8v1.9Z"/>
    <path class="cls-3" d="M53.1,282.2c0-.8,0-1.9,0-2.9v-13.4h1.7v7h0c.6-1.2,1.7-2,3.2-2,2.4,0,4,2.3,4,5.7,0,4-2.1,6-4.3,6s-2.5-.6-3.2-2.1h0v1.8h-1.6,0ZM54.9,277.7c0,.3,0,.5,0,.7.3,1.4,1.3,2.4,2.6,2.4,1.8,0,2.9-1.7,2.9-4.3s-1-4.1-2.8-4.1-2.3.9-2.6,2.5c0,.2,0,.5,0,.8v2h0Z"/>
    <path class="cls-3" d="M64.4,274.5c0-1.3,0-2.4,0-3.5h1.5v2.2h.1c.4-1.5,1.5-2.4,2.6-2.4s.3,0,.5,0v1.9c-.2,0-.4,0-.6,0-1.2,0-2.1,1.1-2.3,2.6,0,.3,0,.6,0,.9v5.9h-1.7v-7.6h0Z"/>
    <path class="cls-3" d="M72.8,267.9c0,.7-.4,1.2-1.1,1.2s-1-.5-1-1.2.5-1.3,1.1-1.3,1.1.5,1.1,1.3h0ZM70.9,282.2v-11.1h1.7v11.1h-1.7Z"/>
    <path class="cls-3" d="M75.5,274.1c0-1.1,0-2.1,0-3h1.5v1.8h.1c.5-1.1,1.6-2.1,3.2-2.1s3.4.9,3.4,4.7v6.6h-1.7v-6.4c0-1.8-.6-3.3-2.2-3.3s-2,.9-2.3,2.1c0,.3-.1.6-.1.9v6.7h-1.7v-8.1h0Z"/>
    <path class="cls-3" d="M94.7,271.1c0,.8,0,1.7,0,3.1v6.5c0,2.5-.4,4.1-1.4,5.1-.9,1-2.3,1.3-3.5,1.3s-2.4-.3-3.2-.9l.4-1.5c.6.5,1.6.9,2.8.9,1.8,0,3.1-1.1,3.1-3.9v-1.2h0c-.5,1-1.6,1.9-3,1.9-2.4,0-4.1-2.3-4.1-5.4s2.1-5.9,4.3-5.9,2.6,1,3,1.9h0v-1.7h1.6,0ZM92.9,275.5c0-.3,0-.6,0-.9-.3-1.2-1.2-2.1-2.4-2.1s-2.8,1.6-2.8,4.2.9,4,2.8,4,2-.8,2.4-2.1c0-.3.1-.7.1-1.1v-2h0Z"/>
    <path class="cls-3" d="M99.3,267.9c0,.7-.4,1.2-1.1,1.2s-1-.5-1-1.2.5-1.3,1.1-1.3,1.1.5,1.1,1.3h0ZM97.3,282.2v-11.1h1.7v11.1h-1.7Z"/>
    <path class="cls-3" d="M101.9,274.1c0-1.1,0-2.1,0-3h1.5v1.8h.1c.5-1.1,1.6-2.1,3.2-2.1s3.4.9,3.4,4.7v6.6h-1.7v-6.4c0-1.8-.6-3.3-2.2-3.3s-2,.9-2.3,2.1c0,.3-.1.6-.1.9v6.7h-1.7v-8.1h0Z"/>
    <path class="cls-3" d="M121.1,271.1c0,.8,0,1.7,0,3.1v6.5c0,2.5-.4,4.1-1.4,5.1-.9,1-2.3,1.3-3.5,1.3s-2.4-.3-3.2-.9l.4-1.5c.6.5,1.6.9,2.8.9,1.8,0,3.1-1.1,3.1-3.9v-1.2h0c-.5,1-1.6,1.9-3,1.9-2.4,0-4.1-2.3-4.1-5.4s2.1-5.9,4.3-5.9,2.6,1,3,1.9h0v-1.7h1.6ZM119.3,275.5c0-.3,0-.6,0-.9-.3-1.2-1.2-2.1-2.4-2.1s-2.8,1.6-2.8,4.2.9,4,2.8,4,2-.8,2.4-2.1c0-.3.1-.7.1-1.1v-2h0Z"/>
    <path class="cls-3" d="M133.3,282.2v-1.4h-.2c-.5.9-1.6,1.7-2.9,1.7-1.9,0-2.9-1.6-2.9-3.2,0-2.7,2-4.2,5.7-4.1v-.2c0-.9-.2-2.6-2.2-2.6s-1.8.3-2.5.8l-.4-1.3c.8-.6,1.9-1,3.1-1,2.9,0,3.6,2.3,3.6,4.6v4.2c0,1,0,1.9.2,2.7h-1.6,0ZM133.1,276.5c-1.9,0-4,.3-4,2.5s.8,1.9,1.6,1.9,2-.9,2.3-1.9c0-.2,0-.4,0-.6v-1.9h0Z"/>
    <path class="cls-3" d="M137.6,274.1c0-1.1,0-2.1,0-3h1.5v1.8h.1c.5-1.1,1.6-2.1,3.2-2.1s3.4.9,3.4,4.7v6.6h-1.7v-6.4c0-1.8-.6-3.3-2.2-3.3s-2,.9-2.3,2.1c0,.3-.1.6-.1.9v6.7h-1.7v-8.1h0Z"/>
    <path class="cls-3" d="M156.7,265.9v13.4c0,1,0,2.1,0,2.9h-1.6v-1.9h-.1c-.5,1.2-1.7,2.2-3.2,2.2-2.3,0-4.1-2.3-4.1-5.7,0-3.7,2-6,4.3-6s2.4.8,2.9,1.7h0v-6.6h1.7,0ZM155,275.6c0-.3,0-.6,0-.9-.3-1.3-1.2-2.3-2.5-2.3s-2.9,1.8-2.9,4.3.9,4.1,2.8,4.1,2.2-.9,2.5-2.4c0-.3,0-.5,0-.9v-1.9h0Z"/>
    <path class="cls-3" d="M164.7,277c0,2.7,1.5,3.9,3.3,3.9s2-.3,2.6-.6l.3,1.4c-.6.3-1.7.7-3.2.7-2.9,0-4.7-2.3-4.7-5.6s1.7-6,4.5-6,3.9,3.2,3.9,5.2,0,.7,0,.9h-6.7ZM169.8,275.5c0-1.3-.5-3.3-2.4-3.3s-2.5,1.9-2.7,3.3h5.1,0Z"/>
    <path class="cls-3" d="M174.4,271.1l1.4,2.4c.4.6.6,1.2,1,1.8h0c.3-.7.6-1.2.9-1.8l1.3-2.4h1.9l-3.2,5.4,3.3,5.7h-2l-1.4-2.5c-.4-.6-.7-1.3-1-1.9h0c-.3.7-.6,1.3-1,1.9l-1.4,2.5h-1.9l3.4-5.7-3.2-5.4h1.9,0Z"/>
    <path class="cls-3" d="M182.7,274.7c0-1.4,0-2.6,0-3.6h1.6v1.9h.1c.7-1.4,1.8-2.2,3.4-2.2,2.3,0,4,2.3,4,5.7s-2.1,6-4.3,6-2.4-.6-2.9-1.8h0v6h-1.7v-12h0ZM184.4,277.7c0,.3,0,.6,0,.8.3,1.4,1.4,2.4,2.6,2.4,1.8,0,2.9-1.8,2.9-4.3s-1-4.1-2.8-4.1-2.3,1-2.6,2.5c0,.3-.1.5-.1.8v1.9Z"/>
    <path class="cls-3" d="M195.9,267.9c0,.7-.4,1.2-1.1,1.2s-1-.5-1-1.2.5-1.3,1.1-1.3,1.1.5,1.1,1.3h0ZM193.9,282.2v-11.1h1.7v11.1h-1.7Z"/>
    <path class="cls-3" d="M198.5,274.5c0-1.3,0-2.4,0-3.5h1.5v2.2h.1c.4-1.5,1.5-2.4,2.6-2.4s.3,0,.5,0v1.9c-.2,0-.4,0-.6,0-1.2,0-2.1,1.1-2.3,2.6,0,.3,0,.6,0,.9v5.9h-1.7v-7.6h0Z"/>
    <path class="cls-3" d="M207,267.9c0,.7-.4,1.2-1.1,1.2s-1-.5-1-1.2.5-1.3,1.1-1.3,1.1.5,1.1,1.3h0ZM205.1,282.2v-11.1h1.7v11.1h-1.7Z"/>
    <path class="cls-3" d="M210.6,277c0,2.7,1.5,3.9,3.3,3.9s2-.3,2.6-.6l.3,1.4c-.6.3-1.7.7-3.2.7-2.9,0-4.7-2.3-4.7-5.6s1.7-6,4.5-6,3.9,3.2,3.9,5.2,0,.7,0,.9h-6.7ZM215.7,275.5c0-1.3-.5-3.3-2.4-3.3s-2.5,1.9-2.7,3.3h5.1,0Z"/>
    <path class="cls-3" d="M219.5,274.1c0-1.1,0-2.1,0-3h1.5v1.8h.1c.5-1.1,1.6-2.1,3.2-2.1s3.4.9,3.4,4.7v6.6h-1.7v-6.4c0-1.8-.6-3.3-2.2-3.3s-2,.9-2.3,2.1c0,.3-.1.6-.1.9v6.7h-1.7v-8.1h0Z"/>
    <path class="cls-3" d="M237.3,281.8c-.5.3-1.5.6-2.7.6-2.9,0-4.7-2.3-4.7-5.7s2-5.9,5.1-5.9,1.9.3,2.4.6l-.4,1.6c-.4-.3-1.1-.5-2-.5-2.2,0-3.4,1.9-3.4,4.2s1.4,4.2,3.3,4.2,1.6-.3,2.1-.5l.3,1.5h0Z"/>
    <path class="cls-3" d="M240.1,277c0,2.7,1.5,3.9,3.3,3.9s2-.3,2.6-.6l.3,1.4c-.6.3-1.7.7-3.2.7-2.9,0-4.7-2.3-4.7-5.6s1.7-6,4.5-6,3.9,3.2,3.9,5.2,0,.7,0,.9h-6.7,0ZM245.2,275.5c0-1.3-.5-3.3-2.4-3.3s-2.5,1.9-2.7,3.3h5.1,0Z"/>
    <path class="cls-3" d="M248.8,280.1c.5.4,1.4.8,2.3.8,1.3,0,1.8-.7,1.8-1.7s-.5-1.5-1.8-2c-1.7-.7-2.5-1.8-2.5-3.2s1.2-3.3,3.3-3.3,1.8.3,2.3.7l-.4,1.5c-.4-.3-1.1-.6-2-.6s-1.6.7-1.6,1.5.6,1.3,1.8,1.9c1.7.7,2.5,1.7,2.5,3.4s-1.3,3.3-3.6,3.3-2-.3-2.7-.8l.4-1.5h0Z"/>
    <path class="cls-3" d="M261.2,282.2v-9.6h-1.3v-1.5h1.3v-.5c0-1.6.3-3,1.1-3.9.6-.7,1.5-1,2.3-1s1.1.2,1.5.3l-.2,1.6c-.3-.1-.6-.3-1.1-.3-1.5,0-1.8,1.5-1.8,3.2v.6h2.3v1.5h-2.3v9.6h-1.7Z"/>
    <path class="cls-3" d="M275.2,276.5c0,4.1-2.4,5.9-4.7,5.9s-4.6-2.2-4.6-5.7,2.1-5.9,4.7-5.9,4.6,2.3,4.6,5.7h0ZM267.6,276.7c0,2.4,1.2,4.3,2.9,4.3s2.9-1.8,2.9-4.3-.8-4.3-2.9-4.3-2.9,2.2-2.9,4.3h0Z"/>
    <path class="cls-3" d="M277.3,274.5c0-1.3,0-2.4,0-3.5h1.5v2.2h.1c.4-1.5,1.5-2.4,2.6-2.4s.3,0,.5,0v1.9c-.2,0-.4,0-.6,0-1.2,0-2.1,1.1-2.3,2.6,0,.3,0,.6,0,.9v5.9h-1.7v-7.6h0Z"/>
    <path class="cls-3" d="M291.8,271.1c0,.8,0,1.7,0,3.1v6.5c0,2.5-.4,4.1-1.4,5.1-.9,1-2.3,1.3-3.5,1.3s-2.4-.3-3.2-.9l.4-1.5c.6.5,1.6.9,2.8.9,1.8,0,3.1-1.1,3.1-3.9v-1.2h0c-.5,1-1.6,1.9-3,1.9-2.4,0-4.1-2.3-4.1-5.4s2.1-5.9,4.3-5.9,2.6,1,3,1.9h0v-1.7h1.6ZM290,275.5c0-.3,0-.6,0-.9-.3-1.2-1.2-2.1-2.4-2.1s-2.8,1.6-2.8,4.2.9,4,2.8,4,2-.8,2.4-2.1c0-.3.1-.7.1-1.1v-2h0Z"/>
    <path class="cls-3" d="M295.6,277c0,2.7,1.5,3.9,3.3,3.9s2-.3,2.6-.6l.3,1.4c-.6.3-1.7.7-3.2.7-2.9,0-4.7-2.3-4.7-5.6s1.7-6,4.5-6,3.9,3.2,3.9,5.2,0,.7,0,.9h-6.7,0ZM300.7,275.5c0-1.3-.5-3.3-2.4-3.3s-2.5,1.9-2.7,3.3h5.1,0Z"/>
    <path class="cls-3" d="M312.7,265.9v13.4c0,1,0,2.1,0,2.9h-1.6v-1.9h-.1c-.5,1.2-1.7,2.2-3.2,2.2-2.3,0-4.1-2.3-4.1-5.7,0-3.7,2-6,4.3-6s2.4.8,2.9,1.7h0v-6.6h1.7,0ZM311,275.6c0-.3,0-.6,0-.9-.3-1.3-1.2-2.3-2.5-2.3s-2.9,1.8-2.9,4.3.9,4.1,2.8,4.1,2.2-.9,2.5-2.4c0-.3,0-.5,0-.9v-1.9h0Z"/>
    <path class="cls-3" d="M325.1,282.2v-1.4h-.2c-.5.9-1.6,1.7-2.9,1.7-1.9,0-2.9-1.6-2.9-3.2,0-2.7,2-4.2,5.7-4.1v-.2c0-.9-.2-2.6-2.2-2.6s-1.8.3-2.5.8l-.4-1.3c.8-.6,1.9-1,3.1-1,2.9,0,3.6,2.3,3.6,4.6v4.2c0,1,0,1.9.2,2.7h-1.6,0ZM324.8,276.5c-1.9,0-4,.3-4,2.5s.8,1.9,1.6,1.9,2-.9,2.3-1.9c0-.2,0-.4,0-.6v-1.9Z"/>
    <path class="cls-3" d="M333.5,274.7c0-1.4,0-2.6,0-3.6h1.6v1.9h.1c.7-1.4,1.8-2.2,3.4-2.2,2.3,0,4,2.3,4,5.7s-2.1,6-4.3,6-2.4-.6-2.9-1.8h0v6h-1.7v-12h0ZM335.2,277.7c0,.3,0,.6,0,.8.3,1.4,1.4,2.4,2.6,2.4,1.8,0,2.9-1.8,2.9-4.3s-1-4.1-2.8-4.1-2.3,1-2.6,2.5c0,.3-.1.5-.1.8v1.9h0Z"/>
    <path class="cls-3" d="M350,282.2v-1.4h-.2c-.5.9-1.6,1.7-2.9,1.7-1.9,0-2.9-1.6-2.9-3.2,0-2.7,2-4.2,5.7-4.1v-.2c0-.9-.2-2.6-2.2-2.6s-1.8.3-2.5.8l-.4-1.3c.8-.6,1.9-1,3.1-1,2.9,0,3.6,2.3,3.6,4.6v4.2c0,1,0,1.9.2,2.7h-1.6,0ZM349.7,276.5c-1.9,0-4,.3-4,2.5s.8,1.9,1.6,1.9,2-.9,2.3-1.9c0-.2,0-.4,0-.6v-1.9Z"/>
    <path class="cls-3" d="M356.2,267.9v3.2h2.5v1.5h-2.5v6c0,1.4.3,2.2,1.3,2.2s.8,0,1-.1v1.5c-.3.2-.8.3-1.5.3s-1.5-.3-1.9-.9c-.5-.6-.7-1.6-.7-2.9v-6.1h-1.5v-1.5h1.5v-2.7l1.7-.5h0Z"/>
    <path class="cls-3" d="M360.6,265.9h1.7v6.9h0c.3-.6.7-1.1,1.2-1.4.5-.3,1.1-.6,1.8-.6,1.3,0,3.3.9,3.3,4.8v6.6h-1.7v-6.4c0-1.8-.6-3.3-2.2-3.3s-2,.9-2.3,2c0,.3-.1.6-.1,1v6.7h-1.7v-16.3h0Z"/>
    <path class="cls-3" d="M33.2,295.5v3.2h2.5v1.5h-2.5v6c0,1.4.3,2.2,1.3,2.2s.8,0,1-.1v1.5c-.3.2-.8.3-1.5.3s-1.5-.3-1.9-.9c-.5-.6-.7-1.6-.7-2.9v-6.1h-1.5v-1.5h1.5v-2.7l1.7-.5h0Z"/>
    <path class="cls-3" d="M46.1,304.1c0,4.1-2.4,5.9-4.7,5.9s-4.6-2.2-4.6-5.7,2.1-5.9,4.7-5.9,4.6,2.3,4.6,5.7ZM38.6,304.2c0,2.4,1.2,4.3,2.9,4.3s2.9-1.8,2.9-4.3-.8-4.3-2.9-4.3-2.9,2.2-2.9,4.3h0Z"/>
    <path class="cls-3" d="M53.5,304.6c0,2.7,1.5,3.9,3.3,3.9s2-.3,2.6-.6l.3,1.4c-.6.3-1.7.7-3.2.7-2.9,0-4.7-2.3-4.7-5.6s1.7-6,4.5-6,3.9,3.2,3.9,5.2,0,.7,0,.9h-6.7,0ZM58.5,303.1c0-1.3-.5-3.3-2.4-3.3s-2.5,1.9-2.7,3.3h5.1,0Z"/>
    <path class="cls-3" d="M63.1,298.6l1.4,2.4c.4.6.6,1.2,1,1.8h0c.3-.7.6-1.2.9-1.8l1.3-2.4h1.9l-3.2,5.4,3.3,5.7h-2l-1.4-2.5c-.4-.6-.7-1.3-1-1.9h0c-.3.7-.6,1.3-1,1.9l-1.4,2.5h-1.9l3.4-5.7-3.2-5.4h1.9,0Z"/>
    <path class="cls-3" d="M71.4,302.3c0-1.4,0-2.6,0-3.6h1.6v1.9h.1c.7-1.4,1.8-2.2,3.4-2.2,2.3,0,4,2.3,4,5.7s-2.1,6-4.3,6-2.4-.6-2.9-1.8h0v6h-1.7v-12h0ZM73.1,305.2c0,.3,0,.6,0,.8.3,1.4,1.4,2.4,2.6,2.4,1.8,0,2.9-1.8,2.9-4.3s-1-4.1-2.8-4.1-2.3,1-2.6,2.5c0,.3-.1.5-.1.8v1.9Z"/>
    <path class="cls-3" d="M82.6,293.5h1.7v16.3h-1.7v-16.3Z"/>
    <path class="cls-3" d="M95.9,304.1c0,4.1-2.4,5.9-4.7,5.9s-4.6-2.2-4.6-5.7,2.1-5.9,4.7-5.9,4.6,2.3,4.6,5.7ZM88.3,304.2c0,2.4,1.2,4.3,2.9,4.3s2.9-1.8,2.9-4.3-.8-4.3-2.9-4.3-2.9,2.2-2.9,4.3h0Z"/>
    <path class="cls-3" d="M98.1,302.1c0-1.3,0-2.4,0-3.5h1.5v2.2h.1c.4-1.5,1.5-2.4,2.6-2.4s.3,0,.5,0v1.9c-.2,0-.4,0-.6,0-1.2,0-2.1,1.1-2.3,2.6,0,.3,0,.6,0,.9v5.9h-1.7v-7.6h0Z"/>
    <path class="cls-3" d="M105.3,304.6c0,2.7,1.5,3.9,3.3,3.9s2-.3,2.6-.6l.3,1.4c-.6.3-1.7.7-3.2.7-2.9,0-4.7-2.3-4.7-5.6s1.7-6,4.5-6,3.9,3.2,3.9,5.2,0,.7,0,.9h-6.7ZM110.4,303.1c0-1.3-.5-3.3-2.4-3.3s-2.5,1.9-2.7,3.3h5.1,0Z"/>
    <path class="cls-3" d="M120.5,295.5v3.2h2.5v1.5h-2.5v6c0,1.4.3,2.2,1.3,2.2s.8,0,1-.1v1.5c-.3.2-.8.3-1.5.3s-1.5-.3-1.9-.9c-.5-.6-.7-1.6-.7-2.9v-6.1h-1.5v-1.5h1.5v-2.7l1.7-.5h0Z"/>
    <path class="cls-3" d="M124.9,293.5h1.7v6.9h0c.3-.6.7-1.1,1.2-1.4.5-.3,1.1-.6,1.8-.6,1.3,0,3.3.9,3.3,4.8v6.6h-1.7v-6.4c0-1.8-.6-3.3-2.2-3.3s-2,.9-2.3,2c0,.3-.1.6-.1,1v6.7h-1.7v-16.3h0Z"/>
    <path class="cls-3" d="M136.8,304.6c0,2.7,1.5,3.9,3.3,3.9s2-.3,2.6-.6l.3,1.4c-.6.3-1.7.7-3.2.7-2.9,0-4.7-2.3-4.7-5.6s1.7-6,4.5-6,3.9,3.2,3.9,5.2,0,.7,0,.9h-6.7ZM141.9,303.1c0-1.3-.5-3.3-2.4-3.3s-2.5,1.9-2.7,3.3h5.1,0Z"/>
    <path class="cls-3" d="M158.1,293.5v13.4c0,1,0,2.1,0,2.9h-1.6v-1.9h-.1c-.5,1.2-1.7,2.2-3.2,2.2-2.3,0-4.1-2.3-4.1-5.7,0-3.7,2-6,4.3-6s2.4.8,2.9,1.7h0v-6.6h1.7,0ZM156.4,303.2c0-.3,0-.6,0-.9-.3-1.3-1.2-2.3-2.5-2.3s-2.9,1.8-2.9,4.3.9,4.1,2.8,4.1,2.2-.9,2.5-2.4c0-.3,0-.5,0-.9v-1.9h0Z"/>
    <path class="cls-3" d="M162,304.6c0,2.7,1.5,3.9,3.3,3.9s2-.3,2.6-.6l.3,1.4c-.6.3-1.7.7-3.2.7-2.9,0-4.7-2.3-4.7-5.6s1.7-6,4.5-6,3.9,3.2,3.9,5.2,0,.7,0,.9h-6.7ZM167,303.1c0-1.3-.5-3.3-2.4-3.3s-2.5,1.9-2.7,3.3h5.1,0Z"/>
    <path class="cls-3" d="M170.9,302.3c0-1.4,0-2.6,0-3.6h1.6v1.9h.1c.7-1.4,1.8-2.2,3.4-2.2,2.3,0,4,2.3,4,5.7s-2.1,6-4.3,6-2.4-.6-2.9-1.8h0v6h-1.7v-12h0ZM172.6,305.2c0,.3,0,.6,0,.8.3,1.4,1.4,2.4,2.6,2.4,1.8,0,2.9-1.8,2.9-4.3s-1-4.1-2.8-4.1-2.3,1-2.6,2.5c0,.3-.1.5-.1.8v1.9Z"/>
    <path class="cls-3" d="M184.2,295.5v3.2h2.5v1.5h-2.5v6c0,1.4.3,2.2,1.3,2.2s.8,0,1-.1v1.5c-.3.2-.8.3-1.5.3s-1.5-.3-1.9-.9c-.5-.6-.7-1.6-.7-2.9v-6.1h-1.5v-1.5h1.5v-2.7l1.7-.5h0Z"/>
    <path class="cls-3" d="M188.6,293.5h1.7v6.9h0c.3-.6.7-1.1,1.2-1.4.5-.3,1.1-.6,1.8-.6,1.3,0,3.3.9,3.3,4.8v6.6h-1.7v-6.4c0-1.8-.6-3.3-2.2-3.3s-2,.9-2.3,2c0,.3-.1.6-.1,1v6.7h-1.7v-16.3h0Z"/>
    <path class="cls-3" d="M212.3,304.1c0,4.1-2.4,5.9-4.7,5.9s-4.6-2.2-4.6-5.7,2.1-5.9,4.7-5.9,4.6,2.3,4.6,5.7ZM204.8,304.2c0,2.4,1.2,4.3,2.9,4.3s2.9-1.8,2.9-4.3-.8-4.3-2.9-4.3-2.9,2.2-2.9,4.3h0Z"/>
    <path class="cls-3" d="M214.7,309.8v-9.6h-1.3v-1.5h1.3v-.5c0-1.6.3-3,1.1-3.9.6-.7,1.5-1,2.3-1s1.1.2,1.5.3l-.2,1.6c-.3-.1-.6-.3-1.1-.3-1.5,0-1.8,1.5-1.8,3.2v.6h2.3v1.5h-2.3v9.6h-1.7Z"/>
    <path class="cls-3" d="M224.5,293.5h1.7v6.9h0c.3-.6.7-1.1,1.2-1.4.5-.3,1.1-.6,1.8-.6,1.3,0,3.3.9,3.3,4.8v6.6h-1.7v-6.4c0-1.8-.6-3.3-2.2-3.3s-2,.9-2.3,2c0,.3-.1.6-.1,1v6.7h-1.7v-16.3h0Z"/>
    <path class="cls-3" d="M236.4,304.6c0,2.7,1.5,3.9,3.3,3.9s2-.3,2.6-.6l.3,1.4c-.6.3-1.7.7-3.2.7-2.9,0-4.7-2.3-4.7-5.6s1.7-6,4.5-6,3.9,3.2,3.9,5.2,0,.7,0,.9h-6.7,0ZM241.4,303.1c0-1.3-.5-3.3-2.4-3.3s-2.5,1.9-2.7,3.3h5.1,0Z"/>
    <path class="cls-3" d="M245.3,302.1c0-1.3,0-2.4,0-3.5h1.5v2.2h.1c.4-1.5,1.5-2.4,2.6-2.4s.3,0,.5,0v1.9c-.2,0-.4,0-.6,0-1.2,0-2.1,1.1-2.3,2.6,0,.3,0,.6,0,.9v5.9h-1.7v-7.6h0Z"/>
    <path class="cls-3" d="M264.5,304.1c0,4.1-2.4,5.9-4.7,5.9s-4.6-2.2-4.6-5.7,2.1-5.9,4.7-5.9,4.6,2.3,4.6,5.7h0ZM256.9,304.2c0,2.4,1.2,4.3,2.9,4.3s2.9-1.8,2.9-4.3-.8-4.3-2.9-4.3-2.9,2.2-2.9,4.3h0Z"/>
    <path class="cls-3" d="M267.2,298.6l1.3,5.7c.3,1.2.5,2.4.7,3.5h0c.2-1.1.5-2.3.8-3.5l1.6-5.7h1.5l1.5,5.6c.4,1.3.6,2.5.8,3.6h0c.2-1.1.4-2.3.7-3.6l1.4-5.6h1.7l-3.1,11.1h-1.6l-1.5-5.3c-.3-1.2-.6-2.3-.8-3.7h0c-.2,1.3-.5,2.5-.9,3.7l-1.5,5.3h-1.6l-2.9-11.1h1.8Z"/>
    <path class="cls-3" d="M281.1,301.7c0-1.1,0-2.1,0-3h1.5v1.8h.1c.5-1.1,1.6-2.1,3.2-2.1s3.4.9,3.4,4.7v6.6h-1.7v-6.4c0-1.8-.6-3.3-2.2-3.3s-2,.9-2.3,2.1c0,.3-.1.6-.1.9v6.7h-1.7v-8.1h0Z"/>
    <path class="cls-3" d="M296.2,302.3c0-1.4,0-2.6,0-3.6h1.6v1.9h.1c.7-1.4,1.8-2.2,3.4-2.2,2.3,0,4,2.3,4,5.7s-2.1,6-4.3,6-2.4-.6-2.9-1.8h0v6h-1.7v-12h0ZM297.9,305.2c0,.3,0,.6,0,.8.3,1.4,1.4,2.4,2.6,2.4,1.8,0,2.9-1.8,2.9-4.3s-1-4.1-2.8-4.1-2.3,1-2.6,2.5c0,.3-.1.5-.1.8v1.9h0Z"/>
    <path class="cls-3" d="M307.1,307.7c.5.4,1.4.8,2.3.8,1.3,0,1.8-.7,1.8-1.7s-.5-1.5-1.8-2c-1.7-.7-2.5-1.8-2.5-3.2s1.2-3.3,3.3-3.3,1.8.3,2.3.7l-.4,1.5c-.4-.3-1.1-.6-2-.6s-1.6.7-1.6,1.5.6,1.3,1.8,1.9c1.7.7,2.5,1.7,2.5,3.4s-1.3,3.3-3.6,3.3-2-.3-2.7-.8l.4-1.5h0Z"/>
    <path class="cls-3" d="M315.8,298.6l2.1,6.6c.2.7.5,1.6.6,2.3h0c.2-.7.4-1.5.6-2.3l1.9-6.5h1.8l-2.6,7.9c-1.2,3.8-2.1,5.8-3.3,7-.8.9-1.7,1.2-2.1,1.3l-.4-1.7c.4-.2,1-.5,1.5-1,.5-.4,1.1-1.2,1.5-2.3,0-.2.1-.4.1-.5s0-.3-.1-.5l-3.5-10.2h1.9Z"/>
    <path class="cls-3" d="M331.1,309.3c-.5.3-1.5.6-2.7.6-2.9,0-4.7-2.3-4.7-5.7s2-5.9,5.1-5.9,1.9.3,2.4.6l-.4,1.6c-.4-.3-1.1-.5-2-.5-2.2,0-3.4,1.9-3.4,4.2s1.4,4.2,3.3,4.2,1.6-.3,2.1-.5l.3,1.5h0Z"/>
    <path class="cls-3" d="M333.1,293.5h1.7v6.9h0c.3-.6.7-1.1,1.2-1.4.5-.3,1.1-.6,1.8-.6,1.3,0,3.3.9,3.3,4.8v6.6h-1.7v-6.4c0-1.8-.6-3.3-2.2-3.3s-2,.9-2.3,2c0,.3-.1.6-.1,1v6.7h-1.7v-16.3h0Z"/>
    <path class="cls-3" d="M345,304.6c0,2.7,1.5,3.9,3.3,3.9s2-.3,2.6-.6l.3,1.4c-.6.3-1.7.7-3.2.7-2.9,0-4.7-2.3-4.7-5.6s1.7-6,4.5-6,3.9,3.2,3.9,5.2,0,.7,0,.9h-6.7,0ZM350.1,303.1c0-1.3-.5-3.3-2.4-3.3s-2.5,1.9-2.7,3.3h5.1,0Z"/>
    <path class="cls-3" d="M31.8,326.2l1.3,5.7c.3,1.2.5,2.4.7,3.5h0c.2-1.1.5-2.3.8-3.5l1.6-5.7h1.5l1.5,5.6c.4,1.3.6,2.5.8,3.6h0c.2-1.1.4-2.3.7-3.6l1.4-5.6h1.7l-3.1,11.1h-1.6l-1.5-5.3c-.3-1.2-.6-2.3-.8-3.7h0c-.2,1.3-.5,2.5-.9,3.7l-1.5,5.3h-1.6l-2.9-11.1h1.8Z"/>
    <path class="cls-3" d="M45.6,321h1.7v6.9h0c.3-.6.7-1.1,1.2-1.4.5-.3,1.1-.6,1.8-.6,1.3,0,3.3.9,3.3,4.8v6.6h-1.7v-6.4c0-1.8-.6-3.3-2.2-3.3s-2,.9-2.3,2c0,.3-.1.6-.1,1v6.7h-1.7v-16.3h0Z"/>
    <path class="cls-3" d="M58.5,323.1c0,.7-.4,1.2-1.1,1.2s-1-.5-1-1.2.5-1.3,1.1-1.3,1.1.5,1.1,1.3h0ZM56.5,337.3v-11.1h1.7v11.1h-1.7Z"/>
    <path class="cls-3" d="M67.9,336.9c-.5.3-1.5.6-2.7.6-2.9,0-4.7-2.3-4.7-5.7s2-5.9,5.1-5.9,1.9.3,2.4.6l-.4,1.6c-.4-.3-1.1-.5-2-.5-2.2,0-3.4,1.9-3.4,4.2s1.4,4.2,3.3,4.2,1.6-.3,2.1-.5l.3,1.5h0Z"/>
    <path class="cls-3" d="M70,321h1.7v6.9h0c.3-.6.7-1.1,1.2-1.4.5-.3,1.1-.6,1.8-.6,1.3,0,3.3.9,3.3,4.8v6.6h-1.7v-6.4c0-1.8-.6-3.3-2.2-3.3s-2,.9-2.3,2c0,.3-.1.6-.1,1v6.7h-1.7v-16.3h0Z"/>
    <path class="cls-3" d="M87,323.1c0,.7-.4,1.2-1.1,1.2s-1-.5-1-1.2.5-1.3,1.1-1.3,1.1.5,1.1,1.3h0ZM85.1,337.3v-11.1h1.7v11.1h-1.7Z"/>
    <path class="cls-3" d="M89.4,335.3c.5.4,1.4.8,2.3.8,1.3,0,1.8-.7,1.8-1.7s-.5-1.5-1.8-2c-1.7-.7-2.5-1.8-2.5-3.2s1.2-3.3,3.3-3.3,1.8.3,2.3.7l-.4,1.5c-.4-.3-1.1-.6-2-.6s-1.6.7-1.6,1.5.6,1.3,1.8,1.9c1.7.7,2.5,1.7,2.5,3.4s-1.3,3.3-3.6,3.3-2-.3-2.7-.8l.4-1.5h0Z"/>
    <path class="cls-3" d="M106.9,337.3v-1.4h-.2c-.5.9-1.6,1.7-2.9,1.7-1.9,0-2.9-1.6-2.9-3.2,0-2.7,2-4.2,5.7-4.1v-.2c0-.9-.2-2.6-2.2-2.6s-1.8.3-2.5.8l-.4-1.3c.8-.6,1.9-1,3.1-1,2.9,0,3.6,2.3,3.6,4.6v4.2c0,1,0,1.9.2,2.7h-1.6,0ZM106.7,331.7c-1.9,0-4,.3-4,2.5s.8,1.9,1.6,1.9,2-.9,2.3-1.9c0-.2,0-.4,0-.6v-1.9h0Z"/>
    <path class="cls-3" d="M111.2,321h1.7v16.3h-1.7v-16.3h0Z"/>
    <path class="cls-3" d="M116.5,326.2l1.3,5.7c.3,1.2.5,2.4.7,3.5h0c.2-1.1.5-2.3.8-3.5l1.6-5.7h1.5l1.5,5.6c.4,1.3.6,2.5.8,3.6h0c.2-1.1.4-2.3.7-3.6l1.4-5.6h1.7l-3.1,11.1h-1.6l-1.5-5.3c-.3-1.2-.6-2.3-.8-3.7h0c-.2,1.3-.5,2.5-.9,3.7l-1.5,5.3h-1.6l-2.9-11.1h1.8Z"/>
    <path class="cls-3" d="M135.5,337.3v-1.4h-.2c-.5.9-1.6,1.7-2.9,1.7-1.9,0-2.9-1.6-2.9-3.2,0-2.7,2-4.2,5.7-4.1v-.2c0-.9-.2-2.6-2.2-2.6s-1.8.3-2.5.8l-.4-1.3c.8-.6,1.9-1,3.1-1,2.9,0,3.6,2.3,3.6,4.6v4.2c0,1,0,1.9.2,2.7h-1.6,0ZM135.3,331.7c-1.9,0-4,.3-4,2.5s.8,1.9,1.6,1.9,2-.9,2.3-1.9c0-.2,0-.4,0-.6v-1.9h0Z"/>
    <path class="cls-3" d="M140.2,326.2l2.1,6.6c.2.7.5,1.6.6,2.3h0c.2-.7.4-1.5.6-2.3l1.9-6.5h1.8l-2.6,7.9c-1.2,3.8-2.1,5.8-3.3,7-.8.9-1.7,1.2-2.1,1.3l-.4-1.7c.4-.2,1-.5,1.5-1,.5-.4,1.1-1.2,1.5-2.3,0-.2.1-.4.1-.5s0-.3-.1-.5l-3.5-10.2h1.9Z"/>
    <path class="cls-3" d="M148.5,335.3c.5.4,1.4.8,2.3.8,1.3,0,1.8-.7,1.8-1.7s-.5-1.5-1.8-2c-1.7-.7-2.5-1.8-2.5-3.2s1.2-3.3,3.3-3.3,1.8.3,2.3.7l-.4,1.5c-.4-.3-1.1-.6-2-.6s-1.6.7-1.6,1.5.6,1.3,1.8,1.9c1.7.7,2.5,1.7,2.5,3.4s-1.3,3.3-3.6,3.3-2-.3-2.7-.8l.4-1.5h0Z"/>
    <path class="cls-3" d="M166,337.3v-1.4h-.2c-.5.9-1.6,1.7-2.9,1.7-1.9,0-2.9-1.6-2.9-3.2,0-2.7,2-4.2,5.7-4.1v-.2c0-.9-.2-2.6-2.2-2.6s-1.8.3-2.5.8l-.4-1.3c.8-.6,1.9-1,3.1-1,2.9,0,3.6,2.3,3.6,4.6v4.2c0,1,0,1.9.2,2.7h-1.6,0ZM165.7,331.7c-1.9,0-4,.3-4,2.5s.8,1.9,1.6,1.9,2-.9,2.3-1.9c0-.2,0-.4,0-.6v-1.9h0Z"/>
    <path class="cls-3" d="M181.2,336.9c-.5.3-1.5.6-2.7.6-2.9,0-4.7-2.3-4.7-5.7s2-5.9,5.1-5.9,1.9.3,2.4.6l-.4,1.6c-.4-.3-1.1-.5-2-.5-2.2,0-3.4,1.9-3.4,4.2s1.4,4.2,3.3,4.2,1.6-.3,2.1-.5l.3,1.5h0Z"/>
    <path class="cls-3" d="M191.7,331.7c0,4.1-2.4,5.9-4.7,5.9s-4.6-2.2-4.6-5.7,2.1-5.9,4.7-5.9,4.6,2.3,4.6,5.7ZM184.2,331.8c0,2.4,1.2,4.3,2.9,4.3s2.9-1.8,2.9-4.3-.8-4.3-2.9-4.3-2.9,2.2-2.9,4.3h0Z"/>
    <path class="cls-3" d="M193.9,329.2c0-1.1,0-2.1,0-3h1.5v1.8h.1c.5-1.1,1.6-2.1,3.2-2.1s3.4.9,3.4,4.7v6.6h-1.7v-6.4c0-1.8-.6-3.3-2.2-3.3s-2,.9-2.3,2.1c0,.3-.1.6-.1.9v6.7h-1.7v-8.1h0Z"/>
    <path class="cls-3" d="M206.8,323v3.2h2.5v1.5h-2.5v6c0,1.4.3,2.2,1.3,2.2s.8,0,1-.1v1.5c-.3.2-.8.3-1.5.3s-1.5-.3-1.9-.9c-.5-.6-.7-1.6-.7-2.9v-6.1h-1.5v-1.5h1.5v-2.7l1.7-.5h0Z"/>
    <path class="cls-3" d="M213.2,323.1c0,.7-.4,1.2-1.1,1.2s-1-.5-1-1.2.5-1.3,1.1-1.3,1.1.5,1.1,1.3h0ZM211.3,337.3v-11.1h1.7v11.1h-1.7Z"/>
    <path class="cls-3" d="M215.9,329.2c0-1.1,0-2.1,0-3h1.5v1.8h.1c.5-1.1,1.6-2.1,3.2-2.1s3.4.9,3.4,4.7v6.6h-1.7v-6.4c0-1.8-.6-3.3-2.2-3.3s-2,.9-2.3,2.1c0,.3-.1.6-.1.9v6.7h-1.7v-8.1h0Z"/>
    <path class="cls-3" d="M228.8,323.1c0,.7-.4,1.2-1.1,1.2s-1-.5-1-1.2.5-1.3,1.1-1.3,1.1.5,1.1,1.3h0ZM226.8,337.3v-11.1h1.7v11.1h-1.7Z"/>
    <path class="cls-3" d="M239.4,334.3c0,1.1,0,2.2,0,3h-1.5v-1.8h-.1c-.5.9-1.5,2.1-3.2,2.1s-3.3-1-3.3-4.9v-6.5h1.7v6.2c0,2.1.6,3.5,2.1,3.5s2-.9,2.3-1.8c0-.3.2-.7.2-1v-6.8h1.7v8.1h0Z"/>
    <path class="cls-3" d="M242.3,329.2c0-1.1,0-2.1,0-3h1.5v1.8h.1c.5-1.1,1.4-2,3-2s2.3.9,2.7,2.2h0c.3-.6.7-1.1,1.1-1.4.6-.5,1.2-.8,2.1-.8s3.1,1,3.1,4.8v6.5h-1.7v-6.3c0-2.1-.7-3.4-2.1-3.4s-1.8.9-2,1.8c0,.3-.1.6-.1,1v6.9h-1.7v-6.7c0-1.8-.7-3.1-2-3.1s-1.9,1-2.1,2c0,.3-.1.6-.1,1v6.7h-1.7v-8.1h0Z"/>
    <path class="cls-3" d="M268.2,337.3v-1.4h-.2c-.5.9-1.6,1.7-2.9,1.7-1.9,0-2.9-1.6-2.9-3.2,0-2.7,2-4.2,5.7-4.1v-.2c0-.9-.2-2.6-2.2-2.6s-1.8.3-2.5.8l-.4-1.3c.8-.6,1.9-1,3.1-1,2.9,0,3.6,2.3,3.6,4.6v4.2c0,1,0,1.9.2,2.7h-1.6,0ZM267.9,331.7c-1.9,0-4,.3-4,2.5s.8,1.9,1.6,1.9,2-.9,2.3-1.9c0-.2,0-.4,0-.6v-1.9Z"/>
    <path class="cls-3" d="M272.2,335.3c.5.4,1.4.8,2.3.8,1.3,0,1.8-.7,1.8-1.7s-.5-1.5-1.8-2c-1.7-.7-2.5-1.8-2.5-3.2s1.2-3.3,3.3-3.3,1.8.3,2.3.7l-.4,1.5c-.4-.3-1.1-.6-2-.6s-1.6.7-1.6,1.5.6,1.3,1.8,1.9c1.7.7,2.5,1.7,2.5,3.4s-1.3,3.3-3.6,3.3-2-.3-2.7-.8l.4-1.5h0Z"/>
    <path class="cls-3" d="M284.1,335.3c.5.4,1.4.8,2.3.8,1.3,0,1.8-.7,1.8-1.7s-.5-1.5-1.8-2c-1.7-.7-2.5-1.8-2.5-3.2s1.2-3.3,3.3-3.3,1.8.3,2.3.7l-.4,1.5c-.4-.3-1.1-.6-2-.6s-1.6.7-1.6,1.5.6,1.3,1.8,1.9c1.7.7,2.5,1.7,2.5,3.4s-1.3,3.3-3.6,3.3-2-.3-2.7-.8l.4-1.5h0Z"/>
    <path class="cls-3" d="M292.2,321h1.7v6.9h0c.3-.6.7-1.1,1.2-1.4.5-.3,1.1-.6,1.8-.6,1.3,0,3.3.9,3.3,4.8v6.6h-1.7v-6.4c0-1.8-.6-3.3-2.2-3.3s-2,.9-2.3,2c0,.3-.1.6-.1,1v6.7h-1.7v-16.3h0Z"/>
    <path class="cls-3" d="M304.1,332.2c0,2.7,1.5,3.9,3.3,3.9s2-.3,2.6-.6l.3,1.4c-.6.3-1.7.7-3.2.7-2.9,0-4.7-2.3-4.7-5.6s1.7-6,4.5-6,3.9,3.2,3.9,5.2,0,.7,0,.9h-6.7,0ZM309.2,330.7c0-1.3-.5-3.3-2.4-3.3s-2.5,1.9-2.7,3.3h5.1,0Z"/>
    <path class="cls-3" d="M316.9,335.3c.5.4,1.4.8,2.3.8,1.3,0,1.8-.7,1.8-1.7s-.5-1.5-1.8-2c-1.7-.7-2.5-1.8-2.5-3.2s1.2-3.3,3.3-3.3,1.8.3,2.3.7l-.4,1.5c-.4-.3-1.1-.6-2-.6s-1.6.7-1.6,1.5.6,1.3,1.8,1.9c1.7.7,2.5,1.7,2.5,3.4s-1.3,3.3-3.6,3.3-2-.3-2.7-.8l.4-1.5h0Z"/>
    <path class="cls-3" d="M330.2,337.3v-1.4h-.2c-.5.9-1.6,1.7-2.9,1.7-1.9,0-2.9-1.6-2.9-3.2,0-2.7,2-4.2,5.7-4.1v-.2c0-.9-.2-2.6-2.2-2.6s-1.8.3-2.5.8l-.4-1.3c.8-.6,1.9-1,3.1-1,2.9,0,3.6,2.3,3.6,4.6v4.2c0,1,0,1.9.2,2.7h-1.6,0ZM330,331.7c-1.9,0-4,.3-4,2.5s.8,1.9,1.6,1.9,2-.9,2.3-1.9c0-.2,0-.4,0-.6v-1.9Z"/>
    <path class="cls-3" d="M336.4,323.1c0,.7-.4,1.2-1.1,1.2s-1-.5-1-1.2.5-1.3,1.1-1.3,1.1.5,1.1,1.3h0ZM334.5,337.3v-11.1h1.7v11.1h-1.7Z"/>
    <path class="cls-3" d="M347.3,321v13.4c0,1,0,2.1,0,2.9h-1.6v-1.9h-.1c-.5,1.2-1.7,2.2-3.2,2.2-2.3,0-4.1-2.3-4.1-5.7,0-3.7,2-6,4.3-6s2.4.8,2.9,1.7h0v-6.6h1.7,0ZM345.6,330.8c0-.3,0-.6,0-.9-.3-1.3-1.2-2.3-2.5-2.3s-2.9,1.8-2.9,4.3.9,4.1,2.8,4.1,2.2-.9,2.5-2.4c0-.3,0-.5,0-.9v-1.9h0Z"/>
    <path class="cls-3" d="M348.9,340.2c.4-1.4,1-3.8,1.2-5.5l1.9-.2c-.5,1.9-1.3,4.5-1.9,5.6h-1.2c0,.1,0,.1,0,.1Z"/>
    <path class="cls-3" d="M31.1,348.6h1.7v6.9h0c.3-.6.7-1.1,1.2-1.4.5-.3,1.1-.6,1.8-.6,1.3,0,3.3.9,3.3,4.8v6.6h-1.7v-6.4c0-1.8-.6-3.3-2.2-3.3s-2,.9-2.3,2c0,.3-.1.6-.1,1v6.7h-1.7v-16.3h0Z"/>
    <path class="cls-3" d="M43,359.7c0,2.7,1.5,3.9,3.3,3.9s2-.3,2.6-.6l.3,1.4c-.6.3-1.7.7-3.2.7-2.9,0-4.7-2.3-4.7-5.6s1.7-6,4.5-6,3.9,3.2,3.9,5.2,0,.7,0,.9h-6.7,0ZM48.1,358.3c0-1.3-.5-3.3-2.4-3.3s-2.5,1.9-2.7,3.3h5.1,0Z"/>
    <path class="cls-3" d="M51.9,357.3c0-1.3,0-2.4,0-3.5h1.5v2.2h.1c.4-1.5,1.5-2.4,2.6-2.4s.3,0,.5,0v1.9c-.2,0-.4,0-.6,0-1.2,0-2.1,1.1-2.3,2.6,0,.3,0,.6,0,.9v5.9h-1.7v-7.6h0Z"/>
    <path class="cls-3" d="M67.8,364.9v-1.4h-.2c-.5.9-1.6,1.7-2.9,1.7-1.9,0-2.9-1.6-2.9-3.2,0-2.7,2-4.2,5.7-4.1v-.2c0-.9-.2-2.6-2.2-2.6s-1.8.3-2.5.8l-.4-1.3c.8-.6,1.9-1,3.1-1,2.9,0,3.6,2.3,3.6,4.6v4.2c0,1,0,1.9.2,2.7h-1.6,0ZM67.5,359.2c-1.9,0-4,.3-4,2.5s.8,1.9,1.6,1.9,2-.9,2.3-1.9c0-.2,0-.4,0-.6,0,0,0-1.9,0-1.9Z"/>
    <path class="cls-3" d="M72,357.3c0-1.3,0-2.4,0-3.5h1.5v2.2h.1c.4-1.5,1.5-2.4,2.6-2.4s.3,0,.5,0v1.9c-.2,0-.4,0-.6,0-1.2,0-2.1,1.1-2.3,2.6,0,.3,0,.6,0,.9v5.9h-1.7v-7.6h0Z"/>
    <path class="cls-3" d="M81,350.6v3.2h2.5v1.5h-2.5v6c0,1.4.3,2.2,1.3,2.2s.8,0,1-.1v1.5c-.3.2-.8.3-1.5.3s-1.5-.3-1.9-.9c-.5-.6-.7-1.6-.7-2.9v-6.1h-1.5v-1.5h1.5v-2.7l1.7-.5h0Z"/>
    <path class="cls-3" d="M86.3,353.8l1.3,5.7c.3,1.2.5,2.4.7,3.5h0c.2-1.1.5-2.3.8-3.5l1.6-5.7h1.5l1.5,5.6c.4,1.3.6,2.5.8,3.6h0c.2-1.1.4-2.3.7-3.6l1.4-5.6h1.7l-3.1,11.1h-1.6l-1.5-5.3c-.3-1.2-.6-2.3-.8-3.7h0c-.2,1.3-.5,2.5-.9,3.7l-1.5,5.3h-1.6l-2.9-11.1h1.8Z"/>
    <path class="cls-3" d="M108.6,359.3c0,4.1-2.4,5.9-4.7,5.9s-4.6-2.2-4.6-5.7,2.1-5.9,4.7-5.9,4.6,2.3,4.6,5.7ZM101,359.4c0,2.4,1.2,4.3,2.9,4.3s2.9-1.8,2.9-4.3-.8-4.3-2.9-4.3-2.9,2.2-2.9,4.3h0Z"/>
    <path class="cls-3" d="M110.7,357.3c0-1.3,0-2.4,0-3.5h1.5v2.2h.1c.4-1.5,1.5-2.4,2.6-2.4s.3,0,.5,0v1.9c-.2,0-.4,0-.6,0-1.2,0-2.1,1.1-2.3,2.6,0,.3,0,.6,0,.9v5.9h-1.7v-7.6h0Z"/>
    <path class="cls-3" d="M119,358.9h0c.2-.4.6-.9.8-1.3l2.8-3.8h2.1l-3.7,4.6,4.2,6.5h-2.1l-3.3-5.3-.9,1.1v4.2h-1.7v-16.3h1.7v10.3h0Z"/>
    <path class="cls-3" d="M132.6,350.7c0,.7-.4,1.2-1.1,1.2s-1-.5-1-1.2.5-1.3,1.1-1.3,1.1.5,1.1,1.3h0ZM130.7,364.9v-11.1h1.7v11.1h-1.7Z"/>
    <path class="cls-3" d="M135.1,362.8c.5.4,1.4.8,2.3.8,1.3,0,1.8-.7,1.8-1.7s-.5-1.5-1.8-2c-1.7-.7-2.5-1.8-2.5-3.2s1.2-3.3,3.3-3.3,1.8.3,2.3.7l-.4,1.5c-.4-.3-1.1-.6-2-.6s-1.6.7-1.6,1.5.6,1.3,1.8,1.9c1.7.7,2.5,1.7,2.5,3.4s-1.3,3.3-3.6,3.3-2-.3-2.7-.8l.4-1.5h0Z"/>
    <path class="cls-3" d="M152.5,364.9v-1.4h-.2c-.5.9-1.6,1.7-2.9,1.7-1.9,0-2.9-1.6-2.9-3.2,0-2.7,2-4.2,5.7-4.1v-.2c0-.9-.2-2.6-2.2-2.6s-1.8.3-2.5.8l-.4-1.3c.8-.6,1.9-1,3.1-1,2.9,0,3.6,2.3,3.6,4.6v4.2c0,1,0,1.9.2,2.7h-1.6,0ZM152.3,359.2c-1.9,0-4,.3-4,2.5s.8,1.9,1.6,1.9,2-.9,2.3-1.9c0-.2,0-.4,0-.6v-1.9h0Z"/>
    <path class="cls-3" d="M160.9,357.3c0-1.3,0-2.4,0-3.5h1.5v2.2h.1c.4-1.5,1.5-2.4,2.6-2.4s.3,0,.5,0v1.9c-.2,0-.4,0-.6,0-1.2,0-2.1,1.1-2.3,2.6,0,.3,0,.6,0,.9v5.9h-1.7v-7.6h0Z"/>
    <path class="cls-3" d="M168.2,359.7c0,2.7,1.5,3.9,3.3,3.9s2-.3,2.6-.6l.3,1.4c-.6.3-1.7.7-3.2.7-2.9,0-4.7-2.3-4.7-5.6s1.7-6,4.5-6,3.9,3.2,3.9,5.2,0,.7,0,.9h-6.7ZM173.2,358.3c0-1.3-.5-3.3-2.4-3.3s-2.5,1.9-2.7,3.3h5.1,0Z"/>
    <path class="cls-3" d="M177.1,357.4c0-1.4,0-2.6,0-3.6h1.6v1.9h.1c.7-1.4,1.8-2.2,3.4-2.2,2.3,0,4,2.3,4,5.7s-2.1,6-4.3,6-2.4-.6-2.9-1.8h0v6h-1.7v-12h0ZM178.8,360.4c0,.3,0,.6,0,.8.3,1.4,1.4,2.4,2.6,2.4,1.8,0,2.9-1.8,2.9-4.3s-1-4.1-2.8-4.1-2.3,1-2.6,2.5c0,.3-.1.5-.1.8v1.9h0Z"/>
    <path class="cls-3" d="M188.3,357.3c0-1.3,0-2.4,0-3.5h1.5v2.2h.1c.4-1.5,1.5-2.4,2.6-2.4s.3,0,.5,0v1.9c-.2,0-.4,0-.6,0-1.2,0-2.1,1.1-2.3,2.6,0,.3,0,.6,0,.9v5.9h-1.7v-7.6h0Z"/>
    <path class="cls-3" d="M195.5,359.7c0,2.7,1.5,3.9,3.3,3.9s2-.3,2.6-.6l.3,1.4c-.6.3-1.7.7-3.2.7-2.9,0-4.7-2.3-4.7-5.6s1.7-6,4.5-6,3.9,3.2,3.9,5.2,0,.7,0,.9h-6.7ZM200.6,358.3c0-1.3-.5-3.3-2.4-3.3s-2.5,1.9-2.7,3.3h5.1,0Z"/>
    <path class="cls-3" d="M204.1,362.8c.5.4,1.4.8,2.3.8,1.3,0,1.8-.7,1.8-1.7s-.5-1.5-1.8-2c-1.7-.7-2.5-1.8-2.5-3.2s1.2-3.3,3.3-3.3,1.8.3,2.3.7l-.4,1.5c-.4-.3-1.1-.6-2-.6s-1.6.7-1.6,1.5.6,1.3,1.8,1.9c1.7.7,2.5,1.7,2.5,3.4s-1.3,3.3-3.6,3.3-2-.3-2.7-.8l.4-1.5h0Z"/>
    <path class="cls-3" d="M213.1,359.7c0,2.7,1.5,3.9,3.3,3.9s2-.3,2.6-.6l.3,1.4c-.6.3-1.7.7-3.2.7-2.9,0-4.7-2.3-4.7-5.6s1.7-6,4.5-6,3.9,3.2,3.9,5.2,0,.7,0,.9h-6.7ZM218.2,358.3c0-1.3-.5-3.3-2.4-3.3s-2.5,1.9-2.7,3.3h5.1,0Z"/>
    <path class="cls-3" d="M222.1,356.8c0-1.1,0-2.1,0-3h1.5v1.8h.1c.5-1.1,1.6-2.1,3.2-2.1s3.4.9,3.4,4.7v6.6h-1.7v-6.4c0-1.8-.6-3.3-2.2-3.3s-2,.9-2.3,2.1c0,.3-.1.6-.1.9v6.7h-1.7v-8.1h0Z"/>
    <path class="cls-3" d="M235,350.6v3.2h2.5v1.5h-2.5v6c0,1.4.3,2.2,1.3,2.2s.8,0,1-.1v1.5c-.3.2-.8.3-1.5.3s-1.5-.3-1.9-.9c-.5-.6-.7-1.6-.7-2.9v-6.1h-1.5v-1.5h1.5v-2.7l1.7-.5h0Z"/>
    <path class="cls-3" d="M244.7,364.9v-1.4h-.2c-.5.9-1.6,1.7-2.9,1.7-1.9,0-2.9-1.6-2.9-3.2,0-2.7,2-4.2,5.7-4.1v-.2c0-.9-.2-2.6-2.2-2.6s-1.8.3-2.5.8l-.4-1.3c.8-.6,1.9-1,3.1-1,2.9,0,3.6,2.3,3.6,4.6v4.2c0,1,0,1.9.2,2.7h-1.6,0ZM244.5,359.2c-1.9,0-4,.3-4,2.5s.8,1.9,1.6,1.9,2-.9,2.3-1.9c0-.2,0-.4,0-.6v-1.9Z"/>
    <path class="cls-3" d="M250.9,350.6v3.2h2.5v1.5h-2.5v6c0,1.4.3,2.2,1.3,2.2s.8,0,1-.1v1.5c-.3.2-.8.3-1.5.3s-1.5-.3-1.9-.9c-.5-.6-.7-1.6-.7-2.9v-6.1h-1.5v-1.5h1.5v-2.7l1.7-.5h0Z"/>
    <path class="cls-3" d="M257.3,350.7c0,.7-.4,1.2-1.1,1.2s-1-.5-1-1.2.5-1.3,1.1-1.3,1.1.5,1.1,1.3h0ZM255.4,364.9v-11.1h1.7v11.1h-1.7Z"/>
    <path class="cls-3" d="M268.6,359.3c0,4.1-2.4,5.9-4.7,5.9s-4.6-2.2-4.6-5.7,2.1-5.9,4.7-5.9,4.6,2.3,4.6,5.7h0ZM261,359.4c0,2.4,1.2,4.3,2.9,4.3s2.9-1.8,2.9-4.3-.8-4.3-2.9-4.3-2.9,2.2-2.9,4.3h0Z"/>
    <path class="cls-3" d="M270.8,356.8c0-1.1,0-2.1,0-3h1.5v1.8h.1c.5-1.1,1.6-2.1,3.2-2.1s3.4.9,3.4,4.7v6.6h-1.7v-6.4c0-1.8-.6-3.3-2.2-3.3s-2,.9-2.3,2.1c0,.3-.1.6-.1.9v6.7h-1.7v-8.1h0Z"/>
    <path class="cls-3" d="M294.5,359.3c0,4.1-2.4,5.9-4.7,5.9s-4.6-2.2-4.6-5.7,2.1-5.9,4.7-5.9,4.6,2.3,4.6,5.7h0ZM287,359.4c0,2.4,1.2,4.3,2.9,4.3s2.9-1.8,2.9-4.3-.8-4.3-2.9-4.3-2.9,2.2-2.9,4.3h0Z"/>
    <path class="cls-3" d="M296.9,364.9v-9.6h-1.3v-1.5h1.3v-.5c0-1.6.3-3,1.1-3.9.6-.7,1.5-1,2.3-1s1.1.2,1.5.3l-.2,1.6c-.3-.1-.6-.3-1.1-.3-1.5,0-1.8,1.5-1.8,3.2v.6h2.3v1.5h-2.3v9.6h-1.7Z"/>
    <path class="cls-3" d="M307.3,353.8l1.3,5.7c.3,1.2.5,2.4.7,3.5h0c.2-1.1.5-2.3.8-3.5l1.6-5.7h1.5l1.5,5.6c.4,1.3.6,2.5.8,3.6h0c.2-1.1.4-2.3.7-3.6l1.4-5.6h1.7l-3.1,11.1h-1.6l-1.5-5.3c-.3-1.2-.6-2.3-.8-3.7h0c-.2,1.3-.5,2.5-.9,3.7l-1.5,5.3h-1.6l-2.9-11.1h1.8Z"/>
    <path class="cls-3" d="M321.1,348.6h1.7v6.9h0c.3-.6.7-1.1,1.2-1.4.5-.3,1.1-.6,1.8-.6,1.3,0,3.3.9,3.3,4.8v6.6h-1.7v-6.4c0-1.8-.6-3.3-2.2-3.3s-2,.9-2.3,2c0,.3-.1.6-.1,1v6.7h-1.7v-16.3h0Z"/>
    <path class="cls-3" d="M337.4,364.9v-1.4h-.2c-.5.9-1.6,1.7-2.9,1.7-1.9,0-2.9-1.6-2.9-3.2,0-2.7,2-4.2,5.7-4.1v-.2c0-.9-.2-2.6-2.2-2.6s-1.8.3-2.5.8l-.4-1.3c.8-.6,1.9-1,3.1-1,2.9,0,3.6,2.3,3.6,4.6v4.2c0,1,0,1.9.2,2.7h-1.6,0ZM337.1,359.2c-1.9,0-4,.3-4,2.5s.8,1.9,1.6,1.9,2-.9,2.3-1.9c0-.2,0-.4,0-.6v-1.9Z"/>
    <path class="cls-3" d="M343.6,350.6v3.2h2.5v1.5h-2.5v6c0,1.4.3,2.2,1.3,2.2s.8,0,1-.1v1.5c-.3.2-.8.3-1.5.3s-1.5-.3-1.9-.9c-.5-.6-.7-1.6-.7-2.9v-6.1h-1.5v-1.5h1.5v-2.7l1.7-.5h0Z"/>
    <path class="cls-3" d="M31.8,381.4l1.3,5.7c.3,1.2.5,2.4.7,3.5h0c.2-1.1.5-2.3.8-3.5l1.6-5.7h1.5l1.5,5.6c.4,1.3.6,2.5.8,3.6h0c.2-1.1.4-2.3.7-3.6l1.4-5.6h1.7l-3.1,11.1h-1.6l-1.5-5.3c-.3-1.2-.6-2.3-.8-3.7h0c-.2,1.3-.5,2.5-.9,3.7l-1.5,5.3h-1.6l-2.9-11.1h1.8Z"/>
    <path class="cls-3" d="M50.8,392.5v-1.4h-.2c-.5.9-1.6,1.7-2.9,1.7-1.9,0-2.9-1.6-2.9-3.2,0-2.7,2-4.2,5.7-4.1v-.2c0-.9-.2-2.6-2.2-2.6s-1.8.3-2.5.8l-.4-1.3c.8-.6,1.9-1,3.1-1,2.9,0,3.6,2.3,3.6,4.6v4.2c0,1,0,1.9.2,2.7h-1.6,0ZM50.5,386.8c-1.9,0-4,.3-4,2.5s.8,1.9,1.6,1.9,2-.9,2.3-1.9c0-.2,0-.4,0-.6,0,0,0-1.9,0-1.9Z"/>
    <path class="cls-3" d="M54.8,390.4c.5.4,1.4.8,2.3.8,1.3,0,1.8-.7,1.8-1.7s-.5-1.5-1.8-2c-1.7-.7-2.5-1.8-2.5-3.2s1.2-3.3,3.3-3.3,1.8.3,2.3.7l-.4,1.5c-.4-.3-1.1-.6-2-.6s-1.6.7-1.6,1.5.6,1.3,1.8,1.9c1.7.7,2.5,1.7,2.5,3.4s-1.3,3.3-3.6,3.3-2-.3-2.7-.8l.4-1.5h0Z"/>
    <path class="cls-3" d="M67.2,392.5v-9.6h-1.3v-1.5h1.3v-.5c0-1.6.3-3,1.1-3.9.6-.7,1.5-1,2.3-1s1.1.2,1.5.3l-.2,1.6c-.3-.1-.6-.3-1.1-.3-1.5,0-1.8,1.5-1.8,3.2v.6h2.3v1.5h-2.3v9.6h-1.7Z"/>
    <path class="cls-3" d="M81.1,386.8c0,4.1-2.4,5.9-4.7,5.9s-4.6-2.2-4.6-5.7,2.1-5.9,4.7-5.9,4.6,2.3,4.6,5.7ZM73.6,387c0,2.4,1.2,4.3,2.9,4.3s2.9-1.8,2.9-4.3-.8-4.3-2.9-4.3-2.9,2.2-2.9,4.3h0Z"/>
    <path class="cls-3" d="M91.3,389.5c0,1.1,0,2.2,0,3h-1.5v-1.8h-.1c-.5.9-1.5,2.1-3.2,2.1s-3.3-1-3.3-4.9v-6.5h1.7v6.2c0,2.1.6,3.5,2.1,3.5s2-.9,2.3-1.8c0-.3.2-.7.2-1v-6.8h1.7v8.1h0Z"/>
    <path class="cls-3" d="M94.2,384.4c0-1.1,0-2.1,0-3h1.5v1.8h.1c.5-1.1,1.6-2.1,3.2-2.1s3.4.9,3.4,4.7v6.6h-1.7v-6.4c0-1.8-.6-3.3-2.2-3.3s-2,.9-2.3,2.1c0,.3-.1.6-.1.9v6.7h-1.7v-8.1h0Z"/>
    <path class="cls-3" d="M113.3,376.2v13.4c0,1,0,2.1,0,2.9h-1.6v-1.9h-.1c-.5,1.2-1.7,2.2-3.2,2.2-2.3,0-4.1-2.3-4.1-5.7,0-3.7,2-6,4.3-6s2.4.8,2.9,1.7h0v-6.6h1.7,0ZM111.6,385.9c0-.3,0-.6,0-.9-.3-1.3-1.2-2.3-2.5-2.3s-2.9,1.8-2.9,4.3.9,4.1,2.8,4.1,2.2-.9,2.5-2.4c0-.3,0-.5,0-.9v-1.9h0Z"/>
    <path class="cls-3" d="M122.3,378.2c0,.7-.4,1.2-1.1,1.2s-1-.5-1-1.2.5-1.3,1.1-1.3,1.1.5,1.1,1.3h0ZM120.4,392.5v-11.1h1.7v11.1h-1.7Z"/>
    <path class="cls-3" d="M125,384.4c0-1.1,0-2.1,0-3h1.5v1.8h.1c.5-1.1,1.6-2.1,3.2-2.1s3.4.9,3.4,4.7v6.6h-1.7v-6.4c0-1.8-.6-3.3-2.2-3.3s-2,.9-2.3,2.1c0,.3-.1.6-.1.9v6.7h-1.7v-8.1h0Z"/>
    <path class="cls-3" d="M140.7,381.4l2.1,6.6c.2.7.5,1.6.6,2.3h0c.2-.7.4-1.5.6-2.3l1.9-6.5h1.8l-2.6,7.9c-1.2,3.8-2.1,5.8-3.3,7-.8.9-1.7,1.2-2.1,1.3l-.4-1.7c.4-.2,1-.5,1.5-1,.5-.4,1.1-1.2,1.5-2.3,0-.2.1-.4.1-.5s0-.3-.1-.5l-3.5-10.2h1.9Z"/>
    <path class="cls-3" d="M150.1,387.3c0,2.7,1.5,3.9,3.3,3.9s2-.3,2.6-.6l.3,1.4c-.6.3-1.7.7-3.2.7-2.9,0-4.7-2.3-4.7-5.6s1.7-6,4.5-6,3.9,3.2,3.9,5.2,0,.7,0,.9h-6.7ZM155.2,385.8c0-1.3-.5-3.3-2.4-3.3s-2.5,1.9-2.7,3.3h5.1,0Z"/>
    <path class="cls-3" d="M164.3,392.5v-1.4h-.2c-.5.9-1.6,1.7-2.9,1.7-1.9,0-2.9-1.6-2.9-3.2,0-2.7,2-4.2,5.7-4.1v-.2c0-.9-.2-2.6-2.2-2.6s-1.8.3-2.5.8l-.4-1.3c.8-.6,1.9-1,3.1-1,2.9,0,3.6,2.3,3.6,4.6v4.2c0,1,0,1.9.2,2.7h-1.6,0ZM164.1,386.8c-1.9,0-4,.3-4,2.5s.8,1.9,1.6,1.9,2-.9,2.3-1.9c0-.2,0-.4,0-.6v-1.9h0Z"/>
    <path class="cls-3" d="M168.6,384.8c0-1.3,0-2.4,0-3.5h1.5v2.2h.1c.4-1.5,1.5-2.4,2.6-2.4s.3,0,.5,0v1.9c-.2,0-.4,0-.6,0-1.2,0-2.1,1.1-2.3,2.6,0,.3,0,.6,0,.9v5.9h-1.7v-7.6h0Z"/>
    <path class="cls-3" d="M174.8,390.4c.5.4,1.4.8,2.3.8,1.3,0,1.8-.7,1.8-1.7s-.5-1.5-1.8-2c-1.7-.7-2.5-1.8-2.5-3.2s1.2-3.3,3.3-3.3,1.8.3,2.3.7l-.4,1.5c-.4-.3-1.1-.6-2-.6s-1.6.7-1.6,1.5.6,1.3,1.8,1.9c1.7.7,2.5,1.7,2.5,3.4s-1.3,3.3-3.6,3.3-2-.3-2.7-.8l.4-1.5h0Z"/>
    <path class="cls-3" d="M189.1,378.2v3.2h2.5v1.5h-2.5v6c0,1.4.3,2.2,1.3,2.2s.8,0,1-.1v1.5c-.3.2-.8.3-1.5.3s-1.5-.3-1.9-.9c-.5-.6-.7-1.6-.7-2.9v-6.1h-1.5v-1.5h1.5v-2.7l1.7-.5h0Z"/>
    <path class="cls-3" d="M193.5,384.8c0-1.3,0-2.4,0-3.5h1.5v2.2h.1c.4-1.5,1.5-2.4,2.6-2.4s.3,0,.5,0v1.9c-.2,0-.4,0-.6,0-1.2,0-2.1,1.1-2.3,2.6,0,.3,0,.6,0,.9v5.9h-1.7v-7.6h0Z"/>
    <path class="cls-3" d="M208.4,386.8c0,4.1-2.4,5.9-4.7,5.9s-4.6-2.2-4.6-5.7,2.1-5.9,4.7-5.9,4.6,2.3,4.6,5.7ZM200.8,387c0,2.4,1.2,4.3,2.9,4.3s2.9-1.8,2.9-4.3-.8-4.3-2.9-4.3-2.9,2.2-2.9,4.3h0Z"/>
    <path class="cls-3" d="M218.5,389.5c0,1.1,0,2.2,0,3h-1.5v-1.8h-.1c-.5.9-1.5,2.1-3.2,2.1s-3.3-1-3.3-4.9v-6.5h1.7v6.2c0,2.1.6,3.5,2.1,3.5s2-.9,2.3-1.8c0-.3.2-.7.2-1v-6.8h1.7v8.1h0Z"/>
    <path class="cls-3" d="M229.6,381.4c0,.8,0,1.7,0,3.1v6.5c0,2.5-.4,4.1-1.4,5.1-.9,1-2.3,1.3-3.5,1.3s-2.4-.3-3.2-.9l.4-1.5c.6.5,1.6.9,2.8.9,1.8,0,3.1-1.1,3.1-3.9v-1.2h0c-.5,1-1.6,1.9-3,1.9-2.4,0-4.1-2.3-4.1-5.4s2.1-5.9,4.3-5.9,2.6,1,3,1.9h0v-1.7h1.6ZM227.8,385.8c0-.3,0-.6,0-.9-.3-1.2-1.2-2.1-2.4-2.1s-2.8,1.6-2.8,4.2.9,4,2.8,4,2-.8,2.4-2.1c0-.3.1-.7.1-1.1v-2h0Z"/>
    <path class="cls-3" d="M232.4,376.2h1.7v6.9h0c.3-.6.7-1.1,1.2-1.4.5-.3,1.1-.6,1.8-.6,1.3,0,3.3.9,3.3,4.8v6.6h-1.7v-6.4c0-1.8-.6-3.3-2.2-3.3s-2,.9-2.3,2c0,.3-.1.6-.1,1v6.7h-1.7v-16.3h0Z"/>
    <path class="cls-3" d="M255.8,376.2v13.4c0,1,0,2.1,0,2.9h-1.6v-1.9h-.1c-.5,1.2-1.7,2.2-3.2,2.2-2.3,0-4.1-2.3-4.1-5.7,0-3.7,2-6,4.3-6s2.4.8,2.9,1.7h0v-6.6h1.7,0ZM254,385.9c0-.3,0-.6,0-.9-.3-1.3-1.2-2.3-2.5-2.3s-2.9,1.8-2.9,4.3.9,4.1,2.8,4.1,2.2-.9,2.5-2.4c0-.3,0-.5,0-.9v-1.9h0Z"/>
    <path class="cls-3" d="M259.6,387.3c0,2.7,1.5,3.9,3.3,3.9s2-.3,2.6-.6l.3,1.4c-.6.3-1.7.7-3.2.7-2.9,0-4.7-2.3-4.7-5.6s1.7-6,4.5-6,3.9,3.2,3.9,5.2,0,.7,0,.9h-6.7,0ZM264.7,385.8c0-1.3-.5-3.3-2.4-3.3s-2.5,1.9-2.7,3.3h5.1,0Z"/>
    <path class="cls-3" d="M276.7,376.2v13.4c0,1,0,2.1,0,2.9h-1.6v-1.9h-.1c-.5,1.2-1.7,2.2-3.2,2.2-2.3,0-4.1-2.3-4.1-5.7,0-3.7,2-6,4.3-6s2.4.8,2.9,1.7h0v-6.6h1.7,0ZM275,385.9c0-.3,0-.6,0-.9-.3-1.3-1.2-2.3-2.5-2.3s-2.9,1.8-2.9,4.3.9,4.1,2.8,4.1,2.2-.9,2.5-2.4c0-.3,0-.5,0-.9v-1.9h0Z"/>
    <path class="cls-3" d="M281.6,378.2c0,.7-.4,1.2-1.1,1.2s-1-.5-1-1.2.5-1.3,1.1-1.3,1.1.5,1.1,1.3h0ZM279.6,392.5v-11.1h1.7v11.1h-1.7Z"/>
    <path class="cls-3" d="M291,392.1c-.5.3-1.5.6-2.7.6-2.9,0-4.7-2.3-4.7-5.7s2-5.9,5.1-5.9,1.9.3,2.4.6l-.4,1.6c-.4-.3-1.1-.5-2-.5-2.2,0-3.4,1.9-3.4,4.2s1.4,4.2,3.3,4.2,1.6-.3,2.1-.5l.3,1.5h0Z"/>
    <path class="cls-3" d="M298.3,392.5v-1.4h-.2c-.5.9-1.6,1.7-2.9,1.7-1.9,0-2.9-1.6-2.9-3.2,0-2.7,2-4.2,5.7-4.1v-.2c0-.9-.2-2.6-2.2-2.6s-1.8.3-2.5.8l-.4-1.3c.8-.6,1.9-1,3.1-1,2.9,0,3.6,2.3,3.6,4.6v4.2c0,1,0,1.9.2,2.7h-1.6,0ZM298.1,386.8c-1.9,0-4,.3-4,2.5s.8,1.9,1.6,1.9,2-.9,2.3-1.9c0-.2,0-.4,0-.6v-1.9Z"/>
    <path class="cls-3" d="M304.6,378.2v3.2h2.5v1.5h-2.5v6c0,1.4.3,2.2,1.3,2.2s.8,0,1-.1v1.5c-.3.2-.8.3-1.5.3s-1.5-.3-1.9-.9c-.5-.6-.7-1.6-.7-2.9v-6.1h-1.5v-1.5h1.5v-2.7l1.7-.5h0Z"/>
    <path class="cls-3" d="M310.9,378.2c0,.7-.4,1.2-1.1,1.2s-1-.5-1-1.2.5-1.3,1.1-1.3,1.1.5,1.1,1.3h0ZM309,392.5v-11.1h1.7v11.1h-1.7Z"/>
    <path class="cls-3" d="M322.2,386.8c0,4.1-2.4,5.9-4.7,5.9s-4.6-2.2-4.6-5.7,2.1-5.9,4.7-5.9,4.6,2.3,4.6,5.7h0ZM314.7,387c0,2.4,1.2,4.3,2.9,4.3s2.9-1.8,2.9-4.3-.8-4.3-2.9-4.3-2.9,2.2-2.9,4.3h0Z"/>
    <path class="cls-3" d="M324.4,384.4c0-1.1,0-2.1,0-3h1.5v1.8h.1c.5-1.1,1.6-2.1,3.2-2.1s3.4.9,3.4,4.7v6.6h-1.7v-6.4c0-1.8-.6-3.3-2.2-3.3s-2,.9-2.3,2.1c0,.3-.1.6-.1.9v6.7h-1.7v-8.1h0Z"/>
    <path class="cls-3" d="M348.2,386.8c0,4.1-2.4,5.9-4.7,5.9s-4.6-2.2-4.6-5.7,2.1-5.9,4.7-5.9,4.6,2.3,4.6,5.7h0ZM340.6,387c0,2.4,1.2,4.3,2.9,4.3s2.9-1.8,2.9-4.3-.8-4.3-2.9-4.3-2.9,2.2-2.9,4.3h0Z"/>
    <path class="cls-3" d="M350.5,392.5v-9.6h-1.3v-1.5h1.3v-.5c0-1.6.3-3,1.1-3.9.6-.7,1.5-1,2.3-1s1.1.2,1.5.3l-.2,1.6c-.3-.1-.6-.3-1.1-.3-1.5,0-1.8,1.5-1.8,3.2v.6h2.3v1.5h-2.3v9.6h-1.7Z"/>
    <path class="cls-3" d="M31.1,412.6c0-1.4,0-2.6,0-3.6h1.6v1.9h.1c.7-1.4,1.8-2.2,3.4-2.2,2.3,0,4,2.3,4,5.7s-2.1,6-4.3,6-2.4-.6-2.9-1.8h0v6h-1.7v-12h0ZM32.8,415.5c0,.3,0,.6,0,.8.3,1.4,1.4,2.4,2.6,2.4,1.8,0,2.9-1.8,2.9-4.3s-1-4.1-2.8-4.1-2.3,1-2.6,2.5c0,.3-.1.5-.1.8v1.9h0Z"/>
    <path class="cls-3" d="M42.3,412.4c0-1.3,0-2.4,0-3.5h1.5v2.2h.1c.4-1.5,1.5-2.4,2.6-2.4s.3,0,.5,0v1.9c-.2,0-.4,0-.6,0-1.2,0-2.1,1.1-2.3,2.6,0,.3,0,.6,0,.9v5.9h-1.7v-7.6h0Z"/>
    <path class="cls-3" d="M53.9,420.1v-1.4h-.2c-.5.9-1.6,1.7-2.9,1.7-1.9,0-2.9-1.6-2.9-3.2,0-2.7,2-4.2,5.7-4.1v-.2c0-.9-.2-2.6-2.2-2.6s-1.8.3-2.5.8l-.4-1.3c.8-.6,1.9-1,3.1-1,2.9,0,3.6,2.3,3.6,4.6v4.2c0,1,0,1.9.2,2.7h-1.6,0ZM53.7,414.4c-1.9,0-4,.3-4,2.5s.8,1.9,1.6,1.9,2-.9,2.3-1.9c0-.2,0-.4,0-.6v-1.9Z"/>
    <path class="cls-3" d="M64.9,419.6c-.5.3-1.5.6-2.7.6-2.9,0-4.7-2.3-4.7-5.7s2-5.9,5.1-5.9,1.9.3,2.4.6l-.4,1.6c-.4-.3-1.1-.5-2-.5-2.2,0-3.4,1.9-3.4,4.2s1.4,4.2,3.3,4.2,1.6-.3,2.1-.5l.3,1.5h0Z"/>
    <path class="cls-3" d="M69.3,405.8v3.2h2.5v1.5h-2.5v6c0,1.4.3,2.2,1.3,2.2s.8,0,1-.1v1.5c-.3.2-.8.3-1.5.3s-1.5-.3-1.9-.9c-.5-.6-.7-1.6-.7-2.9v-6.1h-1.5v-1.5h1.5v-2.7l1.7-.5h0Z"/>
    <path class="cls-3" d="M75.7,405.8c0,.7-.4,1.2-1.1,1.2s-1-.5-1-1.2.5-1.3,1.1-1.3,1.1.5,1.1,1.3h0ZM73.8,420.1v-11.1h1.7v11.1h-1.7Z"/>
    <path class="cls-3" d="M85.1,419.6c-.5.3-1.5.6-2.7.6-2.9,0-4.7-2.3-4.7-5.7s2-5.9,5.1-5.9,1.9.3,2.4.6l-.4,1.6c-.4-.3-1.1-.5-2-.5-2.2,0-3.4,1.9-3.4,4.2s1.4,4.2,3.3,4.2,1.6-.3,2.1-.5l.3,1.5h0Z"/>
    <path class="cls-3" d="M88,414.9c0,2.7,1.5,3.9,3.3,3.9s2-.3,2.6-.6l.3,1.4c-.6.3-1.7.7-3.2.7-2.9,0-4.7-2.3-4.7-5.6s1.7-6,4.5-6,3.9,3.2,3.9,5.2,0,.7,0,.9h-6.7,0ZM93.1,413.4c0-1.3-.5-3.3-2.4-3.3s-2.5,1.9-2.7,3.3h5.1,0Z"/>
    <path class="cls-3" d="M103,405.8c0,.7-.4,1.2-1.1,1.2s-1-.5-1-1.2.5-1.3,1.1-1.3,1.1.5,1.1,1.3h0ZM101.1,420.1v-11.1h1.7v11.1h-1.7Z"/>
    <path class="cls-3" d="M105.7,412c0-1.1,0-2.1,0-3h1.5v1.8h.1c.5-1.1,1.6-2.1,3.2-2.1s3.4.9,3.4,4.7v6.6h-1.7v-6.4c0-1.8-.6-3.3-2.2-3.3s-2,.9-2.3,2.1c0,.3-.1.6-.1.9v6.7h-1.7v-8.1h0Z"/>
    <path class="cls-3" d="M120.6,418c.5.4,1.4.8,2.3.8,1.3,0,1.8-.7,1.8-1.7s-.5-1.5-1.8-2c-1.7-.7-2.5-1.8-2.5-3.2s1.2-3.3,3.3-3.3,1.8.3,2.3.7l-.4,1.5c-.4-.3-1.1-.6-2-.6s-1.6.7-1.6,1.5.6,1.3,1.8,1.9c1.7.7,2.5,1.7,2.5,3.4s-1.3,3.3-3.6,3.3-2-.3-2.7-.8l.4-1.5h0Z"/>
    <path class="cls-3" d="M137.3,414.4c0,4.1-2.4,5.9-4.7,5.9s-4.6-2.2-4.6-5.7,2.1-5.9,4.7-5.9,4.6,2.3,4.6,5.7ZM129.7,414.5c0,2.4,1.2,4.3,2.9,4.3s2.9-1.8,2.9-4.3-.8-4.3-2.9-4.3-2.9,2.2-2.9,4.3h0Z"/>
    <path class="cls-3" d="M139.4,403.7h1.7v16.3h-1.7v-16.3Z"/>
    <path class="cls-3" d="M146,405.8c0,.7-.4,1.2-1.1,1.2s-1-.5-1-1.2.5-1.3,1.1-1.3,1.1.5,1.1,1.3h0ZM144.1,420.1v-11.1h1.7v11.1h-1.7Z"/>
    <path class="cls-3" d="M150.8,405.8v3.2h2.5v1.5h-2.5v6c0,1.4.3,2.2,1.3,2.2s.8,0,1-.1v1.5c-.3.2-.8.3-1.5.3s-1.5-.3-1.9-.9c-.5-.6-.7-1.6-.7-2.9v-6.1h-1.5v-1.5h1.5v-2.7l1.7-.5h0Z"/>
    <path class="cls-3" d="M163.2,417c0,1.1,0,2.2,0,3h-1.5v-1.8h-.1c-.5.9-1.5,2.1-3.2,2.1s-3.3-1-3.3-4.9v-6.5h1.7v6.2c0,2.1.6,3.5,2.1,3.5s2-.9,2.3-1.8c0-.3.2-.7.2-1v-6.8h1.7v8.1h0Z"/>
    <path class="cls-3" d="M174.3,403.7v13.4c0,1,0,2.1,0,2.9h-1.6v-1.9h-.1c-.5,1.2-1.7,2.2-3.2,2.2-2.3,0-4.1-2.3-4.1-5.7,0-3.7,2-6,4.3-6s2.4.8,2.9,1.7h0v-6.6h1.7,0ZM172.6,413.5c0-.3,0-.6,0-.9-.3-1.3-1.2-2.3-2.5-2.3s-2.9,1.8-2.9,4.3.9,4.1,2.8,4.1,2.2-.9,2.5-2.4c0-.3,0-.5,0-.9v-1.9h0Z"/>
    <path class="cls-3" d="M178.2,414.9c0,2.7,1.5,3.9,3.3,3.9s2-.3,2.6-.6l.3,1.4c-.6.3-1.7.7-3.2.7-2.9,0-4.7-2.3-4.7-5.6s1.7-6,4.5-6,3.9,3.2,3.9,5.2,0,.7,0,.9h-6.7ZM183.2,413.4c0-1.3-.5-3.3-2.4-3.3s-2.5,1.9-2.7,3.3h5.1,0Z"/>
    <path class="cls-3" d="M193.3,405.8v3.2h2.5v1.5h-2.5v6c0,1.4.3,2.2,1.3,2.2s.8,0,1-.1v1.5c-.3.2-.8.3-1.5.3s-1.5-.3-1.9-.9c-.5-.6-.7-1.6-.7-2.9v-6.1h-1.5v-1.5h1.5v-2.7l1.7-.5h0Z"/>
    <path class="cls-3" d="M197.8,412.4c0-1.3,0-2.4,0-3.5h1.5v2.2h.1c.4-1.5,1.5-2.4,2.6-2.4s.3,0,.5,0v1.9c-.2,0-.4,0-.6,0-1.2,0-2.1,1.1-2.3,2.6,0,.3,0,.6,0,.9v5.9h-1.7v-7.6h0Z"/>
    <path class="cls-3" d="M212.6,414.4c0,4.1-2.4,5.9-4.7,5.9s-4.6-2.2-4.6-5.7,2.1-5.9,4.7-5.9,4.6,2.3,4.6,5.7ZM205.1,414.5c0,2.4,1.2,4.3,2.9,4.3s2.9-1.8,2.9-4.3-.8-4.3-2.9-4.3-2.9,2.2-2.9,4.3h0Z"/>
    <path class="cls-3" d="M222.8,417c0,1.1,0,2.2,0,3h-1.5v-1.8h-.1c-.5.9-1.5,2.1-3.2,2.1s-3.3-1-3.3-4.9v-6.5h1.7v6.2c0,2.1.6,3.5,2.1,3.5s2-.9,2.3-1.8c0-.3.2-.7.2-1v-6.8h1.7v8.1h0Z"/>
    <path class="cls-3" d="M233.9,408.9c0,.8,0,1.7,0,3.1v6.5c0,2.5-.4,4.1-1.4,5.1-.9,1-2.3,1.3-3.5,1.3s-2.4-.3-3.2-.9l.4-1.5c.6.5,1.6.9,2.8.9,1.8,0,3.1-1.1,3.1-3.9v-1.2h0c-.5,1-1.6,1.9-3,1.9-2.4,0-4.1-2.3-4.1-5.4s2.1-5.9,4.3-5.9,2.6,1,3,1.9h0v-1.7h1.6ZM232.1,413.3c0-.3,0-.6,0-.9-.3-1.2-1.2-2.1-2.4-2.1s-2.8,1.6-2.8,4.2.9,4,2.8,4,2-.8,2.4-2.1c0-.3.1-.7.1-1.1v-2h0Z"/>
    <path class="cls-3" d="M236.7,403.7h1.7v6.9h0c.3-.6.7-1.1,1.2-1.4.5-.3,1.1-.6,1.8-.6,1.3,0,3.3.9,3.3,4.8v6.6h-1.7v-6.4c0-1.8-.6-3.3-2.2-3.3s-2,.9-2.3,2c0,.3-.1.6-.1,1v6.7h-1.7v-16.3h0Z"/>
    <path class="cls-3" d="M258.3,418.3h0c-.5,1.1-1.6,2-3.1,2-2.2,0-4-2.3-4-5.6s2.3-6,4.3-6,2.5.9,2.9,1.9h0v-1.7h1.7c0,.9,0,1.9,0,3.1v12.6h-1.7v-6.3h0ZM258.3,413.4c0-.3,0-.6,0-.9-.3-1.2-1.2-2.3-2.5-2.3s-2.9,1.8-2.9,4.3.9,4.1,2.8,4.1,2.1-.8,2.5-2.2c0-.3.1-.7.1-1v-2.1Z"/>
    <path class="cls-3" d="M270.9,417c0,1.1,0,2.2,0,3h-1.5v-1.8h-.1c-.5.9-1.5,2.1-3.2,2.1s-3.3-1-3.3-4.9v-6.5h1.7v6.2c0,2.1.6,3.5,2.1,3.5s2-.9,2.3-1.8c0-.3.2-.7.2-1v-6.8h1.7v8.1h0Z"/>
    <path class="cls-3" d="M275.7,405.8c0,.7-.4,1.2-1.1,1.2s-1-.5-1-1.2.5-1.3,1.1-1.3,1.1.5,1.1,1.3h0ZM273.7,420.1v-11.1h1.7v11.1h-1.7Z"/>
    <path class="cls-3" d="M280.4,405.8v3.2h2.5v1.5h-2.5v6c0,1.4.3,2.2,1.3,2.2s.8,0,1-.1v1.5c-.3.2-.8.3-1.5.3s-1.5-.3-1.9-.9c-.5-.6-.7-1.6-.7-2.9v-6.1h-1.5v-1.5h1.5v-2.7l1.7-.5h0Z"/>
    <path class="cls-3" d="M285.7,414.9c0,2.7,1.5,3.9,3.3,3.9s2-.3,2.6-.6l.3,1.4c-.6.3-1.7.7-3.2.7-2.9,0-4.7-2.3-4.7-5.6s1.7-6,4.5-6,3.9,3.2,3.9,5.2,0,.7,0,.9h-6.7,0ZM290.8,413.4c0-1.3-.5-3.3-2.4-3.3s-2.5,1.9-2.7,3.3h5.1,0Z"/>
    <path class="cls-3" d="M305.6,419.6c-.5.3-1.5.6-2.7.6-2.9,0-4.7-2.3-4.7-5.7s2-5.9,5.1-5.9,1.9.3,2.4.6l-.4,1.6c-.4-.3-1.1-.5-2-.5-2.2,0-3.4,1.9-3.4,4.2s1.4,4.2,3.3,4.2,1.6-.3,2.1-.5l.3,1.5h0Z"/>
    <path class="cls-3" d="M316.1,414.4c0,4.1-2.4,5.9-4.7,5.9s-4.6-2.2-4.6-5.7,2.1-5.9,4.7-5.9,4.6,2.3,4.6,5.7h0ZM308.6,414.5c0,2.4,1.2,4.3,2.9,4.3s2.9-1.8,2.9-4.3-.8-4.3-2.9-4.3-2.9,2.2-2.9,4.3h0Z"/>
    <path class="cls-3" d="M318.3,412c0-1.1,0-2.1,0-3h1.5v1.8h.1c.5-1.1,1.6-2.1,3.2-2.1s3.4.9,3.4,4.7v6.6h-1.7v-6.4c0-1.8-.6-3.3-2.2-3.3s-2,.9-2.3,2.1c0,.3-.1.6-.1.9v6.7h-1.7v-8.1h0Z"/>
    <path class="cls-3" d="M331.3,405.8v3.2h2.5v1.5h-2.5v6c0,1.4.3,2.2,1.3,2.2s.8,0,1-.1v1.5c-.3.2-.8.3-1.5.3s-1.5-.3-1.9-.9c-.5-.6-.7-1.6-.7-2.9v-6.1h-1.5v-1.5h1.5v-2.7l1.7-.5h0Z"/>
    <path class="cls-3" d="M336.6,414.9c0,2.7,1.5,3.9,3.3,3.9s2-.3,2.6-.6l.3,1.4c-.6.3-1.7.7-3.2.7-2.9,0-4.7-2.3-4.7-5.6s1.7-6,4.5-6,3.9,3.2,3.9,5.2,0,.7,0,.9h-6.7,0ZM341.6,413.4c0-1.3-.5-3.3-2.4-3.3s-2.5,1.9-2.7,3.3h5.1,0Z"/>
    <path class="cls-3" d="M345.5,412c0-1.1,0-2.1,0-3h1.5v1.8h.1c.5-1.1,1.4-2,3-2s2.3.9,2.7,2.2h0c.3-.6.7-1.1,1.1-1.4.6-.5,1.2-.8,2.1-.8s3.1,1,3.1,4.8v6.5h-1.7v-6.3c0-2.1-.7-3.4-2.1-3.4s-1.8.9-2,1.8c0,.3-.1.6-.1,1v6.9h-1.7v-6.7c0-1.8-.7-3.1-2-3.1s-1.9,1-2.1,2c0,.3-.1.6-.1,1v6.7h-1.7v-8.1h0Z"/>
    <path class="cls-3" d="M365.9,413.1v1.5h-4.9v-1.5h4.9Z"/>
    <path class="cls-3" d="M31.1,440.2c0-1.4,0-2.6,0-3.6h1.6v1.9h.1c.7-1.4,1.8-2.2,3.4-2.2,2.3,0,4,2.3,4,5.7s-2.1,6-4.3,6-2.4-.6-2.9-1.8h0v6h-1.7v-12h0ZM32.8,443.1c0,.3,0,.6,0,.8.3,1.4,1.4,2.4,2.6,2.4,1.8,0,2.9-1.8,2.9-4.3s-1-4.1-2.8-4.1-2.3,1-2.6,2.5c0,.3-.1.5-.1.8v1.9h0Z"/>
    <path class="cls-3" d="M42.3,431.3h1.7v16.3h-1.7v-16.3Z"/>
    <path class="cls-3" d="M52.2,447.6v-1.4h-.2c-.5.9-1.6,1.7-2.9,1.7-1.9,0-2.9-1.6-2.9-3.2,0-2.7,2-4.2,5.7-4.1v-.2c0-.9-.2-2.6-2.2-2.6s-1.8.3-2.5.8l-.4-1.3c.8-.6,1.9-1,3.1-1,2.9,0,3.6,2.3,3.6,4.6v4.2c0,1,0,1.9.2,2.7h-1.6,0ZM52,442c-1.9,0-4,.3-4,2.5s.8,1.9,1.6,1.9,2-.9,2.3-1.9c0-.2,0-.4,0-.6v-1.9Z"/>
    <path class="cls-3" d="M58.5,433.3v3.2h2.5v1.5h-2.5v6c0,1.4.3,2.2,1.3,2.2s.8,0,1-.1v1.5c-.3.2-.8.3-1.5.3s-1.5-.3-1.9-.9c-.5-.6-.7-1.6-.7-2.9v-6.1h-1.5v-1.5h1.5v-2.7l1.7-.5h0Z"/>
    <path class="cls-3" d="M64.8,433.4c0,.7-.4,1.2-1.1,1.2s-1-.5-1-1.2.5-1.3,1.1-1.3,1.1.5,1.1,1.3h0ZM62.9,447.6v-11.1h1.7v11.1h-1.7Z"/>
    <path class="cls-3" d="M76.1,442c0,4.1-2.4,5.9-4.7,5.9s-4.6-2.2-4.6-5.7,2.1-5.9,4.7-5.9,4.6,2.3,4.6,5.7ZM68.6,442.1c0,2.4,1.2,4.3,2.9,4.3s2.9-1.8,2.9-4.3-.8-4.3-2.9-4.3-2.9,2.2-2.9,4.3h0Z"/>
    <path class="cls-3" d="M78.3,439.5c0-1.1,0-2.1,0-3h1.5v1.8h.1c.5-1.1,1.6-2.1,3.2-2.1s3.4.9,3.4,4.7v6.6h-1.7v-6.4c0-1.8-.6-3.3-2.2-3.3s-2,.9-2.3,2.1c0,.3-.1.6-.1.9v6.7h-1.7v-8.1h0Z"/>
    <path class="cls-3" d="M88.1,450.5c.4-1.4,1-3.8,1.2-5.5l1.9-.2c-.5,1.9-1.3,4.5-1.9,5.6h-1.2c0,.1,0,.1,0,.1Z"/>
    <path class="cls-3" d="M98.2,436.5l1.9,6.2c.3,1,.6,1.9.8,2.8h0c.2-.9.5-1.8.8-2.8l1.8-6.2h1.8l-3.7,11.1h-1.7l-3.6-11.1h1.9Z"/>
    <path class="cls-3" d="M108.9,433.4c0,.7-.4,1.2-1.1,1.2s-1-.5-1-1.2.5-1.3,1.1-1.3,1.1.5,1.1,1.3h0ZM107,447.6v-11.1h1.7v11.1h-1.7Z"/>
    <path class="cls-3" d="M111.4,445.6c.5.4,1.4.8,2.3.8,1.3,0,1.8-.7,1.8-1.7s-.5-1.5-1.8-2c-1.7-.7-2.5-1.8-2.5-3.2s1.2-3.3,3.3-3.3,1.8.3,2.3.7l-.4,1.5c-.4-.3-1.1-.6-2-.6s-1.6.7-1.6,1.5.6,1.3,1.8,1.9c1.7.7,2.5,1.7,2.5,3.4s-1.3,3.3-3.6,3.3-2-.3-2.7-.8l.4-1.5h0Z"/>
    <path class="cls-3" d="M121.3,433.4c0,.7-.4,1.2-1.1,1.2s-1-.5-1-1.2.5-1.3,1.1-1.3,1.1.5,1.1,1.3h0ZM119.4,447.6v-11.1h1.7v11.1h-1.7Z"/>
    <path class="cls-3" d="M132.6,442c0,4.1-2.4,5.9-4.7,5.9s-4.6-2.2-4.6-5.7,2.1-5.9,4.7-5.9,4.6,2.3,4.6,5.7ZM125.1,442.1c0,2.4,1.2,4.3,2.9,4.3s2.9-1.8,2.9-4.3-.8-4.3-2.9-4.3-2.9,2.2-2.9,4.3h0Z"/>
    <path class="cls-3" d="M134.8,439.5c0-1.1,0-2.1,0-3h1.5v1.8h.1c.5-1.1,1.6-2.1,3.2-2.1s3.4.9,3.4,4.7v6.6h-1.7v-6.4c0-1.8-.6-3.3-2.2-3.3s-2,.9-2.3,2.1c0,.3-.1.6-.1.9v6.7h-1.7v-8.1h0Z"/>
    <path class="cls-3" d="M145.5,445.6c.5.4,1.4.8,2.3.8,1.3,0,1.8-.7,1.8-1.7s-.5-1.5-1.8-2c-1.7-.7-2.5-1.8-2.5-3.2s1.2-3.3,3.3-3.3,1.8.3,2.3.7l-.4,1.5c-.4-.3-1.1-.6-2-.6s-1.6.7-1.6,1.5.6,1.3,1.8,1.9c1.7.7,2.5,1.7,2.5,3.4s-1.3,3.3-3.6,3.3-2-.3-2.7-.8l.4-1.5h0Z"/>
    <path class="cls-3" d="M163,447.6v-1.4h-.2c-.5.9-1.6,1.7-2.9,1.7-1.9,0-2.9-1.6-2.9-3.2,0-2.7,2-4.2,5.7-4.1v-.2c0-.9-.2-2.6-2.2-2.6s-1.8.3-2.5.8l-.4-1.3c.8-.6,1.9-1,3.1-1,2.9,0,3.6,2.3,3.6,4.6v4.2c0,1,0,1.9.2,2.7h-1.6,0ZM162.8,442c-1.9,0-4,.3-4,2.5s.8,1.9,1.6,1.9,2-.9,2.3-1.9c0-.2,0-.4,0-.6v-1.9h0Z"/>
    <path class="cls-3" d="M167.2,439.5c0-1.1,0-2.1,0-3h1.5v1.8h.1c.5-1.1,1.6-2.1,3.2-2.1s3.4.9,3.4,4.7v6.6h-1.7v-6.4c0-1.8-.6-3.3-2.2-3.3s-2,.9-2.3,2.1c0,.3-.1.6-.1.9v6.7h-1.7v-8.1h0Z"/>
    <path class="cls-3" d="M186.4,431.3v13.4c0,1,0,2.1,0,2.9h-1.6v-1.9h-.1c-.5,1.2-1.7,2.2-3.2,2.2-2.3,0-4.1-2.3-4.1-5.7,0-3.7,2-6,4.3-6s2.4.8,2.9,1.7h0v-6.6h1.7,0ZM184.7,441.1c0-.3,0-.6,0-.9-.3-1.3-1.2-2.3-2.5-2.3s-2.9,1.8-2.9,4.3.9,4.1,2.8,4.1,2.2-.9,2.5-2.4c0-.3,0-.5,0-.9v-1.9h0Z"/>
    <path class="cls-3" d="M195.4,433.4c0,.7-.4,1.2-1.1,1.2s-1-.5-1-1.2.5-1.3,1.1-1.3,1.1.5,1.1,1.3h0ZM193.4,447.6v-11.1h1.7v11.1h-1.7Z"/>
    <path class="cls-3" d="M198.1,439.5c0-1.1,0-2.1,0-3h1.5v1.8h.1c.5-1.1,1.6-2.1,3.2-2.1s3.4.9,3.4,4.7v6.6h-1.7v-6.4c0-1.8-.6-3.3-2.2-3.3s-2,.9-2.3,2.1c0,.3-.1.6-.1.9v6.7h-1.7v-8.1h0Z"/>
    <path class="cls-3" d="M209.2,447.6v-9.6h-1.3v-1.5h1.3v-.5c0-1.6.3-3,1.1-3.9.6-.7,1.5-1,2.3-1s1.1.2,1.5.3l-.2,1.6c-.3-.1-.6-.3-1.1-.3-1.5,0-1.8,1.5-1.8,3.2v.6h2.3v1.5h-2.3v9.6h-1.7Z"/>
    <path class="cls-3" d="M223.1,442c0,4.1-2.4,5.9-4.7,5.9s-4.6-2.2-4.6-5.7,2.1-5.9,4.7-5.9,4.6,2.3,4.6,5.7ZM215.6,442.1c0,2.4,1.2,4.3,2.9,4.3s2.9-1.8,2.9-4.3-.8-4.3-2.9-4.3-2.9,2.2-2.9,4.3h0Z"/>
    <path class="cls-3" d="M225.3,440c0-1.3,0-2.4,0-3.5h1.5v2.2h.1c.4-1.5,1.5-2.4,2.6-2.4s.3,0,.5,0v1.9c-.2,0-.4,0-.6,0-1.2,0-2.1,1.1-2.3,2.6,0,.3,0,.6,0,.9v5.9h-1.7v-7.6h0Z"/>
    <path class="cls-3" d="M231.8,439.5c0-1.1,0-2.1,0-3h1.5v1.8h.1c.5-1.1,1.4-2,3-2s2.3.9,2.7,2.2h0c.3-.6.7-1.1,1.1-1.4.6-.5,1.2-.8,2.1-.8s3.1,1,3.1,4.8v6.5h-1.7v-6.3c0-2.1-.7-3.4-2.1-3.4s-1.8.9-2,1.8c0,.3-.1.6-.1,1v6.9h-1.7v-6.7c0-1.8-.7-3.1-2-3.1s-1.9,1-2.1,2c0,.3-.1.6-.1,1v6.7h-1.7v-8.1h0Z"/>
    <path class="cls-3" d="M253.5,447.6v-1.4h-.2c-.5.9-1.6,1.7-2.9,1.7-1.9,0-2.9-1.6-2.9-3.2,0-2.7,2-4.2,5.7-4.1v-.2c0-.9-.2-2.6-2.2-2.6s-1.8.3-2.5.8l-.4-1.3c.8-.6,1.9-1,3.1-1,2.9,0,3.6,2.3,3.6,4.6v4.2c0,1,0,1.9.2,2.7h-1.6,0ZM253.3,442c-1.9,0-4,.3-4,2.5s.8,1.9,1.6,1.9,2-.9,2.3-1.9c0-.2,0-.4,0-.6v-1.9Z"/>
    <path class="cls-3" d="M259.8,433.3v3.2h2.5v1.5h-2.5v6c0,1.4.3,2.2,1.3,2.2s.8,0,1-.1v1.5c-.3.2-.8.3-1.5.3s-1.5-.3-1.9-.9c-.5-.6-.7-1.6-.7-2.9v-6.1h-1.5v-1.5h1.5v-2.7l1.7-.5h0Z"/>
    <path class="cls-3" d="M266.1,433.4c0,.7-.4,1.2-1.1,1.2s-1-.5-1-1.2.5-1.3,1.1-1.3,1.1.5,1.1,1.3h0ZM264.2,447.6v-11.1h1.7v11.1h-1.7Z"/>
    <path class="cls-3" d="M277.4,442c0,4.1-2.4,5.9-4.7,5.9s-4.6-2.2-4.6-5.7,2.1-5.9,4.7-5.9,4.6,2.3,4.6,5.7h0ZM269.9,442.1c0,2.4,1.2,4.3,2.9,4.3s2.9-1.8,2.9-4.3-.8-4.3-2.9-4.3-2.9,2.2-2.9,4.3h0Z"/>
    <path class="cls-3" d="M279.6,439.5c0-1.1,0-2.1,0-3h1.5v1.8h.1c.5-1.1,1.6-2.1,3.2-2.1s3.4.9,3.4,4.7v6.6h-1.7v-6.4c0-1.8-.6-3.3-2.2-3.3s-2,.9-2.3,2.1c0,.3-.1.6-.1.9v6.7h-1.7v-8.1h0Z"/>
    <path class="cls-3" d="M295.4,436.5l1.3,5.7c.3,1.2.5,2.4.7,3.5h0c.2-1.1.5-2.3.8-3.5l1.6-5.7h1.5l1.5,5.6c.4,1.3.6,2.5.8,3.6h0c.2-1.1.4-2.3.7-3.6l1.4-5.6h1.7l-3.1,11.1h-1.6l-1.5-5.3c-.3-1.2-.6-2.3-.8-3.7h0c-.2,1.3-.5,2.5-.9,3.7l-1.5,5.3h-1.6l-2.9-11.1h1.8Z"/>
    <path class="cls-3" d="M309.2,431.3h1.7v6.9h0c.3-.6.7-1.1,1.2-1.4.5-.3,1.1-.6,1.8-.6,1.3,0,3.3.9,3.3,4.8v6.6h-1.7v-6.4c0-1.8-.6-3.3-2.2-3.3s-2,.9-2.3,2c0,.3-.1.6-.1,1v6.7h-1.7v-16.3h0Z"/>
    <path class="cls-3" d="M322.1,433.4c0,.7-.4,1.2-1.1,1.2s-1-.5-1-1.2.5-1.3,1.1-1.3,1.1.5,1.1,1.3h0ZM320.2,447.6v-11.1h1.7v11.1h-1.7Z"/>
    <path class="cls-3" d="M331.6,447.2c-.5.3-1.5.6-2.7.6-2.9,0-4.7-2.3-4.7-5.7s2-5.9,5.1-5.9,1.9.3,2.4.6l-.4,1.6c-.4-.3-1.1-.5-2-.5-2.2,0-3.4,1.9-3.4,4.2s1.4,4.2,3.3,4.2,1.6-.3,2.1-.5l.3,1.5h0Z"/>
    <path class="cls-3" d="M333.6,431.3h1.7v6.9h0c.3-.6.7-1.1,1.2-1.4.5-.3,1.1-.6,1.8-.6,1.3,0,3.3.9,3.3,4.8v6.6h-1.7v-6.4c0-1.8-.6-3.3-2.2-3.3s-2,.9-2.3,2c0,.3-.1.6-.1,1v6.7h-1.7v-16.3h0Z"/>
    <path class="cls-3" d="M31.3,475.2v-9.6h-1.3v-1.5h1.3v-.5c0-1.6.3-3,1.1-3.9.6-.7,1.5-1,2.3-1s1.1.2,1.5.3l-.2,1.6c-.3-.1-.6-.3-1.1-.3-1.5,0-1.8,1.5-1.8,3.2v.6h2.3v1.5h-2.3v9.6h-1.7,0Z"/>
    <path class="cls-3" d="M45.2,469.6c0,4.1-2.4,5.9-4.7,5.9s-4.6-2.2-4.6-5.7,2.1-5.9,4.7-5.9,4.6,2.3,4.6,5.7ZM37.7,469.7c0,2.4,1.2,4.3,2.9,4.3s2.9-1.8,2.9-4.3-.8-4.3-2.9-4.3-2.9,2.2-2.9,4.3h0Z"/>
    <path class="cls-3" d="M55.4,472.2c0,1.1,0,2.2,0,3h-1.5v-1.8h-.1c-.5.9-1.5,2.1-3.2,2.1s-3.3-1-3.3-4.9v-6.5h1.7v6.2c0,2.1.6,3.5,2.1,3.5s2-.9,2.3-1.8c0-.3.2-.7.2-1v-6.8h1.7v8.1h0Z"/>
    <path class="cls-3" d="M58.3,467.1c0-1.1,0-2.1,0-3h1.5v1.8h.1c.5-1.1,1.6-2.1,3.2-2.1s3.4.9,3.4,4.7v6.6h-1.7v-6.4c0-1.8-.6-3.3-2.2-3.3s-2,.9-2.3,2.1c0,.3-.1.6-.1.9v6.7h-1.7v-8.1h0Z"/>
    <path class="cls-3" d="M77.4,458.9v13.4c0,1,0,2.1,0,2.9h-1.6v-1.9h-.1c-.5,1.2-1.7,2.2-3.2,2.2-2.3,0-4.1-2.3-4.1-5.7,0-3.7,2-6,4.3-6s2.4.8,2.9,1.7h0v-6.6h1.7,0ZM75.7,468.6c0-.3,0-.6,0-.9-.3-1.3-1.2-2.3-2.5-2.3s-2.9,1.8-2.9,4.3.9,4.1,2.8,4.1,2.2-.9,2.5-2.4c0-.3,0-.5,0-.9v-1.9h0Z"/>
    <path class="cls-3" d="M86.6,460.9v3.2h2.5v1.5h-2.5v6c0,1.4.3,2.2,1.3,2.2s.8,0,1-.1v1.5c-.3.2-.8.3-1.5.3s-1.5-.3-1.9-.9c-.5-.6-.7-1.6-.7-2.9v-6.1h-1.5v-1.5h1.5v-2.7l1.7-.5h0Z"/>
    <path class="cls-3" d="M91,458.9h1.7v6.9h0c.3-.6.7-1.1,1.2-1.4.5-.3,1.1-.6,1.8-.6,1.3,0,3.3.9,3.3,4.8v6.6h-1.7v-6.4c0-1.8-.6-3.3-2.2-3.3s-2,.9-2.3,2c0,.3-.1.6-.1,1v6.7h-1.7v-16.3h0Z"/>
    <path class="cls-3" d="M102.9,470c0,2.7,1.5,3.9,3.3,3.9s2-.3,2.6-.6l.3,1.4c-.6.3-1.7.7-3.2.7-2.9,0-4.7-2.3-4.7-5.6s1.7-6,4.5-6,3.9,3.2,3.9,5.2,0,.7,0,.9h-6.7ZM108,468.6c0-1.3-.5-3.3-2.4-3.3s-2.5,1.9-2.7,3.3h5.1,0Z"/>
    <path class="cls-3" d="M111.8,467.6c0-1.3,0-2.4,0-3.5h1.5v2.2h.1c.4-1.5,1.5-2.4,2.6-2.4s.3,0,.5,0v1.9c-.2,0-.4,0-.6,0-1.2,0-2.1,1.1-2.3,2.6,0,.3,0,.6,0,.9v5.9h-1.7v-7.6h0Z"/>
    <path class="cls-3" d="M119,470c0,2.7,1.5,3.9,3.3,3.9s2-.3,2.6-.6l.3,1.4c-.6.3-1.7.7-3.2.7-2.9,0-4.7-2.3-4.7-5.6s1.7-6,4.5-6,3.9,3.2,3.9,5.2,0,.7,0,.9h-6.7ZM124.1,468.6c0-1.3-.5-3.3-2.4-3.3s-2.5,1.9-2.7,3.3h5.1,0Z"/>
    <path class="cls-3" d="M133.1,470c0,2.7,1.5,3.9,3.3,3.9s2-.3,2.6-.6l.3,1.4c-.6.3-1.7.7-3.2.7-2.9,0-4.7-2.3-4.7-5.6s1.7-6,4.5-6,3.9,3.2,3.9,5.2,0,.7,0,.9h-6.7ZM138.1,468.6c0-1.3-.5-3.3-2.4-3.3s-2.5,1.9-2.7,3.3h5.1,0Z"/>
    <path class="cls-3" d="M142.7,464.1l1.4,2.4c.4.6.6,1.2,1,1.8h0c.3-.7.6-1.2.9-1.8l1.3-2.4h1.9l-3.2,5.4,3.3,5.7h-2l-1.4-2.5c-.4-.6-.7-1.3-1-1.9h0c-.3.7-.6,1.3-1,1.9l-1.4,2.5h-1.9l3.4-5.7-3.2-5.4h1.9,0Z"/>
    <path class="cls-3" d="M151,467.7c0-1.4,0-2.6,0-3.6h1.6v1.9h.1c.7-1.4,1.8-2.2,3.4-2.2,2.3,0,4,2.3,4,5.7s-2.1,6-4.3,6-2.4-.6-2.9-1.8h0v6h-1.7v-12h0ZM152.8,470.7c0,.3,0,.6,0,.8.3,1.4,1.4,2.4,2.6,2.4,1.8,0,2.9-1.8,2.9-4.3s-1-4.1-2.8-4.1-2.3,1-2.6,2.5c0,.3-.1.5-.1.8v1.9h0Z"/>
    <path class="cls-3" d="M162.2,467.6c0-1.3,0-2.4,0-3.5h1.5v2.2h.1c.4-1.5,1.5-2.4,2.6-2.4s.3,0,.5,0v1.9c-.2,0-.4,0-.6,0-1.2,0-2.1,1.1-2.3,2.6,0,.3,0,.6,0,.9v5.9h-1.7v-7.6h0Z"/>
    <path class="cls-3" d="M169.5,470c0,2.7,1.5,3.9,3.3,3.9s2-.3,2.6-.6l.3,1.4c-.6.3-1.7.7-3.2.7-2.9,0-4.7-2.3-4.7-5.6s1.7-6,4.5-6,3.9,3.2,3.9,5.2,0,.7,0,.9h-6.7ZM174.5,468.6c0-1.3-.5-3.3-2.4-3.3s-2.5,1.9-2.7,3.3h5.1,0Z"/>
    <path class="cls-3" d="M178.1,473.1c.5.4,1.4.8,2.3.8,1.3,0,1.8-.7,1.8-1.7s-.5-1.5-1.8-2c-1.7-.7-2.5-1.8-2.5-3.2s1.2-3.3,3.3-3.3,1.8.3,2.3.7l-.4,1.5c-.4-.3-1.1-.6-2-.6s-1.6.7-1.6,1.5.6,1.3,1.8,1.9c1.7.7,2.5,1.7,2.5,3.4s-1.3,3.3-3.6,3.3-2-.3-2.7-.8l.4-1.5h0Z"/>
    <path class="cls-3" d="M185.9,473.1c.5.4,1.4.8,2.3.8,1.3,0,1.8-.7,1.8-1.7s-.5-1.5-1.8-2c-1.7-.7-2.5-1.8-2.5-3.2s1.2-3.3,3.3-3.3,1.8.3,2.3.7l-.4,1.5c-.4-.3-1.1-.6-2-.6s-1.6.7-1.6,1.5.6,1.3,1.8,1.9c1.7.7,2.5,1.7,2.5,3.4s-1.3,3.3-3.6,3.3-2-.3-2.7-.8l.4-1.5h0Z"/>
    <path class="cls-3" d="M195.9,461c0,.7-.4,1.2-1.1,1.2s-1-.5-1-1.2.5-1.3,1.1-1.3,1.1.5,1.1,1.3h0ZM194,475.2v-11.1h1.7v11.1h-1.7Z"/>
    <path class="cls-3" d="M207.2,469.6c0,4.1-2.4,5.9-4.7,5.9s-4.6-2.2-4.6-5.7,2.1-5.9,4.7-5.9,4.6,2.3,4.6,5.7ZM199.6,469.7c0,2.4,1.2,4.3,2.9,4.3s2.9-1.8,2.9-4.3-.8-4.3-2.9-4.3-2.9,2.2-2.9,4.3h0Z"/>
    <path class="cls-3" d="M209.4,467.1c0-1.1,0-2.1,0-3h1.5v1.8h.1c.5-1.1,1.6-2.1,3.2-2.1s3.4.9,3.4,4.7v6.6h-1.7v-6.4c0-1.8-.6-3.3-2.2-3.3s-2,.9-2.3,2.1c0,.3-.1.6-.1.9v6.7h-1.7v-8.1h0Z"/>
    <path class="cls-3" d="M226.6,460.9v3.2h2.5v1.5h-2.5v6c0,1.4.3,2.2,1.3,2.2s.8,0,1-.1v1.5c-.3.2-.8.3-1.5.3s-1.5-.3-1.9-.9c-.5-.6-.7-1.6-.7-2.9v-6.1h-1.5v-1.5h1.5v-2.7l1.7-.5h0Z"/>
    <path class="cls-3" d="M231,467.6c0-1.3,0-2.4,0-3.5h1.5v2.2h.1c.4-1.5,1.5-2.4,2.6-2.4s.3,0,.5,0v1.9c-.2,0-.4,0-.6,0-1.2,0-2.1,1.1-2.3,2.6,0,.3,0,.6,0,.9v5.9h-1.7v-7.6h0Z"/>
    <path class="cls-3" d="M245.9,469.6c0,4.1-2.4,5.9-4.7,5.9s-4.6-2.2-4.6-5.7,2.1-5.9,4.7-5.9,4.6,2.3,4.6,5.7h0ZM238.3,469.7c0,2.4,1.2,4.3,2.9,4.3s2.9-1.8,2.9-4.3-.8-4.3-2.9-4.3-2.9,2.2-2.9,4.3h0Z"/>
    <path class="cls-3" d="M256.1,472.2c0,1.1,0,2.2,0,3h-1.5v-1.8h-.1c-.5.9-1.5,2.1-3.2,2.1s-3.3-1-3.3-4.9v-6.5h1.7v6.2c0,2.1.6,3.5,2.1,3.5s2-.9,2.3-1.8c0-.3.2-.7.2-1v-6.8h1.7v8.1h0Z"/>
    <path class="cls-3" d="M267.1,464.1c0,.8,0,1.7,0,3.1v6.5c0,2.5-.4,4.1-1.4,5.1-.9,1-2.3,1.3-3.5,1.3s-2.4-.3-3.2-.9l.4-1.5c.6.5,1.6.9,2.8.9,1.8,0,3.1-1.1,3.1-3.9v-1.2h0c-.5,1-1.6,1.9-3,1.9-2.4,0-4.1-2.3-4.1-5.4s2.1-5.9,4.3-5.9,2.6,1,3,1.9h0v-1.7h1.6ZM265.4,468.5c0-.3,0-.6,0-.9-.3-1.2-1.2-2.1-2.4-2.1s-2.8,1.6-2.8,4.2.9,4,2.8,4,2-.8,2.4-2.1c0-.3.1-.7.1-1.1v-2h0Z"/>
    <path class="cls-3" d="M269.9,458.9h1.7v6.9h0c.3-.6.7-1.1,1.2-1.4.5-.3,1.1-.6,1.8-.6,1.3,0,3.3.9,3.3,4.8v6.6h-1.7v-6.4c0-1.8-.6-3.3-2.2-3.3s-2,.9-2.3,2c0,.3-.1.6-.1,1v6.7h-1.7v-16.3h0Z"/>
    <path class="cls-3" d="M285.7,464.1l1.9,6.2c.3,1,.6,1.9.8,2.8h0c.2-.9.5-1.8.8-2.8l1.8-6.2h1.8l-3.7,11.1h-1.7l-3.6-11.1h1.9Z"/>
    <path class="cls-3" d="M296.5,461c0,.7-.4,1.2-1.1,1.2s-1-.5-1-1.2.5-1.3,1.1-1.3,1.1.5,1.1,1.3h0ZM294.5,475.2v-11.1h1.7v11.1h-1.7Z"/>
    <path class="cls-3" d="M298.9,473.1c.5.4,1.4.8,2.3.8,1.3,0,1.8-.7,1.8-1.7s-.5-1.5-1.8-2c-1.7-.7-2.5-1.8-2.5-3.2s1.2-3.3,3.3-3.3,1.8.3,2.3.7l-.4,1.5c-.4-.3-1.1-.6-2-.6s-1.6.7-1.6,1.5.6,1.3,1.8,1.9c1.7.7,2.5,1.7,2.5,3.4s-1.3,3.3-3.6,3.3-2-.3-2.7-.8l.4-1.5h0Z"/>
    <path class="cls-3" d="M314.9,472.2c0,1.1,0,2.2,0,3h-1.5v-1.8h-.1c-.5.9-1.5,2.1-3.2,2.1s-3.3-1-3.3-4.9v-6.5h1.7v6.2c0,2.1.6,3.5,2.1,3.5s2-.9,2.3-1.8c0-.3.2-.7.2-1v-6.8h1.7v8.1h0Z"/>
    <path class="cls-3" d="M323.1,475.2v-1.4h-.2c-.5.9-1.6,1.7-2.9,1.7-1.9,0-2.9-1.6-2.9-3.2,0-2.7,2-4.2,5.7-4.1v-.2c0-.9-.2-2.6-2.2-2.6s-1.8.3-2.5.8l-.4-1.3c.8-.6,1.9-1,3.1-1,2.9,0,3.6,2.3,3.6,4.6v4.2c0,1,0,1.9.2,2.7h-1.6,0ZM322.8,469.5c-1.9,0-4,.3-4,2.5s.8,1.9,1.6,1.9,2-.9,2.3-1.9c0-.2,0-.4,0-.6v-1.9Z"/>
    <path class="cls-3" d="M327.3,458.9h1.7v16.3h-1.7v-16.3Z"/>
    <path class="cls-3" d="M341.4,475.2v-1.4h-.2c-.5.9-1.6,1.7-2.9,1.7-1.9,0-2.9-1.6-2.9-3.2,0-2.7,2-4.2,5.7-4.1v-.2c0-.9-.2-2.6-2.2-2.6s-1.8.3-2.5.8l-.4-1.3c.8-.6,1.9-1,3.1-1,2.9,0,3.6,2.3,3.6,4.6v4.2c0,1,0,1.9.2,2.7h-1.6,0ZM341.1,469.5c-1.9,0-4,.3-4,2.5s.8,1.9,1.6,1.9,2-.9,2.3-1.9c0-.2,0-.4,0-.6v-1.9Z"/>
    <path class="cls-3" d="M345.6,467.6c0-1.3,0-2.4,0-3.5h1.5v2.2h.1c.4-1.5,1.5-2.4,2.6-2.4s.3,0,.5,0v1.9c-.2,0-.4,0-.6,0-1.2,0-2.1,1.1-2.3,2.6,0,.3,0,.6,0,.9v5.9h-1.7v-7.6h0Z"/>
    <path class="cls-3" d="M354.6,460.9v3.2h2.5v1.5h-2.5v6c0,1.4.3,2.2,1.3,2.2s.8,0,1-.1v1.5c-.3.2-.8.3-1.5.3s-1.5-.3-1.9-.9c-.5-.6-.7-1.6-.7-2.9v-6.1h-1.5v-1.5h1.5v-2.7l1.7-.5h0Z"/>
  </g>
  <image class="cls-17" width="1171" height="1472" transform="translate(400 45.7) scale(.3 .3)" xlink:href="WEB_WEBY_tablet-1.png"/>
  <g class="cls-17">
    <text class="cls-2" transform="translate(590 526.5) scale(.9 1)"><tspan x="0" y="0">Artwork title “5D”</tspan></text>
    <text class="cls-2" transform="translate(590 552.9) scale(.9 1)"><tspan x="0" y="0" xml:space="preserve">2019/2020  </tspan></text>
  </g>
  <g class="cls-17">
    <text class="cls-7" transform="translate(54.7 1095.6) scale(.5 1)"><tspan x="0" y="0" xml:space="preserve">Šarlote has beenworking 3 years with people 1 : 1 as an  </tspan></text>
    <text class="cls-7" transform="translate(54.7 1135.7) scale(.5 1)"><tspan x="0" y="0">coach/psychic and created her first mural artwork for </tspan></text>
    <text class="cls-7" transform="translate(54.7 1175.9) scale(.5 1)"><tspan x="0" y="0">an humanitarian place called “ Samarija ” located in </tspan></text>
    <text class="cls-7" transform="translate(54.8 1216.1) scale(.5 1)"><tspan x="0" y="0">Aizpute, Latvia</tspan></text>
    <text class="cls-7" transform="translate(54.8 1296.4) scale(.5 1)"><tspan x="0" y="0">Mural artwork title “ home temple ” </tspan></text>
    <text class="cls-7" transform="translate(54.8 1336.6) scale(.5 1)"><tspan x="0" y="0">2021/2022</tspan></text>
  </g>
  <image class="cls-17" width="4032" height="3024" transform="translate(33.1 592) scale(.2 .1)" xlink:href="WEB_WEBY_tablet-2.png"/>
  <image class="cls-17" width="4032" height="3024" transform="translate(403.8 1394.6) rotate(90) scale(.1)" xlink:href="WEB_WEBY_tablet-3.png"/>
  <image class="cls-17" width="4032" height="3024" transform="translate(762.2 1394.6) rotate(90) scale(.1)" xlink:href="WEB_WEBY_tablet-4.png"/>
  <g class="cls-17">
    <text class="cls-10" transform="translate(395.6 3732) scale(.7 1)"><tspan x="0" y="0">Šarlote makes personalised artowork on </tspan></text>
    <text class="cls-10" transform="translate(395.6 3760.8) scale(.7 1)"><tspan x="0" y="0">canvas, as murals and digital artwork, any </tspan></text>
    <text class="cls-10" transform="translate(395.6 3789.6) scale(.7 1)"><tspan x="0" y="0">wish for a being percieved from the astral </tspan></text>
    <text class="cls-10" transform="translate(395.6 3818.3) scale(.7 1)"><tspan x="0" y="0">ocean can be made as a product trough a </tspan></text>
    <text class="cls-10" transform="translate(395.6 3847.1) scale(.7 1)"><tspan x="0" y="0">call session manifest</tspan></text>
    <text class="cls-10" transform="translate(395.6 3875.9) scale(.7 1)"><tspan x="0" y="0"> </tspan></text>
    <text class="cls-10" transform="translate(395.6 3904.6) scale(.7 1)"><tspan x="0" y="0">Contact : creatrix933@gmail.com or</tspan></text>
    <text class="cls-10" transform="translate(395.6 3933.4) scale(.7 1)"><tspan x="0" y="0" xml:space="preserve">IG :  creatrix933</tspan></text>
  </g>
  <g class="cls-17">
    <text class="cls-14" transform="translate(589.4 1904.1) scale(.7 1)"><tspan x="0" y="0">Artwork title “PLUTO”</tspan></text>
    <text class="cls-14" transform="translate(589.4 1926.8) scale(.7 1)"><tspan x="0" y="0">2022/2023</tspan></text>
  </g>
  <g class="cls-17">
    <text class="cls-13" transform="translate(55.3 1915.4) scale(.6 1)"><tspan x="0" y="0">Artwork tittled</tspan></text>
  </g>
  <g class="cls-17">
    <text class="cls-15" transform="translate(134.5 1915.4) scale(.5 1)"><tspan x="0" y="0" xml:space="preserve"> ” the choice ” </tspan></text>
    <text class="cls-15" transform="translate(55.7 1947.6) scale(.5 1)"><tspan x="0" y="0">2018</tspan></text>
  </g>
  <image class="cls-17" width="3088" height="2316" transform="translate(41.4 3712.9) rotate(89.6) scale(.1 -.1)" xlink:href="WEB_WEBY_tablet-5.png"/>
  <g class="cls-17">
    <text class="cls-8" transform="translate(377.7 4020) scale(.6 1)"><tspan x="0" y="0">thank you for the visit</tspan></text>
  </g>
  <image class="cls-17" width="921" height="1094" transform="translate(42.6 2687) scale(.3 .3)" xlink:href="WEB_WEBY_tablet-6.png"/>
  <image class="cls-17" width="918" height="1101" transform="translate(284.4 2685.9) scale(.3 .3)" xlink:href="WEB_WEBY_tablet-7.png"/>
  <image class="cls-17" width="922" height="1107" transform="translate(522.3 2685.4) scale(.3 .3)" xlink:href="WEB_WEBY_tablet-8.png"/>
  <g class="cls-17">
    <text class="cls-4" transform="translate(277.1 3028.9) scale(.6 1)"><tspan x="0" y="0">transforming trauma, latest works </tspan></text>
    <text class="cls-11" transform="translate(294.3 3089.3) scale(.6 1)"><tspan x="0" y="0" xml:space="preserve">2024  </tspan></text>
  </g>
  <image class="cls-17" width="2480" height="3508" transform="translate(40.8 3164.9) rotate(-.2) scale(0) skewX(0)" xlink:href="WEB_WEBY_tablet-9.png"/>
  <g class="cls-17">
    <text class="cls-5" transform="translate(54 3548.3) scale(.6 1)"><tspan x="0" y="0">Artowk tittled </tspan></text>
    <text class="cls-6" transform="translate(154.8 3548.3) scale(.6 1)"><tspan x="0" y="0">“vortex“</tspan></text>
    <text class="cls-6" transform="translate(54 3581.7) scale(.6 1)"><tspan x="0" y="0">2023</tspan></text>
  </g>
  <image class="cls-17" width="2481" height="3015" transform="translate(284.1 3165.2) scale(0)" xlink:href="WEB_WEBY_tablet-10.png"/>
  <g class="cls-17">
    <text class="cls-5" transform="translate(298.6 3538.5) scale(.6 1)"><tspan x="0" y="0">Artwork tittled </tspan></text>
    <text class="cls-6" transform="translate(404.8 3538.5) scale(.6 1)"><tspan x="0" y="0">“Web of life “</tspan></text>
    <text class="cls-6" transform="translate(298.6 3571.8) scale(.6 1)"><tspan x="0" y="0">2023</tspan></text>
  </g>
  <image class="cls-17" width="2480" height="2991" transform="translate(523.2 3165.7) scale(0)" xlink:href="WEB_WEBY_tablet-11.png"/>
  <g class="cls-17">
    <text class="cls-5" transform="translate(556.5 3533.7) scale(.6 1)"><tspan x="0" y="0">Artwork tittled </tspan></text>
    <text class="cls-6" transform="translate(662.7 3533.7) scale(.6 1)"><tspan x="0" y="0">“Higher self</tspan></text>
    <text class="cls-5" transform="translate(749.7 3533.7) scale(.6 1)"><tspan x="0" y="0"> </tspan></text>
    <text class="cls-6" transform="translate(753.3 3533.7) scale(.6 1)"><tspan x="0" y="0">“</tspan></text>
    <text class="cls-6" transform="translate(556.5 3567.1) scale(.6 1)"><tspan x="0" y="0">2023</tspan></text>
  </g>
  <g class="cls-17">
    <text class="cls-12" transform="translate(217.1 1996.5) scale(1 1)"><tspan x="0" y="0">Inner transformation</tspan></text>
  </g>
  <g class="cls-17">
    <text class="cls-16" transform="translate(75.5 2076.9) scale(1 1)"><tspan x="0" y="0">Many in the spiritual communitty talk about the dark night of </tspan></text>
    <text class="cls-16" transform="translate(75.5 2104.6) scale(1 1)"><tspan x="0" y="0">the soul, as I went trough my second dark night of the soul </tspan></text>
    <text class="cls-16" transform="translate(75.5 2132.3) scale(1 1)"><tspan x="0" y="0">very recently I started to pay more attention to understand it </tspan></text>
    <text class="cls-16" transform="translate(75.5 2160) scale(1 1)"><tspan x="0" y="0">in a wordly but still subjective manner.</tspan></text>
    <text class="cls-16" transform="translate(75.5 2215.3) scale(1 1)"><tspan x="0" y="0">I see the dark night as a nervous system breakdown and an </tspan></text>
    <text class="cls-16" transform="translate(75.5 2243) scale(1 1)"><tspan x="0" y="0">identitty crisis of who you used to be as you continue to grow </tspan></text>
    <text class="cls-16" transform="translate(75.5 2270.7) scale(1 1)"><tspan x="0" y="0">out of your survival personalitties, your nervous system goes </tspan></text>
    <text class="cls-16" transform="translate(75.5 2298.4) scale(1 1)"><tspan x="0" y="0">into a fight, flight or freeze (where the last one I am most </tspan></text>
    <text class="cls-16" transform="translate(75.5 2326.1) scale(1 1)"><tspan x="0" y="0">familiar with subdivides to either excessive anger or dissocia-</tspan></text>
    <text class="cls-16" transform="translate(655 2326.1) scale(1 1)"><tspan x="0" y="0">-</tspan></text>
    <text class="cls-16" transform="translate(75.5 2353.8) scale(1 1)"><tspan x="0" y="0">tion where you leave your body as a dear in distress about to </tspan></text>
    <text class="cls-16" transform="translate(75.5 2381.5) scale(1 1)"><tspan x="0" y="0">be eaten, you loose any sense of your personalitty in the </tspan></text>
    <text class="cls-16" transform="translate(75.5 2409.2) scale(1 1)"><tspan x="0" y="0" xml:space="preserve">process of  discontinual stress response) for reconciliation </tspan></text>
    <text class="cls-16" transform="translate(75.5 2436.9) scale(1 1)"><tspan x="0" y="0">and transforming the trauma I would suggest cleansing the </tspan></text>
    <text class="cls-16" transform="translate(75.5 2464.6) scale(1 1)"><tspan x="0" y="0" xml:space="preserve">mind  - brain harmonisation, somatic exersises to bring your </tspan></text>
    <text class="cls-16" transform="translate(75.5 2492.3) scale(1 1)"><tspan x="0" y="0">heart back into play to guide you back to your truth, the self </tspan></text>
    <text class="cls-16" transform="translate(75.5 2520) scale(1 1)"><tspan x="0" y="0">that arises and guides without the many personalitties com-</tspan></text>
    <text class="cls-16" transform="translate(650.9 2520) scale(1 1)"><tspan x="0" y="0">-</tspan></text>
    <text class="cls-16" transform="translate(75.5 2547.7) scale(1 1)"><tspan x="0" y="0">menting on others and yourself and in the process removing </tspan></text>
    <text class="cls-16" transform="translate(75.5 2575.4) scale(1 1)"><tspan x="0" y="0">dopamine as well, all that is stimulating to find a way to brin you </tspan></text>
    <text class="cls-16" transform="translate(75.5 2603) scale(1 1)"><tspan x="0" y="0">back into your body, into the now and feeling safe.</tspan></text>
  </g>
</svg>