<?xml version="1.0" encoding="UTF-8"?>
<svg id="Layer_1" data-name="Layer 1" xmlns="http://www.w3.org/2000/svg" version="1.1" xmlns:xlink="http://www.w3.org/1999/xlink" viewBox="0 0 1080 1920">
  <defs>
    <style>
      .cls-1 {
        font-size: 16.9px;
      }

      .cls-1, .cls-2, .cls-3, .cls-4, .cls-5, .cls-6, .cls-7, .cls-8, .cls-9, .cls-10, .cls-11 {
        fill: #000;
      }

      .cls-1, .cls-2, .cls-3, .cls-5, .cls-12, .cls-6, .cls-7, .cls-8, .cls-9, .cls-10, .cls-11 {
        isolation: isolate;
      }

      .cls-1, .cls-2, .cls-3, .cls-5, .cls-6, .cls-7, .cls-8, .cls-9, .cls-10, .cls-11 {
        font-family: ArialMT, Arial;
      }

      .cls-2 {
        font-size: 15px;
      }

      .cls-3 {
        font-size: 36px;
      }

      .cls-4 {
        stroke-width: 0px;
      }

      .cls-5 {
        font-size: 14.3px;
      }

      .cls-6 {
        font-size: 18px;
      }

      .cls-7 {
        font-size: 10.9px;
      }

      .cls-8 {
        font-size: 17.3px;
      }

      .cls-9 {
        font-size: 33px;
      }

      .cls-10 {
        font-size: 14px;
      }

      .cls-11 {
        font-size: 20.2px;
      }
    </style>
  </defs>
  <g class="cls-12">
    <text class="cls-3" transform="translate(54.4 63) scale(1.1 1)"><tspan x="0" y="0">Šarlote Krsitīne Huke</tspan></text>
  </g>
  <g class="cls-12">
    <text class="cls-9" transform="translate(55.9 118)"><tspan x="0" y="0">The esoteric artist</tspan></text>
  </g>
  <g>
    <path class="cls-4" d="M54.3,165.8c.8.5,2,.9,3.3.9,1.9,0,3-1,3-2.4s-.8-2.1-2.7-2.8c-2.3-.8-3.7-2-3.7-4s1.8-3.8,4.6-3.8,2.5.3,3.1.7l-.5,1.5c-.5-.2-1.4-.7-2.7-.7-1.9,0-2.7,1.1-2.7,2.1s.9,2,2.8,2.7c2.4.9,3.6,2.1,3.6,4.2s-1.6,4.1-5,4.1-2.9-.4-3.6-.9l.5-1.5h0ZM57.7,153l-2.2-2.4h1.5l1.3,1.5h0l1.3-1.5h1.5l-2.1,2.4h-1.4,0Z"/>
    <path class="cls-4" d="M70.6,168l-.2-1.3h0c-.6.8-1.7,1.5-3.1,1.5-2.1,0-3.1-1.4-3.1-2.9,0-2.5,2.2-3.8,6.1-3.8v-.2c0-.8-.2-2.4-2.3-2.4s-1.9.3-2.7.8l-.4-1.2c.8-.6,2.1-.9,3.3-.9,3.1,0,3.9,2.1,3.9,4.2v3.8c0,.9,0,1.7.2,2.4h-1.7,0ZM70.3,162.8c-2,0-4.3.3-4.3,2.3s.8,1.8,1.7,1.8,2.2-.8,2.5-1.7c0-.2,0-.4,0-.6v-1.8Z"/>
    <path class="cls-4" d="M75.1,161c0-1.2,0-2.2,0-3.2h1.6v2h.1c.5-1.4,1.6-2.2,2.8-2.2s.4,0,.5,0v1.7c-.2,0-.4,0-.6,0-1.3,0-2.2,1-2.5,2.4,0,.2,0,.6,0,.9v5.4h-1.8v-7h0Z"/>
    <path class="cls-4" d="M82,153.1h1.8v14.9h-1.8v-14.9Z"/>
    <path class="cls-4" d="M96.2,162.8c0,3.8-2.6,5.4-5.1,5.4s-4.9-2-4.9-5.2,2.2-5.4,5-5.4,4.9,2.1,4.9,5.2ZM88.1,162.9c0,2.2,1.3,3.9,3.1,3.9s3.1-1.7,3.1-3.9-.9-3.9-3-3.9-3.1,2-3.1,3.9h0Z"/>
    <path class="cls-4" d="M100.7,154.9v2.9h2.7v1.4h-2.7v5.5c0,1.3.4,2,1.4,2s.8,0,1.1-.1v1.4c-.3.1-.8.2-1.6.2s-1.6-.3-2-.8c-.5-.6-.7-1.4-.7-2.6v-5.5h-1.6v-1.4h1.6v-2.4l1.8-.5h0Z"/>
    <path class="cls-4" d="M106.4,163.2c0,2.5,1.6,3.5,3.5,3.5s2.1-.2,2.8-.5l.3,1.3c-.7.3-1.8.6-3.4.6-3.1,0-5-2.1-5-5.1s1.8-5.5,4.8-5.5,4.2,2.9,4.2,4.8,0,.7,0,.9h-7.1,0ZM111.8,161.9c0-1.2-.5-3-2.6-3s-2.7,1.7-2.8,3h5.4,0Z"/>
    <path class="cls-4" d="M121,157.8l1.3,5.2c.3,1.1.6,2.2.8,3.2h0c.2-1,.6-2.1.9-3.2l1.7-5.2h1.6l1.6,5.1c.4,1.2.7,2.3.9,3.3h0c.2-1,.4-2.1.8-3.3l1.4-5.1h1.8l-3.3,10.2h-1.7l-1.6-4.9c-.4-1.1-.7-2.1-.9-3.3h0c-.2,1.2-.6,2.3-.9,3.4l-1.6,4.8h-1.7l-3.1-10.2h1.9Z"/>
    <path class="cls-4" d="M141.3,168v-1.3h-.2c-.6.8-1.7,1.5-3.1,1.5-2.1,0-3.1-1.4-3.1-2.9,0-2.5,2.2-3.8,6.1-3.8v-.2c0-.8-.2-2.4-2.3-2.4s-1.9.3-2.6.8l-.4-1.2c.8-.6,2.1-.9,3.3-.9,3.1,0,3.9,2.1,3.9,4.2v3.8c0,.9,0,1.7.2,2.4h-1.7,0ZM141,162.8c-2,0-4.3.3-4.3,2.3s.8,1.8,1.7,1.8,2.2-.8,2.5-1.7c0-.2.1-.4.1-.6v-1.8h0Z"/>
    <path class="cls-4" d="M145.6,166.1c.6.4,1.5.7,2.4.7,1.3,0,2-.7,2-1.5s-.5-1.4-1.9-1.9c-1.8-.6-2.7-1.7-2.7-2.9s1.3-3,3.5-3,1.9.3,2.5.6l-.5,1.3c-.4-.2-1.1-.6-2.1-.6s-1.7.6-1.7,1.4.6,1.2,1.9,1.7c1.8.7,2.7,1.6,2.7,3.1s-1.4,3-3.8,3-2.1-.3-2.9-.7l.5-1.4h0Z"/>
    <path class="cls-4" d="M158.5,168c0-.7,0-1.7,0-2.6v-12.3h1.8v6.4h0c.6-1.1,1.8-1.9,3.5-1.9,2.5,0,4.3,2.1,4.3,5.2,0,3.6-2.3,5.4-4.6,5.4s-2.6-.6-3.4-1.9h0v1.7h-1.7,0ZM160.4,163.9c0,.2,0,.5,0,.7.4,1.3,1.4,2.2,2.8,2.2,1.9,0,3.1-1.6,3.1-3.9s-1.1-3.8-3-3.8-2.4.9-2.8,2.3c0,.2-.1.5-.1.8v1.8h0Z"/>
    <path class="cls-4" d="M179.7,162.8c0,3.8-2.6,5.4-5.1,5.4s-4.9-2-4.9-5.2,2.2-5.4,5-5.4,4.9,2.1,4.9,5.2ZM171.6,162.9c0,2.2,1.3,3.9,3.1,3.9s3.1-1.7,3.1-3.9-.9-3.9-3-3.9-3.1,2-3.1,3.9h0Z"/>
    <path class="cls-4" d="M182,161c0-1.2,0-2.2,0-3.2h1.6v2h.1c.5-1.4,1.6-2.2,2.8-2.2s.4,0,.5,0v1.7c-.2,0-.4,0-.6,0-1.3,0-2.2,1-2.5,2.4,0,.2,0,.6,0,.9v5.4h-1.8v-7h0Z"/>
    <path class="cls-4" d="M189,160.6c0-1.1,0-1.9,0-2.8h1.6v1.7h.1c.5-1,1.7-1.9,3.4-1.9s3.6.8,3.6,4.3v6.1h-1.9v-5.9c0-1.6-.6-3-2.4-3s-2.2.9-2.5,1.9c0,.2-.1.6-.1.9v6.1h-1.9v-7.4h0Z"/>
    <path class="cls-4" d="M205.1,153.1h1.9v14.9h-1.9v-14.9Z"/>
    <path class="cls-4" d="M215.7,168v-1.3h-.2c-.6.8-1.7,1.5-3.1,1.5-2.1,0-3.1-1.4-3.1-2.9,0-2.5,2.2-3.8,6.1-3.8v-.2c0-.8-.2-2.4-2.3-2.4s-1.9.3-2.6.8l-.4-1.2c.8-.6,2.1-.9,3.3-.9,3.1,0,3.9,2.1,3.9,4.2v3.8c0,.9,0,1.7.2,2.4h-1.7,0ZM215.4,162.8c-2,0-4.3.3-4.3,2.3s.8,1.8,1.7,1.8,2.2-.8,2.5-1.7c0-.2.1-.4.1-.6v-1.8h0Z"/>
    <path class="cls-4" d="M222.3,154.9v2.9h2.6v1.4h-2.6v5.5c0,1.3.4,2,1.4,2s.8,0,1.1-.1v1.4c-.3.1-.8.2-1.6.2s-1.6-.3-2-.8c-.5-.6-.7-1.4-.7-2.6v-5.5h-1.6v-1.4h1.6v-2.4l1.8-.5h0Z"/>
    <path class="cls-4" d="M227.9,163.2c0,2.5,1.6,3.5,3.5,3.5s2.1-.2,2.8-.5l.3,1.3c-.6.3-1.8.6-3.4.6-3.1,0-5-2.1-5-5.1s1.8-5.5,4.8-5.5,4.2,2.9,4.2,4.8,0,.7,0,.9h-7.1ZM233.4,161.9c0-1.2-.5-3-2.6-3s-2.7,1.7-2.8,3h5.4,0Z"/>
    <path class="cls-4" d="M242.4,166.7c.4,0,.9,0,1.5,0,1.1-.1,2.1-.6,2.9-1.3.9-.8,1.6-2,1.8-3.6h0c-.8.9-1.9,1.5-3.2,1.5-2.5,0-4-1.9-4-4.2s1.9-4.9,4.7-4.9,4.5,2.3,4.5,5.8-1,5.1-2.4,6.4c-1.1,1-2.5,1.7-4,1.8-.7.1-1.3.1-1.7.1v-1.5h0ZM243.1,158.8c0,1.7,1,2.9,2.6,2.9s2.2-.6,2.7-1.4c.1-.2.2-.4.2-.7,0-2.3-.9-4.1-2.8-4.1s-2.7,1.4-2.7,3.3h0Z"/>
    <path class="cls-4" d="M261.1,161c0,4.6-1.7,7.2-4.8,7.2s-4.5-2.5-4.5-7c0-4.6,2-7.1,4.8-7.1s4.5,2.6,4.5,6.9h0ZM253.7,161.2c0,3.6,1.1,5.6,2.8,5.6s2.8-2.2,2.8-5.7-.9-5.6-2.8-5.6-2.8,2-2.8,5.7h0Z"/>
    <path class="cls-4" d="M263.2,166.1c.5.4,1.5.7,2.4.7,1.3,0,2-.7,2-1.5s-.5-1.4-1.9-1.9c-1.8-.6-2.7-1.7-2.7-2.9s1.3-3,3.5-3,1.9.3,2.5.6l-.5,1.3c-.4-.2-1.1-.6-2.1-.6s-1.7.6-1.7,1.4.6,1.2,1.9,1.7c1.8.7,2.7,1.6,2.7,3.1s-1.4,3-3.8,3-2.1-.3-2.9-.7l.5-1.4h0Z"/>
    <path class="cls-4" d="M278.3,154.9c0,.6-.4,1.1-1.2,1.1s-1.1-.5-1.1-1.1.5-1.1,1.1-1.1,1.1.5,1.1,1.1h0ZM276.2,168v-10.2h1.9v10.2h-1.9Z"/>
    <path class="cls-4" d="M281.1,160.6c0-1.1,0-1.9,0-2.8h1.6v1.7h.1c.5-1,1.7-1.9,3.4-1.9s3.6.8,3.6,4.3v6.1h-1.9v-5.9c0-1.6-.6-3-2.4-3s-2.2.9-2.5,1.9c0,.2-.1.6-.1.9v6.1h-1.9v-7.4h0Z"/>
    <path class="cls-4" d="M308.1,167.3c-.8.3-2.4.8-4.4.8s-3.9-.6-5.3-1.9c-1.2-1.2-2-3.1-2-5.3,0-4.2,2.9-7.3,7.7-7.3s2.9.4,3.5.6l-.4,1.5c-.8-.3-1.7-.6-3.1-.6-3.4,0-5.7,2.1-5.7,5.7s2.2,5.7,5.5,5.7,2-.2,2.4-.4v-4.2h-2.9v-1.5h4.7v6.8h0Z"/>
    <path class="cls-4" d="M311.9,163.2c0,2.5,1.6,3.5,3.5,3.5s2.1-.2,2.8-.5l.3,1.3c-.6.3-1.8.6-3.4.6-3.1,0-5-2.1-5-5.1s1.8-5.5,4.8-5.5,4.2,2.9,4.2,4.8,0,.7,0,.9h-7.1,0ZM317.3,161.9c0-1.2-.5-3-2.6-3s-2.7,1.7-2.8,3h5.4,0Z"/>
    <path class="cls-4" d="M321.4,161c0-1.2,0-2.2,0-3.2h1.6v2h.1c.5-1.4,1.6-2.2,2.8-2.2s.4,0,.5,0v1.7c-.2,0-.4,0-.6,0-1.3,0-2.2,1-2.5,2.4,0,.2,0,.6,0,.9v5.4h-1.8v-7h0Z"/>
    <path class="cls-4" d="M328.4,160.6c0-1.1,0-1.9,0-2.8h1.6v1.6h.1c.6-1,1.5-1.9,3.2-1.9s2.4.8,2.9,2h0c.3-.6.7-1,1.1-1.3.6-.5,1.3-.7,2.2-.7s3.3.9,3.3,4.4v6h-1.8v-5.8c0-1.9-.7-3.1-2.2-3.1s-1.9.8-2.2,1.7c0,.2-.1.6-.1.9v6.3h-1.8v-6.1c0-1.6-.7-2.8-2.1-2.8s-2,.9-2.3,1.9c-.1.3-.1.6-.1.9v6.1h-1.8v-7.4h0Z"/>
    <path class="cls-4" d="M351.5,168v-1.3h-.2c-.6.8-1.7,1.5-3.1,1.5-2.1,0-3.1-1.4-3.1-2.9,0-2.5,2.2-3.8,6.1-3.8v-.2c0-.8-.2-2.4-2.3-2.4s-1.9.3-2.6.8l-.4-1.2c.8-.6,2.1-.9,3.3-.9,3.1,0,3.9,2.1,3.9,4.2v3.8c0,.9,0,1.7.2,2.4h-1.7,0ZM351.2,162.8c-2,0-4.3.3-4.3,2.3s.8,1.8,1.7,1.8,2.2-.8,2.5-1.7c0-.2.1-.4.1-.6v-1.8Z"/>
    <path class="cls-4" d="M356,160.6c0-1.1,0-1.9,0-2.8h1.6v1.7h.1c.5-1,1.7-1.9,3.4-1.9s3.6.8,3.6,4.3v6.1h-1.9v-5.9c0-1.6-.6-3-2.4-3s-2.2.9-2.5,1.9c0,.2-.1.6-.1.9v6.1h-1.9v-7.4h0Z"/>
    <path class="cls-4" d="M368.1,157.8l2.2,6c.2.7.5,1.5.6,2.1h0c.2-.6.4-1.4.6-2.1l2-6h2l-2.8,7.2c-1.3,3.5-2.2,5.3-3.5,6.4-.9.8-1.8,1.1-2.3,1.2l-.5-1.6c.5-.1,1.1-.4,1.6-.9.5-.4,1.1-1.1,1.5-2.1,0-.2.1-.3.1-.4s0-.2-.1-.5l-3.8-9.4h2Z"/>
    <path class="cls-4" d="M387.4,168v-1.3h-.2c-.6.8-1.7,1.5-3.1,1.5-2.1,0-3.1-1.4-3.1-2.9,0-2.5,2.2-3.8,6.1-3.8v-.2c0-.8-.2-2.4-2.3-2.4s-1.9.3-2.6.8l-.4-1.2c.8-.6,2.1-.9,3.3-.9,3.1,0,3.9,2.1,3.9,4.2v3.8c0,.9,0,1.7.2,2.4h-1.7,0ZM387.1,162.8c-2,0-4.3.3-4.3,2.3s.8,1.8,1.7,1.8,2.2-.8,2.5-1.7c0-.2.1-.4.1-.6v-1.8Z"/>
    <path class="cls-4" d="M391.9,160.6c0-1.1,0-1.9,0-2.8h1.6v1.7h.1c.5-1,1.7-1.9,3.4-1.9s3.6.8,3.6,4.3v6.1h-1.9v-5.9c0-1.6-.6-3-2.4-3s-2.2.9-2.5,1.9c0,.2-.1.6-.1.9v6.1h-1.9v-7.4h0Z"/>
    <path class="cls-4" d="M412.3,153.1v12.3c0,.9,0,1.9,0,2.6h-1.7v-1.8h-.1c-.6,1.1-1.8,2-3.5,2-2.5,0-4.4-2.1-4.4-5.2,0-3.4,2.1-5.5,4.6-5.5s2.6.7,3.1,1.6h0v-6.1h1.9ZM410.4,161.9c0-.2,0-.6,0-.8-.3-1.2-1.3-2.1-2.7-2.1s-3,1.7-3,3.9,1,3.8,3,3.8,2.4-.8,2.7-2.2c0-.2,0-.5,0-.8v-1.8h0Z"/>
    <path class="cls-4" d="M54.5,185.8c0-1.1,0-1.9,0-2.8h1.6v1.6h.1c.6-1,1.5-1.9,3.2-1.9s2.4.8,2.9,2h0c.3-.6.7-1,1.1-1.3.6-.5,1.3-.7,2.2-.7s3.3.9,3.3,4.4v6h-1.8v-5.8c0-1.9-.7-3.1-2.2-3.1s-1.9.8-2.2,1.7c0,.2-.2.6-.2.9v6.3h-1.8v-6.1c0-1.6-.7-2.8-2.1-2.8s-2,.9-2.3,1.9c0,.3-.2.6-.2.9v6.1h-1.8v-7.4h0Z"/>
    <path class="cls-4" d="M81.2,188c0,3.8-2.6,5.4-5.1,5.4s-4.9-2-4.9-5.2,2.2-5.4,5-5.4,4.9,2.1,4.9,5.2ZM73.2,188.1c0,2.2,1.3,3.9,3.1,3.9s3.1-1.7,3.1-3.9-.9-3.9-3-3.9-3.1,2-3.1,3.9h0Z"/>
    <path class="cls-4" d="M84.1,183l2,5.7c.3.9.6,1.8.8,2.6h0c.2-.8.5-1.7.9-2.6l2-5.7h1.9l-4,10.2h-1.8l-3.9-10.2h2Z"/>
    <path class="cls-4" d="M94.3,188.4c0,2.5,1.6,3.5,3.5,3.5s2.1-.2,2.8-.5l.3,1.3c-.7.3-1.8.6-3.4.6-3.1,0-5-2.1-5-5.1s1.8-5.5,4.8-5.5,4.2,2.9,4.2,4.8,0,.7,0,.9h-7.1,0ZM99.8,187.1c0-1.2-.5-3-2.6-3s-2.7,1.7-2.8,3h5.4,0Z"/>
    <path class="cls-4" d="M112.6,178.3v12.3c0,.9,0,1.9,0,2.6h-1.7v-1.8h-.1c-.6,1.1-1.8,2-3.5,2-2.5,0-4.3-2.1-4.3-5.2,0-3.4,2.1-5.5,4.6-5.5s2.6.7,3.1,1.6h0v-6.1h1.8,0ZM110.8,187.1c0-.2,0-.6,0-.8-.3-1.2-1.3-2.1-2.7-2.1s-3,1.7-3,3.9,1,3.8,3,3.8,2.4-.8,2.7-2.2c0-.2,0-.5,0-.8v-1.8h0Z"/>
    <path class="cls-4" d="M122.4,180.1v2.9h2.7v1.4h-2.7v5.5c0,1.3.4,2,1.4,2s.8,0,1.1-.1v1.4c-.3.1-.8.2-1.6.2s-1.6-.3-2-.8c-.5-.6-.7-1.4-.7-2.6v-5.5h-1.6v-1.4h1.6v-2.4l1.8-.5h0Z"/>
    <path class="cls-4" d="M136.2,188c0,3.8-2.6,5.4-5.1,5.4s-4.9-2-4.9-5.2,2.2-5.4,5-5.4,4.9,2.1,4.9,5.2ZM128.1,188.1c0,2.2,1.3,3.9,3.1,3.9s3.1-1.7,3.1-3.9-.9-3.9-3-3.9-3.1,2-3.1,3.9h0Z"/>
    <path class="cls-4" d="M143,179h1.8v12.6h6.1v1.5h-7.9v-14.1h0Z"/>
    <path class="cls-4" d="M158.5,193.2v-1.3h-.2c-.6.8-1.7,1.5-3.1,1.5-2.1,0-3.1-1.4-3.1-2.9,0-2.5,2.2-3.8,6.1-3.8v-.2c0-.8-.2-2.4-2.3-2.4s-1.9.3-2.6.8l-.4-1.2c.8-.6,2.1-.9,3.3-.9,3.1,0,3.9,2.1,3.9,4.2v3.8c0,.9,0,1.7.2,2.4h-1.7,0ZM158.2,188c-2,0-4.3.3-4.3,2.3s.8,1.8,1.7,1.8,2.2-.8,2.5-1.7c0-.2.1-.4.1-.6v-1.8h0Z"/>
    <path class="cls-4" d="M165.1,180.1v2.9h2.6v1.4h-2.6v5.5c0,1.3.4,2,1.4,2s.8,0,1.1-.1v1.4c-.3.1-.8.2-1.6.2s-1.6-.3-2-.8c-.5-.6-.7-1.4-.7-2.6v-5.5h-1.6v-1.4h1.6v-2.4l1.8-.5h0Z"/>
    <path class="cls-4" d="M170.7,183l2,5.7c.3.9.6,1.8.8,2.6h0c.2-.8.5-1.7.9-2.6l2-5.7h1.9l-4,10.2h-1.8l-3.9-10.2h2Z"/>
    <path class="cls-4" d="M182.2,180.1c0,.6-.4,1.1-1.2,1.1s-1.1-.5-1.1-1.1.5-1.1,1.1-1.1,1.1.5,1.1,1.1h0ZM180.1,193.2v-10.2h1.9v10.2h-1.9Z"/>
    <path class="cls-4" d="M190.7,193.2v-1.3h-.2c-.6.8-1.7,1.5-3.1,1.5-2.1,0-3.1-1.4-3.1-2.9,0-2.5,2.2-3.8,6.1-3.8v-.2c0-.8-.2-2.4-2.3-2.4s-1.9.3-2.6.8l-.4-1.2c.8-.6,2.1-.9,3.3-.9,3.1,0,3.9,2.1,3.9,4.2v3.8c0,.9,0,1.7.2,2.4h-1.7,0ZM190.4,188c-2,0-4.3.3-4.3,2.3s.8,1.8,1.7,1.8,2.2-.8,2.5-1.7c0-.2.1-.4.1-.6v-1.8h0Z"/>
    <path class="cls-4" d="M201.7,180.1c0,.6-.4,1.1-1.2,1.1s-1.1-.5-1.1-1.1.5-1.1,1.1-1.1,1.1.5,1.1,1.1h0ZM199.6,193.2v-10.2h1.9v10.2h-1.9Z"/>
    <path class="cls-4" d="M204.5,185.8c0-1.1,0-1.9,0-2.8h1.6v1.7h.1c.5-1,1.7-1.9,3.4-1.9s3.6.8,3.6,4.3v6.1h-1.9v-5.9c0-1.6-.6-3-2.4-3s-2.2.9-2.5,1.9c0,.2-.1.6-.1.9v6.1h-1.9v-7.4h0Z"/>
    <path class="cls-4" d="M220.1,193.2v-1.1l1.4-1.4c3.5-3.3,5.1-5.1,5.1-7.1,0-1.4-.7-2.7-2.7-2.7s-2.3.6-2.9,1.1l-.6-1.3c.9-.8,2.3-1.4,3.9-1.4,2.9,0,4.2,2,4.2,4s-1.8,4.6-4.7,7.3l-1.1,1h0s6.1,0,6.1,0v1.5h-8.7Z"/>
    <path class="cls-4" d="M239.9,186.2c0,4.6-1.7,7.2-4.8,7.2s-4.5-2.5-4.5-7c0-4.6,2-7.1,4.8-7.1s4.5,2.6,4.5,6.9ZM232.5,186.4c0,3.6,1.1,5.6,2.8,5.6s2.8-2.2,2.8-5.7-.9-5.6-2.8-5.6-2.8,2-2.8,5.7Z"/>
    <path class="cls-4" d="M250.7,186.2c0,4.6-1.7,7.2-4.8,7.2s-4.5-2.5-4.5-7c0-4.6,2-7.1,4.8-7.1s4.5,2.6,4.5,6.9ZM243.2,186.4c0,3.6,1.1,5.6,2.8,5.6s2.8-2.2,2.8-5.7-.9-5.6-2.8-5.6-2.8,2-2.8,5.7Z"/>
    <path class="cls-4" d="M252.8,191.1c.5.3,1.7.9,3,.9,2.4,0,3.1-1.5,3.1-2.6,0-1.9-1.7-2.7-3.5-2.7h-1v-1.4h1c1.3,0,3-.7,3-2.3s-.7-2.1-2.4-2.1-2.1.5-2.7.9l-.5-1.3c.7-.5,2.1-1.1,3.6-1.1,2.7,0,3.9,1.6,3.9,3.2s-.8,2.6-2.5,3.2h0c1.7.4,3,1.6,3,3.5s-1.7,4.1-5,4.1-2.9-.5-3.6-.9l.5-1.4h0Z"/>
    <path class="cls-4" d="M262.5,195.8c.5-1.2,1-3.5,1.3-5l2.1-.2c-.5,1.8-1.4,4.1-2,5.1h-1.3c0,.1,0,.1,0,.1Z"/>
    <path class="cls-4" d="M272.5,178.3h1.9v6.3h0c.3-.5.8-1,1.3-1.3.5-.3,1.2-.5,1.9-.5,1.4,0,3.5.8,3.5,4.4v6.1h-1.9v-5.8c0-1.6-.6-3-2.4-3s-2.1.8-2.5,1.9c-.1.2-.1.5-.1.9v6.1h-1.9v-14.9h0Z"/>
    <path class="cls-4" d="M285.2,188.4c0,2.5,1.6,3.5,3.5,3.5s2.1-.2,2.8-.5l.3,1.3c-.6.3-1.8.6-3.4.6-3.1,0-5-2.1-5-5.1s1.8-5.5,4.8-5.5,4.2,2.9,4.2,4.8,0,.7,0,.9h-7.1,0ZM290.6,187.1c0-1.2-.5-3-2.6-3s-2.7,1.7-2.8,3h5.4,0Z"/>
    <path class="cls-4" d="M294.7,186.2c0-1.2,0-2.2,0-3.2h1.6v2h.1c.5-1.4,1.6-2.2,2.8-2.2s.4,0,.5,0v1.7c-.2,0-.4,0-.6,0-1.3,0-2.2,1-2.5,2.4,0,.2,0,.6,0,.9v5.4h-1.8v-7h0Z"/>
    <path class="cls-4" d="M314.8,178.3v12.3c0,.9,0,1.9,0,2.6h-1.7v-1.8h-.1c-.6,1.1-1.8,2-3.5,2-2.5,0-4.4-2.1-4.4-5.2,0-3.4,2.1-5.5,4.6-5.5s2.6.7,3.1,1.6h0v-6.1h1.9,0ZM313,187.1c0-.2,0-.6,0-.8-.3-1.2-1.3-2.1-2.7-2.1s-3,1.7-3,3.9,1,3.8,3,3.8,2.4-.8,2.7-2.2c0-.2,0-.5,0-.8v-1.8h0Z"/>
    <path class="cls-4" d="M319.9,180.1c0,.6-.4,1.1-1.2,1.1s-1.1-.5-1.1-1.1.5-1.1,1.1-1.1,1.1.5,1.1,1.1h0ZM317.9,193.2v-10.2h1.9v10.2h-1.9Z"/>
    <path class="cls-4" d="M323.5,183l2,5.7c.3.9.6,1.8.8,2.6h0c.2-.8.5-1.7.9-2.6l2-5.7h1.9l-4,10.2h-1.8l-3.9-10.2h2Z"/>
    <path class="cls-4" d="M333.7,188.4c0,2.5,1.6,3.5,3.5,3.5s2.1-.2,2.8-.5l.3,1.3c-.6.3-1.8.6-3.4.6-3.1,0-5-2.1-5-5.1s1.8-5.5,4.8-5.5,4.2,2.9,4.2,4.8,0,.7,0,.9h-7.1,0ZM339.1,187.1c0-1.2-.5-3-2.6-3s-2.7,1.7-2.8,3h5.4,0Z"/>
    <path class="cls-4" d="M343.2,186.2c0-1.2,0-2.2,0-3.2h1.6v2h.1c.5-1.4,1.6-2.2,2.8-2.2s.4,0,.5,0v1.7c-.2,0-.4,0-.6,0-1.3,0-2.2,1-2.5,2.4,0,.2,0,.6,0,.9v5.4h-1.8v-7h0Z"/>
    <path class="cls-4" d="M349.8,191.3c.5.4,1.5.7,2.4.7,1.3,0,2-.7,2-1.5s-.5-1.4-1.9-1.9c-1.8-.6-2.7-1.7-2.7-2.9s1.3-3,3.5-3,1.9.3,2.5.6l-.5,1.3c-.4-.2-1.1-.6-2.1-.6s-1.7.6-1.7,1.4.6,1.2,1.9,1.7c1.8.7,2.7,1.6,2.7,3.1s-1.4,3-3.8,3-2.1-.3-2.9-.7l.5-1.4h0Z"/>
    <path class="cls-4" d="M359.4,188.4c0,2.5,1.6,3.5,3.5,3.5s2.1-.2,2.8-.5l.3,1.3c-.6.3-1.8.6-3.4.6-3.1,0-5-2.1-5-5.1s1.8-5.5,4.8-5.5,4.2,2.9,4.2,4.8,0,.7,0,.9h-7.1,0ZM364.8,187.1c0-1.2-.5-3-2.6-3s-2.7,1.7-2.8,3h5.4,0Z"/>
    <path class="cls-4" d="M373.5,193.2v-8.8h-1.4v-1.4h1.4v-.5c0-1.4.3-2.7,1.2-3.6.7-.7,1.6-.9,2.5-.9s1.2.1,1.6.3l-.2,1.4c-.3-.1-.6-.2-1.2-.2-1.6,0-2,1.4-2,2.9v.6h2.5v1.4h-2.5v8.8h-1.8Z"/>
    <path class="cls-4" d="M385.1,193.2v-1.3h-.2c-.6.8-1.7,1.5-3.1,1.5-2.1,0-3.1-1.4-3.1-2.9,0-2.5,2.2-3.8,6.1-3.8v-.2c0-.8-.2-2.4-2.3-2.4s-1.9.3-2.6.8l-.4-1.2c.8-.6,2.1-.9,3.3-.9,3.1,0,3.9,2.1,3.9,4.2v3.8c0,.9,0,1.7.2,2.4h-1.7,0ZM384.8,188c-2,0-4.3.3-4.3,2.3s.8,1.8,1.7,1.8,2.2-.8,2.5-1.7c0-.2.1-.4.1-.6v-1.8Z"/>
    <path class="cls-4" d="M389.6,185.8c0-1.1,0-1.9,0-2.8h1.6v1.6h.1c.6-1,1.5-1.9,3.2-1.9s2.4.8,2.9,2h0c.3-.6.7-1,1.1-1.3.6-.5,1.3-.7,2.2-.7s3.3.9,3.3,4.4v6h-1.8v-5.8c0-1.9-.7-3.1-2.2-3.1s-1.9.8-2.2,1.7c0,.2-.1.6-.1.9v6.3h-1.8v-6.1c0-1.6-.7-2.8-2.1-2.8s-2,.9-2.3,1.9c-.1.3-.1.6-.1.9v6.1h-1.8v-7.4h0Z"/>
    <path class="cls-4" d="M409.2,180.1c0,.6-.4,1.1-1.2,1.1s-1.1-.5-1.1-1.1.5-1.1,1.2-1.1,1.1.5,1.1,1.1h0ZM407.1,193.2v-10.2h1.9v10.2h-1.9Z"/>
    <path class="cls-4" d="M412,178.3h1.9v14.9h-1.9v-14.9Z"/>
    <path class="cls-4" d="M417.7,183l2.2,6c.2.7.5,1.5.6,2.1h0c.2-.6.4-1.4.6-2.1l2-6h2l-2.8,7.2c-1.3,3.5-2.2,5.3-3.5,6.4-.9.8-1.8,1.1-2.3,1.2l-.5-1.6c.5-.1,1.1-.4,1.6-.9.5-.4,1.1-1.1,1.5-2.1,0-.2.1-.3.1-.4s0-.2-.1-.5l-3.8-9.4h2,0Z"/>
    <path class="cls-4" d="M63,215.6c0,1.1,0,2,0,2.8h-1.6v-1.7h-.1c-.5.8-1.5,1.9-3.4,1.9s-3.5-.9-3.5-4.4v-5.9h1.8v5.6c0,1.9.6,3.2,2.3,3.2s2.1-.9,2.4-1.7c0-.3.2-.6.2-.9v-6.2h1.8v7.4h0Z"/>
    <path class="cls-4" d="M66.1,211.5c0-1.3,0-2.4,0-3.3h1.7v1.7h.1c.8-1.2,1.9-2,3.6-2,2.5,0,4.3,2.1,4.3,5.2s-2.2,5.5-4.6,5.5-2.5-.6-3.1-1.6h0v5.5h-1.8v-11h0ZM67.9,214.2c0,.3,0,.5,0,.8.3,1.3,1.4,2.2,2.8,2.2,1.9,0,3.1-1.6,3.1-3.9s-1.1-3.8-3-3.8-2.4.9-2.8,2.3c0,.2-.1.5-.1.8v1.7Z"/>
    <path class="cls-4" d="M78,218.4c0-.7,0-1.7,0-2.6v-12.3h1.8v6.4h0c.7-1.1,1.8-1.9,3.5-1.9,2.5,0,4.3,2.1,4.3,5.2,0,3.6-2.3,5.4-4.6,5.4s-2.7-.6-3.4-1.9h0v1.7h-1.7,0ZM79.9,214.3c0,.2,0,.5,0,.7.4,1.3,1.4,2.2,2.8,2.2,1.9,0,3.1-1.6,3.1-3.9s-1.1-3.8-3-3.8-2.4.9-2.8,2.3c0,.2,0,.5,0,.8v1.8h0Z"/>
    <path class="cls-4" d="M90,211.4c0-1.2,0-2.2,0-3.2h1.6v2h.1c.5-1.4,1.6-2.2,2.8-2.2s.4,0,.5,0v1.7c-.2,0-.4,0-.6,0-1.3,0-2.2,1-2.5,2.4,0,.2,0,.6,0,.9v5.4h-1.8v-7h0Z"/>
    <path class="cls-4" d="M99,205.4c0,.6-.4,1.1-1.2,1.1s-1.1-.5-1.1-1.1.5-1.1,1.2-1.1,1.1.5,1.1,1.1h0ZM96.9,218.4v-10.2h1.8v10.2h-1.8Z"/>
    <path class="cls-4" d="M101.9,211c0-1.1,0-1.9,0-2.8h1.6v1.7h.1c.5-1,1.7-1.9,3.4-1.9s3.6.8,3.6,4.3v6.1h-1.8v-5.9c0-1.6-.6-3-2.3-3s-2.2.9-2.5,1.9c0,.2-.1.6-.1.9v6.1h-1.8v-7.4h0Z"/>
    <path class="cls-4" d="M122.3,208.2c0,.7,0,1.6,0,2.8v5.9c0,2.3-.5,3.8-1.4,4.6-1,.9-2.4,1.2-3.7,1.2s-2.6-.3-3.4-.8l.5-1.4c.7.4,1.7.8,3,.8,1.9,0,3.3-1,3.3-3.6v-1.1h0c-.6.9-1.7,1.7-3.2,1.7-2.5,0-4.3-2.1-4.3-5s2.2-5.4,4.6-5.4,2.7.9,3.2,1.8h0v-1.5h1.7,0ZM120.4,212.2c0-.3,0-.6,0-.8-.3-1.1-1.2-1.9-2.6-1.9s-3,1.5-3,3.8,1,3.6,3,3.6,2.2-.7,2.6-1.9c0-.3.2-.7.2-1v-1.8h0Z"/>
    <path class="cls-4" d="M127.2,205.4c0,.6-.4,1.1-1.2,1.1s-1.1-.5-1.1-1.1.5-1.1,1.2-1.1,1.1.5,1.1,1.1h0ZM125.1,218.4v-10.2h1.8v10.2h-1.8Z"/>
    <path class="cls-4" d="M130.1,211c0-1.1,0-1.9,0-2.8h1.6v1.7h.1c.5-1,1.7-1.9,3.4-1.9s3.6.8,3.6,4.3v6.1h-1.9v-5.9c0-1.6-.6-3-2.4-3s-2.2.9-2.5,1.9c0,.2-.1.6-.1.9v6.1h-1.9v-7.4h0Z"/>
    <path class="cls-4" d="M150.5,208.2c0,.7,0,1.6,0,2.8v5.9c0,2.3-.5,3.8-1.4,4.6-1,.9-2.4,1.2-3.7,1.2s-2.6-.3-3.4-.8l.5-1.4c.7.4,1.7.8,3,.8,1.9,0,3.3-1,3.3-3.6v-1.1h0c-.6.9-1.7,1.7-3.2,1.7-2.5,0-4.3-2.1-4.3-5s2.2-5.4,4.6-5.4,2.7.9,3.2,1.8h0v-1.5h1.7ZM148.6,212.2c0-.3,0-.6-.1-.8-.3-1.1-1.2-1.9-2.6-1.9s-3,1.5-3,3.8,1,3.6,3,3.6,2.2-.7,2.6-1.9c.1-.3.1-.7.1-1v-1.8h0Z"/>
    <path class="cls-4" d="M163.5,218.4v-1.3h-.2c-.6.8-1.7,1.5-3.1,1.5-2.1,0-3.1-1.4-3.1-2.9,0-2.5,2.2-3.8,6.1-3.8v-.2c0-.8-.2-2.4-2.3-2.4s-1.9.3-2.6.8l-.4-1.2c.8-.6,2.1-.9,3.3-.9,3.1,0,3.9,2.1,3.9,4.2v3.8c0,.9,0,1.7.2,2.4h-1.7,0ZM163.2,213.2c-2,0-4.3.3-4.3,2.3s.8,1.8,1.7,1.8,2.2-.8,2.5-1.7c0-.2.1-.4.1-.6v-1.8h0Z"/>
    <path class="cls-4" d="M168,211c0-1.1,0-1.9,0-2.8h1.6v1.7h.1c.5-1,1.7-1.9,3.4-1.9s3.6.8,3.6,4.3v6.1h-1.9v-5.9c0-1.6-.6-3-2.4-3s-2.2.9-2.5,1.9c0,.2-.1.6-.1.9v6.1h-1.9v-7.4h0Z"/>
    <path class="cls-4" d="M188.4,203.5v12.3c0,.9,0,1.9,0,2.6h-1.7v-1.8h-.1c-.6,1.1-1.8,2-3.5,2-2.5,0-4.4-2.1-4.4-5.2,0-3.4,2.1-5.5,4.6-5.5s2.6.7,3.1,1.6h0v-6.1h1.9,0ZM186.6,212.4c0-.2,0-.6,0-.8-.3-1.2-1.3-2.1-2.7-2.1s-3,1.7-3,3.9,1,3.8,3,3.8,2.4-.8,2.7-2.2c0-.2,0-.5,0-.8v-1.8h0Z"/>
    <path class="cls-4" d="M197,213.6c0,2.5,1.6,3.5,3.5,3.5s2.1-.2,2.8-.5l.3,1.3c-.6.3-1.8.6-3.4.6-3.1,0-5-2.1-5-5.1s1.8-5.5,4.8-5.5,4.2,2.9,4.2,4.8,0,.7,0,.9h-7.1ZM202.4,212.3c0-1.2-.5-3-2.6-3s-2.7,1.7-2.8,3h5.4,0Z"/>
    <path class="cls-4" d="M207.3,208.2l1.4,2.2c.4.6.7,1.1,1,1.7h0c.3-.6.7-1.1,1-1.7l1.4-2.2h2l-3.5,4.9,3.6,5.2h-2.1l-1.5-2.3c-.4-.6-.7-1.1-1.1-1.8h0c-.3.6-.7,1.1-1.1,1.8l-1.5,2.3h-2l3.6-5.2-3.4-5h2.1,0Z"/>
    <path class="cls-4" d="M216.1,211.5c0-1.3,0-2.4,0-3.3h1.7v1.7h.1c.8-1.2,1.9-2,3.6-2,2.5,0,4.3,2.1,4.3,5.2s-2.2,5.5-4.6,5.5-2.5-.6-3.1-1.6h0v5.5h-1.8v-11h0ZM218,214.2c0,.3,0,.5,0,.8.3,1.3,1.4,2.2,2.8,2.2,1.9,0,3.1-1.6,3.1-3.9s-1.1-3.8-3-3.8-2.4.9-2.8,2.3c0,.2-.1.5-.1.8v1.7Z"/>
    <path class="cls-4" d="M230.1,205.4c0,.6-.4,1.1-1.2,1.1s-1.1-.5-1.1-1.1.5-1.1,1.1-1.1,1.1.5,1.1,1.1h0ZM228.1,218.4v-10.2h1.9v10.2h-1.9Z"/>
    <path class="cls-4" d="M233,211.4c0-1.2,0-2.2,0-3.2h1.6v2h.1c.5-1.4,1.6-2.2,2.8-2.2s.4,0,.5,0v1.7c-.2,0-.4,0-.6,0-1.3,0-2.2,1-2.5,2.4,0,.2,0,.6,0,.9v5.4h-1.8v-7h0Z"/>
    <path class="cls-4" d="M242,205.4c0,.6-.4,1.1-1.2,1.1s-1.1-.5-1.1-1.1.5-1.1,1.1-1.1,1.1.5,1.1,1.1h0ZM240,218.4v-10.2h1.9v10.2h-1.9Z"/>
    <path class="cls-4" d="M245.9,213.6c0,2.5,1.6,3.5,3.5,3.5s2.1-.2,2.8-.5l.3,1.3c-.6.3-1.8.6-3.4.6-3.1,0-5-2.1-5-5.1s1.8-5.5,4.8-5.5,4.2,2.9,4.2,4.8,0,.7,0,.9h-7.1ZM251.3,212.3c0-1.2-.5-3-2.6-3s-2.7,1.7-2.8,3h5.4,0Z"/>
    <path class="cls-4" d="M255.4,211c0-1.1,0-1.9,0-2.8h1.6v1.7h.1c.5-1,1.7-1.9,3.4-1.9s3.6.8,3.6,4.3v6.1h-1.9v-5.9c0-1.6-.6-3-2.4-3s-2.2.9-2.5,1.9c0,.2-.1.6-.1.9v6.1h-1.9v-7.4h0Z"/>
    <path class="cls-4" d="M274.3,218c-.5.2-1.5.6-2.9.6-3.1,0-5.1-2.1-5.1-5.2s2.1-5.4,5.5-5.4,2.1.3,2.6.5l-.4,1.4c-.4-.2-1.1-.5-2.1-.5-2.3,0-3.6,1.7-3.6,3.8s1.5,3.8,3.5,3.8,1.7-.3,2.3-.5l.3,1.4h0Z"/>
    <path class="cls-4" d="M277.4,213.6c0,2.5,1.6,3.5,3.5,3.5s2.1-.2,2.8-.5l.3,1.3c-.6.3-1.8.6-3.4.6-3.1,0-5-2.1-5-5.1s1.8-5.5,4.8-5.5,4.2,2.9,4.2,4.8,0,.7,0,.9h-7.1,0ZM282.8,212.3c0-1.2-.5-3-2.6-3s-2.7,1.7-2.8,3h5.4,0Z"/>
    <path class="cls-4" d="M286.6,216.5c.5.4,1.5.7,2.4.7,1.3,0,2-.7,2-1.5s-.5-1.4-1.9-1.9c-1.8-.6-2.7-1.7-2.7-2.9s1.3-3,3.5-3,1.9.3,2.5.6l-.5,1.3c-.4-.2-1.1-.6-2.1-.6s-1.7.6-1.7,1.4.6,1.2,1.9,1.7c1.8.7,2.7,1.6,2.7,3.1s-1.4,3-3.8,3-2.1-.3-2.9-.7l.5-1.4h0Z"/>
    <path class="cls-4" d="M299.8,218.4v-8.8h-1.4v-1.4h1.4v-.5c0-1.4.3-2.7,1.2-3.6.7-.7,1.6-.9,2.5-.9s1.2.1,1.6.3l-.2,1.4c-.3-.1-.6-.2-1.2-.2-1.6,0-2,1.4-2,2.9v.6h2.5v1.4h-2.5v8.8h-1.8Z"/>
    <path class="cls-4" d="M314.7,213.2c0,3.8-2.6,5.4-5.1,5.4s-4.9-2-4.9-5.2,2.2-5.4,5-5.4,4.9,2.1,4.9,5.2h0ZM306.6,213.3c0,2.2,1.3,3.9,3.1,3.9s3.1-1.7,3.1-3.9-.9-3.9-3-3.9-3.1,2-3.1,3.9h0Z"/>
    <path class="cls-4" d="M317,211.4c0-1.2,0-2.2,0-3.2h1.6v2h.1c.5-1.4,1.6-2.2,2.8-2.2s.4,0,.5,0v1.7c-.2,0-.4,0-.6,0-1.3,0-2.2,1-2.5,2.4,0,.2,0,.6,0,.9v5.4h-1.8v-7h0Z"/>
    <path class="cls-4" d="M332.5,208.2c0,.7,0,1.6,0,2.8v5.9c0,2.3-.5,3.8-1.5,4.6-1,.9-2.4,1.2-3.7,1.2s-2.6-.3-3.4-.8l.5-1.4c.7.4,1.7.8,3,.8,1.9,0,3.3-1,3.3-3.6v-1.1h0c-.6.9-1.7,1.7-3.2,1.7-2.5,0-4.3-2.1-4.3-5s2.2-5.4,4.6-5.4,2.7.9,3.2,1.8h0v-1.5h1.7ZM330.5,212.2c0-.3,0-.6-.1-.8-.3-1.1-1.2-1.9-2.6-1.9s-3,1.5-3,3.8,1,3.6,3,3.6,2.2-.7,2.6-1.9c.1-.3.1-.7.1-1v-1.8h0Z"/>
    <path class="cls-4" d="M336.5,213.6c0,2.5,1.6,3.5,3.5,3.5s2.1-.2,2.8-.5l.3,1.3c-.6.3-1.8.6-3.4.6-3.1,0-5-2.1-5-5.1s1.8-5.5,4.8-5.5,4.2,2.9,4.2,4.8,0,.7,0,.9h-7.1,0ZM341.9,212.3c0-1.2-.5-3-2.6-3s-2.7,1.7-2.8,3h5.4,0Z"/>
    <path class="cls-4" d="M354.7,203.5v12.3c0,.9,0,1.9,0,2.6h-1.7v-1.8h-.1c-.6,1.1-1.8,2-3.5,2-2.5,0-4.4-2.1-4.4-5.2,0-3.4,2.1-5.5,4.6-5.5s2.6.7,3.1,1.6h0v-6.1h1.9,0ZM352.9,212.4c0-.2,0-.6,0-.8-.3-1.2-1.3-2.1-2.7-2.1s-3,1.7-3,3.9,1,3.8,3,3.8,2.4-.8,2.7-2.2c0-.2,0-.5,0-.8v-1.8h0Z"/>
    <path class="cls-4" d="M367.9,218.4v-1.3h-.2c-.6.8-1.7,1.5-3.1,1.5-2.1,0-3.1-1.4-3.1-2.9,0-2.5,2.2-3.8,6.1-3.8v-.2c0-.8-.2-2.4-2.3-2.4s-1.9.3-2.6.8l-.4-1.2c.8-.6,2.1-.9,3.3-.9,3.1,0,3.9,2.1,3.9,4.2v3.8c0,.9,0,1.7.2,2.4h-1.7,0ZM367.6,213.2c-2,0-4.3.3-4.3,2.3s.8,1.8,1.7,1.8,2.2-.8,2.5-1.7c0-.2.1-.4.1-.6v-1.8Z"/>
    <path class="cls-4" d="M376.8,211.5c0-1.3,0-2.4,0-3.3h1.7v1.7h.1c.8-1.2,2-2,3.6-2,2.5,0,4.3,2.1,4.3,5.2s-2.2,5.5-4.6,5.5-2.5-.6-3.1-1.6h0v5.5h-1.8v-11h0ZM378.7,214.2c0,.3,0,.5,0,.8.3,1.3,1.5,2.2,2.8,2.2,2,0,3.1-1.6,3.1-3.9s-1.1-3.8-3-3.8-2.4.9-2.8,2.3c0,.2-.1.5-.1.8v1.7h0Z"/>
    <path class="cls-4" d="M394.4,218.4v-1.3h-.2c-.6.8-1.7,1.5-3.1,1.5-2.1,0-3.1-1.4-3.1-2.9,0-2.5,2.2-3.8,6.1-3.8v-.2c0-.8-.2-2.4-2.3-2.4s-1.9.3-2.6.8l-.4-1.2c.8-.6,2.1-.9,3.3-.9,3.1,0,3.9,2.1,3.9,4.2v3.8c0,.9,0,1.7.2,2.4h-1.7,0ZM394.1,213.2c-2,0-4.3.3-4.3,2.3s.8,1.8,1.7,1.8,2.2-.8,2.5-1.7c0-.2.1-.4.1-.6v-1.8Z"/>
    <path class="cls-4" d="M401,205.3v2.9h2.6v1.4h-2.6v5.5c0,1.3.4,2,1.4,2s.8,0,1.1-.1v1.4c-.3.1-.8.2-1.6.2s-1.5-.3-2-.8c-.5-.6-.7-1.4-.7-2.6v-5.5h-1.6v-1.4h1.6v-2.4l1.8-.5h0Z"/>
    <path class="cls-4" d="M405.8,203.5h1.9v6.3h0c.3-.5.8-1,1.3-1.3.5-.3,1.2-.5,1.9-.5,1.4,0,3.5.8,3.5,4.4v6.1h-1.9v-5.8c0-1.6-.6-3-2.4-3s-2.1.8-2.5,1.9c-.1.2-.1.5-.1.9v6.1h-1.9v-14.9h0Z"/>
    <path class="cls-4" d="M56.8,230.5v2.9h2.7v1.4h-2.7v5.5c0,1.3.4,2,1.4,2s.8,0,1.1-.1v1.4c-.3.1-.8.2-1.6.2s-1.5-.3-2-.8c-.5-.6-.7-1.4-.7-2.6v-5.5h-1.6v-1.4h1.6v-2.4l1.8-.5h0Z"/>
    <path class="cls-4" d="M70.6,238.4c0,3.8-2.6,5.4-5.1,5.4s-4.9-2-4.9-5.2,2.2-5.4,5-5.4,4.9,2.1,4.9,5.2ZM62.5,238.5c0,2.2,1.3,3.9,3.1,3.9s3.1-1.7,3.1-3.9-.9-3.9-3-3.9-3.1,2-3.1,3.9h0Z"/>
    <path class="cls-4" d="M78.4,238.8c0,2.5,1.6,3.5,3.5,3.5s2.1-.2,2.8-.5l.3,1.3c-.7.3-1.8.6-3.4.6-3.1,0-5-2.1-5-5.1s1.8-5.5,4.8-5.5,4.2,2.9,4.2,4.8,0,.7,0,.9h-7.1,0ZM83.8,237.5c0-1.2-.5-3-2.6-3s-2.7,1.7-2.8,3h5.4,0Z"/>
    <path class="cls-4" d="M88.7,233.4l1.4,2.2c.4.6.7,1.1,1,1.7h0c.3-.6.7-1.1,1-1.7l1.4-2.2h2l-3.5,4.9,3.6,5.2h-2.1l-1.5-2.3c-.4-.6-.7-1.1-1.1-1.8h0c-.3.6-.7,1.1-1.1,1.8l-1.5,2.3h-2l3.6-5.2-3.4-5h2.1,0Z"/>
    <path class="cls-4" d="M97.5,236.7c0-1.3,0-2.4,0-3.3h1.7v1.7h.1c.8-1.2,1.9-2,3.6-2,2.5,0,4.3,2.1,4.3,5.2s-2.2,5.5-4.6,5.5-2.5-.6-3.1-1.6h0v5.5h-1.8v-11h0ZM99.3,239.4c0,.3,0,.5,0,.8.3,1.3,1.4,2.2,2.8,2.2,1.9,0,3.1-1.6,3.1-3.9s-1.1-3.8-3-3.8-2.4.9-2.8,2.3c0,.2-.1.5-.1.8v1.7Z"/>
    <path class="cls-4" d="M109.5,228.7h1.8v14.9h-1.8v-14.9Z"/>
    <path class="cls-4" d="M123.6,238.4c0,3.8-2.6,5.4-5.1,5.4s-4.9-2-4.9-5.2,2.2-5.4,5-5.4,4.9,2.1,4.9,5.2ZM115.6,238.5c0,2.2,1.3,3.9,3.1,3.9s3.1-1.7,3.1-3.9-.9-3.9-3-3.9-3.1,2-3.1,3.9h0Z"/>
    <path class="cls-4" d="M125.9,236.6c0-1.2,0-2.2,0-3.2h1.6v2h.1c.5-1.4,1.6-2.2,2.8-2.2s.4,0,.5,0v1.7c-.2,0-.4,0-.6,0-1.3,0-2.2,1-2.5,2.4,0,.2,0,.6,0,.9v5.4h-1.8v-7h0Z"/>
    <path class="cls-4" d="M133.6,238.8c0,2.5,1.6,3.5,3.5,3.5s2.1-.2,2.8-.5l.3,1.3c-.6.3-1.8.6-3.4.6-3.1,0-5-2.1-5-5.1s1.8-5.5,4.8-5.5,4.2,2.9,4.2,4.8,0,.7,0,.9h-7.1ZM139.1,237.5c0-1.2-.5-3-2.6-3s-2.7,1.7-2.8,3h5.4,0Z"/>
    <path class="cls-4" d="M149.8,230.5v2.9h2.6v1.4h-2.6v5.5c0,1.3.4,2,1.4,2s.8,0,1.1-.1v1.4c-.3.1-.8.2-1.6.2s-1.6-.3-2-.8c-.5-.6-.7-1.4-.7-2.6v-5.5h-1.6v-1.4h1.6v-2.4l1.8-.5h0Z"/>
    <path class="cls-4" d="M154.5,228.7h1.9v6.3h0c.3-.5.8-1,1.3-1.3.6-.3,1.2-.5,1.9-.5,1.4,0,3.6.8,3.6,4.4v6.1h-1.9v-5.8c0-1.6-.6-3-2.4-3s-2.1.8-2.5,1.9c-.1.2-.1.5-.1.9v6.1h-1.9v-14.9h0Z"/>
    <path class="cls-4" d="M167.2,238.8c0,2.5,1.6,3.5,3.5,3.5s2.1-.2,2.8-.5l.3,1.3c-.6.3-1.8.6-3.4.6-3.1,0-5-2.1-5-5.1s1.8-5.5,4.8-5.5,4.2,2.9,4.2,4.8,0,.7,0,.9h-7.1ZM172.6,237.5c0-1.2-.5-3-2.6-3s-2.7,1.7-2.8,3h5.4,0Z"/>
    <path class="cls-4" d="M189.9,228.7v12.3c0,.9,0,1.9,0,2.6h-1.7v-1.8h-.1c-.6,1.1-1.8,2-3.5,2-2.5,0-4.4-2.1-4.4-5.2,0-3.4,2.1-5.5,4.6-5.5s2.6.7,3.1,1.6h0v-6.1h1.9,0ZM188.1,237.6c0-.2,0-.6,0-.8-.3-1.2-1.3-2.1-2.7-2.1s-3,1.7-3,3.9,1,3.8,3,3.8,2.4-.8,2.7-2.2c0-.2,0-.5,0-.8v-1.8h0Z"/>
    <path class="cls-4" d="M194,238.8c0,2.5,1.6,3.5,3.5,3.5s2.1-.2,2.8-.5l.3,1.3c-.6.3-1.8.6-3.4.6-3.1,0-5-2.1-5-5.1s1.8-5.5,4.8-5.5,4.2,2.9,4.2,4.8,0,.7,0,.9h-7.1ZM199.4,237.5c0-1.2-.5-3-2.6-3s-2.7,1.7-2.8,3h5.4,0Z"/>
    <path class="cls-4" d="M203.5,236.7c0-1.3,0-2.4,0-3.3h1.7v1.7h.1c.8-1.2,1.9-2,3.6-2,2.5,0,4.3,2.1,4.3,5.2s-2.2,5.5-4.6,5.5-2.5-.6-3.1-1.6h0v5.5h-1.8v-11h0ZM205.4,239.4c0,.3,0,.5,0,.8.3,1.3,1.4,2.2,2.8,2.2,1.9,0,3.1-1.6,3.1-3.9s-1.1-3.8-3-3.8-2.4.9-2.8,2.3c0,.2-.1.5-.1.8v1.7Z"/>
    <path class="cls-4" d="M217.7,230.5v2.9h2.6v1.4h-2.6v5.5c0,1.3.4,2,1.4,2s.8,0,1.1-.1v1.4c-.3.1-.8.2-1.6.2s-1.6-.3-2-.8c-.5-.6-.7-1.4-.7-2.6v-5.5h-1.6v-1.4h1.6v-2.4l1.8-.5h0Z"/>
    <path class="cls-4" d="M222.4,228.7h1.9v6.3h0c.3-.5.8-1,1.3-1.3.6-.3,1.2-.5,1.9-.5,1.4,0,3.6.8,3.6,4.4v6.1h-1.9v-5.8c0-1.6-.6-3-2.4-3s-2.1.8-2.5,1.9c-.1.2-.1.5-.1.9v6.1h-1.9v-14.9h0Z"/>
    <path class="cls-4" d="M247.7,238.4c0,3.8-2.6,5.4-5.1,5.4s-4.9-2-4.9-5.2,2.2-5.4,5-5.4,4.9,2.1,4.9,5.2ZM239.7,238.5c0,2.2,1.3,3.9,3.1,3.9s3.1-1.7,3.1-3.9-.9-3.9-3-3.9-3.1,2-3.1,3.9h0Z"/>
    <path class="cls-4" d="M250.2,243.6v-8.8h-1.4v-1.4h1.4v-.5c0-1.4.3-2.7,1.2-3.6.7-.7,1.6-.9,2.5-.9s1.2.1,1.6.3l-.2,1.4c-.3-.1-.6-.2-1.2-.2-1.6,0-2,1.4-2,2.9v.6h2.5v1.4h-2.5v8.8h-1.8Z"/>
    <path class="cls-4" d="M260.6,228.7h1.9v6.3h0c.3-.5.8-1,1.3-1.3.5-.3,1.2-.5,1.9-.5,1.4,0,3.5.8,3.5,4.4v6.1h-1.9v-5.8c0-1.6-.6-3-2.4-3s-2.1.8-2.5,1.9c-.1.2-.1.5-.1.9v6.1h-1.9v-14.9h0Z"/>
    <path class="cls-4" d="M273.3,238.8c0,2.5,1.6,3.5,3.5,3.5s2.1-.2,2.8-.5l.3,1.3c-.6.3-1.8.6-3.4.6-3.1,0-5-2.1-5-5.1s1.8-5.5,4.8-5.5,4.2,2.9,4.2,4.8,0,.7,0,.9h-7.1,0ZM278.7,237.5c0-1.2-.5-3-2.6-3s-2.7,1.7-2.8,3h5.4,0Z"/>
    <path class="cls-4" d="M282.8,236.6c0-1.2,0-2.2,0-3.2h1.6v2h.1c.5-1.4,1.6-2.2,2.8-2.2s.4,0,.5,0v1.7c-.2,0-.4,0-.6,0-1.3,0-2.2,1-2.5,2.4,0,.2,0,.6,0,.9v5.4h-1.8v-7h0Z"/>
    <path class="cls-4" d="M303.3,238.4c0,3.8-2.6,5.4-5.1,5.4s-4.9-2-4.9-5.2,2.2-5.4,5-5.4,4.9,2.1,4.9,5.2h0ZM295.3,238.5c0,2.2,1.3,3.9,3.1,3.9s3.1-1.7,3.1-3.9-.9-3.9-3-3.9-3.1,2-3.1,3.9h0Z"/>
    <path class="cls-4" d="M306.2,233.4l1.3,5.2c.3,1.1.6,2.2.8,3.2h0c.2-1,.6-2.1.9-3.2l1.7-5.2h1.5l1.6,5.1c.4,1.2.7,2.3.9,3.3h0c.2-1,.4-2.1.8-3.3l1.5-5.1h1.8l-3.3,10.2h-1.7l-1.5-4.9c-.4-1.1-.6-2.1-.9-3.3h0c-.2,1.2-.6,2.3-.9,3.4l-1.6,4.8h-1.7l-3.1-10.2h1.9Z"/>
    <path class="cls-4" d="M321,236.2c0-1.1,0-1.9,0-2.8h1.6v1.7h.1c.5-1,1.7-1.9,3.4-1.9s3.6.8,3.6,4.3v6.1h-1.9v-5.9c0-1.6-.6-3-2.4-3s-2.2.9-2.5,1.9c0,.2-.1.6-.1.9v6.1h-1.9v-7.4h0Z"/>
    <path class="cls-4" d="M337.1,236.7c0-1.3,0-2.4,0-3.3h1.7v1.7h.1c.8-1.2,2-2,3.6-2,2.5,0,4.3,2.1,4.3,5.2s-2.2,5.5-4.6,5.5-2.5-.6-3.1-1.6h0v5.5h-1.8v-11h0ZM338.9,239.4c0,.3,0,.5,0,.8.3,1.3,1.5,2.2,2.8,2.2,2,0,3.1-1.6,3.1-3.9s-1.1-3.8-3-3.8-2.4.9-2.8,2.3c0,.2-.1.5-.1.8v1.7h0Z"/>
    <path class="cls-4" d="M348.8,241.7c.5.4,1.5.7,2.4.7,1.3,0,2-.7,2-1.5s-.5-1.4-1.9-1.9c-1.8-.6-2.7-1.7-2.7-2.9s1.3-3,3.5-3,1.9.3,2.5.6l-.5,1.3c-.4-.2-1.1-.6-2.1-.6s-1.7.6-1.7,1.4.6,1.2,1.9,1.7c1.8.7,2.7,1.6,2.7,3.1s-1.4,3-3.8,3-2.1-.3-2.9-.7l.5-1.4h0Z"/>
    <path class="cls-4" d="M358,233.4l2.2,6c.2.7.5,1.5.6,2.1h0c.2-.6.4-1.4.6-2.1l2-6h2l-2.8,7.2c-1.3,3.5-2.2,5.3-3.5,6.4-.9.8-1.8,1.1-2.3,1.2l-.5-1.6c.5-.1,1.1-.4,1.6-.9.5-.4,1.1-1.1,1.5-2.1,0-.2.1-.3.1-.4s0-.2-.1-.5l-3.8-9.4h2Z"/>
    <path class="cls-4" d="M374.3,243.2c-.5.2-1.5.6-2.9.6-3.1,0-5.1-2.1-5.1-5.2s2.1-5.4,5.5-5.4,2.1.3,2.6.5l-.4,1.4c-.4-.2-1.1-.5-2.1-.5-2.3,0-3.6,1.7-3.6,3.8s1.5,3.8,3.5,3.8,1.7-.3,2.3-.5l.3,1.4h0Z"/>
    <path class="cls-4" d="M376.4,228.7h1.9v6.3h0c.3-.5.8-1,1.3-1.3.5-.3,1.2-.5,1.9-.5,1.4,0,3.5.8,3.5,4.4v6.1h-1.9v-5.8c0-1.6-.6-3-2.4-3s-2.1.8-2.5,1.9c-.1.2-.1.5-.1.9v6.1h-1.9v-14.9h0Z"/>
    <path class="cls-4" d="M389.1,238.8c0,2.5,1.6,3.5,3.5,3.5s2.1-.2,2.8-.5l.3,1.3c-.6.3-1.8.6-3.4.6-3.1,0-5-2.1-5-5.1s1.8-5.5,4.8-5.5,4.2,2.9,4.2,4.8,0,.7,0,.9h-7.1,0ZM394.5,237.5c0-1.2-.5-3-2.6-3s-2.7,1.7-2.8,3h5.4,0Z"/>
    <path class="cls-4" d="M55.3,258.6l1.3,5.2c.3,1.1.6,2.2.8,3.2h0c.2-1,.6-2.1.9-3.2l1.7-5.2h1.5l1.6,5.1c.4,1.2.7,2.3.9,3.3h0c.2-1,.4-2.1.8-3.3l1.4-5.1h1.8l-3.3,10.2h-1.7l-1.5-4.9c-.4-1.1-.7-2.1-.9-3.3h0c-.2,1.2-.6,2.3-.9,3.4l-1.6,4.8h-1.7l-3.1-10.2h1.9Z"/>
    <path class="cls-4" d="M70,253.9h1.8v6.3h0c.3-.5.8-1,1.3-1.3.6-.3,1.2-.5,1.9-.5,1.4,0,3.6.8,3.6,4.4v6h-1.8v-5.8c0-1.6-.6-3-2.3-3s-2.1.8-2.5,1.9c0,.2-.1.5-.1.9v6.1h-1.8v-14.9h0Z"/>
    <path class="cls-4" d="M83.7,255.8c0,.6-.4,1.1-1.2,1.1s-1.1-.5-1.1-1.1.5-1.1,1.2-1.1,1.1.5,1.1,1.1h0ZM81.6,268.8v-10.2h1.8v10.2h-1.8Z"/>
    <path class="cls-4" d="M93.8,268.4c-.5.2-1.6.6-2.9.6-3.1,0-5.1-2.1-5.1-5.2s2.1-5.4,5.5-5.4,2.1.3,2.6.5l-.4,1.4c-.4-.2-1.1-.5-2.1-.5-2.3,0-3.6,1.7-3.6,3.8s1.5,3.8,3.5,3.8,1.7-.3,2.3-.5l.3,1.4h0Z"/>
    <path class="cls-4" d="M96,253.9h1.8v6.3h0c.3-.5.8-1,1.3-1.3.6-.3,1.2-.5,1.9-.5,1.4,0,3.6.8,3.6,4.4v6h-1.8v-5.8c0-1.6-.6-3-2.3-3s-2.1.8-2.5,1.9c0,.2-.1.5-.1.9v6.1h-1.8v-14.9h0Z"/>
    <path class="cls-4" d="M114.1,255.8c0,.6-.4,1.1-1.2,1.1s-1.1-.5-1.1-1.1.5-1.1,1.2-1.1,1.1.5,1.1,1.1h0ZM112.1,268.8v-10.2h1.8v10.2h-1.8Z"/>
    <path class="cls-4" d="M116.7,266.9c.6.4,1.5.7,2.4.7,1.3,0,2-.7,2-1.5s-.5-1.4-1.9-1.9c-1.8-.6-2.7-1.7-2.7-2.9s1.3-3,3.5-3,1.9.3,2.5.6l-.5,1.3c-.4-.2-1.1-.6-2.1-.6s-1.7.6-1.7,1.4.6,1.2,1.9,1.7c1.8.7,2.7,1.5,2.7,3.1s-1.4,3-3.8,3-2.1-.3-2.9-.7l.5-1.4h0Z"/>
    <path class="cls-4" d="M135.4,268.8v-1.3h-.2c-.6.8-1.7,1.5-3.1,1.5-2.1,0-3.1-1.5-3.1-2.9,0-2.5,2.2-3.8,6.1-3.8v-.2c0-.8-.2-2.4-2.3-2.4s-1.9.3-2.6.8l-.4-1.2c.8-.5,2.1-.9,3.3-.9,3.1,0,3.9,2.1,3.9,4.2v3.8c0,.9,0,1.7.2,2.4h-1.7,0ZM135.1,263.6c-2,0-4.3.3-4.3,2.3s.8,1.8,1.7,1.8,2.2-.8,2.5-1.7c0-.2.1-.4.1-.6v-1.8h0Z"/>
    <path class="cls-4" d="M139.9,253.9h1.9v14.9h-1.9v-14.9h0Z"/>
    <path class="cls-4" d="M145.6,258.6l1.3,5.2c.3,1.1.6,2.2.8,3.2h0c.2-1,.6-2.1.9-3.2l1.7-5.2h1.6l1.6,5.1c.4,1.2.7,2.3.9,3.3h0c.2-1,.4-2.1.8-3.3l1.4-5.1h1.8l-3.3,10.2h-1.7l-1.6-4.9c-.4-1.1-.6-2.1-.9-3.3h0c-.2,1.2-.6,2.3-.9,3.4l-1.6,4.8h-1.7l-3.1-10.2h1.9Z"/>
    <path class="cls-4" d="M165.8,268.8v-1.3h-.2c-.6.8-1.7,1.5-3.1,1.5-2.1,0-3.1-1.5-3.1-2.9,0-2.5,2.2-3.8,6.1-3.8v-.2c0-.8-.2-2.4-2.3-2.4s-1.9.3-2.6.8l-.4-1.2c.8-.5,2.1-.9,3.3-.9,3.1,0,3.9,2.1,3.9,4.2v3.8c0,.9,0,1.7.2,2.4h-1.7,0ZM165.6,263.6c-2,0-4.3.3-4.3,2.3s.8,1.8,1.7,1.8,2.2-.8,2.5-1.7c0-.2.1-.4.1-.6v-1.8h0Z"/>
    <path class="cls-4" d="M170.8,258.6l2.2,6c.2.7.5,1.5.6,2.1h0c.2-.6.4-1.4.6-2.1l2-6h1.9l-2.8,7.2c-1.3,3.5-2.2,5.3-3.5,6.4-.9.8-1.8,1.1-2.3,1.2l-.5-1.5c.5-.1,1.1-.4,1.6-.9.5-.4,1.1-1.1,1.6-2.1,0-.2.1-.3.1-.4s0-.2-.1-.5l-3.8-9.4h2Z"/>
    <path class="cls-4" d="M179.7,266.9c.6.4,1.5.7,2.4.7,1.3,0,2-.7,2-1.5s-.5-1.4-1.9-1.9c-1.8-.6-2.7-1.7-2.7-2.9s1.3-3,3.5-3,1.9.3,2.5.6l-.5,1.3c-.4-.2-1.1-.6-2.1-.6s-1.7.6-1.7,1.4.6,1.2,1.9,1.7c1.8.7,2.7,1.5,2.7,3.1s-1.4,3-3.8,3-2.1-.3-2.9-.7l.5-1.4h0Z"/>
    <path class="cls-4" d="M198.3,268.8v-1.3h-.2c-.6.8-1.7,1.5-3.1,1.5-2.1,0-3.1-1.5-3.1-2.9,0-2.5,2.2-3.8,6.1-3.8v-.2c0-.8-.2-2.4-2.3-2.4s-1.9.3-2.6.8l-.4-1.2c.8-.5,2.1-.9,3.3-.9,3.1,0,3.9,2.1,3.9,4.2v3.8c0,.9,0,1.7.2,2.4h-1.7,0ZM198,263.6c-2,0-4.3.3-4.3,2.3s.8,1.8,1.7,1.8,2.2-.8,2.5-1.7c0-.2.1-.4.1-.6v-1.8h0Z"/>
    <path class="cls-4" d="M214.5,268.4c-.5.2-1.6.6-2.9.6-3.1,0-5.1-2.1-5.1-5.2s2.1-5.4,5.5-5.4,2.1.3,2.6.5l-.4,1.4c-.4-.2-1.1-.5-2.1-.5-2.3,0-3.6,1.7-3.6,3.8s1.5,3.8,3.5,3.8,1.7-.3,2.3-.5l.3,1.4h0Z"/>
    <path class="cls-4" d="M225.7,263.6c0,3.8-2.6,5.4-5.1,5.4s-4.9-2-4.9-5.2,2.2-5.4,5-5.4,4.9,2.1,4.9,5.2ZM217.7,263.7c0,2.2,1.3,3.9,3.1,3.9s3.1-1.7,3.1-4-.9-3.9-3-3.9-3.1,2-3.1,4h0Z"/>
    <path class="cls-4" d="M228.1,261.4c0-1,0-1.9,0-2.8h1.6v1.7h.1c.5-1,1.7-1.9,3.4-1.9s3.6.8,3.6,4.3v6.1h-1.9v-5.9c0-1.6-.6-3-2.4-3s-2.2.9-2.5,1.9c0,.2-.1.5-.1.9v6.1h-1.9v-7.4h0Z"/>
    <path class="cls-4" d="M241.9,255.7v2.9h2.6v1.4h-2.6v5.5c0,1.3.4,2,1.4,2s.8,0,1.1-.1v1.4c-.3.1-.8.2-1.6.2s-1.6-.3-2-.8c-.5-.5-.7-1.5-.7-2.6v-5.5h-1.6v-1.4h1.6v-2.4l1.8-.5h0Z"/>
    <path class="cls-4" d="M248.6,255.8c0,.6-.4,1.1-1.2,1.1s-1.1-.5-1.1-1.1.5-1.1,1.1-1.1,1.1.5,1.1,1.1h0ZM246.6,268.8v-10.2h1.9v10.2h-1.9Z"/>
    <path class="cls-4" d="M251.5,261.4c0-1,0-1.9,0-2.8h1.6v1.7h.1c.5-1,1.7-1.9,3.4-1.9s3.6.8,3.6,4.3v6.1h-1.9v-5.9c0-1.6-.6-3-2.4-3s-2.2.9-2.5,1.9c0,.2-.1.5-.1.9v6.1h-1.9v-7.4h0Z"/>
    <path class="cls-4" d="M265.2,255.8c0,.6-.4,1.1-1.2,1.1s-1.1-.5-1.1-1.1.5-1.1,1.1-1.1,1.1.5,1.1,1.1h0ZM263.2,268.8v-10.2h1.9v10.2h-1.9Z"/>
    <path class="cls-4" d="M276.6,266c0,1,0,2,0,2.8h-1.6v-1.7h-.1c-.5.8-1.5,1.9-3.4,1.9s-3.5-.9-3.5-4.5v-5.9h1.9v5.6c0,1.9.6,3.2,2.3,3.2s2.1-.9,2.4-1.7c.1-.3.2-.6.2-.9v-6.2h1.9v7.4h0Z"/>
    <path class="cls-4" d="M279.6,261.4c0-1,0-1.9,0-2.8h1.6v1.6h.1c.6-1,1.5-1.9,3.2-1.9s2.4.8,2.9,2h0c.3-.6.7-1,1.1-1.3.6-.5,1.3-.7,2.2-.7s3.3.9,3.3,4.4v6h-1.8v-5.8c0-2-.7-3.1-2.2-3.1s-1.9.8-2.2,1.7c0,.2-.1.6-.1.9v6.3h-1.8v-6.1c0-1.6-.7-2.8-2.1-2.8s-2,.9-2.3,1.9c-.1.3-.1.6-.1.9v6.1h-1.8v-7.4h0Z"/>
    <path class="cls-4" d="M307.2,268.8v-1.3h-.2c-.6.8-1.7,1.5-3.1,1.5-2.1,0-3.1-1.5-3.1-2.9,0-2.5,2.2-3.8,6.1-3.8v-.2c0-.8-.2-2.4-2.3-2.4s-1.9.3-2.6.8l-.4-1.2c.8-.5,2.1-.9,3.3-.9,3.1,0,3.9,2.1,3.9,4.2v3.8c0,.9,0,1.7.2,2.4h-1.7,0ZM307,263.6c-2,0-4.3.3-4.3,2.3s.8,1.8,1.7,1.8,2.2-.8,2.5-1.7c0-.2.1-.4.1-.6v-1.8Z"/>
    <path class="cls-4" d="M311.5,266.9c.5.4,1.5.7,2.4.7,1.3,0,2-.7,2-1.5s-.5-1.4-1.9-1.9c-1.8-.6-2.7-1.7-2.7-2.9s1.3-3,3.5-3,1.9.3,2.5.6l-.5,1.3c-.4-.2-1.1-.6-2.1-.6s-1.7.6-1.7,1.4.6,1.2,1.9,1.7c1.8.7,2.7,1.5,2.7,3.1s-1.4,3-3.8,3-2.1-.3-2.9-.7l.5-1.4h0Z"/>
    <path class="cls-4" d="M324.2,266.9c.5.4,1.5.7,2.4.7,1.3,0,2-.7,2-1.5s-.5-1.4-1.9-1.9c-1.8-.6-2.7-1.7-2.7-2.9s1.3-3,3.5-3,1.9.3,2.5.6l-.5,1.3c-.4-.2-1.1-.6-2.1-.6s-1.7.6-1.7,1.4.6,1.2,1.9,1.7c1.8.7,2.7,1.5,2.7,3.1s-1.4,3-3.8,3-2.1-.3-2.9-.7l.5-1.4h0Z"/>
    <path class="cls-4" d="M332.8,253.9h1.9v6.3h0c.3-.5.8-1,1.3-1.3.5-.3,1.2-.5,1.9-.5,1.4,0,3.5.8,3.5,4.4v6h-1.9v-5.8c0-1.6-.6-3-2.4-3s-2.1.8-2.5,1.9c-.1.2-.1.5-.1.9v6.1h-1.9v-14.9h0Z"/>
    <path class="cls-4" d="M345.5,264c0,2.5,1.6,3.5,3.5,3.5s2.1-.2,2.8-.5l.3,1.3c-.6.3-1.8.6-3.4.6-3.1,0-5-2.1-5-5.1s1.8-5.5,4.8-5.5,4.2,2.9,4.2,4.8,0,.7,0,.9h-7.1,0ZM350.9,262.7c0-1.2-.5-3-2.6-3s-2.7,1.7-2.8,3h5.4,0Z"/>
    <path class="cls-4" d="M359.2,266.9c.5.4,1.5.7,2.4.7,1.3,0,2-.7,2-1.5s-.5-1.4-1.9-1.9c-1.8-.6-2.7-1.7-2.7-2.9s1.3-3,3.5-3,1.9.3,2.5.6l-.5,1.3c-.4-.2-1.1-.6-2.1-.6s-1.7.6-1.7,1.4.6,1.2,1.9,1.7c1.8.7,2.7,1.5,2.7,3.1s-1.4,3-3.8,3-2.1-.3-2.9-.7l.5-1.4h0Z"/>
    <path class="cls-4" d="M373.4,268.8v-1.3h-.2c-.6.8-1.7,1.5-3.1,1.5-2.1,0-3.1-1.5-3.1-2.9,0-2.5,2.2-3.8,6.1-3.8v-.2c0-.8-.2-2.4-2.3-2.4s-1.9.3-2.6.8l-.4-1.2c.8-.5,2.1-.9,3.3-.9,3.1,0,3.9,2.1,3.9,4.2v3.8c0,.9,0,1.7.2,2.4h-1.7,0ZM373.1,263.6c-2,0-4.3.3-4.3,2.3s.8,1.8,1.7,1.8,2.2-.8,2.5-1.7c0-.2.1-.4.1-.6v-1.8Z"/>
    <path class="cls-4" d="M379.9,255.8c0,.6-.4,1.1-1.2,1.1s-1.1-.5-1.1-1.1.5-1.1,1.1-1.1,1.1.5,1.1,1.1h0ZM377.9,268.8v-10.2h1.9v10.2h-1.9Z"/>
    <path class="cls-4" d="M391.6,253.9v12.3c0,.9,0,1.9,0,2.6h-1.7v-1.8h-.1c-.6,1.1-1.8,2-3.5,2-2.5,0-4.4-2.1-4.4-5.2,0-3.4,2.1-5.5,4.6-5.5s2.6.7,3.1,1.5h0v-6.1h1.9,0ZM389.7,262.8c0-.2,0-.5,0-.8-.3-1.2-1.3-2.1-2.7-2.1s-3,1.7-3,3.9,1,3.8,3,3.8,2.4-.8,2.7-2.2c0-.2,0-.5,0-.8v-1.8h0Z"/>
    <path class="cls-4" d="M393.2,271.4c.5-1.2,1-3.5,1.3-5l2.1-.2c-.5,1.8-1.4,4.1-2,5.1h-1.3c0,.1,0,.1,0,.1Z"/>
    <path class="cls-4" d="M54.5,279.1h1.8v6.3h0c.3-.5.8-1,1.3-1.3.5-.3,1.2-.5,1.9-.5,1.4,0,3.5.8,3.5,4.4v6h-1.8v-5.8c0-1.6-.6-3-2.3-3s-2.1.8-2.5,1.9c0,.2-.1.5-.1.9v6.1h-1.8v-14.9h0Z"/>
    <path class="cls-4" d="M67.2,289.2c0,2.5,1.6,3.5,3.5,3.5s2.1-.2,2.8-.5l.3,1.3c-.7.3-1.8.6-3.4.6-3.1,0-5-2.1-5-5.1s1.8-5.5,4.8-5.5,4.2,2.9,4.2,4.8,0,.7,0,.9h-7.1,0ZM72.6,287.9c0-1.2-.5-3-2.6-3s-2.7,1.7-2.8,3h5.4,0Z"/>
    <path class="cls-4" d="M76.7,287c0-1.2,0-2.2,0-3.2h1.6v2h.1c.5-1.4,1.6-2.2,2.8-2.2s.4,0,.5,0v1.7c-.2,0-.4,0-.6,0-1.3,0-2.2,1-2.5,2.4,0,.2,0,.5,0,.9v5.4h-1.8v-7h0Z"/>
    <path class="cls-4" d="M93.7,294l-.2-1.3h0c-.6.8-1.7,1.5-3.1,1.5-2.1,0-3.1-1.5-3.1-2.9,0-2.5,2.2-3.8,6.1-3.8v-.2c0-.8-.2-2.4-2.3-2.4s-1.9.3-2.7.8l-.4-1.2c.8-.5,2.1-.9,3.3-.9,3.1,0,3.9,2.1,3.9,4.2v3.8c0,.9,0,1.7.2,2.4h-1.7,0ZM93.4,288.8c-2,0-4.3.3-4.3,2.3s.8,1.8,1.7,1.8,2.2-.8,2.5-1.7c0-.2,0-.4,0-.6,0,0,0-1.8,0-1.8Z"/>
    <path class="cls-4" d="M98.2,287c0-1.2,0-2.2,0-3.2h1.6v2h.1c.5-1.4,1.6-2.2,2.8-2.2s.4,0,.5,0v1.7c-.2,0-.4,0-.6,0-1.3,0-2.2,1-2.5,2.4,0,.2,0,.5,0,.9v5.4h-1.8v-7h0Z"/>
    <path class="cls-4" d="M107.8,280.9v2.9h2.7v1.4h-2.7v5.5c0,1.3.4,2,1.4,2s.8,0,1.1-.1v1.4c-.3.1-.8.2-1.6.2s-1.6-.3-2-.8c-.5-.5-.7-1.5-.7-2.6v-5.5h-1.6v-1.4h1.6v-2.4l1.8-.5h0Z"/>
    <path class="cls-4" d="M113.4,283.8l1.3,5.2c.3,1.1.6,2.2.8,3.2h0c.2-1,.6-2.1.9-3.2l1.7-5.2h1.6l1.6,5.1c.4,1.2.7,2.3.9,3.3h0c.2-1,.4-2.1.8-3.3l1.4-5.1h1.8l-3.3,10.2h-1.7l-1.6-4.9c-.4-1.1-.7-2.1-.9-3.3h0c-.2,1.2-.6,2.3-.9,3.4l-1.6,4.8h-1.7l-3.1-10.2h1.9Z"/>
    <path class="cls-4" d="M137.1,288.8c0,3.8-2.6,5.4-5.1,5.4s-4.9-2-4.9-5.2,2.2-5.4,5-5.4,4.9,2.1,4.9,5.2ZM129,288.9c0,2.2,1.3,3.9,3.1,3.9s3.1-1.7,3.1-4-.9-3.9-3-3.9-3.1,2-3.1,4h0Z"/>
    <path class="cls-4" d="M139.4,287c0-1.2,0-2.2,0-3.2h1.6v2h.1c.5-1.4,1.6-2.2,2.8-2.2s.4,0,.5,0v1.7c-.2,0-.4,0-.6,0-1.3,0-2.2,1-2.5,2.4,0,.2,0,.5,0,.9v5.4h-1.8v-7h0Z"/>
    <path class="cls-4" d="M148.2,288.5h0c.2-.4.6-.8.9-1.1l3-3.5h2.2l-3.9,4.2,4.5,6h-2.2l-3.5-4.9-.9,1v3.8h-1.8v-14.9h1.8v9.4h0Z"/>
    <path class="cls-4" d="M162.7,281c0,.6-.4,1.1-1.2,1.1s-1.1-.5-1.1-1.1.5-1.1,1.1-1.1,1.1.5,1.1,1.1h0ZM160.7,294v-10.2h1.9v10.2h-1.9Z"/>
    <path class="cls-4" d="M165.4,292.1c.6.4,1.5.7,2.4.7,1.3,0,2-.7,2-1.5s-.5-1.4-1.9-1.9c-1.8-.6-2.7-1.7-2.7-2.9s1.3-3,3.5-3,1.9.3,2.5.6l-.5,1.3c-.4-.2-1.1-.6-2.1-.6s-1.7.6-1.7,1.4.6,1.2,1.9,1.7c1.8.7,2.7,1.5,2.7,3.1s-1.4,3-3.8,3-2.1-.3-2.9-.7l.5-1.4h0Z"/>
    <path class="cls-4" d="M184,294v-1.3h-.2c-.6.8-1.7,1.5-3.1,1.5-2.1,0-3.1-1.5-3.1-2.9,0-2.5,2.2-3.8,6.1-3.8v-.2c0-.8-.2-2.4-2.3-2.4s-1.9.3-2.6.8l-.4-1.2c.8-.5,2.1-.9,3.3-.9,3.1,0,3.9,2.1,3.9,4.2v3.8c0,.9,0,1.7.2,2.4h-1.7,0ZM183.7,288.8c-2,0-4.3.3-4.3,2.3s.8,1.8,1.7,1.8,2.2-.8,2.5-1.7c0-.2.1-.4.1-.6v-1.8h0Z"/>
    <path class="cls-4" d="M192.9,287c0-1.2,0-2.2,0-3.2h1.6v2h.1c.5-1.4,1.6-2.2,2.8-2.2s.4,0,.5,0v1.7c-.2,0-.4,0-.6,0-1.3,0-2.2,1-2.5,2.4,0,.2,0,.5,0,.9v5.4h-1.8v-7h0Z"/>
    <path class="cls-4" d="M200.6,289.2c0,2.5,1.6,3.5,3.5,3.5s2.1-.2,2.8-.5l.3,1.3c-.6.3-1.8.6-3.4.6-3.1,0-5-2.1-5-5.1s1.8-5.5,4.8-5.5,4.2,2.9,4.2,4.8,0,.7,0,.9h-7.1ZM206,287.9c0-1.2-.5-3-2.6-3s-2.7,1.7-2.8,3h5.4,0Z"/>
    <path class="cls-4" d="M210.1,287.1c0-1.3,0-2.4,0-3.3h1.7v1.7h.1c.8-1.2,1.9-2,3.6-2,2.5,0,4.3,2.1,4.3,5.2s-2.2,5.5-4.6,5.5-2.5-.6-3.1-1.6h0v5.5h-1.8v-11h0ZM211.9,289.8c0,.3,0,.5,0,.8.3,1.3,1.4,2.2,2.8,2.2,1.9,0,3.1-1.6,3.1-3.9s-1.1-3.8-3-3.8-2.4.9-2.8,2.3c0,.2-.1.5-.1.8v1.7h0Z"/>
    <path class="cls-4" d="M222.1,287c0-1.2,0-2.2,0-3.2h1.6v2h.1c.5-1.4,1.6-2.2,2.8-2.2s.4,0,.5,0v1.7c-.2,0-.4,0-.6,0-1.3,0-2.2,1-2.5,2.4,0,.2,0,.5,0,.9v5.4h-1.8v-7h0Z"/>
    <path class="cls-4" d="M229.8,289.2c0,2.5,1.6,3.5,3.5,3.5s2.1-.2,2.8-.5l.3,1.3c-.6.3-1.8.6-3.4.6-3.1,0-5-2.1-5-5.1s1.8-5.5,4.8-5.5,4.2,2.9,4.2,4.8,0,.7,0,.9h-7.1ZM235.2,287.9c0-1.2-.5-3-2.6-3s-2.7,1.7-2.8,3h5.4,0Z"/>
    <path class="cls-4" d="M239,292.1c.6.4,1.5.7,2.4.7,1.3,0,2-.7,2-1.5s-.5-1.4-1.9-1.9c-1.8-.6-2.7-1.7-2.7-2.9s1.3-3,3.5-3,1.9.3,2.5.6l-.5,1.3c-.4-.2-1.1-.6-2.1-.6s-1.7.6-1.7,1.4.6,1.2,1.9,1.7c1.8.7,2.7,1.5,2.7,3.1s-1.4,3-3.8,3-2.1-.3-2.9-.7l.5-1.4h0Z"/>
    <path class="cls-4" d="M248.6,289.2c0,2.5,1.6,3.5,3.5,3.5s2.1-.2,2.8-.5l.3,1.3c-.6.3-1.8.6-3.4.6-3.1,0-5-2.1-5-5.1s1.8-5.5,4.8-5.5,4.2,2.9,4.2,4.8,0,.7,0,.9h-7.1ZM254,287.9c0-1.2-.5-3-2.6-3s-2.7,1.7-2.8,3h5.4,0Z"/>
    <path class="cls-4" d="M258.1,286.6c0-1,0-1.9,0-2.8h1.6v1.7h.1c.5-1,1.7-1.9,3.4-1.9s3.6.8,3.6,4.3v6.1h-1.9v-5.9c0-1.6-.6-3-2.4-3s-2.2.9-2.5,1.9c0,.2-.1.5-.1.9v6.1h-1.9v-7.4h0Z"/>
    <path class="cls-4" d="M271.9,280.9v2.9h2.6v1.4h-2.6v5.5c0,1.3.4,2,1.4,2s.8,0,1.1-.1v1.4c-.3.1-.8.2-1.6.2s-1.5-.3-2-.8c-.5-.5-.7-1.5-.7-2.6v-5.5h-1.6v-1.4h1.6v-2.4l1.8-.5h0Z"/>
    <path class="cls-4" d="M282.2,294v-1.3h-.2c-.6.8-1.7,1.5-3.1,1.5-2.1,0-3.1-1.5-3.1-2.9,0-2.5,2.2-3.8,6.1-3.8v-.2c0-.8-.2-2.4-2.3-2.4s-1.9.3-2.6.8l-.4-1.2c.8-.5,2.1-.9,3.3-.9,3.1,0,3.9,2.1,3.9,4.2v3.8c0,.9,0,1.7.2,2.4h-1.7,0ZM282,288.8c-2,0-4.3.3-4.3,2.3s.8,1.8,1.7,1.8,2.2-.8,2.5-1.7c0-.2.1-.4.1-.6v-1.8Z"/>
    <path class="cls-4" d="M288.9,280.9v2.9h2.6v1.4h-2.6v5.5c0,1.3.4,2,1.4,2s.8,0,1.1-.1v1.4c-.3.1-.8.2-1.6.2s-1.5-.3-2-.8c-.5-.5-.7-1.5-.7-2.6v-5.5h-1.6v-1.4h1.6v-2.4l1.8-.5h0Z"/>
    <path class="cls-4" d="M295.6,281c0,.6-.4,1.1-1.2,1.1s-1.1-.5-1.1-1.1.5-1.1,1.1-1.1,1.1.5,1.1,1.1h0ZM293.6,294v-10.2h1.9v10.2h-1.9Z"/>
    <path class="cls-4" d="M307.7,288.8c0,3.8-2.6,5.4-5.1,5.4s-4.9-2-4.9-5.2,2.2-5.4,5-5.4,4.9,2.1,4.9,5.2h0ZM299.6,288.9c0,2.2,1.3,3.9,3.1,3.9s3.1-1.7,3.1-4-.9-3.9-3-3.9-3.1,2-3.1,4h0Z"/>
    <path class="cls-4" d="M310,286.6c0-1,0-1.9,0-2.8h1.6v1.7h.1c.5-1,1.7-1.9,3.4-1.9s3.6.8,3.6,4.3v6.1h-1.9v-5.9c0-1.6-.6-3-2.4-3s-2.2.9-2.5,1.9c0,.2-.1.5-.1.9v6.1h-1.9v-7.4h0Z"/>
    <path class="cls-4" d="M335.3,288.8c0,3.8-2.6,5.4-5.1,5.4s-4.9-2-4.9-5.2,2.2-5.4,5-5.4,4.9,2.1,4.9,5.2h0ZM327.3,288.9c0,2.2,1.3,3.9,3.1,3.9s3.1-1.7,3.1-4-.9-3.9-3-3.9-3.1,2-3.1,4h0Z"/>
    <path class="cls-4" d="M337.9,294v-8.8h-1.4v-1.4h1.4v-.5c0-1.4.3-2.7,1.2-3.5.7-.7,1.6-.9,2.5-.9s1.2.1,1.6.3l-.2,1.4c-.3-.1-.6-.2-1.2-.2-1.6,0-2,1.4-2,2.9v.5h2.5v1.4h-2.5v8.8h-1.8Z"/>
    <path class="cls-4" d="M349,283.8l1.3,5.2c.3,1.1.6,2.2.8,3.2h0c.2-1,.6-2.1.9-3.2l1.7-5.2h1.5l1.6,5.1c.4,1.2.7,2.3.9,3.3h0c.2-1,.4-2.1.8-3.3l1.5-5.1h1.8l-3.3,10.2h-1.7l-1.5-4.9c-.4-1.1-.6-2.1-.9-3.3h0c-.2,1.2-.6,2.3-.9,3.4l-1.6,4.8h-1.7l-3.1-10.2h1.9Z"/>
    <path class="cls-4" d="M363.7,279.1h1.9v6.3h0c.3-.5.8-1,1.3-1.3.5-.3,1.2-.5,1.9-.5,1.4,0,3.5.8,3.5,4.4v6h-1.9v-5.8c0-1.6-.6-3-2.4-3s-2.1.8-2.5,1.9c-.1.2-.1.5-.1.9v6.1h-1.9v-14.9h0Z"/>
    <path class="cls-4" d="M381,294v-1.3h-.2c-.6.8-1.7,1.5-3.1,1.5-2.1,0-3.1-1.5-3.1-2.9,0-2.5,2.2-3.8,6.1-3.8v-.2c0-.8-.2-2.4-2.3-2.4s-1.9.3-2.6.8l-.4-1.2c.8-.5,2.1-.9,3.3-.9,3.1,0,3.9,2.1,3.9,4.2v3.8c0,.9,0,1.7.2,2.4h-1.7,0ZM380.7,288.8c-2,0-4.3.3-4.3,2.3s.8,1.8,1.7,1.8,2.2-.8,2.5-1.7c0-.2.1-.4.1-.6v-1.8Z"/>
    <path class="cls-4" d="M387.6,280.9v2.9h2.6v1.4h-2.6v5.5c0,1.3.4,2,1.4,2s.8,0,1.1-.1v1.4c-.3.1-.8.2-1.6.2s-1.5-.3-2-.8c-.5-.5-.7-1.5-.7-2.6v-5.5h-1.6v-1.4h1.6v-2.4l1.8-.5h0Z"/>
    <path class="cls-4" d="M55.3,309l1.3,5.2c.3,1.1.6,2.2.8,3.2h0c.2-1,.6-2.1.9-3.2l1.7-5.2h1.5l1.6,5.1c.4,1.2.7,2.3.9,3.3h0c.2-1,.4-2.1.8-3.3l1.4-5.1h1.8l-3.3,10.2h-1.7l-1.5-4.9c-.4-1.1-.7-2.1-.9-3.3h0c-.2,1.2-.6,2.3-.9,3.4l-1.6,4.8h-1.7l-3.1-10.2h1.9Z"/>
    <path class="cls-4" d="M75.5,319.2l-.2-1.3h0c-.6.8-1.7,1.5-3.1,1.5-2.1,0-3.1-1.5-3.1-2.9,0-2.5,2.2-3.8,6.1-3.8v-.2c0-.8-.2-2.4-2.3-2.4s-1.9.3-2.7.8l-.4-1.2c.8-.5,2.1-.9,3.3-.9,3.1,0,3.9,2.1,3.9,4.2v3.8c0,.9,0,1.7.2,2.4h-1.7,0ZM75.3,314c-2,0-4.3.3-4.3,2.3s.8,1.8,1.7,1.8,2.2-.8,2.5-1.7c0-.2,0-.4,0-.6,0,0,0-1.8,0-1.8Z"/>
    <path class="cls-4" d="M79.8,317.3c.6.4,1.5.7,2.4.7,1.3,0,2-.7,2-1.5s-.5-1.4-1.9-1.9c-1.8-.6-2.7-1.7-2.7-2.9s1.3-3,3.5-3,1.9.3,2.5.6l-.5,1.3c-.4-.2-1.1-.6-2.1-.6s-1.7.6-1.7,1.4.6,1.2,1.9,1.7c1.8.7,2.7,1.5,2.7,3.1s-1.4,3-3.8,3-2.1-.3-2.9-.7l.5-1.4h0Z"/>
    <path class="cls-4" d="M93,319.2v-8.8h-1.4v-1.4h1.4v-.5c0-1.4.3-2.7,1.2-3.5.7-.7,1.6-.9,2.5-.9s1.2.1,1.6.3l-.2,1.4c-.3-.1-.7-.2-1.2-.2-1.6,0-2,1.4-2,2.9v.5h2.5v1.4h-2.5v8.8h-1.8Z"/>
    <path class="cls-4" d="M107.8,314c0,3.8-2.6,5.4-5.1,5.4s-4.9-2-4.9-5.2,2.2-5.4,5-5.4,4.9,2.1,4.9,5.2ZM99.8,314.1c0,2.2,1.3,3.9,3.1,3.9s3.1-1.7,3.1-4-.9-3.9-3-3.9-3.1,2-3.1,4h0Z"/>
    <path class="cls-4" d="M118.7,316.4c0,1,0,2,0,2.8h-1.6v-1.7h-.1c-.5.8-1.6,1.9-3.4,1.9s-3.5-.9-3.5-4.5v-5.9h1.8v5.6c0,1.9.6,3.2,2.3,3.2s2.1-.9,2.4-1.7c0-.3.2-.6.2-.9v-6.2h1.8v7.4h0Z"/>
    <path class="cls-4" d="M121.8,311.8c0-1,0-1.9,0-2.8h1.6v1.7h.1c.5-1,1.7-1.9,3.4-1.9s3.6.8,3.6,4.3v6.1h-1.9v-5.9c0-1.6-.6-3-2.3-3s-2.2.9-2.5,1.9c0,.2-.1.5-.1.9v6.1h-1.8v-7.4h0Z"/>
    <path class="cls-4" d="M142.2,304.3v12.3c0,.9,0,1.9,0,2.6h-1.7v-1.8h-.1c-.6,1.1-1.8,2-3.5,2-2.5,0-4.4-2.1-4.4-5.2,0-3.4,2.1-5.5,4.6-5.5s2.6.7,3.1,1.5h0v-6.1h1.9,0ZM140.3,313.1c0-.2,0-.5,0-.8-.3-1.2-1.3-2.1-2.7-2.1s-3,1.7-3,3.9,1,3.8,3,3.8,2.4-.8,2.7-2.2c0-.2,0-.5,0-.8v-1.8h0Z"/>
    <path class="cls-4" d="M151.8,306.1c0,.6-.4,1.1-1.2,1.1s-1.1-.5-1.1-1.1.5-1.1,1.1-1.1,1.1.5,1.1,1.1h0ZM149.7,319.2v-10.2h1.9v10.2h-1.9Z"/>
    <path class="cls-4" d="M154.6,311.8c0-1,0-1.9,0-2.8h1.6v1.7h.1c.5-1,1.7-1.9,3.4-1.9s3.6.8,3.6,4.3v6.1h-1.9v-5.9c0-1.6-.6-3-2.4-3s-2.2.9-2.5,1.9c0,.2-.1.5-.1.9v6.1h-1.9v-7.4h0Z"/>
    <path class="cls-4" d="M171.4,309l2.2,6c.2.7.5,1.5.6,2.1h0c.2-.6.4-1.4.6-2.1l2-6h1.9l-2.8,7.2c-1.3,3.5-2.2,5.3-3.5,6.4-.9.8-1.8,1.1-2.3,1.2l-.5-1.5c.5-.1,1.1-.4,1.6-.9.5-.4,1.1-1.1,1.6-2.1,0-.2.1-.3.1-.4s0-.2-.1-.5l-3.8-9.4h2Z"/>
    <path class="cls-4" d="M181.4,314.4c0,2.5,1.6,3.5,3.5,3.5s2.1-.2,2.8-.5l.3,1.3c-.6.3-1.8.6-3.4.6-3.1,0-5-2.1-5-5.1s1.8-5.5,4.8-5.5,4.2,2.9,4.2,4.8,0,.7,0,.9h-7.1ZM186.9,313.1c0-1.2-.5-3-2.6-3s-2.7,1.7-2.8,3h5.4,0Z"/>
    <path class="cls-4" d="M196.6,319.2v-1.3h-.2c-.6.8-1.7,1.5-3.1,1.5-2.1,0-3.1-1.5-3.1-2.9,0-2.5,2.2-3.8,6.1-3.8v-.2c0-.8-.2-2.4-2.3-2.4s-1.9.3-2.6.8l-.4-1.2c.8-.5,2.1-.9,3.3-.9,3.1,0,3.9,2.1,3.9,4.2v3.8c0,.9,0,1.7.2,2.4h-1.7,0ZM196.3,314c-2,0-4.3.3-4.3,2.3s.8,1.8,1.7,1.8,2.2-.8,2.5-1.7c0-.2.1-.4.1-.6v-1.8h0Z"/>
    <path class="cls-4" d="M201.1,312.2c0-1.2,0-2.2,0-3.2h1.6v2h.1c.5-1.4,1.6-2.2,2.8-2.2s.4,0,.5,0v1.7c-.2,0-.4,0-.6,0-1.3,0-2.2,1-2.5,2.4,0,.2,0,.5,0,.9v5.4h-1.8v-7h0Z"/>
    <path class="cls-4" d="M207.7,317.3c.6.4,1.5.7,2.4.7,1.3,0,2-.7,2-1.5s-.5-1.4-1.9-1.9c-1.8-.6-2.7-1.7-2.7-2.9s1.3-3,3.5-3,1.9.3,2.5.6l-.5,1.3c-.4-.2-1.1-.6-2.1-.6s-1.7.6-1.7,1.4.6,1.2,1.9,1.7c1.8.7,2.7,1.5,2.7,3.1s-1.4,3-3.8,3-2.1-.3-2.9-.7l.5-1.4h0Z"/>
    <path class="cls-4" d="M222.9,306.1v2.9h2.6v1.4h-2.6v5.5c0,1.3.4,2,1.4,2s.8,0,1.1-.1v1.4c-.3.1-.8.2-1.6.2s-1.6-.3-2-.8c-.5-.5-.7-1.5-.7-2.6v-5.5h-1.6v-1.4h1.6v-2.4l1.8-.5h0Z"/>
    <path class="cls-4" d="M227.6,312.2c0-1.2,0-2.2,0-3.2h1.6v2h.1c.5-1.4,1.6-2.2,2.8-2.2s.4,0,.5,0v1.7c-.2,0-.4,0-.6,0-1.3,0-2.2,1-2.5,2.4,0,.2,0,.5,0,.9v5.4h-1.8v-7h0Z"/>
    <path class="cls-4" d="M243.5,314c0,3.8-2.6,5.4-5.1,5.4s-4.9-2-4.9-5.2,2.2-5.4,5-5.4,4.9,2.1,4.9,5.2ZM235.4,314.1c0,2.2,1.3,3.9,3.1,3.9s3.1-1.7,3.1-4-.9-3.9-3-3.9-3.1,2-3.1,4h0Z"/>
    <path class="cls-4" d="M254.3,316.4c0,1,0,2,0,2.8h-1.6v-1.7h-.1c-.5.8-1.6,1.9-3.4,1.9s-3.5-.9-3.5-4.5v-5.9h1.9v5.6c0,1.9.6,3.2,2.3,3.2s2.1-.9,2.4-1.7c.1-.3.2-.6.2-.9v-6.2h1.9v7.4h0Z"/>
    <path class="cls-4" d="M266.1,309c0,.7,0,1.5,0,2.8v5.9c0,2.3-.5,3.8-1.5,4.6-1,.9-2.4,1.2-3.7,1.2s-2.6-.3-3.4-.8l.5-1.4c.7.4,1.7.8,3,.8,1.9,0,3.3-1,3.3-3.5v-1.1h0c-.6.9-1.7,1.7-3.2,1.7-2.5,0-4.3-2.1-4.3-5s2.2-5.4,4.6-5.4,2.7.9,3.2,1.8h0v-1.5h1.7ZM264.2,313c0-.3,0-.6-.1-.8-.3-1.1-1.2-2-2.6-2s-3,1.5-3,3.8,1,3.6,3,3.6,2.2-.7,2.6-1.9c.1-.3.1-.7.1-1v-1.8h0Z"/>
    <path class="cls-4" d="M269.1,304.3h1.9v6.3h0c.3-.5.8-1,1.3-1.3.5-.3,1.2-.5,1.9-.5,1.4,0,3.5.8,3.5,4.4v6h-1.9v-5.8c0-1.6-.6-3-2.4-3s-2.1.8-2.5,1.9c-.1.2-.1.5-.1.9v6.1h-1.9v-14.9h0Z"/>
    <path class="cls-4" d="M294,304.3v12.3c0,.9,0,1.9,0,2.6h-1.7v-1.8h-.1c-.6,1.1-1.8,2-3.5,2-2.5,0-4.4-2.1-4.4-5.2,0-3.4,2.1-5.5,4.6-5.5s2.6.7,3.1,1.5h0v-6.1h1.9,0ZM292.2,313.1c0-.2,0-.5,0-.8-.3-1.2-1.3-2.1-2.7-2.1s-3,1.7-3,3.9,1,3.8,3,3.8,2.4-.8,2.7-2.2c0-.2,0-.5,0-.8v-1.8h0Z"/>
    <path class="cls-4" d="M298.1,314.4c0,2.5,1.6,3.5,3.5,3.5s2.1-.2,2.8-.5l.3,1.3c-.6.3-1.8.6-3.4.6-3.1,0-5-2.1-5-5.1s1.8-5.5,4.8-5.5,4.2,2.9,4.2,4.8,0,.7,0,.9h-7.1,0ZM303.5,313.1c0-1.2-.5-3-2.6-3s-2.7,1.7-2.8,3h5.4,0Z"/>
    <path class="cls-4" d="M316.4,304.3v12.3c0,.9,0,1.9,0,2.6h-1.7v-1.8h-.1c-.6,1.1-1.8,2-3.5,2-2.5,0-4.4-2.1-4.4-5.2,0-3.4,2.1-5.5,4.6-5.5s2.6.7,3.1,1.5h0v-6.1h1.9,0ZM314.5,313.1c0-.2,0-.5,0-.8-.3-1.2-1.3-2.1-2.7-2.1s-3,1.7-3,3.9,1,3.8,3,3.8,2.4-.8,2.7-2.2c0-.2,0-.5,0-.8v-1.8h0Z"/>
    <path class="cls-4" d="M321.5,306.1c0,.6-.4,1.1-1.2,1.1s-1.1-.5-1.1-1.1.5-1.1,1.1-1.1,1.1.5,1.1,1.1h0ZM319.4,319.2v-10.2h1.9v10.2h-1.9Z"/>
    <path class="cls-4" d="M331.6,318.8c-.5.2-1.5.6-2.9.6-3.1,0-5.1-2.1-5.1-5.2s2.1-5.4,5.5-5.4,2.1.3,2.6.5l-.4,1.4c-.4-.2-1.1-.5-2.1-.5-2.3,0-3.6,1.7-3.6,3.8s1.5,3.8,3.5,3.8,1.7-.3,2.3-.5l.3,1.4h0Z"/>
    <path class="cls-4" d="M339.4,319.2v-1.3h-.2c-.6.8-1.7,1.5-3.1,1.5-2.1,0-3.1-1.5-3.1-2.9,0-2.5,2.2-3.8,6.1-3.8v-.2c0-.8-.2-2.4-2.3-2.4s-1.9.3-2.6.8l-.4-1.2c.8-.5,2.1-.9,3.3-.9,3.1,0,3.9,2.1,3.9,4.2v3.8c0,.9,0,1.7.2,2.4h-1.7,0ZM339.1,314c-2,0-4.3.3-4.3,2.3s.8,1.8,1.7,1.8,2.2-.8,2.5-1.7c0-.2.1-.4.1-.6v-1.8Z"/>
    <path class="cls-4" d="M346,306.1v2.9h2.6v1.4h-2.6v5.5c0,1.3.4,2,1.4,2s.8,0,1.1-.1v1.4c-.3.1-.8.2-1.6.2s-1.5-.3-2-.8c-.5-.5-.7-1.5-.7-2.6v-5.5h-1.6v-1.4h1.6v-2.4l1.8-.5h0Z"/>
    <path class="cls-4" d="M352.8,306.1c0,.6-.4,1.1-1.2,1.1s-1.1-.5-1.1-1.1.5-1.1,1.1-1.1,1.1.5,1.1,1.1h0ZM350.8,319.2v-10.2h1.9v10.2h-1.9Z"/>
    <path class="cls-4" d="M364.9,314c0,3.8-2.6,5.4-5.1,5.4s-4.9-2-4.9-5.2,2.2-5.4,5-5.4,4.9,2.1,4.9,5.2h0ZM356.8,314.1c0,2.2,1.3,3.9,3.1,3.9s3.1-1.7,3.1-4-.9-3.9-3-3.9-3.1,2-3.1,4h0Z"/>
    <path class="cls-4" d="M367.2,311.8c0-1,0-1.9,0-2.8h1.6v1.7h.1c.5-1,1.7-1.9,3.4-1.9s3.6.8,3.6,4.3v6.1h-1.9v-5.9c0-1.6-.6-3-2.4-3s-2.2.9-2.5,1.9c0,.2-.1.5-.1.9v6.1h-1.9v-7.4h0Z"/>
    <path class="cls-4" d="M392.5,314c0,3.8-2.6,5.4-5.1,5.4s-4.9-2-4.9-5.2,2.2-5.4,5-5.4,4.9,2.1,4.9,5.2h0ZM384.4,314.1c0,2.2,1.3,3.9,3.1,3.9s3.1-1.7,3.1-4-.9-3.9-3-3.9-3.1,2-3.1,4h0Z"/>
    <path class="cls-4" d="M395,319.2v-8.8h-1.4v-1.4h1.4v-.5c0-1.4.3-2.7,1.2-3.5.7-.7,1.6-.9,2.5-.9s1.2.1,1.6.3l-.2,1.4c-.3-.1-.6-.2-1.2-.2-1.6,0-2,1.4-2,2.9v.5h2.5v1.4h-2.5v8.8h-1.8Z"/>
    <path class="cls-4" d="M54.5,337.5c0-1.3,0-2.4,0-3.3h1.7v1.7h.1c.8-1.2,2-2,3.6-2,2.5,0,4.3,2.1,4.3,5.2s-2.2,5.5-4.6,5.5-2.5-.6-3.1-1.6h0v5.5h-1.8v-11h0ZM56.4,340.2c0,.3,0,.5,0,.8.3,1.3,1.5,2.2,2.8,2.2,2,0,3.1-1.6,3.1-3.9s-1.1-3.8-3-3.8-2.4.9-2.8,2.3c0,.2-.1.5-.1.8v1.7h0Z"/>
    <path class="cls-4" d="M66.5,337.4c0-1.2,0-2.2,0-3.2h1.6v2h.1c.5-1.4,1.6-2.2,2.8-2.2s.4,0,.5,0v1.7c-.2,0-.4,0-.6,0-1.3,0-2.2,1-2.5,2.4,0,.2,0,.5,0,.9v5.4h-1.8v-7h0Z"/>
    <path class="cls-4" d="M78.9,344.4l-.2-1.3h0c-.6.8-1.7,1.5-3.1,1.5-2.1,0-3.1-1.5-3.1-2.9,0-2.5,2.2-3.8,6.1-3.8v-.2c0-.8-.2-2.4-2.3-2.4s-1.9.3-2.7.8l-.4-1.2c.8-.5,2.1-.9,3.3-.9,3.1,0,3.9,2.1,3.9,4.2v3.8c0,.9,0,1.7.2,2.4h-1.7,0ZM78.6,339.2c-2,0-4.3.3-4.3,2.3s.8,1.8,1.7,1.8,2.2-.8,2.5-1.7c0-.2,0-.4,0-.6,0,0,0-1.8,0-1.8Z"/>
    <path class="cls-4" d="M90.6,344c-.5.2-1.6.6-2.9.6-3.1,0-5.1-2.1-5.1-5.2s2.1-5.4,5.5-5.4,2.1.3,2.6.5l-.4,1.4c-.4-.2-1.1-.5-2.1-.5-2.3,0-3.6,1.7-3.6,3.8s1.5,3.8,3.5,3.8,1.7-.3,2.3-.5l.3,1.4h0Z"/>
    <path class="cls-4" d="M95.3,331.3v2.9h2.7v1.4h-2.7v5.5c0,1.3.4,2,1.4,2s.8,0,1.1-.1v1.4c-.3.1-.8.2-1.6.2s-1.6-.3-2-.8c-.5-.5-.7-1.5-.7-2.6v-5.5h-1.6v-1.4h1.6v-2.4l1.8-.5h0Z"/>
    <path class="cls-4" d="M102.1,331.4c0,.6-.4,1.1-1.2,1.1s-1.1-.5-1.1-1.1.5-1.1,1.2-1.1,1.1.5,1.1,1.1h0ZM100,344.4v-10.2h1.8v10.2h-1.8Z"/>
    <path class="cls-4" d="M112.2,344c-.5.2-1.6.6-2.9.6-3.1,0-5.1-2.1-5.1-5.2s2.1-5.4,5.5-5.4,2.1.3,2.6.5l-.4,1.4c-.4-.2-1.1-.5-2.1-.5-2.3,0-3.6,1.7-3.6,3.8s1.5,3.8,3.5,3.8,1.7-.3,2.3-.5l.3,1.4h0Z"/>
    <path class="cls-4" d="M115.2,339.6c0,2.5,1.6,3.5,3.5,3.5s2.1-.2,2.8-.5l.3,1.3c-.7.3-1.8.6-3.4.6-3.1,0-5-2.1-5-5.1s1.8-5.5,4.8-5.5,4.2,2.9,4.2,4.8,0,.7,0,.9h-7.1,0ZM120.6,338.3c0-1.2-.5-3-2.6-3s-2.7,1.7-2.8,3h5.4,0Z"/>
    <path class="cls-4" d="M131.2,331.4c0,.6-.4,1.1-1.2,1.1s-1.1-.5-1.1-1.1.5-1.1,1.1-1.1,1.1.5,1.1,1.1h0ZM129.2,344.4v-10.2h1.9v10.2h-1.9Z"/>
    <path class="cls-4" d="M134.1,337c0-1,0-1.9,0-2.8h1.6v1.7h.1c.5-1,1.7-1.9,3.4-1.9s3.6.8,3.6,4.3v6.1h-1.9v-5.9c0-1.6-.6-3-2.4-3s-2.2.9-2.5,1.9c0,.2-.1.5-.1.9v6.1h-1.9v-7.4h0Z"/>
    <path class="cls-4" d="M149.9,342.5c.6.4,1.5.7,2.4.7,1.3,0,2-.7,2-1.5s-.5-1.4-1.9-1.9c-1.8-.6-2.7-1.7-2.7-2.9s1.3-3,3.5-3,1.9.3,2.5.6l-.5,1.3c-.4-.2-1.1-.6-2.1-.6s-1.7.6-1.7,1.4.6,1.2,1.9,1.7c1.8.7,2.7,1.5,2.7,3.1s-1.4,3-3.8,3-2.1-.3-2.9-.7l.5-1.4h0Z"/>
    <path class="cls-4" d="M167.7,339.2c0,3.8-2.6,5.4-5.1,5.4s-4.9-2-4.9-5.2,2.2-5.4,5-5.4,4.9,2.1,4.9,5.2ZM159.6,339.3c0,2.2,1.3,3.9,3.1,3.9s3.1-1.7,3.1-4-.9-3.9-3-3.9-3.1,2-3.1,4h0Z"/>
    <path class="cls-4" d="M170,329.5h1.9v14.9h-1.9v-14.9Z"/>
    <path class="cls-4" d="M177,331.4c0,.6-.4,1.1-1.2,1.1s-1.1-.5-1.1-1.1.5-1.1,1.1-1.1,1.1.5,1.1,1.1h0ZM175,344.4v-10.2h1.9v10.2h-1.9Z"/>
    <path class="cls-4" d="M182.1,331.3v2.9h2.6v1.4h-2.6v5.5c0,1.3.4,2,1.4,2s.8,0,1.1-.1v1.4c-.3.1-.8.2-1.6.2s-1.6-.3-2-.8c-.5-.5-.7-1.5-.7-2.6v-5.5h-1.6v-1.4h1.6v-2.4l1.8-.5h0Z"/>
    <path class="cls-4" d="M195.4,341.6c0,1,0,2,0,2.8h-1.6v-1.7h-.1c-.5.8-1.6,1.9-3.4,1.9s-3.5-.9-3.5-4.5v-5.9h1.9v5.6c0,1.9.6,3.2,2.3,3.2s2.1-.9,2.4-1.7c.1-.3.2-.6.2-.9v-6.2h1.9v7.4h0Z"/>
    <path class="cls-4" d="M207.2,329.5v12.3c0,.9,0,1.9,0,2.6h-1.7v-1.8h-.1c-.6,1.1-1.8,2-3.5,2-2.5,0-4.4-2.1-4.4-5.2,0-3.4,2.1-5.5,4.6-5.5s2.6.7,3.1,1.5h0v-6.1h1.9,0ZM205.4,338.4c0-.2,0-.5,0-.8-.3-1.2-1.3-2.1-2.7-2.1s-3,1.7-3,3.9,1,3.8,3,3.8,2.4-.8,2.7-2.2c0-.2,0-.5,0-.8v-1.8h0Z"/>
    <path class="cls-4" d="M211.3,339.6c0,2.5,1.6,3.5,3.5,3.5s2.1-.2,2.8-.5l.3,1.3c-.6.3-1.8.6-3.4.6-3.1,0-5-2.1-5-5.1s1.8-5.5,4.8-5.5,4.2,2.9,4.2,4.8,0,.7,0,.9h-7.1ZM216.7,338.3c0-1.2-.5-3-2.6-3s-2.7,1.7-2.8,3h5.4,0Z"/>
    <path class="cls-4" d="M227.5,331.3v2.9h2.6v1.4h-2.6v5.5c0,1.3.4,2,1.4,2s.8,0,1.1-.1v1.4c-.3.1-.8.2-1.6.2s-1.6-.3-2-.8c-.5-.5-.7-1.5-.7-2.6v-5.5h-1.6v-1.4h1.6v-2.4l1.8-.5h0Z"/>
    <path class="cls-4" d="M232.2,337.4c0-1.2,0-2.2,0-3.2h1.6v2h.1c.5-1.4,1.6-2.2,2.8-2.2s.4,0,.5,0v1.7c-.2,0-.4,0-.6,0-1.3,0-2.2,1-2.5,2.4,0,.2,0,.5,0,.9v5.4h-1.8v-7h0Z"/>
    <path class="cls-4" d="M248,339.2c0,3.8-2.6,5.4-5.1,5.4s-4.9-2-4.9-5.2,2.2-5.4,5-5.4,4.9,2.1,4.9,5.2ZM240,339.3c0,2.2,1.3,3.9,3.1,3.9s3.1-1.7,3.1-4-.9-3.9-3-3.9-3.1,2-3.1,4h0Z"/>
    <path class="cls-4" d="M258.9,341.6c0,1,0,2,0,2.8h-1.6v-1.7h-.1c-.5.8-1.6,1.9-3.4,1.9s-3.5-.9-3.5-4.5v-5.9h1.9v5.6c0,1.9.6,3.2,2.3,3.2s2.1-.9,2.4-1.7c.1-.3.2-.6.2-.9v-6.2h1.9v7.4h0Z"/>
    <path class="cls-4" d="M270.7,334.2c0,.7,0,1.5,0,2.8v5.9c0,2.3-.5,3.8-1.5,4.6-1,.9-2.4,1.2-3.7,1.2s-2.6-.3-3.4-.8l.5-1.4c.7.4,1.7.8,3,.8,1.9,0,3.3-1,3.3-3.5v-1.1h0c-.6.9-1.7,1.7-3.2,1.7-2.5,0-4.3-2.1-4.3-5s2.2-5.4,4.6-5.4,2.7.9,3.2,1.8h0v-1.5h1.7ZM268.8,338.2c0-.3,0-.6-.1-.8-.3-1.1-1.2-2-2.6-2s-3,1.5-3,3.8,1,3.6,3,3.6,2.2-.7,2.6-1.9c.1-.3.1-.7.1-1v-1.8h0Z"/>
    <path class="cls-4" d="M273.7,329.5h1.9v6.3h0c.3-.5.8-1,1.3-1.3.5-.3,1.2-.5,1.9-.5,1.4,0,3.5.8,3.5,4.4v6h-1.9v-5.8c0-1.6-.6-3-2.4-3s-2.1.8-2.5,1.9c-.1.2-.1.5-.1.9v6.1h-1.9v-14.9h0Z"/>
    <path class="cls-4" d="M296.7,342.8h0c-.5,1-1.7,1.8-3.3,1.8-2.4,0-4.3-2.1-4.3-5.1s2.5-5.5,4.6-5.5,2.6.8,3.1,1.8h0v-1.5h1.8c0,.9,0,1.7,0,2.8v11.5h-1.9v-5.7h0ZM296.7,338.3c0-.2,0-.5,0-.8-.3-1.1-1.3-2.1-2.6-2.1s-3.1,1.6-3.1,3.9,1,3.8,3,3.8,2.2-.7,2.6-2c0-.2.1-.6.1-.9v-1.9Z"/>
    <path class="cls-4" d="M310.1,341.6c0,1,0,2,0,2.8h-1.6v-1.7h-.1c-.5.8-1.5,1.9-3.4,1.9s-3.5-.9-3.5-4.5v-5.9h1.9v5.6c0,1.9.6,3.2,2.3,3.2s2.1-.9,2.4-1.7c.1-.3.2-.6.2-.9v-6.2h1.9v7.4h0Z"/>
    <path class="cls-4" d="M315.2,331.4c0,.6-.4,1.1-1.2,1.1s-1.1-.5-1.1-1.1.5-1.1,1.1-1.1,1.1.5,1.1,1.1h0ZM313.2,344.4v-10.2h1.9v10.2h-1.9Z"/>
    <path class="cls-4" d="M320.3,331.3v2.9h2.6v1.4h-2.6v5.5c0,1.3.4,2,1.4,2s.8,0,1.1-.1v1.4c-.3.1-.8.2-1.6.2s-1.5-.3-2-.8c-.5-.5-.7-1.5-.7-2.6v-5.5h-1.6v-1.4h1.6v-2.4l1.8-.5h0Z"/>
    <path class="cls-4" d="M326,339.6c0,2.5,1.6,3.5,3.5,3.5s2.1-.2,2.8-.5l.3,1.3c-.6.3-1.8.6-3.4.6-3.1,0-5-2.1-5-5.1s1.8-5.5,4.8-5.5,4.2,2.9,4.2,4.8,0,.7,0,.9h-7.1,0ZM331.4,338.3c0-1.2-.5-3-2.6-3s-2.7,1.7-2.8,3h5.4,0Z"/>
    <path class="cls-4" d="M347.1,344c-.5.2-1.5.6-2.9.6-3.1,0-5.1-2.1-5.1-5.2s2.1-5.4,5.5-5.4,2.1.3,2.6.5l-.4,1.4c-.4-.2-1.1-.5-2.1-.5-2.3,0-3.6,1.7-3.6,3.8s1.5,3.8,3.5,3.8,1.7-.3,2.3-.5l.3,1.4h0Z"/>
    <path class="cls-4" d="M358.4,339.2c0,3.8-2.6,5.4-5.1,5.4s-4.9-2-4.9-5.2,2.2-5.4,5-5.4,4.9,2.1,4.9,5.2h0ZM350.3,339.3c0,2.2,1.3,3.9,3.1,3.9s3.1-1.7,3.1-4-.9-3.9-3-3.9-3.1,2-3.1,4h0Z"/>
    <path class="cls-4" d="M360.7,337c0-1,0-1.9,0-2.8h1.6v1.7h.1c.5-1,1.7-1.9,3.4-1.9s3.6.8,3.6,4.3v6.1h-1.9v-5.9c0-1.6-.6-3-2.4-3s-2.2.9-2.5,1.9c0,.2-.1.5-.1.9v6.1h-1.9v-7.4h0Z"/>
    <path class="cls-4" d="M374.5,331.3v2.9h2.6v1.4h-2.6v5.5c0,1.3.4,2,1.4,2s.8,0,1.1-.1v1.4c-.3.1-.8.2-1.6.2s-1.5-.3-2-.8c-.5-.5-.7-1.5-.7-2.6v-5.5h-1.6v-1.4h1.6v-2.4l1.8-.5h0Z"/>
    <path class="cls-4" d="M380.1,339.6c0,2.5,1.6,3.5,3.5,3.5s2.1-.2,2.8-.5l.3,1.3c-.6.3-1.8.6-3.4.6-3.1,0-5-2.1-5-5.1s1.8-5.5,4.8-5.5,4.2,2.9,4.2,4.8,0,.7,0,.9h-7.1,0ZM385.5,338.3c0-1.2-.5-3-2.6-3s-2.7,1.7-2.8,3h5.4,0Z"/>
    <path class="cls-4" d="M389.6,337c0-1,0-1.9,0-2.8h1.6v1.6h.1c.6-1,1.5-1.9,3.2-1.9s2.4.8,2.9,2h0c.3-.6.7-1,1.1-1.3.6-.5,1.3-.7,2.2-.7s3.3.9,3.3,4.4v6h-1.8v-5.8c0-2-.7-3.1-2.2-3.1s-1.9.8-2.2,1.7c0,.2-.1.6-.1.9v6.3h-1.8v-6.1c0-1.6-.7-2.8-2.1-2.8s-2,.9-2.3,1.9c-.1.3-.1.6-.1.9v6.1h-1.8v-7.4h0Z"/>
    <path class="cls-4" d="M411.4,338v1.4h-5.2v-1.4h5.2Z"/>
    <path class="cls-4" d="M54.5,362.7c0-1.3,0-2.4,0-3.3h1.7v1.7h.1c.8-1.2,2-2,3.6-2,2.5,0,4.3,2.1,4.3,5.2s-2.2,5.5-4.6,5.5-2.5-.6-3.1-1.6h0v5.5h-1.8v-11h0ZM56.4,365.4c0,.3,0,.5,0,.8.3,1.3,1.5,2.2,2.8,2.2,2,0,3.1-1.6,3.1-3.9s-1.1-3.8-3-3.8-2.4.9-2.8,2.3c0,.2-.1.5-.1.8v1.7h0Z"/>
    <path class="cls-4" d="M66.5,354.7h1.8v14.9h-1.8v-14.9Z"/>
    <path class="cls-4" d="M77.1,369.6l-.2-1.3h0c-.6.8-1.7,1.5-3.1,1.5-2.1,0-3.1-1.5-3.1-2.9,0-2.5,2.2-3.8,6.1-3.8v-.2c0-.8-.2-2.4-2.3-2.4s-1.9.3-2.7.8l-.4-1.2c.8-.5,2.1-.9,3.3-.9,3.1,0,3.9,2.1,3.9,4.2v3.8c0,.9,0,1.7.2,2.4h-1.7,0ZM76.8,364.4c-2,0-4.3.3-4.3,2.3s.8,1.8,1.7,1.8,2.2-.8,2.5-1.7c0-.2,0-.4,0-.6,0,0,0-1.8,0-1.8Z"/>
    <path class="cls-4" d="M83.7,356.5v2.9h2.7v1.4h-2.7v5.5c0,1.3.4,2,1.4,2s.8,0,1.1-.1v1.4c-.3.1-.8.2-1.6.2s-1.6-.3-2-.8c-.5-.5-.7-1.5-.7-2.6v-5.5h-1.6v-1.4h1.6v-2.4l1.8-.5h0Z"/>
    <path class="cls-4" d="M90.5,356.5c0,.6-.4,1.1-1.2,1.1s-1.1-.5-1.1-1.1.5-1.1,1.2-1.1,1.1.5,1.1,1.1h0ZM88.4,369.6v-10.2h1.8v10.2h-1.8Z"/>
    <path class="cls-4" d="M102.5,364.4c0,3.8-2.6,5.4-5.1,5.4s-4.9-2-4.9-5.2,2.2-5.4,5-5.4,4.9,2.1,4.9,5.2ZM94.5,364.5c0,2.2,1.3,3.9,3.1,3.9s3.1-1.7,3.1-4-.9-3.9-3-3.9-3.1,2-3.1,4h0Z"/>
    <path class="cls-4" d="M104.9,362.2c0-1,0-1.9,0-2.8h1.6v1.7h.1c.5-1,1.7-1.9,3.4-1.9s3.6.8,3.6,4.3v6.1h-1.8v-5.9c0-1.6-.6-3-2.3-3s-2.2.9-2.5,1.9c0,.2-.1.5-.1.9v6.1h-1.8v-7.4h0Z"/>
    <path class="cls-4" d="M115.3,372.1c.5-1.2,1-3.5,1.3-5l2.1-.2c-.5,1.8-1.4,4.1-2,5.1h-1.3c0,.1,0,.1,0,.1Z"/>
    <path class="cls-4" d="M126,359.4l2,5.7c.3.9.6,1.8.8,2.6h0c.2-.8.5-1.7.9-2.6l2-5.7h1.9l-4,10.2h-1.8l-3.9-10.2h2Z"/>
    <path class="cls-4" d="M137.5,356.5c0,.6-.4,1.1-1.2,1.1s-1.1-.5-1.1-1.1.5-1.1,1.1-1.1,1.1.5,1.1,1.1h0ZM135.4,369.6v-10.2h1.9v10.2h-1.9Z"/>
    <path class="cls-4" d="M140.1,367.7c.6.4,1.5.7,2.4.7,1.3,0,2-.7,2-1.5s-.5-1.4-1.9-1.9c-1.8-.6-2.7-1.7-2.7-2.9s1.3-3,3.5-3,1.9.3,2.5.6l-.5,1.3c-.4-.2-1.1-.6-2.1-.6s-1.7.6-1.7,1.4.6,1.2,1.9,1.7c1.8.7,2.7,1.5,2.7,3.1s-1.4,3-3.8,3-2.1-.3-2.9-.7l.5-1.4h0Z"/>
    <path class="cls-4" d="M150.7,356.5c0,.6-.4,1.1-1.2,1.1s-1.1-.5-1.1-1.1.5-1.1,1.1-1.1,1.1.5,1.1,1.1h0ZM148.6,369.6v-10.2h1.9v10.2h-1.9Z"/>
    <path class="cls-4" d="M162.8,364.4c0,3.8-2.6,5.4-5.1,5.4s-4.9-2-4.9-5.2,2.2-5.4,5-5.4,4.9,2.1,4.9,5.2ZM154.7,364.5c0,2.2,1.3,3.9,3.1,3.9s3.1-1.7,3.1-4-.9-3.9-3-3.9-3.1,2-3.1,4h0Z"/>
    <path class="cls-4" d="M165.1,362.2c0-1,0-1.9,0-2.8h1.6v1.7h.1c.5-1,1.7-1.9,3.4-1.9s3.6.8,3.6,4.3v6.1h-1.9v-5.9c0-1.6-.6-3-2.4-3s-2.2.9-2.5,1.9c0,.2-.1.5-.1.9v6.1h-1.9v-7.4h0Z"/>
    <path class="cls-4" d="M176.5,367.7c.6.4,1.5.7,2.4.7,1.3,0,2-.7,2-1.5s-.5-1.4-1.9-1.9c-1.8-.6-2.7-1.7-2.7-2.9s1.3-3,3.5-3,1.9.3,2.5.6l-.5,1.3c-.4-.2-1.1-.6-2.1-.6s-1.7.6-1.7,1.4.6,1.2,1.9,1.7c1.8.7,2.7,1.5,2.7,3.1s-1.4,3-3.8,3-2.1-.3-2.9-.7l.5-1.4h0Z"/>
    <path class="cls-4" d="M195.1,369.6v-1.3h-.2c-.6.8-1.7,1.5-3.1,1.5-2.1,0-3.1-1.5-3.1-2.9,0-2.5,2.2-3.8,6.1-3.8v-.2c0-.8-.2-2.4-2.3-2.4s-1.9.3-2.6.8l-.4-1.2c.8-.5,2.1-.9,3.3-.9,3.1,0,3.9,2.1,3.9,4.2v3.8c0,.9,0,1.7.2,2.4h-1.7,0ZM194.9,364.4c-2,0-4.3.3-4.3,2.3s.8,1.8,1.7,1.8,2.2-.8,2.5-1.7c0-.2.1-.4.1-.6v-1.8h0Z"/>
    <path class="cls-4" d="M199.6,362.2c0-1,0-1.9,0-2.8h1.6v1.7h.1c.5-1,1.7-1.9,3.4-1.9s3.6.8,3.6,4.3v6.1h-1.9v-5.9c0-1.6-.6-3-2.4-3s-2.2.9-2.5,1.9c0,.2-.1.5-.1.9v6.1h-1.9v-7.4h0Z"/>
    <path class="cls-4" d="M220.1,354.7v12.3c0,.9,0,1.9,0,2.6h-1.7v-1.8h-.1c-.6,1.1-1.8,2-3.5,2-2.5,0-4.4-2.1-4.4-5.2,0-3.4,2.1-5.5,4.6-5.5s2.6.7,3.1,1.5h0v-6.1h1.9,0ZM218.2,363.5c0-.2,0-.5,0-.8-.3-1.2-1.3-2.1-2.7-2.1s-3,1.7-3,3.9,1,3.8,3,3.8,2.4-.8,2.7-2.2c0-.2,0-.5,0-.8v-1.8h0Z"/>
    <path class="cls-4" d="M229.6,356.5c0,.6-.4,1.1-1.2,1.1s-1.1-.5-1.1-1.1.5-1.1,1.1-1.1,1.1.5,1.1,1.1h0ZM227.6,369.6v-10.2h1.9v10.2h-1.9Z"/>
    <path class="cls-4" d="M232.5,362.2c0-1,0-1.9,0-2.8h1.6v1.7h.1c.5-1,1.7-1.9,3.4-1.9s3.6.8,3.6,4.3v6.1h-1.9v-5.9c0-1.6-.6-3-2.4-3s-2.2.9-2.5,1.9c0,.2-.1.5-.1.9v6.1h-1.9v-7.4h0Z"/>
    <path class="cls-4" d="M244.4,369.6v-8.8h-1.4v-1.4h1.4v-.5c0-1.4.3-2.7,1.2-3.5.7-.7,1.6-.9,2.5-.9s1.2.1,1.6.3l-.2,1.4c-.3-.1-.6-.2-1.2-.2-1.6,0-2,1.4-2,2.9v.5h2.5v1.4h-2.5v8.8h-1.8Z"/>
    <path class="cls-4" d="M259.2,364.4c0,3.8-2.6,5.4-5.1,5.4s-4.9-2-4.9-5.2,2.2-5.4,5-5.4,4.9,2.1,4.9,5.2ZM251.1,364.5c0,2.2,1.3,3.9,3.1,3.9s3.1-1.7,3.1-4-.9-3.9-3-3.9-3.1,2-3.1,4h0Z"/>
    <path class="cls-4" d="M261.5,362.6c0-1.2,0-2.2,0-3.2h1.6v2h.1c.5-1.4,1.6-2.2,2.8-2.2s.4,0,.5,0v1.7c-.2,0-.4,0-.6,0-1.3,0-2.2,1-2.5,2.4,0,.2,0,.5,0,.9v5.4h-1.8v-7h0Z"/>
    <path class="cls-4" d="M268.5,362.2c0-1,0-1.9,0-2.8h1.6v1.6h.1c.6-1,1.5-1.9,3.2-1.9s2.4.8,2.9,2h0c.3-.6.7-1,1.1-1.3.6-.5,1.3-.7,2.2-.7s3.3.9,3.3,4.4v6h-1.8v-5.8c0-2-.7-3.1-2.2-3.1s-1.9.8-2.2,1.7c0,.2-.1.6-.1.9v6.3h-1.8v-6.1c0-1.6-.7-2.8-2.1-2.8s-2,.9-2.3,1.9c-.1.3-.1.6-.1.9v6.1h-1.8v-7.4h0Z"/>
    <path class="cls-4" d="M291.6,369.6v-1.3h-.2c-.6.8-1.7,1.5-3.1,1.5-2.1,0-3.1-1.5-3.1-2.9,0-2.5,2.2-3.8,6.1-3.8v-.2c0-.8-.2-2.4-2.3-2.4s-1.9.3-2.6.8l-.4-1.2c.8-.5,2.1-.9,3.3-.9,3.1,0,3.9,2.1,3.9,4.2v3.8c0,.9,0,1.7.2,2.4h-1.7,0ZM291.4,364.4c-2,0-4.3.3-4.3,2.3s.8,1.8,1.7,1.8,2.2-.8,2.5-1.7c0-.2.1-.4.1-.6v-1.8Z"/>
    <path class="cls-4" d="M298.3,356.5v2.9h2.6v1.4h-2.6v5.5c0,1.3.4,2,1.4,2s.8,0,1.1-.1v1.4c-.3.1-.8.2-1.6.2s-1.5-.3-2-.8c-.5-.5-.7-1.5-.7-2.6v-5.5h-1.6v-1.4h1.6v-2.4l1.8-.5h0Z"/>
    <path class="cls-4" d="M305.1,356.5c0,.6-.4,1.1-1.2,1.1s-1.1-.5-1.1-1.1.5-1.1,1.1-1.1,1.1.5,1.1,1.1h0ZM303,369.6v-10.2h1.9v10.2h-1.9Z"/>
    <path class="cls-4" d="M317.1,364.4c0,3.8-2.6,5.4-5.1,5.4s-4.9-2-4.9-5.2,2.2-5.4,5-5.4,4.9,2.1,4.9,5.2h0ZM309,364.5c0,2.2,1.3,3.9,3.1,3.9s3.1-1.7,3.1-4-.9-3.9-3-3.9-3.1,2-3.1,4h0Z"/>
    <path class="cls-4" d="M319.4,362.2c0-1,0-1.9,0-2.8h1.6v1.7h.1c.5-1,1.7-1.9,3.4-1.9s3.6.8,3.6,4.3v6.1h-1.9v-5.9c0-1.6-.6-3-2.4-3s-2.2.9-2.5,1.9c0,.2-.1.5-.1.9v6.1h-1.9v-7.4h0Z"/>
    <path class="cls-4" d="M336.3,359.4l1.3,5.2c.3,1.1.6,2.2.8,3.2h0c.2-1,.6-2.1.9-3.2l1.7-5.2h1.5l1.6,5.1c.4,1.2.7,2.3.9,3.3h0c.2-1,.4-2.1.8-3.3l1.5-5.1h1.8l-3.3,10.2h-1.7l-1.5-4.9c-.4-1.1-.6-2.1-.9-3.3h0c-.2,1.2-.6,2.3-.9,3.4l-1.6,4.8h-1.7l-3.1-10.2h1.9Z"/>
    <path class="cls-4" d="M351,354.7h1.9v6.3h0c.3-.5.8-1,1.3-1.3.5-.3,1.2-.5,1.9-.5,1.4,0,3.5.8,3.5,4.4v6h-1.9v-5.8c0-1.6-.6-3-2.4-3s-2.1.8-2.5,1.9c-.1.2-.1.5-.1.9v6.1h-1.9v-14.9h0Z"/>
    <path class="cls-4" d="M364.7,356.5c0,.6-.4,1.1-1.2,1.1s-1.1-.5-1.1-1.1.5-1.1,1.1-1.1,1.1.5,1.1,1.1h0ZM362.7,369.6v-10.2h1.9v10.2h-1.9Z"/>
    <path class="cls-4" d="M374.8,369.2c-.5.2-1.5.6-2.9.6-3.1,0-5.1-2.1-5.1-5.2s2.1-5.4,5.5-5.4,2.1.3,2.6.5l-.4,1.4c-.4-.2-1.1-.5-2.1-.5-2.3,0-3.6,1.7-3.6,3.8s1.5,3.8,3.5,3.8,1.7-.3,2.3-.5l.3,1.4h0Z"/>
    <path class="cls-4" d="M377,354.7h1.9v6.3h0c.3-.5.8-1,1.3-1.3.5-.3,1.2-.5,1.9-.5,1.4,0,3.5.8,3.5,4.4v6h-1.9v-5.8c0-1.6-.6-3-2.4-3s-2.1.8-2.5,1.9c-.1.2-.1.5-.1.9v6.1h-1.9v-14.9h0Z"/>
    <path class="cls-4" d="M54.7,394.8v-8.8h-1.4v-1.4h1.4v-.5c0-1.4.3-2.7,1.2-3.5.7-.7,1.6-.9,2.5-.9s1.2.1,1.6.3l-.2,1.4c-.3-.1-.7-.2-1.2-.2-1.6,0-2,1.4-2,2.9v.5h2.5v1.4h-2.5v8.8h-1.8,0Z"/>
    <path class="cls-4" d="M69.6,389.6c0,3.8-2.6,5.4-5.1,5.4s-4.9-2-4.9-5.2,2.2-5.4,5-5.4,4.9,2.1,4.9,5.2ZM61.5,389.7c0,2.2,1.3,3.9,3.1,3.9s3.1-1.7,3.1-4-.9-3.9-3-3.9-3.1,2-3.1,4h0Z"/>
    <path class="cls-4" d="M80.4,392c0,1,0,2,0,2.8h-1.6v-1.7h-.1c-.5.8-1.6,1.9-3.4,1.9s-3.5-.9-3.5-4.5v-5.9h1.8v5.6c0,1.9.6,3.2,2.3,3.2s2.1-.9,2.4-1.7c0-.3.2-.6.2-.9v-6.2h1.8v7.4h0Z"/>
    <path class="cls-4" d="M83.5,387.4c0-1,0-1.9,0-2.8h1.6v1.7h.1c.5-1,1.7-1.9,3.4-1.9s3.6.8,3.6,4.3v6.1h-1.8v-5.9c0-1.6-.6-3-2.3-3s-2.2.9-2.5,1.9c0,.2-.1.5-.1.9v6.1h-1.8v-7.4h0Z"/>
    <path class="cls-4" d="M103.9,379.9v12.3c0,.9,0,1.9,0,2.6h-1.7v-1.8h-.1c-.6,1.1-1.8,2-3.5,2-2.5,0-4.3-2.1-4.3-5.2,0-3.4,2.1-5.5,4.6-5.5s2.6.7,3.1,1.5h0v-6.1h1.8,0ZM102.1,388.8c0-.2,0-.5,0-.8-.3-1.2-1.3-2.1-2.7-2.1s-3,1.7-3,3.9,1,3.8,3,3.8,2.4-.8,2.7-2.2c0-.2,0-.5,0-.8v-1.8h0Z"/>
    <path class="cls-4" d="M113.7,381.7v2.9h2.7v1.4h-2.7v5.5c0,1.3.4,2,1.4,2s.8,0,1.1-.1v1.4c-.3.1-.8.2-1.6.2s-1.6-.3-2-.8c-.5-.5-.7-1.5-.7-2.6v-5.5h-1.6v-1.4h1.6v-2.4l1.8-.5h0Z"/>
    <path class="cls-4" d="M118.4,379.9h1.8v6.3h0c.3-.5.8-1,1.3-1.3.6-.3,1.2-.5,1.9-.5,1.4,0,3.6.8,3.6,4.4v6h-1.8v-5.8c0-1.6-.6-3-2.3-3s-2.1.8-2.5,1.9c0,.2-.1.5-.1.9v6.1h-1.8v-14.9h0Z"/>
    <path class="cls-4" d="M131.1,390c0,2.5,1.6,3.5,3.5,3.5s2.1-.2,2.8-.5l.3,1.3c-.6.3-1.8.6-3.4.6-3.1,0-5-2.1-5-5.1s1.8-5.5,4.8-5.5,4.2,2.9,4.2,4.8,0,.7,0,.9h-7.1ZM136.5,388.7c0-1.2-.5-3-2.6-3s-2.7,1.7-2.8,3h5.4,0Z"/>
    <path class="cls-4" d="M140.6,387.8c0-1.2,0-2.2,0-3.2h1.6v2h.1c.5-1.4,1.6-2.2,2.8-2.2s.4,0,.5,0v1.7c-.2,0-.4,0-.6,0-1.3,0-2.2,1-2.5,2.4,0,.2,0,.5,0,.9v5.4h-1.8v-7h0Z"/>
    <path class="cls-4" d="M148.2,390c0,2.5,1.6,3.5,3.5,3.5s2.1-.2,2.8-.5l.3,1.3c-.6.3-1.8.6-3.4.6-3.1,0-5-2.1-5-5.1s1.8-5.5,4.8-5.5,4.2,2.9,4.2,4.8,0,.7,0,.9h-7.1ZM153.7,388.7c0-1.2-.5-3-2.6-3s-2.7,1.7-2.8,3h5.4,0Z"/>
    <path class="cls-4" d="M163.2,390c0,2.5,1.6,3.5,3.5,3.5s2.1-.2,2.8-.5l.3,1.3c-.6.3-1.8.6-3.4.6-3.1,0-5-2.1-5-5.1s1.8-5.5,4.8-5.5,4.2,2.9,4.2,4.8,0,.7,0,.9h-7.1ZM168.6,388.7c0-1.2-.5-3-2.6-3s-2.7,1.7-2.8,3h5.4,0Z"/>
    <path class="cls-4" d="M173.5,384.6l1.4,2.2c.4.6.7,1.1,1,1.7h0c.3-.6.7-1.1,1-1.7l1.4-2.2h2l-3.5,4.9,3.6,5.2h-2.1l-1.5-2.3c-.4-.6-.7-1.1-1.1-1.8h0c-.3.6-.7,1.1-1.1,1.8l-1.5,2.3h-2l3.6-5.2-3.4-5h2.1,0Z"/>
    <path class="cls-4" d="M182.4,387.9c0-1.3,0-2.4,0-3.3h1.7v1.7h.1c.8-1.2,1.9-2,3.6-2,2.5,0,4.3,2.1,4.3,5.2s-2.2,5.5-4.6,5.5-2.5-.6-3.1-1.6h0v5.5h-1.8v-11h0ZM184.2,390.6c0,.3,0,.5,0,.8.3,1.3,1.4,2.2,2.8,2.2,1.9,0,3.1-1.6,3.1-3.9s-1.1-3.8-3-3.8-2.4.9-2.8,2.3c0,.2-.1.5-.1.8v1.7h0Z"/>
    <path class="cls-4" d="M194.3,387.8c0-1.2,0-2.2,0-3.2h1.6v2h.1c.5-1.4,1.6-2.2,2.8-2.2s.4,0,.5,0v1.7c-.2,0-.4,0-.6,0-1.3,0-2.2,1-2.5,2.4,0,.2,0,.5,0,.9v5.4h-1.8v-7h0Z"/>
    <path class="cls-4" d="M202,390c0,2.5,1.6,3.5,3.5,3.5s2.1-.2,2.8-.5l.3,1.3c-.6.3-1.8.6-3.4.6-3.1,0-5-2.1-5-5.1s1.8-5.5,4.8-5.5,4.2,2.9,4.2,4.8,0,.7,0,.9h-7.1ZM207.4,388.7c0-1.2-.5-3-2.6-3s-2.7,1.7-2.8,3h5.4,0Z"/>
    <path class="cls-4" d="M211.2,392.9c.6.4,1.5.7,2.4.7,1.3,0,2-.7,2-1.5s-.5-1.4-1.9-1.9c-1.8-.6-2.7-1.7-2.7-2.9s1.3-3,3.5-3,1.9.3,2.5.6l-.5,1.3c-.4-.2-1.1-.6-2.1-.6s-1.7.6-1.7,1.4.6,1.2,1.9,1.7c1.8.7,2.7,1.5,2.7,3.1s-1.4,3-3.8,3-2.1-.3-2.9-.7l.5-1.4h0Z"/>
    <path class="cls-4" d="M219.6,392.9c.6.4,1.5.7,2.4.7,1.3,0,2-.7,2-1.5s-.5-1.4-1.9-1.9c-1.8-.6-2.7-1.7-2.7-2.9s1.3-3,3.5-3,1.9.3,2.5.6l-.5,1.3c-.4-.2-1.1-.6-2.1-.6s-1.7.6-1.7,1.4.6,1.2,1.9,1.7c1.8.7,2.7,1.5,2.7,3.1s-1.4,3-3.8,3-2.1-.3-2.9-.7l.5-1.4h0Z"/>
    <path class="cls-4" d="M230.2,381.8c0,.6-.4,1.1-1.2,1.1s-1.1-.5-1.1-1.1.5-1.1,1.1-1.1,1.1.5,1.1,1.1h0ZM228.1,394.8v-10.2h1.9v10.2h-1.9Z"/>
    <path class="cls-4" d="M242.2,389.6c0,3.8-2.6,5.4-5.1,5.4s-4.9-2-4.9-5.2,2.2-5.4,5-5.4,4.9,2.1,4.9,5.2ZM234.2,389.7c0,2.2,1.3,3.9,3.1,3.9s3.1-1.7,3.1-4-.9-3.9-3-3.9-3.1,2-3.1,4h0Z"/>
    <path class="cls-4" d="M244.6,387.4c0-1,0-1.9,0-2.8h1.6v1.7h.1c.5-1,1.7-1.9,3.4-1.9s3.6.8,3.6,4.3v6.1h-1.9v-5.9c0-1.6-.6-3-2.4-3s-2.2.9-2.5,1.9c0,.2-.1.5-.1.9v6.1h-1.9v-7.4h0Z"/>
    <path class="cls-4" d="M262.9,381.7v2.9h2.6v1.4h-2.6v5.5c0,1.3.4,2,1.4,2s.8,0,1.1-.1v1.4c-.3.1-.8.2-1.6.2s-1.5-.3-2-.8c-.5-.5-.7-1.5-.7-2.6v-5.5h-1.6v-1.4h1.6v-2.4l1.8-.5h0Z"/>
    <path class="cls-4" d="M267.6,387.8c0-1.2,0-2.2,0-3.2h1.6v2h.1c.5-1.4,1.6-2.2,2.8-2.2s.4,0,.5,0v1.7c-.2,0-.4,0-.6,0-1.3,0-2.2,1-2.5,2.4,0,.2,0,.5,0,.9v5.4h-1.8v-7h0Z"/>
    <path class="cls-4" d="M283.5,389.6c0,3.8-2.6,5.4-5.1,5.4s-4.9-2-4.9-5.2,2.2-5.4,5-5.4,4.9,2.1,4.9,5.2h0ZM275.4,389.7c0,2.2,1.3,3.9,3.1,3.9s3.1-1.7,3.1-4-.9-3.9-3-3.9-3.1,2-3.1,4h0Z"/>
    <path class="cls-4" d="M294.3,392c0,1,0,2,0,2.8h-1.6v-1.7h-.1c-.5.8-1.5,1.9-3.4,1.9s-3.5-.9-3.5-4.5v-5.9h1.9v5.6c0,1.9.6,3.2,2.3,3.2s2.1-.9,2.4-1.7c.1-.3.2-.6.2-.9v-6.2h1.9v7.4h0Z"/>
    <path class="cls-4" d="M306.1,384.6c0,.7,0,1.5,0,2.8v5.9c0,2.3-.5,3.8-1.5,4.6-1,.9-2.4,1.2-3.7,1.2s-2.6-.3-3.4-.8l.5-1.4c.7.4,1.7.8,3,.8,1.9,0,3.3-1,3.3-3.5v-1.1h0c-.6.9-1.7,1.7-3.2,1.7-2.5,0-4.3-2.1-4.3-5s2.2-5.4,4.6-5.4,2.7.9,3.2,1.8h0v-1.5h1.7ZM304.2,388.6c0-.3,0-.6-.1-.8-.3-1.1-1.2-2-2.6-2s-3,1.5-3,3.8,1,3.6,3,3.6,2.2-.7,2.6-1.9c.1-.3.1-.7.1-1v-1.8h0Z"/>
    <path class="cls-4" d="M309.1,379.9h1.9v6.3h0c.3-.5.8-1,1.3-1.3.5-.3,1.2-.5,1.9-.5,1.4,0,3.5.8,3.5,4.4v6h-1.9v-5.8c0-1.6-.6-3-2.4-3s-2.1.8-2.5,1.9c-.1.2-.1.5-.1.9v6.1h-1.9v-14.9h0Z"/>
    <path class="cls-4" d="M326,384.6l2,5.7c.3.9.6,1.8.8,2.6h0c.2-.8.5-1.7.9-2.6l2-5.7h1.9l-4,10.2h-1.8l-3.9-10.2h2Z"/>
    <path class="cls-4" d="M337.4,381.8c0,.6-.4,1.1-1.2,1.1s-1.1-.5-1.1-1.1.5-1.1,1.1-1.1,1.1.5,1.1,1.1h0ZM335.3,394.8v-10.2h1.9v10.2h-1.9Z"/>
    <path class="cls-4" d="M340,392.9c.5.4,1.5.7,2.4.7,1.3,0,2-.7,2-1.5s-.5-1.4-1.9-1.9c-1.8-.6-2.7-1.7-2.7-2.9s1.3-3,3.5-3,1.9.3,2.5.6l-.5,1.3c-.4-.2-1.1-.6-2.1-.6s-1.7.6-1.7,1.4.6,1.2,1.9,1.7c1.8.7,2.7,1.5,2.7,3.1s-1.4,3-3.8,3-2.1-.3-2.9-.7l.5-1.4h0Z"/>
    <path class="cls-4" d="M357.1,392c0,1,0,2,0,2.8h-1.6v-1.7h-.1c-.5.8-1.5,1.9-3.4,1.9s-3.5-.9-3.5-4.5v-5.9h1.9v5.6c0,1.9.6,3.2,2.3,3.2s2.1-.9,2.4-1.7c.1-.3.2-.6.2-.9v-6.2h1.9v7.4h0Z"/>
    <path class="cls-4" d="M365.8,394.8v-1.3h-.2c-.6.8-1.7,1.5-3.1,1.5-2.1,0-3.1-1.5-3.1-2.9,0-2.5,2.2-3.8,6.1-3.8v-.2c0-.8-.2-2.4-2.3-2.4s-1.9.3-2.6.8l-.4-1.2c.8-.5,2.1-.9,3.3-.9,3.1,0,3.9,2.1,3.9,4.2v3.8c0,.9,0,1.7.2,2.4h-1.7,0ZM365.5,389.6c-2,0-4.3.3-4.3,2.3s.8,1.8,1.7,1.8,2.2-.8,2.5-1.7c0-.2.1-.4.1-.6v-1.8Z"/>
    <path class="cls-4" d="M370.3,379.9h1.9v14.9h-1.9v-14.9Z"/>
    <path class="cls-4" d="M385.3,394.8v-1.3h-.2c-.6.8-1.7,1.5-3.1,1.5-2.1,0-3.1-1.5-3.1-2.9,0-2.5,2.2-3.8,6.1-3.8v-.2c0-.8-.2-2.4-2.3-2.4s-1.9.3-2.6.8l-.4-1.2c.8-.5,2.1-.9,3.3-.9,3.1,0,3.9,2.1,3.9,4.2v3.8c0,.9,0,1.7.2,2.4h-1.7,0ZM385,389.6c-2,0-4.3.3-4.3,2.3s.8,1.8,1.7,1.8,2.2-.8,2.5-1.7c0-.2.1-.4.1-.6v-1.8Z"/>
    <path class="cls-4" d="M389.8,387.8c0-1.2,0-2.2,0-3.2h1.6v2h.1c.5-1.4,1.6-2.2,2.8-2.2s.4,0,.5,0v1.7c-.2,0-.4,0-.6,0-1.3,0-2.2,1-2.5,2.4,0,.2,0,.5,0,.9v5.4h-1.8v-7h0Z"/>
    <path class="cls-4" d="M399.4,381.7v2.9h2.6v1.4h-2.6v5.5c0,1.3.4,2,1.4,2s.8,0,1.1-.1v1.4c-.3.1-.8.2-1.6.2s-1.5-.3-2-.8c-.5-.5-.7-1.5-.7-2.6v-5.5h-1.6v-1.4h1.6v-2.4l1.8-.5h0Z"/>
  </g>
  <image class="cls-12" width="1171" height="1472" transform="translate(446.7 33) scale(.3)" xlink:href="WEB_WEBY_desktop-1.png"/>
  <g class="cls-12">
    <text class="cls-2" transform="translate(448.2 444.2)"><tspan x="0" y="0">Artwork title “5D”</tspan></text>
    <text class="cls-2" transform="translate(448.2 462.2)"><tspan x="0" y="0" xml:space="preserve">2019/2020  </tspan></text>
  </g>
  <g class="cls-12">
    <text class="cls-8" transform="translate(58.1 502.4) scale(.9 1)"><tspan x="0" y="0" xml:space="preserve">Šarlote has beenworking 3 years with people 1 : 1 as an  </tspan></text>
    <text class="cls-8" transform="translate(58.2 523.2) scale(.9 1)"><tspan x="0" y="0">coach/psychic and created her first mural artwork for </tspan></text>
    <text class="cls-8" transform="translate(58.2 544) scale(.9 1)"><tspan x="0" y="0">an humanitarian place called “ Samarija ” located in </tspan></text>
    <text class="cls-8" transform="translate(58.2 564.7) scale(.9 1)"><tspan x="0" y="0">Aizpute, Latvia</tspan></text>
    <text class="cls-8" transform="translate(58.3 606.3) scale(.9 1)"><tspan x="0" y="0">Mural artwork title “ home temple ” </tspan></text>
    <text class="cls-8" transform="translate(58.3 627) scale(.9 1)"><tspan x="0" y="0">2021/2022</tspan></text>
  </g>
  <image class="cls-12" width="4032" height="3024" transform="translate(443 489) scale(.2 .1)" xlink:href="WEB_WEBY_desktop-2.png"/>
  <image class="cls-12" width="4032" height="3024" transform="translate(1050 33) rotate(90) scale(0)" xlink:href="WEB_WEBY_desktop-3.png"/>
  <image class="cls-12" width="4032" height="3024" transform="translate(429 640.6) rotate(90) scale(0)" xlink:href="WEB_WEBY_desktop-4.png"/>
  <g class="cls-12">
    <text class="cls-11" transform="translate(54.2 1394.9)"><tspan x="0" y="0">Šarlote makes personalised artowork on </tspan></text>
    <text class="cls-11" transform="translate(54.2 1419.1)"><tspan x="0" y="0">canvas, as murals and digital artwork, any </tspan></text>
    <text class="cls-11" transform="translate(54.2 1443.3)"><tspan x="0" y="0">wish for a being percieved from the astral </tspan></text>
    <text class="cls-11" transform="translate(54.2 1467.5)"><tspan x="0" y="0">ocean can be made as a product trough a </tspan></text>
    <text class="cls-11" transform="translate(54.2 1491.8)"><tspan x="0" y="0">call session manifest</tspan></text>
    <text class="cls-11" transform="translate(54.2 1516)"><tspan x="0" y="0"> </tspan></text>
    <text class="cls-11" transform="translate(54.2 1540.2)"><tspan x="0" y="0">Contact : creatrix933@gmail.com or</tspan></text>
    <text class="cls-11" transform="translate(54.2 1564.4)"><tspan x="0" y="0" xml:space="preserve">IG :  creatrix933</tspan></text>
  </g>
  <g class="cls-12">
    <text class="cls-7" transform="translate(291 933.9) scale(1.1 1)"><tspan x="0" y="0">Artwork title “PLUTO”</tspan></text>
    <text class="cls-7" transform="translate(291 947) scale(1.1 1)"><tspan x="0" y="0">2022/2023</tspan></text>
  </g>
  <g class="cls-12">
    <text class="cls-2" transform="translate(749 446.1)"><tspan x="0" y="0">Artwork tittled</tspan></text>
  </g>
  <g class="cls-12">
    <text class="cls-6" transform="translate(843.6 446.1) scale(.9 1)"><tspan x="0" y="0" xml:space="preserve"> ” the choice ” </tspan></text>
    <text class="cls-6" transform="translate(749.4 467.7) scale(.9 1)"><tspan x="0" y="0">2018</tspan></text>
  </g>
  <image class="cls-12" width="3088" height="2316" transform="translate(54 1589.8) rotate(89.6) scale(0 -.1)" xlink:href="WEB_WEBY_desktop-5.png"/>
  <g class="cls-12">
    <text class="cls-3" transform="translate(496 1761.7)"><tspan x="0" y="0">thank you for the visit</tspan></text>
  </g>
  <g class="cls-12">
    <text class="cls-1" transform="translate(63.1 981.7) scale(.9 1)"><tspan x="0" y="0">Inner transformation</tspan></text>
  </g>
  <g class="cls-12">
    <text class="cls-5" transform="translate(62.1 1010.6) scale(.7 1)"><tspan x="0" y="0">Many in the spiritual communitty talk about the dark night of </tspan></text>
    <text class="cls-5" transform="translate(62.1 1027.7) scale(.7 1)"><tspan x="0" y="0">the soul, as I went trough my second dark night of the soul </tspan></text>
    <text class="cls-5" transform="translate(62.1 1044.9) scale(.7 1)"><tspan x="0" y="0">very recently I started to pay more attention to understand it </tspan></text>
    <text class="cls-5" transform="translate(62.1 1062) scale(.7 1)"><tspan x="0" y="0">in a wordly but still subjective manner.</tspan></text>
    <text class="cls-5" transform="translate(62.1 1096.3) scale(.7 1)"><tspan x="0" y="0">I see the dark night as a nervous system breakdown and an </tspan></text>
    <text class="cls-5" transform="translate(62.1 1113.4) scale(.7 1)"><tspan x="0" y="0">identitty crisis of who you used to be as you continue to grow </tspan></text>
    <text class="cls-5" transform="translate(62.1 1130.6) scale(.7 1)"><tspan x="0" y="0">out of your survival personalitties, your nervous system goes </tspan></text>
    <text class="cls-5" transform="translate(62.1 1147.7) scale(.7 1)"><tspan x="0" y="0">into a fight, flight or freeze (where the last one I am most </tspan></text>
    <text class="cls-5" transform="translate(62.1 1164.8) scale(.7 1)"><tspan x="0" y="0">familiar with subdivides to either excessive anger or dissocia-</tspan></text>
    <text class="cls-5" transform="translate(305.9 1164.8) scale(.7 1)"><tspan x="0" y="0">-</tspan></text>
    <text class="cls-5" transform="translate(62.1 1182) scale(.7 1)"><tspan x="0" y="0">tion where you leave your body as a dear in distress about to </tspan></text>
    <text class="cls-5" transform="translate(62.1 1199.1) scale(.7 1)"><tspan x="0" y="0">be eaten, you loose any sense of your personalitty in the </tspan></text>
    <text class="cls-5" transform="translate(62.1 1216.3) scale(.7 1)"><tspan x="0" y="0" xml:space="preserve">process of  discontinual stress response) for reconciliation </tspan></text>
    <text class="cls-5" transform="translate(62.1 1233.4) scale(.7 1)"><tspan x="0" y="0">and transforming the trauma I would suggest cleansing the </tspan></text>
    <text class="cls-5" transform="translate(62.1 1250.5) scale(.7 1)"><tspan x="0" y="0" xml:space="preserve">mind  - brain harmonisation, somatic exersises to bring your </tspan></text>
    <text class="cls-5" transform="translate(62.1 1267.7) scale(.7 1)"><tspan x="0" y="0">heart back into play to guide you back to your truth, the self </tspan></text>
    <text class="cls-5" transform="translate(62.1 1284.8) scale(.7 1)"><tspan x="0" y="0">that arises and guides without the many personalitties com-</tspan></text>
    <text class="cls-5" transform="translate(304.2 1284.8) scale(.7 1)"><tspan x="0" y="0">-</tspan></text>
    <text class="cls-5" transform="translate(62.1 1301.9) scale(.7 1)"><tspan x="0" y="0">menting on others and yourself and in the process removing </tspan></text>
    <text class="cls-5" transform="translate(62.1 1319.1) scale(.7 1)"><tspan x="0" y="0">dopamine as well, all that is stimulating to find a way to brin you </tspan></text>
    <text class="cls-5" transform="translate(62.1 1336.2) scale(.7 1)"><tspan x="0" y="0">back into your body, into the now and feeling safe.</tspan></text>
  </g>
  <image class="cls-12" width="921" height="1094" transform="translate(443 972.4) scale(.2 .2)" xlink:href="WEB_WEBY_desktop-6.png"/>
  <image class="cls-12" width="918" height="1101" transform="translate(645.4 971.5) scale(.2)" xlink:href="WEB_WEBY_desktop-7.png"/>
  <image class="cls-12" width="922" height="1107" transform="translate(844.5 971) scale(.2 .2)" xlink:href="WEB_WEBY_desktop-8.png"/>
  <g class="cls-12">
    <text class="cls-10" transform="translate(639.2 1234.7)"><tspan x="0" y="0">transforming trauma </tspan></text>
    <text class="cls-2" transform="translate(763.4 1234.7)"><tspan x="0" y="0">, latest pieces </tspan></text>
    <text class="cls-10" transform="translate(639.2 1251.5)"><tspan x="0" y="0" xml:space="preserve">2024  </tspan></text>
  </g>
  <image class="cls-12" width="2480" height="3508" transform="translate(446 1318.7) rotate(-.2) scale(0 0)" xlink:href="WEB_WEBY_desktop-9.png"/>
  <g class="cls-12">
    <text class="cls-10" transform="translate(462.4 1607)"><tspan x="0" y="0">Artowk tittled </tspan></text>
    <text class="cls-2" transform="translate(546 1607)"><tspan x="0" y="0">“vortex“</tspan></text>
    <text class="cls-2" transform="translate(462.4 1625)"><tspan x="0" y="0">2023</tspan></text>
  </g>
  <image class="cls-12" width="2481" height="3015" transform="translate(645.2 1316.3) scale(0)" xlink:href="WEB_WEBY_desktop-10.png"/>
  <g class="cls-12">
    <text class="cls-10" transform="translate(665.5 1601.7)"><tspan x="0" y="0">Artwork tittled </tspan></text>
    <text class="cls-2" transform="translate(753.7 1601.7)"><tspan x="0" y="0">“Web of life “</tspan></text>
    <text class="cls-2" transform="translate(665.5 1619.7)"><tspan x="0" y="0">2023</tspan></text>
  </g>
  <image class="cls-12" width="2480" height="2991" transform="translate(844.5 1316.7) scale(0)" xlink:href="WEB_WEBY_desktop-11.png"/>
  <g class="cls-12">
    <text class="cls-10" transform="translate(879.7 1599.1)"><tspan x="0" y="0">Artwork tittled </tspan></text>
    <text class="cls-2" transform="translate(967.9 1599.1)"><tspan x="0" y="0">“Higher self</tspan></text>
    <text class="cls-10" transform="translate(1040.2 1599.1)"><tspan x="0" y="0"> </tspan></text>
    <text class="cls-2" transform="translate(1043.2 1599.1)"><tspan x="0" y="0">“</tspan></text>
    <text class="cls-2" transform="translate(879.7 1617.1)"><tspan x="0" y="0">2023</tspan></text>
  </g>
</svg>